<?xml version="1.0" encoding="utf-8"?>
<svg version="1.1" id="allgames" x="0px" y="0px" viewBox="0 0 200 40" xmlns="http://www.w3.org/2000/svg">
  <path d="M 47.87 22.295 L 42.17 22.295 L 41.78 24.575 L 48.77 24.575 L 47.93 29.375 L 35.24 29.375 L 38.54 10.625 L 51.08 10.625 L 49.52 15.425 L 43.37 15.425 L 42.95 17.945 L 48.65 17.945 L 47.87 22.295 Z M 56.539 29.375 L 50.599 29.375 L 54.979 10.625 L 62.419 10.625 L 62.959 20.165 L 63.169 20.165 L 67.069 10.625 L 74.509 10.625 L 72.289 29.375 L 66.319 29.375 L 67.579 20.285 L 67.369 20.285 L 63.619 29.375 L 59.269 29.375 L 58.639 20.285 L 58.489 20.285 L 56.539 29.375 Z M 84.05 10.625 L 81.56 24.695 L 83.6 24.695 C 84.3 24.695 84.8 24.6 85.1 24.41 C 85.4 24.22 85.61 23.785 85.73 23.105 L 87.95 10.625 L 93.65 10.625 L 91.79 21.155 C 91.49 22.855 91.145 24.225 90.755 25.265 C 90.365 26.305 89.82 27.185 89.12 27.905 C 88.42 28.625 87.555 29.125 86.525 29.405 C 85.495 29.685 84.19 29.825 82.61 29.825 C 80.19 29.825 78.495 29.46 77.525 28.73 C 76.555 28 76.07 26.745 76.07 24.965 C 76.07 23.985 76.21 22.715 76.49 21.155 L 78.35 10.625 L 84.05 10.625 Z M 105.079 29.375 L 93.679 29.375 L 96.979 10.625 L 102.679 10.625 L 100.219 24.575 L 105.919 24.575 L 105.079 29.375 Z M 109.219 29.375 L 103.219 29.375 L 111.109 10.625 L 119.929 10.625 L 121.249 29.375 L 115.219 29.375 L 115.099 26.405 L 110.389 26.405 L 109.219 29.375 Z M 114.349 16.385 L 112.249 21.635 L 114.649 21.635 L 114.649 16.385 L 114.349 16.385 Z M 137.209 15.425 L 133.069 15.425 L 130.639 29.375 L 124.939 29.375 L 127.369 15.425 L 123.259 15.425 L 124.129 10.625 L 138.079 10.625 L 137.209 15.425 Z M 144.65 16.895 L 143.27 24.695 L 145.64 24.695 C 146.42 24.695 147 24.6 147.38 24.41 C 147.76 24.22 148.01 23.785 148.13 23.105 L 149.51 15.305 L 147.11 15.305 C 146.35 15.305 145.78 15.4 145.4 15.59 C 145.02 15.78 144.77 16.215 144.65 16.895 Z M 148.1 10.175 C 150.64 10.175 152.45 10.67 153.53 11.66 C 154.61 12.65 155.15 14.175 155.15 16.235 C 155.15 18.295 154.825 20.45 154.175 22.7 C 153.525 24.95 152.495 26.7 151.085 27.95 C 149.675 29.2 147.615 29.825 144.905 29.825 C 142.195 29.825 140.3 29.33 139.22 28.34 C 138.14 27.35 137.6 25.825 137.6 23.765 C 137.6 22.785 137.74 21.49 138.02 19.88 C 138.3 18.27 138.67 16.88 139.13 15.71 C 139.59 14.54 140.21 13.525 140.99 12.665 C 142.49 11.005 144.86 10.175 148.1 10.175 Z M 171.62 29.375 L 165.35 29.375 L 163.97 23.795 L 162.74 23.795 L 161.78 29.375 L 156.08 29.375 L 159.38 10.625 L 168.38 10.625 C 171.8 10.625 173.51 12.155 173.51 15.215 C 173.51 16.475 173.32 17.675 172.94 18.815 C 172.24 20.975 171.14 22.415 169.64 23.135 L 171.62 29.375 Z M 164.21 15.425 L 163.55 19.175 L 164.87 19.175 C 165.55 19.175 166.065 19.1 166.415 18.95 C 166.765 18.8 167.005 18.37 167.135 17.66 C 167.265 16.95 167.33 16.515 167.33 16.355 C 167.33 15.955 167.175 15.7 166.865 15.59 C 166.555 15.48 166.05 15.425 165.35 15.425 L 164.21 15.425 Z M 173.51 29.045 L 175.19 24.095 C 176.87 24.555 178.41 24.785 179.81 24.785 C 181.21 24.785 182.34 24.725 183.2 24.605 L 183.44 23.105 L 180.95 22.865 C 179.05 22.685 177.705 22.255 176.915 21.575 C 176.125 20.895 175.73 19.935 175.73 18.695 C 175.73 18.155 175.79 17.555 175.91 16.895 C 176.37 14.335 177.205 12.575 178.415 11.615 C 179.625 10.655 181.5 10.175 184.04 10.175 C 186.58 10.175 188.82 10.425 190.76 10.925 L 189.2 15.725 C 187.46 15.425 186.06 15.275 185 15.275 C 183.94 15.275 183.04 15.325 182.3 15.425 L 182.06 16.895 L 184.07 17.105 C 186.11 17.325 187.56 17.81 188.42 18.56 C 189.28 19.31 189.71 20.315 189.71 21.575 C 189.71 22.855 189.43 24.175 188.87 25.535 C 188.59 26.235 188.285 26.82 187.955 27.29 C 187.625 27.76 187.205 28.16 186.695 28.49 C 186.185 28.82 185.72 29.07 185.3 29.24 C 184.88 29.41 184.35 29.535 183.71 29.615 C 182.77 29.755 181.62 29.825 180.26 29.825 C 177.78 29.825 175.53 29.565 173.51 29.045 Z" style="fill: rgb(255, 255, 255); white-space: pre;"/>
  <path d="M 16.115 10.938 C 16.115 10.418 15.697 10 15.178 10 C 14.658 10 14.24 10.418 14.24 10.938 L 14.24 12.5 C 12.861 12.5 11.74 13.621 11.74 15 L 10.178 15 C 9.658 15 9.24 15.418 9.24 15.938 C 9.24 16.457 9.658 16.875 10.178 16.875 L 11.74 16.875 L 11.74 19.063 L 10.178 19.063 C 9.658 19.063 9.24 19.48 9.24 20 C 9.24 20.52 9.658 20.938 10.178 20.938 L 11.74 20.938 L 11.74 23.125 L 10.178 23.125 C 9.658 23.125 9.24 23.543 9.24 24.063 C 9.24 24.582 9.658 25 10.178 25 L 11.74 25 C 11.74 26.379 12.861 27.5 14.24 27.5 L 14.24 29.063 C 14.24 29.582 14.658 30 15.178 30 C 15.697 30 16.115 29.582 16.115 29.063 L 16.115 27.5 L 18.303 27.5 L 18.303 29.063 C 18.303 29.582 18.72 30 19.24 30 C 19.76 30 20.178 29.582 20.178 29.063 L 20.178 27.5 L 22.365 27.5 L 22.365 29.063 C 22.365 29.582 22.783 30 23.303 30 C 23.822 30 24.24 29.582 24.24 29.063 L 24.24 27.5 C 25.619 27.5 26.74 26.379 26.74 25 L 28.303 25 C 28.822 25 29.24 24.582 29.24 24.063 C 29.24 23.543 28.822 23.125 28.303 23.125 L 26.74 23.125 L 26.74 20.938 L 28.303 20.938 C 28.822 20.938 29.24 20.52 29.24 20 C 29.24 19.48 28.822 19.063 28.303 19.063 L 26.74 19.063 L 26.74 16.875 L 28.303 16.875 C 28.822 16.875 29.24 16.457 29.24 15.938 C 29.24 15.418 28.822 15 28.303 15 L 26.74 15 C 26.74 13.621 25.619 12.5 24.24 12.5 L 24.24 10.938 C 24.24 10.418 23.822 10 23.303 10 C 22.783 10 22.365 10.418 22.365 10.938 L 22.365 12.5 L 20.178 12.5 L 20.178 10.938 C 20.178 10.418 19.76 10 19.24 10 C 18.72 10 18.303 10.418 18.303 10.938 L 18.303 12.5 L 16.115 12.5 L 16.115 10.938 Z M 15.49 15 L 22.99 15 C 23.681 15 24.24 15.559 24.24 16.25 L 24.24 23.75 C 24.24 24.441 23.681 25 22.99 25 L 15.49 25 C 14.799 25 14.24 24.441 14.24 23.75 L 14.24 16.25 C 14.24 15.559 14.799 15 15.49 15 Z M 22.99 16.25 L 15.49 16.25 L 15.49 23.75 L 22.99 23.75 L 22.99 16.25 Z" style="fill: rgb(255, 255, 255); fill-opacity: 0.5;"/>
</svg>