<?xml version="1.0" encoding="utf-8"?>
<!-- Generator: Adobe Illustrator 26.5.0, SVG Export Plug-In . SVG Version: 6.00 Build 0)  -->
<svg version="1.1" id="Layer_1" xmlns="http://www.w3.org/2000/svg" xmlns:xlink="http://www.w3.org/1999/xlink" x="0px" y="0px"
	 viewBox="0 0 3839 437.04" style="enable-background:new 0 0 3839 437.04;" xml:space="preserve">
<style type="text/css">
	.st0{fill:#FFFFFF;}
	.st1{fill:#FFFFFF;stroke:#000000;stroke-width:6.18;stroke-linecap:round;stroke-linejoin:round;stroke-miterlimit:10;}
	.st2{fill:none;stroke:#000000;stroke-width:6.18;stroke-linecap:round;stroke-linejoin:round;stroke-miterlimit:10;}
	.st3{stroke:#FFFFFF;stroke-width:6.18;stroke-linecap:round;stroke-linejoin:round;stroke-miterlimit:10;}
	.st4{fill:none;stroke:#FFFFFF;stroke-width:6.18;stroke-linecap:round;stroke-linejoin:round;stroke-miterlimit:10;}
</style>
<g>
	<polygon class="st0" points="652.59,428.71 644.27,437.04 823.67,437.04 823.05,436.41 790.38,403.75 677.56,403.75 	"/>
	<path class="st0" d="M550.9,48.77c-0.11,0.19-0.23,0.38-0.34,0.58c-0.13,0.23-0.27,0.46-0.41,0.69c-0.06,0.11-0.13,0.22-0.19,0.33
		c9.81-8.46,22.76-15.14,39.71-16.72c0.05-0.01,0.1-0.01,0.16-0.02c1.07-0.1,2.15-0.17,3.25-0.23c0.18-0.01,0.35-0.03,0.53-0.03
		c1.26-0.06,2.54-0.09,3.85-0.09h192.93L823.67,0H597.46c-24.55,0-44.52,19.97-44.52,44.52c0,0.57-0.16,1.13-0.45,1.61
		c-0.19,0.31-0.39,0.65-0.6,0.99c-0.08,0.13-0.16,0.27-0.24,0.41c-0.13,0.22-0.26,0.43-0.4,0.66
		C551.13,48.38,551.02,48.58,550.9,48.77z"/>
	<path class="st0" d="M536.25,77.45c-0.13,0.24-0.26,0.48-0.39,0.71c-0.17,0.32-0.34,0.64-0.51,0.96c-0.03,0.06-0.06,0.11-0.09,0.17
		c-5.34,10.3-7.29,18.65-7.32,18.76c-0.01,0.04-0.02,0.07-0.03,0.11c-0.02,0.09-0.05,0.17-0.08,0.25c-0.03,0.09-0.07,0.18-0.11,0.27
		c-0.04,0.08-0.08,0.16-0.12,0.23c-0.05,0.08-0.1,0.16-0.15,0.24c-0.05,0.07-0.1,0.14-0.16,0.2c-0.06,0.07-0.12,0.14-0.19,0.2
		c-0.06,0.06-0.12,0.12-0.19,0.18c-0.07,0.06-0.14,0.11-0.22,0.16c-0.07,0.05-0.14,0.1-0.22,0.15c-0.08,0.05-0.16,0.08-0.24,0.12
		c-0.08,0.04-0.16,0.08-0.24,0.11c-0.09,0.03-0.19,0.06-0.28,0.08c-0.08,0.02-0.16,0.05-0.24,0.06c-0.14,0.03-0.29,0.04-0.43,0.04
		c-0.04,0-0.08,0.01-0.11,0.01c-0.05,0-0.11,0-0.16,0c-0.05,0-0.1-0.02-0.16-0.02c-0.06-0.01-0.13-0.01-0.19-0.02
		c-0.04-0.01-0.07-0.02-0.11-0.03c-0.11-0.02-0.22-0.05-0.33-0.09c-0.08-0.03-0.16-0.05-0.24-0.09c-0.1-0.04-0.2-0.09-0.29-0.14
		c-0.08-0.04-0.15-0.09-0.23-0.13c-0.09-0.06-0.17-0.12-0.25-0.18c-0.07-0.06-0.14-0.12-0.2-0.18c-0.07-0.07-0.14-0.14-0.2-0.22
		c-0.06-0.07-0.12-0.14-0.17-0.22c-0.06-0.08-0.11-0.16-0.16-0.25c-0.05-0.08-0.09-0.16-0.13-0.25c-0.04-0.09-0.07-0.18-0.11-0.27
		c-0.03-0.09-0.06-0.19-0.09-0.29c-0.02-0.09-0.04-0.18-0.05-0.28c-0.02-0.1-0.03-0.21-0.03-0.31c0-0.05-0.01-0.09-0.01-0.14v-0.1
		V40.81L316.57,39.6l-2.06-0.01c-0.05,0-0.09,0-0.14,0c-7.92,0-15.22,3.96-19.54,10.61L69.21,397.54h120.54l183.25-282.12
		c0.07-0.11,0.17-0.2,0.25-0.3c0.07-0.09,0.14-0.18,0.22-0.26c0.02-0.01,0.03-0.03,0.04-0.05c0.06-0.05,0.12-0.09,0.18-0.13
		c0.05-0.04,0.09-0.07,0.14-0.1c0.09-0.06,0.16-0.13,0.26-0.18c0.02-0.01,0.04-0.02,0.06-0.03c0.08-0.04,0.16-0.06,0.25-0.1
		c0.06-0.02,0.11-0.05,0.17-0.07c0.08-0.03,0.16-0.07,0.24-0.1c0.02-0.01,0.04-0.01,0.07-0.01c0.1-0.02,0.21-0.02,0.31-0.04
		c0.14-0.02,0.27-0.05,0.41-0.05h129.91c0.16,0,0.32,0.02,0.47,0.04c0.01,0,0.03,0,0.04,0c0.04,0.01,0.08,0.02,0.12,0.03
		c0.1,0.02,0.2,0.05,0.3,0.08c0.02,0.01,0.05,0.01,0.08,0.02c0.03,0.01,0.07,0.03,0.1,0.04c0.09,0.03,0.18,0.07,0.27,0.12
		c0.03,0.02,0.07,0.03,0.1,0.05c0.02,0.01,0.04,0.02,0.06,0.03c0.1,0.06,0.2,0.12,0.29,0.19c0.03,0.02,0.05,0.03,0.08,0.05
		c0.01,0,0.01,0.01,0.02,0.01c0.12,0.09,0.23,0.2,0.34,0.31c0.03,0.03,0.06,0.07,0.09,0.11c0.07,0.08,0.14,0.17,0.2,0.25
		c0.02,0.02,0.03,0.04,0.05,0.07c0.02,0.03,0.03,0.07,0.05,0.1c0.03,0.04,0.05,0.08,0.08,0.12c0.01,0.02,0.01,0.05,0.03,0.07
		c0.03,0.05,0.06,0.11,0.09,0.16c0.06,0.13,0.1,0.27,0.14,0.41c0.01,0.03,0.02,0.05,0.03,0.07c0,0,0,0,0,0c0,0.01,0,0.03,0.01,0.04
		c0.01,0.03,0.01,0.06,0.01,0.08c0.03,0.13,0.05,0.25,0.06,0.38c0.01,0.08,0,0.16,0,0.24c0,0.02,0,0.04,0,0.06c0,0.04,0,0.08,0,0.12
		c0,0.03,0,0.06,0,0.09c-0.01,0.09-0.03,0.17-0.04,0.26c-0.01,0.08-0.02,0.17-0.04,0.25c-0.01,0.04-0.03,0.08-0.04,0.12
		c-0.01,0.05-0.03,0.09-0.05,0.13c0,0.01,0,0.01-0.01,0.01c-0.03,0.07-0.04,0.14-0.07,0.21c-0.07,0.16-0.15,0.31-0.24,0.45
		c0,0,0,0,0,0L327.07,397.54h120.54c2.24-3.45,8.46-13.02,17.26-26.58c0.13-0.2,0.26-0.4,0.39-0.61c4.61-7.1,9.92-15.28,15.73-24.22
		c0.18-0.28,0.37-0.57,0.55-0.85c6.59-10.14,13.8-21.25,21.37-32.9c0.4-0.61,0.79-1.22,1.19-1.84c3.86-5.94,7.81-12.02,11.8-18.17
		c0.36-0.55,0.71-1.1,1.07-1.65c1.43-2.2,2.87-4.42,4.31-6.64c0.08-0.13,0.17-0.26,0.25-0.39c3.28-5.05,6.58-10.13,9.88-15.22
		c0.29-0.45,0.58-0.9,0.88-1.35c3.21-4.94,6.41-9.87,9.6-14.78c0.42-0.65,0.85-1.31,1.27-1.96c0.69-1.07,1.39-2.13,2.08-3.2
		c0.8-1.24,1.61-2.47,2.41-3.71c0.83-1.27,1.65-2.54,2.47-3.81c0.34-0.52,0.68-1.05,1.02-1.57c1.84-2.83,3.67-5.65,5.48-8.44
		c0.81-1.25,1.62-2.49,2.42-3.72c2.94-4.52,5.82-8.97,8.65-13.32c2.42-3.72,4.79-7.37,7.11-10.94c2.08-3.21,4.12-6.35,6.11-9.41
		c0.99-1.53,1.97-3.04,2.94-4.53c1.32-2.03,2.62-4.03,3.89-5.99c11.34-17.46,20.49-31.54,25.84-39.78c0.9-1.39,1.86-2.75,2.87-4.07
		c3.02-3.96,6.5-7.57,10.37-10.78l0.28-0.23c5.64-4.67,12.01-8.31,18.8-10.8c1-0.37,2.01-0.72,3.02-1.04
		c0.12-0.04,0.24-0.07,0.35-0.1c6.06-1.86,12.39-2.83,18.8-2.83c0.05,0,0.1,0,0.15,0l8.02,0.02c0.04,0,0.07,0.01,0.11,0.01
		c0.13,0,0.25,0.02,0.38,0.04c0.07,0.01,0.14,0.02,0.21,0.04c0.03,0.01,0.06,0.01,0.09,0.02c0,0,0.01,0,0.01,0
		c0.01,0,0.02,0.01,0.04,0.01c0.08,0.02,0.15,0.05,0.22,0.08c0.06,0.02,0.12,0.04,0.18,0.07c0.08,0.03,0.15,0.08,0.23,0.12
		c0.05,0.02,0.09,0.05,0.13,0.07c0.04,0.03,0.09,0.05,0.13,0.07c0.01,0.01,0.02,0.02,0.04,0.03c0.14,0.1,0.27,0.21,0.39,0.32
		c0.01,0.01,0.02,0.02,0.03,0.02c0.03,0.03,0.06,0.07,0.09,0.11c0.08,0.09,0.16,0.19,0.24,0.29c0.04,0.06,0.08,0.12,0.11,0.18
		c0,0,0,0,0,0.01c0.01,0.02,0.03,0.04,0.05,0.06c0.01,0.01,0.01,0.02,0.01,0.03c0.04,0.07,0.07,0.14,0.1,0.21
		c0.03,0.07,0.06,0.13,0.09,0.2c0.03,0.08,0.06,0.16,0.08,0.25c0.01,0.05,0.03,0.09,0.04,0.14c0.01,0.05,0.03,0.1,0.04,0.16
		c0.03,0.18,0.05,0.36,0.05,0.54c0,0.01,0,0.02,0,0.02c0,0,0,0,0,0.01v282.29h109.19V39.5H597.46c-0.81,0-1.61,0.01-2.41,0.04
		c-0.18,0.01-0.35,0.01-0.53,0.02c-0.65,0.02-1.3,0.05-1.94,0.09c-0.12,0.01-0.24,0.02-0.36,0.02
		c-30.08,2.04-46.91,21.45-55.73,37.34C536.41,77.16,536.33,77.3,536.25,77.45z"/>
	<polygon class="st0" points="431.98,153.5 493.29,120.22 380.83,120.22 398.9,153.5 	"/>
	<path class="st0" d="M634.12,182.92l36.81-64.59l-2.67-0.01h-0.01c-0.28,0-0.55,0.01-0.83,0.02c-12.4,0.15-24.48,4.29-34.35,11.76
		c-0.67,0.51-1.33,1.03-1.98,1.57l-0.28,0.23c-2.13,1.77-4.13,3.68-5.98,5.7c-2.21,2.42-4.23,5-6.01,7.75
		c-14.11,21.73-54.63,84.11-92.2,141.97c-0.63,0.97-1.25,1.93-1.88,2.89c-1.38,2.12-2.75,4.23-4.11,6.33
		c-1.13,1.74-2.25,3.47-3.37,5.19c-0.84,1.3-1.68,2.59-2.52,3.88c-3.89,5.99-7.72,11.88-11.44,17.61c-0.59,0.91-1.18,1.81-1.76,2.71
		c-0.9,1.39-1.79,2.76-2.68,4.13c-0.1,0.15-0.19,0.3-0.29,0.44c-23.03,35.46-41.27,63.53-45.65,70.28l18.07,33.29L634.12,182.92z"/>
	<polygon class="st0" points="673.17,126.96 639.88,185.36 639.88,432.64 673.17,399.36 	"/>
	<polygon class="st0" points="794.77,399.36 828.06,432.64 828.06,4.39 794.77,37.68 	"/>
	<polygon class="st0" points="322.14,403.75 262.15,436.32 260.83,437.04 465.53,437.04 447.45,403.75 	"/>
	<path class="st0" d="M268.39,18.38L0,431.58l20.04-10.88l41.27-22.41L289.62,46.81c5.47-8.42,14.71-13.44,24.74-13.44c0,0,0,0,0,0
		c0.05,0,0.11,0,0.16,0c0,0,0.01,0,0.01,0l2.57,0.02l206.08,1.22l11.85-19.42L544.3,0H302.25C288.53,0,275.87,6.87,268.39,18.38z"/>
	<polygon class="st0" points="64.28,403.75 4.7,436.09 2.96,437.04 207.66,437.04 189.59,403.75 	"/>
	<path class="st0" d="M528.03,38.59v40c0.12-0.27,0.25-0.54,0.37-0.81c0.05-0.12,0.11-0.24,0.16-0.36c0.28-0.61,0.56-1.21,0.85-1.82
		c0.06-0.13,0.12-0.26,0.18-0.39c0.25-0.52,0.5-1.04,0.75-1.56c0.06-0.13,0.12-0.26,0.19-0.39c0.29-0.61,0.59-1.21,0.89-1.82
		c0.07-0.13,0.13-0.27,0.2-0.4c0.25-0.51,0.51-1.02,0.77-1.53c0.07-0.14,0.14-0.28,0.21-0.42c0.3-0.6,0.61-1.19,0.91-1.79
		c0.07-0.13,0.14-0.26,0.2-0.4c0.26-0.49,0.51-0.98,0.77-1.47c0.08-0.15,0.16-0.3,0.23-0.45c0.31-0.58,0.61-1.16,0.91-1.73
		c0.06-0.12,0.13-0.24,0.19-0.36c0.26-0.48,0.51-0.96,0.77-1.43c0.08-0.15,0.16-0.29,0.24-0.44c0.3-0.55,0.6-1.1,0.89-1.64
		c0.06-0.12,0.13-0.23,0.19-0.34c0.25-0.45,0.49-0.9,0.74-1.34c0.08-0.14,0.16-0.29,0.24-0.43c0.28-0.51,0.57-1.02,0.84-1.52
		c0.06-0.11,0.12-0.21,0.18-0.32c0.23-0.41,0.46-0.82,0.68-1.21c0.08-0.14,0.16-0.29,0.24-0.43c0.26-0.46,0.52-0.92,0.77-1.36
		c0.06-0.1,0.11-0.19,0.16-0.29c0.21-0.38,0.42-0.74,0.63-1.1c0.07-0.12,0.13-0.23,0.2-0.35c0.24-0.42,0.47-0.82,0.7-1.21
		c0.04-0.07,0.08-0.14,0.12-0.21c0.19-0.34,0.38-0.66,0.56-0.97c0.06-0.1,0.12-0.21,0.18-0.31c0.21-0.35,0.41-0.69,0.59-1.02
		c0.02-0.04,0.04-0.07,0.07-0.11c0.17-0.3,0.34-0.58,0.5-0.84c0.04-0.07,0.09-0.15,0.13-0.22c0.36-0.6,0.66-1.12,0.92-1.55
		c0.01-0.01,0.02-0.03,0.03-0.04c0.13-0.21,0.24-0.41,0.34-0.57V7.95l-10.42,17.08L528.03,38.59z"/>
	<polygon class="st0" points="274.29,422.66 319.18,398.29 374.62,312.94 496.26,125.68 434.94,158.96 257.86,431.58 	"/>
	<polygon class="st0" points="393.44,156.47 375.37,123.18 195.05,400.78 213.12,434.07 	"/>
	<path class="st0" d="M1499.89,18.38l-90.44,139.24l33.29,9.86l78.44-120.76c5.46-8.41,14.72-13.44,24.75-13.44h324.25L1903.45,0
		h-369.71C1520.02,0,1507.36,6.87,1499.89,18.38z"/>
	<polygon class="st0" points="1874.56,37.68 1874.56,86.93 1907.84,120.21 1907.84,4.39 1902.91,9.32 	"/>
	<path class="st0" d="M1526.38,50.11l-79.2,121.93v225.5h445.22v-205h-151.49l-29.63,45.61h68.83c0.05,0,0.09,0.01,0.14,0.01
		c0.08,0,0.16,0.01,0.24,0.02c0.06,0.01,0.12,0.02,0.18,0.03c0.04,0.01,0.08,0.01,0.12,0.02c0.05,0.01,0.1,0.02,0.15,0.04
		c0.08,0.02,0.15,0.05,0.22,0.07c0.05,0.02,0.09,0.03,0.14,0.05c0,0,0.01,0,0.01,0c0.02,0.01,0.04,0.02,0.07,0.03
		c0.07,0.03,0.14,0.07,0.21,0.1c0.07,0.04,0.13,0.07,0.2,0.11c0.02,0.01,0.04,0.02,0.06,0.04c0.01,0.01,0.03,0.02,0.04,0.03
		c0.03,0.02,0.05,0.04,0.08,0.06c0.06,0.05,0.12,0.09,0.18,0.14c0.04,0.04,0.08,0.07,0.12,0.11c0.03,0.03,0.06,0.06,0.09,0.09
		c0.04,0.04,0.08,0.08,0.11,0.12c0.05,0.06,0.09,0.11,0.14,0.17c0.02,0.03,0.05,0.06,0.07,0.09c0.01,0.01,0.02,0.02,0.03,0.04
		c0.01,0.02,0.03,0.05,0.04,0.07c0.04,0.06,0.07,0.12,0.11,0.19c0.04,0.07,0.08,0.14,0.11,0.21c0.01,0.02,0.02,0.04,0.03,0.07
		c0,0,0,0,0,0.01c0.02,0.04,0.03,0.09,0.04,0.13c0.03,0.08,0.05,0.15,0.08,0.23c0.01,0.05,0.03,0.1,0.04,0.15
		c0.01,0.04,0.02,0.08,0.02,0.12c0.01,0.06,0.02,0.12,0.03,0.18c0.01,0.08,0.01,0.16,0.02,0.24c0,0.05,0.01,0.09,0.01,0.14v99.18v0
		c0,0,0,0,0,0c0,0.05-0.01,0.09-0.01,0.14c0,0.08-0.01,0.16-0.02,0.24c-0.01,0.06-0.02,0.12-0.03,0.18
		c-0.01,0.04-0.01,0.08-0.02,0.12c-0.01,0.05-0.02,0.1-0.04,0.14c-0.02,0.08-0.05,0.16-0.08,0.23c-0.02,0.04-0.03,0.09-0.04,0.13
		c0,0,0,0,0,0.01c-0.01,0.02-0.02,0.05-0.03,0.07c-0.03,0.07-0.07,0.14-0.11,0.21c-0.03,0.06-0.07,0.13-0.11,0.19
		c-0.01,0.02-0.02,0.05-0.04,0.07c-0.01,0.02-0.03,0.03-0.04,0.05c-0.02,0.03-0.04,0.05-0.06,0.07c-0.04,0.06-0.09,0.12-0.14,0.18
		c-0.04,0.04-0.07,0.08-0.11,0.12c-0.03,0.03-0.06,0.06-0.09,0.09c-0.04,0.04-0.08,0.07-0.12,0.11c-0.06,0.05-0.12,0.09-0.18,0.14
		c-0.02,0.02-0.05,0.04-0.07,0.06c-0.02,0.01-0.03,0.03-0.05,0.04c-0.02,0.01-0.04,0.02-0.06,0.04c-0.06,0.04-0.13,0.07-0.19,0.11
		c-0.07,0.04-0.13,0.07-0.2,0.1c-0.02,0.01-0.05,0.02-0.07,0.04c0,0,0,0-0.01,0c-0.03,0.01-0.06,0.02-0.1,0.03
		c-0.12,0.04-0.24,0.08-0.36,0.11c-0.04,0.01-0.08,0.03-0.12,0.04c-0.02,0-0.05,0-0.07,0.01c-0.17,0.03-0.34,0.05-0.52,0.05
		c-0.01,0-0.02,0-0.02,0c0,0,0,0,0,0s0,0,0,0h-185c-18.69,0-34.34-13.31-37.95-30.94c-0.52-2.52-0.79-5.13-0.79-7.8V190.44
		c0-0.09,0.01-0.18,0.02-0.27c0-0.04,0-0.07,0.01-0.11c0.01-0.09,0.03-0.18,0.05-0.26c0.01-0.04,0.02-0.09,0.03-0.13
		c0.02-0.07,0.04-0.14,0.06-0.21c0.01-0.04,0.03-0.08,0.05-0.12c0.03-0.08,0.06-0.17,0.1-0.25c0.02-0.03,0.04-0.07,0.05-0.1
		c0.04-0.08,0.08-0.16,0.13-0.24l58.59-90.2c5.12-7.89,13.57-12.79,22.88-13.38c0.62-0.04,1.24-0.06,1.87-0.06h228.14V39.5h-322.43
		C1538,39.5,1530.69,43.46,1526.38,50.11z"/>
	<path class="st0" d="M1595.86,300.94v-96.48l-33.29-9.86v110.2c0,0.56,0.01,1.12,0.04,1.67c0.87,17.16,15.11,30.86,32.49,30.86
		h177.5l-4.93-4.93l-28.36-28.36h-140.36C1597.25,304.04,1595.86,302.65,1595.86,300.94z"/>
	<polygon class="st0" points="1413.91,435.19 1412.07,437.04 1927.51,437.04 1923.81,433.34 1894.22,403.75 1445.36,403.75 	"/>
	<path class="st0" d="M1647.32,124.61h256.14l-2.09-2.09l-31.2-31.2h-229.96c-7.92,0-15.23,3.97-19.54,10.61l-56.33,86.72
		l33.29,9.86l47.08-72.49C1645.28,125.14,1646.26,124.61,1647.32,124.61z"/>
	<polygon class="st0" points="1642.07,272.19 1703.39,238.9 1735.61,189.29 1717.54,156 	"/>
	<polygon class="st0" points="1723,153.04 1741.07,186.33 1894.22,186.33 1927.51,153.04 	"/>
	<polygon class="st0" points="1743.72,299.65 1777,332.94 1777,248.75 1743.72,282.04 	"/>
	<polygon class="st0" points="1645.03,277.65 1739.33,277.65 1767.68,249.29 1772.61,244.36 1706.35,244.36 	"/>
	<polygon class="st0" points="1407.68,432.64 1440.97,399.36 1440.97,173.43 1407.68,163.57 	"/>
	<polygon class="st0" points="1898.61,399.36 1931.9,432.64 1931.9,157.43 1898.61,190.72 	"/>
	<rect x="2528.21" y="185.29" class="st0" width="91.46" height="52.86"/>
	<polygon class="st0" points="2488.71,273.25 2522,239.97 2522,183.47 2488.71,150.19 	"/>
	<polygon class="st0" points="2650.91,273.79 2621.48,244.36 2526.39,244.36 2499.76,270.99 2493.1,277.65 2654.77,277.65 	"/>
	<polygon class="st0" points="2650.91,149.66 2654.77,145.79 2493.1,145.79 2496.8,149.49 2526.39,179.08 2621.48,179.08 	"/>
	<polygon class="st0" points="2659.16,150.19 2625.88,183.47 2625.88,239.97 2659.16,273.25 	"/>
	<path class="st0" d="M3228.83,0h-382.16c-13.72,0-26.38,6.87-33.86,18.38l-114.61,176.44c-8.68,13.36-8.68,30.63,0,43.99
		l116.82,179.85c7.48,11.51,20.13,18.38,33.86,18.38h379.95l-3.7-3.7l-29.59-29.59h-334.48c-10.03,0-19.28-5.02-24.75-13.44
		l-102.26-157.42c-6.34-9.77-6.34-22.39,0-32.15L2834.1,46.72c5.47-8.41,14.72-13.44,24.75-13.44h336.7L3228.83,0z"/>
	<path class="st0" d="M2954.19,98.54c5.46-8.41,14.72-13.44,24.75-13.44h214.79V39.5h-334.88c-7.92,0-15.23,3.97-19.54,10.61
		l-100.04,154.01c-5.01,7.71-5.01,17.67,0,25.39l102.26,157.42c3.78,5.81,9.84,9.57,16.6,10.42c0.97,0.12,1.95,0.18,2.94,0.18
		h332.66v-54h-218.02c-10.03,0-19.28-5.02-24.75-13.44l-63.15-97.22c-6.34-9.76-6.34-22.39,0-32.15L2954.19,98.54z"/>
	<polygon class="st0" points="3199.94,399.36 3233.23,432.64 3233.23,308.44 3199.94,341.72 	"/>
	<path class="st0" d="M2986.04,124.61h242.79l-3.7-3.7l-29.59-29.59h-216.61c-7.92,0-15.23,3.97-19.54,10.61l-66.38,102.19
		c-3.44,5.3-4.52,11.67-3.23,17.63c0.59,2.71,1.66,5.34,3.23,7.75l63.15,97.22c4.31,6.64,11.62,10.61,19.54,10.61h219.84
		l29.59-29.59l3.7-3.7h-246.02c-1.05,0-2.03-0.53-2.6-1.41l-48.91-75.29c-4.15-6.39-4.15-14.66,0-21.05l52.14-80.27
		C2984.01,125.14,2984.99,124.61,2986.04,124.61z"/>
	<polygon class="st0" points="3233.23,4.39 3230.3,7.32 3199.94,37.68 3199.94,86.93 3233.23,120.21 	"/>
	<polygon class="st0" points="875.3,432.87 871.14,437.04 1367.77,437.04 1334.49,403.75 904.43,403.75 	"/>
	<path class="st0" d="M1290.83,213.65l13.72-21.12h-287.51c0,0,0,0,0,0c0,0-0.01,0-0.01,0c-0.16,0-0.31-0.02-0.47-0.04
		c-0.03-0.01-0.07-0.01-0.1-0.02c-0.04-0.01-0.08-0.02-0.11-0.03c-0.08-0.02-0.16-0.04-0.25-0.07c-0.05-0.02-0.11-0.04-0.16-0.06
		c-0.04-0.02-0.08-0.03-0.12-0.04c-0.01,0-0.02-0.01-0.03-0.01c-0.05-0.02-0.09-0.05-0.13-0.07c-0.05-0.02-0.1-0.05-0.14-0.07
		c-0.07-0.04-0.13-0.08-0.19-0.12c-0.04-0.03-0.07-0.05-0.11-0.08c0,0-0.01,0-0.01-0.01c-0.02-0.02-0.05-0.03-0.07-0.05
		c-0.12-0.09-0.23-0.2-0.34-0.31c-0.01-0.01-0.02-0.01-0.02-0.02c0,0,0,0,0,0c0,0-0.01-0.01-0.01-0.01
		c-0.02-0.02-0.04-0.05-0.06-0.07c-0.07-0.08-0.14-0.17-0.2-0.26c-0.02-0.02-0.03-0.04-0.05-0.07c-0.02-0.03-0.04-0.07-0.05-0.1
		c-0.03-0.04-0.05-0.08-0.08-0.12c-0.01-0.02-0.01-0.05-0.03-0.07c-0.03-0.05-0.06-0.1-0.09-0.16c-0.06-0.15-0.11-0.3-0.16-0.45
		c0-0.01-0.01-0.02-0.01-0.04c0,0,0,0,0,0c0-0.01,0-0.03-0.01-0.04c-0.01-0.03-0.01-0.06-0.01-0.08c-0.03-0.13-0.05-0.25-0.06-0.38
		c-0.01-0.07,0-0.15,0-0.22c0-0.03,0-0.05,0-0.08c0-0.04,0-0.08,0-0.12c0-0.03,0-0.06,0-0.09c0.01-0.08,0.03-0.17,0.04-0.25
		c0.01-0.08,0.02-0.17,0.04-0.25c0.01-0.04,0.03-0.08,0.04-0.12c0.01-0.05,0.03-0.09,0.05-0.13c0,0,0-0.01,0-0.01
		c0.03-0.07,0.04-0.15,0.08-0.22c0.07-0.16,0.15-0.31,0.24-0.45c0,0,0,0,0,0l57.94-89.2c5.46-8.41,14.72-13.44,24.75-13.44h235.55
		V39.5H992.71c-1.49,0-2.95,0.14-4.37,0.41c-5.7,1.08-10.81,4.26-14.32,8.98c-0.29,0.39-0.57,0.8-0.84,1.21l-66.92,103.01v244.42
		h426.42v-54h-307.04c0,0,0,0,0,0c-0.01,0-0.02,0-0.02,0c-0.18,0-0.35-0.02-0.52-0.05c-0.02,0-0.05,0-0.07-0.01
		c-0.04-0.01-0.08-0.02-0.12-0.03c-0.12-0.03-0.24-0.07-0.36-0.11c-0.03-0.01-0.06-0.02-0.1-0.03c0,0-0.01,0-0.01,0
		c-0.02-0.01-0.04-0.02-0.07-0.03c-0.07-0.03-0.14-0.07-0.2-0.1c-0.07-0.04-0.13-0.07-0.2-0.11c-0.02-0.01-0.04-0.02-0.06-0.04
		c-0.02-0.01-0.03-0.02-0.04-0.03c-0.03-0.02-0.05-0.04-0.07-0.06c-0.06-0.05-0.12-0.09-0.18-0.14c-0.04-0.03-0.08-0.07-0.12-0.11
		c-0.03-0.03-0.06-0.06-0.09-0.09c-0.04-0.04-0.08-0.08-0.11-0.12c-0.05-0.06-0.09-0.11-0.13-0.17c-0.02-0.03-0.05-0.06-0.07-0.09
		c-0.01-0.01-0.02-0.02-0.03-0.04c-0.01-0.02-0.03-0.05-0.04-0.07c-0.04-0.06-0.07-0.12-0.11-0.19c-0.04-0.07-0.08-0.14-0.11-0.21
		c-0.01-0.02-0.02-0.04-0.03-0.07c0,0,0,0,0-0.01c-0.02-0.04-0.03-0.09-0.04-0.13c-0.03-0.08-0.05-0.15-0.08-0.23
		c-0.01-0.05-0.03-0.1-0.04-0.15c-0.01-0.04-0.02-0.08-0.02-0.12c-0.01-0.06-0.02-0.12-0.03-0.18c-0.01-0.08-0.01-0.16-0.02-0.24
		c0-0.05-0.01-0.09-0.01-0.14v-99.18c0-0.05,0.01-0.09,0.01-0.14c0-0.08,0.01-0.16,0.02-0.24c0.01-0.06,0.02-0.12,0.03-0.18
		c0.01-0.04,0.01-0.08,0.02-0.12c0.01-0.05,0.02-0.1,0.04-0.15c0.02-0.08,0.05-0.16,0.08-0.23c0.02-0.04,0.03-0.09,0.04-0.13
		c0,0,0,0,0-0.01c0.01-0.02,0.02-0.04,0.03-0.07c0.03-0.07,0.07-0.14,0.11-0.21c0.03-0.06,0.07-0.13,0.11-0.19
		c0.01-0.02,0.03-0.05,0.04-0.07c0.01-0.01,0.02-0.02,0.03-0.04c0.02-0.03,0.05-0.06,0.07-0.08c0.04-0.06,0.09-0.12,0.14-0.17
		c0.04-0.04,0.07-0.08,0.11-0.12c0.03-0.03,0.06-0.06,0.09-0.09c0.04-0.04,0.08-0.07,0.12-0.11c0.06-0.05,0.12-0.1,0.18-0.14
		c0.03-0.02,0.05-0.04,0.07-0.06c0.01-0.01,0.03-0.02,0.04-0.03c0.02-0.01,0.04-0.02,0.06-0.04c0.06-0.04,0.13-0.08,0.2-0.11
		c0.07-0.04,0.13-0.07,0.21-0.1c0.02-0.01,0.04-0.02,0.07-0.03c0,0,0.01,0,0.01,0c0.05-0.02,0.09-0.03,0.14-0.05
		c0.07-0.03,0.15-0.05,0.22-0.07c0.05-0.01,0.1-0.03,0.15-0.04c0.04-0.01,0.08-0.02,0.12-0.02c0.06-0.01,0.12-0.02,0.18-0.03
		c0.08-0.01,0.16-0.01,0.25-0.02c0.05,0,0.09-0.01,0.14-0.01h249.3L1290.83,213.65z"/>
	<polygon class="st0" points="866.75,432.64 900.04,399.36 900.04,154.52 866.75,144.65 	"/>
	<polygon class="st0" points="1066.41,304.04 1033.12,337.33 1334.49,337.33 1367.77,304.04 	"/>
	<polygon class="st0" points="1028.73,332.94 1062.02,299.65 1062.02,282.04 1028.73,248.75 	"/>
	<polygon class="st0" points="1278.33,250.93 1274.76,244.36 1033.12,244.36 1066.41,277.65 1292.83,277.65 	"/>
	<polygon class="st0" points="1373.76,158.5 1312.44,191.79 1280.22,241.4 1298.29,274.68 	"/>
	<polygon class="st0" points="1338.88,399.36 1372.17,432.64 1372.17,308.44 1338.88,341.72 	"/>
	<path class="st0" d="M946.68,18.38L868.52,138.7l33.29,9.86l66.16-101.84c5.47-8.41,14.72-13.43,24.75-13.43h341.77L1367.77,0
		H980.54C966.81,0,954.16,6.87,946.68,18.38z"/>
	<polygon class="st0" points="1372.17,4.39 1338.88,37.68 1338.88,86.93 1372.17,120.21 	"/>
	<path class="st0" d="M1102.08,125.47c0.05-0.05,0.1-0.08,0.15-0.13c0.13-0.11,0.27-0.21,0.42-0.3c0.06-0.04,0.13-0.07,0.19-0.11
		c0.16-0.08,0.32-0.14,0.48-0.19c0.06-0.02,0.11-0.04,0.17-0.05c0.23-0.05,0.46-0.09,0.7-0.09c0.01,0,0.01,0,0.02,0h263.55
		l-33.29-33.29h-237.37c-7.92,0-15.23,3.97-19.54,10.61l-51.28,78.94l61.32-33.29l14.01-21.56
		C1101.75,125.81,1101.91,125.64,1102.08,125.47z"/>
	<polygon class="st0" points="1370.8,153.04 1090.58,153.04 1029.26,186.33 1309.48,186.33 	"/>
	<path class="st0" d="M2241.73,0H1963.5l33.29,33.29h232.76c10.03,0,19.28,5.02,24.75,13.44l228.36,351.57l61.32,33.29
		l-268.39-413.2C2268.11,6.87,2255.46,0,2241.73,0z"/>
	<polygon class="st0" points="2479.7,403.75 2354.39,403.75 2354,404.47 2336.32,437.04 2541.02,437.04 	"/>
	<polygon class="st0" points="2279.84,360.96 2282.93,355.27 2297.91,327.68 2146.25,327.68 2152.94,360.96 	"/>
	<polygon class="st0" points="2348.93,400.78 2303.37,330.64 2285.3,363.93 2330.86,434.07 	"/>
	<polygon class="st0" points="2114.01,290.5 2114.01,399.36 2147.3,432.64 2147.3,364.73 2135.17,337.68 	"/>
	<path class="st0" d="M2158.43,107.64c-0.11-0.15-0.23-0.29-0.35-0.44c-0.28-0.35-0.56-0.7-0.85-1.03c-0.13-0.15-0.26-0.3-0.4-0.44
		c-0.33-0.36-0.67-0.7-1.01-1.04c-0.09-0.09-0.18-0.18-0.27-0.27c-0.44-0.41-0.89-0.8-1.35-1.18c-0.12-0.1-0.25-0.19-0.38-0.29
		c-0.35-0.27-0.7-0.53-1.06-0.79c-0.17-0.12-0.33-0.23-0.5-0.34c-0.35-0.23-0.71-0.45-1.07-0.67c-0.15-0.09-0.3-0.18-0.46-0.27
		c-0.5-0.28-1.02-0.55-1.54-0.79c-0.1-0.04-0.2-0.08-0.29-0.13c-0.44-0.2-0.88-0.38-1.32-0.55c-0.19-0.07-0.37-0.14-0.56-0.2
		c-0.38-0.13-0.76-0.26-1.14-0.37c-0.19-0.06-0.38-0.11-0.58-0.17c-0.47-0.12-0.94-0.24-1.41-0.33c-0.1-0.02-0.2-0.05-0.3-0.07
		c-0.57-0.11-1.14-0.19-1.71-0.26c-0.19-0.02-0.37-0.04-0.56-0.05c-0.41-0.04-0.82-0.07-1.23-0.09c-0.21-0.01-0.42-0.02-0.63-0.02
		c-0.37-0.01-0.73,0-1.1,0.01c-0.28,0.01-0.57,0.01-0.85,0.03c-0.37,0.02-0.74,0.06-1.11,0.1c-0.27,0.03-0.54,0.05-0.81,0.09
		c-0.41,0.06-0.82,0.13-1.22,0.21c-0.24,0.04-0.47,0.08-0.71,0.13c-0.6,0.13-1.19,0.28-1.79,0.46c-0.04,0.01-0.09,0.02-0.13,0.03
		c-8.08,2.39-14.01,8.23-16.47,15.74c-0.03,0.09-0.05,0.19-0.08,0.28c-0.76,2.42-1.17,5.01-1.17,7.71v135.34l33.29-33.29v-62.77
		c0-1.38,0.9-2.59,2.22-2.98c1.32-0.39,2.74,0.13,3.49,1.29l41.18,63.39l61.32,33.29l-95.98-147.76
		C2159.18,108.65,2158.81,108.14,2158.43,107.64z"/>
	<polygon class="st0" points="2151.69,229.11 2118.4,262.4 2252.54,262.4 2191.22,229.11 	"/>
	<polygon class="st0" points="1959.11,432.64 1992.4,399.36 1992.4,37.68 1959.11,4.39 	"/>
	<polygon class="st0" points="1964.13,436.41 1963.5,437.04 2142.9,437.04 2138.74,432.87 2109.62,403.75 1996.79,403.75 	"/>
	<polygon class="st0" points="2141.9,337.52 2139.54,325.76 2130.14,311.31 	"/>
	<path class="st0" d="M2303.13,321.47c0.12,0,0.24,0.03,0.36,0.05c0.12,0.01,0.25,0.02,0.37,0.05c0.02,0,0.03,0.01,0.05,0.01
		c0.09,0.02,0.16,0.07,0.25,0.1c0.02,0.01,0.03,0.01,0.05,0.02c0.13,0.05,0.26,0.08,0.38,0.15c0.02,0.01,0.03,0.02,0.05,0.03
		c0.09,0.05,0.17,0.12,0.25,0.18c0.01,0.01,0.02,0.02,0.04,0.03c0.1,0.07,0.21,0.13,0.3,0.21c0.01,0.01,0.03,0.03,0.04,0.04
		c0.08,0.08,0.14,0.17,0.22,0.26c0.08,0.1,0.18,0.19,0.25,0.3l48.49,74.66h120.54L2249.1,50.11c-4.31-6.64-11.62-10.61-19.54-10.61
		h-230.95v358.04h109.19V275.98c0-0.1,0.01-0.19,0.02-0.28c0.01-0.06,0.01-0.13,0.02-0.19c0-0.02,0-0.03,0.01-0.05
		c0.01-0.06,0.03-0.12,0.04-0.17c0.03-0.11,0.05-0.22,0.09-0.32c0.02-0.07,0.05-0.13,0.08-0.19c0.04-0.09,0.07-0.18,0.12-0.27
		c0.01-0.01,0.01-0.03,0.02-0.04c0.03-0.05,0.07-0.1,0.1-0.15c0.05-0.08,0.1-0.16,0.16-0.24c0.02-0.02,0.03-0.04,0.04-0.06
		c0.03-0.04,0.07-0.07,0.11-0.11c0.06-0.07,0.12-0.13,0.19-0.2c0.03-0.03,0.06-0.06,0.09-0.08c0.04-0.03,0.08-0.06,0.12-0.09
		c0.06-0.05,0.12-0.09,0.19-0.14c0.05-0.03,0.1-0.07,0.16-0.1c0.02-0.01,0.04-0.03,0.06-0.04c0.02-0.01,0.04-0.01,0.06-0.02
		c0.06-0.03,0.11-0.06,0.17-0.08c0.07-0.03,0.14-0.06,0.21-0.08c0.04-0.02,0.09-0.04,0.13-0.05c0.01,0,0.02-0.01,0.03-0.01
		c0.04-0.01,0.09-0.02,0.13-0.03c0.04-0.01,0.07-0.02,0.1-0.03c0.04-0.01,0.08-0.01,0.12-0.01c0.05-0.01,0.1-0.03,0.16-0.03
		c0.02,0,0.04,0,0.06,0c0.03,0,0.06,0,0.08,0c0.07-0.01,0.14-0.01,0.21-0.01c0.06,0,0.12,0,0.18,0c0.05,0,0.09,0.01,0.13,0.01
		c0.07,0.01,0.13,0.01,0.2,0.02c0.07,0.01,0.13,0.02,0.2,0.04c0.05,0.01,0.09,0.02,0.14,0.04c0.05,0.01,0.1,0.03,0.15,0.05
		c0.07,0.02,0.14,0.05,0.21,0.08c0.05,0.02,0.1,0.04,0.14,0.06c0.04,0.02,0.07,0.03,0.11,0.05c0.08,0.04,0.15,0.09,0.22,0.14
		c0.05,0.03,0.1,0.06,0.14,0.09c0.02,0.02,0.04,0.03,0.06,0.05c0.08,0.06,0.15,0.13,0.22,0.19c0.03,0.02,0.06,0.05,0.08,0.07
		c0.02,0.02,0.04,0.03,0.05,0.05c0.01,0.01,0.02,0.02,0.03,0.03c0.07,0.07,0.12,0.15,0.18,0.22c0.05,0.06,0.1,0.12,0.14,0.18
		c0.01,0.01,0.01,0.02,0.02,0.02l30.64,47.18H2303.13z M2110.9,268.61c-0.05,0-0.09-0.01-0.13-0.01c-0.08,0-0.17-0.01-0.25-0.02
		c-0.06-0.01-0.12-0.02-0.17-0.03c-0.04-0.01-0.08-0.01-0.12-0.02c-0.05-0.01-0.1-0.03-0.15-0.04c-0.07-0.02-0.15-0.05-0.22-0.07
		c-0.05-0.02-0.09-0.03-0.14-0.05c0,0-0.01,0-0.01,0c-0.02-0.01-0.04-0.02-0.07-0.03c-0.07-0.03-0.14-0.07-0.21-0.1
		c-0.07-0.04-0.13-0.07-0.2-0.11c-0.02-0.01-0.04-0.02-0.06-0.04c-0.01-0.01-0.03-0.02-0.04-0.03c-0.03-0.02-0.05-0.04-0.08-0.06
		c-0.06-0.05-0.12-0.09-0.18-0.14c-0.04-0.04-0.08-0.07-0.12-0.11c-0.03-0.03-0.06-0.06-0.09-0.09c-0.04-0.04-0.08-0.08-0.11-0.12
		c-0.05-0.06-0.09-0.12-0.14-0.18c-0.02-0.03-0.04-0.05-0.06-0.08c-0.01-0.01-0.02-0.03-0.03-0.04c-0.01-0.02-0.03-0.05-0.04-0.07
		c-0.04-0.06-0.07-0.12-0.11-0.19c-0.04-0.07-0.08-0.14-0.11-0.21c-0.01-0.02-0.02-0.04-0.03-0.07c0,0,0,0,0-0.01
		c-0.02-0.04-0.03-0.09-0.04-0.13c-0.03-0.08-0.05-0.15-0.08-0.23c-0.01-0.05-0.03-0.1-0.04-0.15c-0.01-0.04-0.02-0.08-0.02-0.12
		c-0.01-0.06-0.02-0.12-0.03-0.18c-0.01-0.08-0.01-0.16-0.02-0.24c0-0.05-0.01-0.09-0.01-0.14V122.67
		c0-10.79,5.15-20.15,13.63-25.73c2.56-1.68,5.42-3.04,8.54-3.96c0.31-0.09,0.62-0.16,0.94-0.24c10.56-2.8,21.13-0.11,28.76,7.01
		c0.06,0.05,0.12,0.1,0.17,0.15c0.02,0.01,0.03,0.03,0.04,0.05c1.8,1.71,3.43,3.66,4.85,5.85l102.64,158.01c0,0,0,0,0,0
		c0.09,0.14,0.17,0.3,0.24,0.45c0.03,0.07,0.05,0.15,0.08,0.23c0.02,0.05,0.03,0.09,0.05,0.14c0.01,0.04,0.03,0.08,0.04,0.12
		c0.02,0.09,0.03,0.17,0.04,0.26c0.01,0.08,0.03,0.16,0.04,0.24c0,0.03,0,0.06,0,0.09c0,0.04,0,0.08,0,0.12c0,0.03,0,0.06,0,0.08
		c0,0.07,0,0.14,0,0.21c-0.01,0.13-0.04,0.25-0.06,0.38c-0.01,0.03-0.01,0.06-0.01,0.08c0,0.01,0,0.03-0.01,0.04c0,0,0,0,0,0
		c0,0.01-0.01,0.01-0.01,0.02c-0.04,0.16-0.09,0.31-0.16,0.47c-0.02,0.06-0.06,0.11-0.09,0.16c-0.01,0.02-0.01,0.05-0.03,0.07
		c-0.02,0.04-0.05,0.08-0.08,0.12c-0.02,0.03-0.03,0.07-0.05,0.1c-0.02,0.02-0.03,0.04-0.05,0.07c-0.06,0.09-0.13,0.17-0.2,0.26
		c-0.02,0.02-0.03,0.04-0.05,0.06c-0.01,0.01-0.01,0.02-0.02,0.02c0,0,0,0,0,0c-0.01,0.01-0.02,0.01-0.02,0.02
		c-0.11,0.11-0.22,0.22-0.34,0.31c-0.02,0.02-0.05,0.03-0.07,0.05c0,0-0.01,0.01-0.01,0.01c-0.04,0.03-0.07,0.05-0.11,0.08
		c-0.06,0.04-0.13,0.09-0.19,0.12c-0.05,0.03-0.1,0.05-0.14,0.07c-0.05,0.02-0.09,0.05-0.14,0.07c-0.01,0-0.02,0.01-0.02,0.01
		c-0.04,0.02-0.08,0.03-0.12,0.04c-0.05,0.02-0.11,0.04-0.16,0.06c-0.08,0.03-0.16,0.05-0.25,0.07c-0.04,0.01-0.07,0.02-0.11,0.03
		c-0.03,0.01-0.07,0.01-0.1,0.02c-0.15,0.02-0.31,0.04-0.47,0.04c0,0-0.01,0-0.01,0c0,0,0,0,0,0H2110.9z"/>
	<path class="st0" d="M3714,418.65l118.49-182.42c8.68-13.36,8.68-30.63,0-43.99L3719.55,18.38C3712.08,6.87,3699.42,0,3685.7,0
		h-413.54l33.29,33.29h368.08c2.51,0,4.97,0.31,7.33,0.92c1.03,0.26,2.03,0.59,3.02,0.96c0.39,0.15,0.78,0.3,1.17,0.47
		c1.27,0.54,2.51,1.16,3.69,1.88c0.32,0.2,0.64,0.4,0.96,0.61c1.85,1.21,3.58,2.63,5.13,4.25c1.27,1.33,2.43,2.79,3.45,4.36
		l98.37,151.44c5.55,8.54,6.24,19.28,2.08,28.37c-0.59,1.3-1.29,2.56-2.08,3.78l-103.92,159.99c-5.46,8.41-14.72,13.44-24.75,13.44
		h-362.53l-29.59,29.59l-3.7,3.7h407.99C3693.87,437.04,3706.52,430.16,3714,418.65z"/>
	<polygon class="st0" points="3449.92,299.65 3449.92,129 3419.89,98.97 3416.64,95.71 3416.64,332.94 3447.37,302.21 	"/>
	<path class="st0" d="M3667.72,212.43c-0.04-0.49-0.09-0.98-0.16-1.47c0-0.01,0-0.02,0-0.03c-0.07-0.51-0.17-1.02-0.27-1.52
		c-0.02-0.11-0.05-0.22-0.08-0.33c-0.09-0.41-0.2-0.82-0.31-1.22c-0.03-0.1-0.06-0.2-0.09-0.3c-0.14-0.47-0.29-0.94-0.47-1.4
		c-0.01-0.02-0.01-0.04-0.02-0.06c-0.18-0.48-0.38-0.95-0.59-1.42c-0.05-0.11-0.1-0.22-0.16-0.33c-0.17-0.36-0.35-0.71-0.53-1.06
		c-0.07-0.13-0.14-0.26-0.21-0.39c-0.25-0.45-0.51-0.89-0.79-1.32c0,0,0-0.01,0-0.01l-20.4-31.41l-44.31-68.21
		c-3.24-4.98-8.15-8.46-13.75-9.89c-1.87-0.48-3.81-0.72-5.79-0.72h-158.76l3.26,3.26l30.03,30.03h118.37c1.05,0,2.03,0.53,2.6,1.41
		l50.47,77.7c2.19,3.38,3.26,7.3,3.09,11.35c-0.02,0.41-0.05,0.82-0.09,1.23c0,0.03-0.01,0.11-0.02,0.14
		c-0.03,0.32-0.09,0.71-0.16,1.1c0,0.01-0.02,0.09-0.02,0.1c-0.07,0.41-0.15,0.77-0.23,1.13l-0.05,0.2
		c-0.09,0.37-0.18,0.7-0.28,1.02l-0.1,0.3c-0.12,0.35-0.22,0.64-0.33,0.93c-0.05,0.13-0.1,0.25-0.16,0.38l-0.05,0.11
		c-0.12,0.29-0.21,0.51-0.31,0.72c-0.09,0.19-0.19,0.38-0.28,0.57l-0.11,0.22c-0.07,0.14-0.14,0.27-0.21,0.4
		c-0.21,0.37-0.43,0.75-0.66,1.11c-0.01,0.02-0.02,0.04-0.04,0.06l-50.58,77.86c-0.57,0.88-1.55,1.41-2.6,1.41h-118.26l-33.29,33.29
		h158.66c0.52,0,1.04-0.02,1.56-0.05c0.08-0.01,0.15-0.02,0.23-0.02c0.45-0.03,0.89-0.08,1.33-0.14c0.06-0.01,0.13-0.02,0.19-0.03
		c0.46-0.07,0.92-0.14,1.37-0.24c0.04-0.01,0.07-0.02,0.11-0.02c0.48-0.1,0.97-0.22,1.44-0.35c0.01,0,0.02,0,0.02-0.01
		c2.02-0.56,3.96-1.4,5.77-2.49c0.01-0.01,0.03-0.02,0.04-0.03c0.42-0.25,0.83-0.52,1.23-0.8c0.41-0.29,0.8-0.58,1.18-0.88
		c0.41-0.32,0.77-0.63,1.13-0.95c0.18-0.16,0.34-0.31,0.5-0.47c0.11-0.1,0.21-0.2,0.31-0.31c0.09-0.09,0.18-0.17,0.26-0.26
		c0.13-0.14,0.26-0.27,0.38-0.4c0.2-0.22,0.4-0.44,0.6-0.66c0.01-0.01,0.03-0.03,0.04-0.04c0.09-0.11,0.17-0.21,0.26-0.32
		c0.24-0.29,0.47-0.57,0.69-0.87c0,0,0,0,0,0c0.05-0.07,0.1-0.13,0.15-0.2c0.25-0.35,0.5-0.7,0.73-1.06c0-0.01,0.01-0.01,0.01-0.02
		l64.82-99.79c0.28-0.43,0.54-0.88,0.79-1.32c0.07-0.12,0.13-0.24,0.2-0.37c0.19-0.35,0.37-0.71,0.54-1.08
		c0.05-0.11,0.1-0.22,0.15-0.32c0.21-0.46,0.4-0.93,0.58-1.4c0.24-0.63,0.44-1.28,0.62-1.92c0.12-0.45,0.24-0.89,0.34-1.34
		c0,0,0,0,0,0c0.11-0.51,0.2-1.03,0.28-1.55c0.01-0.08,0.02-0.16,0.03-0.24c0.05-0.35,0.08-0.7,0.11-1.06
		c0.05-0.54,0.08-1.09,0.09-1.64c0.01-0.66,0-1.32-0.04-1.98C3667.74,212.62,3667.73,212.53,3667.72,212.43z"/>
	<polygon class="st0" points="3301.05,37.68 3267.76,4.39 3267.76,432.64 3301.05,399.36 	"/>
	<path class="st0" d="M3687.51,386.93l103.92-159.99c2.5-3.86,3.76-8.27,3.76-12.69c0-3.87-0.96-7.73-2.88-11.22
		c-0.27-0.5-0.57-0.99-0.88-1.47l-98.37-151.44c-1.06-1.64-2.31-3.11-3.7-4.4c-2.84-2.64-6.29-4.52-10.05-5.48
		c-1.87-0.48-3.81-0.72-5.79-0.72h-366.26v358.04h360.71C3675.89,397.54,3683.19,393.57,3687.51,386.93z M3603.32,331.7
		c-0.02,0.02-0.04,0.06-0.05,0.07c-0.27,0.36-0.58,0.74-0.89,1.12c-0.12,0.14-0.23,0.28-0.35,0.41c-0.26,0.3-0.52,0.58-0.77,0.85
		c-0.24,0.25-0.48,0.5-0.72,0.75c-0.16,0.16-0.32,0.32-0.48,0.47c-0.41,0.39-0.82,0.76-1.25,1.13c-0.02,0.02-0.04,0.03-0.05,0.05
		c-3.23,2.74-7.01,4.75-11.09,5.89c-0.03,0.01-0.06,0.02-0.09,0.03c-0.58,0.16-1.18,0.3-1.77,0.43c-0.07,0.01-0.13,0.03-0.2,0.04
		c-0.56,0.11-1.12,0.21-1.69,0.29c-0.1,0.01-0.19,0.03-0.29,0.05c-0.55,0.07-1.1,0.13-1.66,0.17c-0.11,0.01-0.21,0.02-0.32,0.03
		c-0.65,0.04-1.31,0.07-1.97,0.07h-166.15c0,0,0,0,0,0c0,0,0,0,0,0c-0.01,0-0.02,0-0.02,0c-0.18,0-0.35-0.02-0.52-0.05
		c-0.02,0-0.05,0-0.07-0.01c-0.04-0.01-0.08-0.02-0.12-0.04c-0.12-0.03-0.24-0.07-0.36-0.11c-0.03-0.01-0.07-0.02-0.1-0.03
		c0,0,0,0-0.01,0c-0.02-0.01-0.05-0.02-0.07-0.04c-0.07-0.03-0.14-0.07-0.2-0.1c-0.07-0.04-0.13-0.07-0.2-0.11
		c-0.02-0.01-0.04-0.02-0.06-0.04c-0.02-0.01-0.03-0.03-0.05-0.04c-0.02-0.02-0.05-0.04-0.07-0.05c-0.06-0.05-0.12-0.09-0.18-0.14
		c-0.04-0.03-0.08-0.07-0.12-0.11c-0.03-0.03-0.06-0.06-0.09-0.09c-0.04-0.04-0.07-0.08-0.11-0.12c-0.05-0.06-0.09-0.12-0.14-0.18
		c-0.02-0.02-0.04-0.05-0.05-0.07c-0.01-0.02-0.03-0.03-0.04-0.05c-0.01-0.02-0.02-0.04-0.04-0.06c-0.04-0.06-0.08-0.13-0.11-0.2
		c-0.04-0.07-0.07-0.13-0.1-0.2c-0.01-0.02-0.02-0.04-0.03-0.07c0,0,0-0.01,0-0.01c-0.02-0.05-0.03-0.09-0.05-0.14
		c-0.03-0.07-0.05-0.15-0.07-0.22c-0.01-0.05-0.03-0.1-0.04-0.15c-0.01-0.04-0.02-0.08-0.02-0.12c-0.01-0.06-0.02-0.12-0.03-0.18
		c-0.01-0.08-0.02-0.16-0.02-0.25c0-0.05-0.01-0.09-0.01-0.13c0,0,0,0,0,0v0V88.21c0-0.05,0.01-0.09,0.01-0.14
		c0-0.08,0.01-0.16,0.02-0.25c0.01-0.06,0.02-0.12,0.03-0.18c0.01-0.04,0.01-0.08,0.02-0.12c0.01-0.05,0.02-0.1,0.04-0.15
		c0.02-0.07,0.05-0.15,0.07-0.22c0.02-0.05,0.03-0.09,0.05-0.14c0,0,0-0.01,0-0.01c0.01-0.02,0.02-0.04,0.03-0.07
		c0.03-0.07,0.07-0.14,0.1-0.2c0.04-0.07,0.07-0.13,0.11-0.2c0.01-0.02,0.02-0.04,0.04-0.06c0.01-0.01,0.02-0.03,0.03-0.04
		c0.02-0.03,0.04-0.05,0.06-0.08c0.05-0.06,0.09-0.12,0.14-0.18c0.04-0.04,0.07-0.08,0.11-0.12c0.03-0.03,0.06-0.06,0.09-0.09
		c0.04-0.04,0.08-0.08,0.12-0.11c0.06-0.05,0.12-0.09,0.18-0.14c0.03-0.02,0.05-0.04,0.08-0.06c0.01-0.01,0.02-0.02,0.04-0.03
		c0.02-0.01,0.04-0.02,0.07-0.04c0.06-0.04,0.13-0.08,0.2-0.11c0.07-0.04,0.14-0.07,0.21-0.1c0.02-0.01,0.04-0.02,0.06-0.03
		c0,0,0.01,0,0.01,0c0.05-0.02,0.09-0.03,0.14-0.05c0.07-0.03,0.14-0.05,0.22-0.07c0.05-0.01,0.1-0.03,0.15-0.04
		c0.04-0.01,0.08-0.01,0.12-0.02c0.06-0.01,0.12-0.02,0.18-0.03c0.08-0.01,0.17-0.02,0.25-0.02c0.05,0,0.09-0.01,0.14-0.01h166.26
		c3.07,0,6.06,0.48,8.9,1.37c0.06,0.02,0.12,0.03,0.18,0.05c3.11,1,6.02,2.53,8.63,4.49c2.72,2.05,5.12,4.57,7.04,7.53l64.71,99.62
		c0.35,0.55,0.69,1.11,1.01,1.68c0.09,0.16,0.18,0.33,0.27,0.49c0.11,0.21,0.24,0.43,0.35,0.64c0.11,0.23,0.22,0.46,0.32,0.69
		c0.07,0.15,0.14,0.29,0.21,0.44c0.26,0.58,0.51,1.17,0.73,1.77c0.03,0.07,0.05,0.15,0.08,0.22c0.19,0.52,0.36,1.05,0.52,1.58
		c0.06,0.19,0.11,0.39,0.17,0.58c0.05,0.18,0.11,0.37,0.16,0.55c0.01,0.04,0.02,0.09,0.03,0.12c0.07,0.25,0.12,0.52,0.18,0.79
		c0.03,0.12,0.06,0.25,0.09,0.37c0.11,0.54,0.22,1.09,0.3,1.64c0,0,0.02,0.11,0.02,0.11c0.01,0.05,0.01,0.11,0.02,0.16
		c0.01,0.06,0.01,0.12,0.02,0.18c0.05,0.36,0.1,0.73,0.14,1.09c0,0.02,0.01,0.11,0.01,0.13c0.04,0.44,0.08,0.92,0.1,1.4
		c0,0.01,0,0.02,0,0.03c0.02,0.47,0.03,0.94,0.03,1.42c0,0.01,0,0.16,0,0.17c0,0.58-0.03,1.17-0.07,1.76
		c-0.01,0.13-0.02,0.25-0.03,0.38c-0.02,0.23-0.03,0.46-0.05,0.69l-0.02,0.2c-0.03,0.26-0.07,0.53-0.11,0.79
		c-0.01,0.09-0.02,0.18-0.04,0.27c-0.01,0.1-0.02,0.2-0.04,0.3c0,0.01-0.02,0.09-0.02,0.11c-0.08,0.48-0.16,0.92-0.25,1.35
		c0,0-0.02,0.12-0.03,0.13c-0.1,0.45-0.2,0.89-0.32,1.34l-0.06,0.24c-0.03,0.12-0.07,0.23-0.1,0.35c-0.05,0.16-0.09,0.32-0.14,0.48
		c-0.16,0.51-0.32,1.02-0.51,1.52c-0.03,0.1-0.07,0.19-0.1,0.29c0,0,0,0,0,0l-0.1,0.26c-0.16,0.42-0.33,0.84-0.52,1.25l-0.07,0.16
		c-0.02,0.05-0.05,0.1-0.07,0.15c-0.03,0.07-0.06,0.13-0.09,0.2c-0.13,0.29-0.26,0.56-0.4,0.82l-0.09,0.18
		c-0.1,0.19-0.19,0.36-0.29,0.54c-0.08,0.15-0.16,0.3-0.24,0.44c-0.04,0.07-0.08,0.15-0.12,0.23l-0.13,0.23
		c-0.25,0.44-0.5,0.84-0.76,1.23l-64.82,99.79C3604.08,330.65,3603.71,331.18,3603.32,331.7z"/>
</g>
</svg>
