<?xml version="1.0" encoding="UTF-8" standalone="no"?>
<!-- Generator: Adobe Illustrator 26.0.1, SVG Export Plug-In . SVG Version: 6.00 Build 0)  -->

<svg
   version="1.1"
   id="Layer_1"
   x="0px"
   y="0px"
   viewBox="0 0 3839 672.6"
   style="enable-background:new 0 0 3839 672.6;"
   xml:space="preserve"
   sodipodi:docname="naomi2_white.svg"
   inkscape:version="1.1.2 (0a00cf5339, 2022-02-04)"
   xmlns:inkscape="http://www.inkscape.org/namespaces/inkscape"
   xmlns:sodipodi="http://sodipodi.sourceforge.net/DTD/sodipodi-0.dtd"
   xmlns="http://www.w3.org/2000/svg"
   xmlns:svg="http://www.w3.org/2000/svg"><defs
   id="defs39" /><sodipodi:namedview
   id="namedview37"
   pagecolor="#ffffff"
   bordercolor="#666666"
   borderopacity="1.0"
   inkscape:pageshadow="2"
   inkscape:pageopacity="0.0"
   inkscape:pagecheckerboard="0"
   showgrid="false"
   inkscape:zoom="0.44803334"
   inkscape:cx="1918.384"
   inkscape:cy="335.9125"
   inkscape:window-width="3840"
   inkscape:window-height="2065"
   inkscape:window-x="0"
   inkscape:window-y="0"
   inkscape:window-maximized="1"
   inkscape:current-layer="Layer_1" />
<style
   type="text/css"
   id="style2">
	.st0{fill:#F05100;}
	.st1{fill:#FFFFFF;}
	.st2{fill:#1281C4;}
	.st3{fill:#034693;}
	.st4{fill:#CF3312;}
</style>
<g
   id="g34"
   style="fill:#ffffff;fill-opacity:1">
	<g
   id="g32"
   style="fill:#ffffff;fill-opacity:1">
		<g
   id="g24"
   style="fill:#ffffff;fill-opacity:1">
			<polygon
   points="3160.6,39.2 3160.6,51.9 3187,51.9 3187,140 3204.4,140 3204.4,52.2 3235.5,51.9 3235.5,39.2    "
   id="polygon4"
   style="fill:#ffffff;fill-opacity:1" />
			<path
   d="M3350.2,140h-16.2V84.1l-37.2,47.1l-37.3-47.1c0,0-0.1,55.8,0.1,55.9c0.2,0.1-14.9,0-14.9,0l0-100.8l52.4,65.1l53-65.1     V140z"
   id="path6"
   style="fill:#ffffff;fill-opacity:1" />
			<rect
   x="2994.5"
   y="39.2"
   width="96.7"
   height="582"
   id="rect8"
   style="fill:#ffffff;fill-opacity:1" />
			<polygon
   points="2789.5,39.2 2446.5,436.4 2103.6,39.2 2103.6,621.2 2200.3,621.2 2200.3,299.1 2446.5,584.3 2692.8,299.1      2692.8,621.2 2789.5,621.2    "
   id="polygon10"
   style="fill:#ffffff;fill-opacity:1" />
			
				<rect
   x="475.8"
   y="39.2"
   transform="matrix(-1 -7.521325e-08 7.521325e-08 -1 1048.3292 561.9158)"
   width="96.7"
   height="483.5"
   id="rect12"
   style="fill:#ffffff;fill-opacity:1" />
			<rect
   x="0"
   y="132.2"
   transform="matrix(-1 -7.607890e-08 7.607890e-08 -1 96.6832 753.3883)"
   width="96.7"
   height="489.1"
   id="rect14"
   style="fill:#ffffff;fill-opacity:1" />
			<rect
   x="873.3"
   y="214"
   transform="matrix(7.656944e-08 -1 1 7.656944e-08 461.5637 1381.743)"
   width="96.7"
   height="492.2"
   id="rect16"
   style="fill:#ffffff;fill-opacity:1" />
			<polygon
   points="572.5,496.2 572.5,621.2 0,152.1 0,27.2    "
   id="polygon18"
   style="fill:#ffffff;fill-opacity:1" />
			<path
   class="st4"
   d="M1674.5,0c-185.7,0-336.3,150.6-336.3,336.3s150.6,336.3,336.3,336.3c185.7,0,336.3-150.6,336.3-336.3     S1860.2,0,1674.5,0z M1674.5,96.7c-132.3,0-239.6,107.3-239.6,239.6c0,132.3,107.3,239.6,239.6,239.6     c132.3,0,239.6-107.3,239.6-239.6C1914.1,204,1806.8,96.7,1674.5,96.7z M1674.5,558.6c-122.6,0-222.3-99.7-222.3-222.3     c0-122.6,99.7-222.3,222.3-222.3c122.6,0,222.3,99.7,222.3,222.3C1896.8,458.9,1797,558.6,1674.5,558.6z M1674.5,576     c-132.3,0-239.6-107.3-239.6-239.6c0-132.3,107.3-239.6,239.6-239.6s239.6,107.3,239.6,239.6C1914.1,468.7,1806.8,576,1674.5,576     z"
   id="path20"
   style="fill:#ffffff;fill-opacity:1" />
			<polygon
   points="785.2,621.2 1000.7,227.6 1216.1,621.2 1326.3,621.2 1000.7,26.2 675,621.2    "
   id="polygon22"
   style="fill:#ffffff;fill-opacity:1" />
		</g>
		<g
   id="g30"
   style="fill:#ffffff;fill-opacity:1">
			
				<rect
   x="3623.4"
   y="405.6"
   transform="matrix(5.203487e-08 -1 1 5.203487e-08 3098.8684 4244.6309)"
   class="st4"
   width="96.7"
   height="334.5"
   id="rect26"
   style="fill:#ffffff;fill-opacity:1" />
			<path
   class="st4"
   d="M3796,102.2c-42.2-47.9-96.4-73.2-156.7-73.2c-71.9,0-134.8,36.8-174.7,67.4l68.4,68.7     c47.1-33.3,128-71.1,191.2,0.5c94.4,106.9-189.8,335.9-268.9,392.7v62.9h76.3c78.4-58.9,289-230,306.3-382.5     C3843.6,186.9,3829.1,139.7,3796,102.2z"
   id="path28"
   style="fill:#ffffff;fill-opacity:1" />
		</g>
	</g>
</g>
</svg>
