<?xml version="1.0" encoding="utf-8"?>
<svg version="1.1" id="Layer_1" x="0px" y="0px" viewBox="0 0 496.6 101.3" style="enable-background:new 0 0 496.6 101.3;" xmlns="http://www.w3.org/2000/svg">
  <style type="text/css">
	.st0{fill:#FFB71B;}
</style>
  <path class="st0" d="M 44.4 14.7 C 33.4 14.7 29 20.4 25.9 24.4 L 25.9 16.1 L 0 16.1 L 0 94.1 L 25.9 94.1 L 25.9 72.1 C 28.2 74.9 32.9 80.8 43.6 80.8 C 59.3 80.8 70.9 67.2 70.9 47 C 70.9 30 61.6 14.7 44.4 14.7 Z M 32.9 64.1 C 29.5 64.1 27.6 62.6 26 61.5 L 26 34.3 C 28.4 32.8 30.3 31.8 33.1 31.8 C 41 31.8 43.9 39.4 43.9 47.9 C 43.8 60 37.8 64.1 32.9 64.1 Z" style="fill: rgb(255, 255, 255);"/>
  <rect x="75.6" class="st0" width="26.1" height="78.3" style="fill: rgb(255, 255, 255);"/>
  <path class="st0" d="M 172.4 78.3 L 172.4 40.5 C 172.4 33.7 172.3 24.4 162 17.8 C 160 16.4 154.2 12.8 141.8 12.8 C 123.4 12.8 115.4 21.1 109.9 27.3 L 117.6 33.8 C 120.9 30.5 125.5 25.9 133.5 25.9 C 135.3 25.9 138.7 26 141.9 28.6 C 146.3 32.2 146.4 37.3 146.4 40.9 C 143 39.8 138.1 38.2 131.3 38.2 C 117.7 38.2 106.7 45.9 106.7 59.6 C 106.7 70.7 114.1 80 127.2 80 C 138.5 80 143.2 74.1 146.3 69.9 L 146.3 78.2 L 172.4 78.2 L 172.4 78.3 Z M 138.3 65.1 C 134.1 65.1 131.7 61.8 131.7 58.4 C 131.7 55.3 133.7 50.8 140.7 50.8 C 142.9 50.8 144.3 51.1 146.4 51.6 L 146.4 60.8 C 144.2 63.1 142.1 65.1 138.3 65.1 Z" style="fill: rgb(255, 255, 255);"/>
  <path class="st0" d="M 219.2 16.2 C 211.7 37.5 210.9 39.8 208 50.4 C 206 40 202 27.5 198.5 16.2 L 171 16.2 L 194.6 73 C 189 82.9 184.5 90.7 171.1 91.6 L 171.1 101.3 C 179.1 101.4 190.1 101.4 199.2 95.6 C 208.3 89.8 212.6 80.1 215.9 72.7 L 240 16.2 L 219.2 16.2 L 219.2 16.2 Z" style="fill: rgb(255, 255, 255);"/>
  <path class="st0" d="M 281 22.1 C 278.2 18.6 273.7 13.1 262.8 13.1 C 245.1 13.1 235.9 29.2 235.9 47.2 C 235.9 64.9 245.1 79.8 262.3 79.8 C 273.9 79.8 278.5 73.3 281 69.8 L 281 78 L 307 78 L 307 0.6 L 281 0.6 L 281 22.1 Z M 281 60 C 278.7 61.2 276.8 62.4 273.6 62.4 C 266.3 62.4 262.8 55.6 262.8 46.9 C 262.8 35.9 267.7 30.1 273.8 30.1 C 277 30.1 278.9 31.3 280.9 32.7 L 280.9 60 L 281 60 Z" style="fill: rgb(255, 255, 255);"/>
  <path class="st0" d="M 367.6 17.7 C 365.6 16.3 359.8 12.7 347.4 12.7 C 329 12.7 321 21 315.5 27.2 L 323.2 33.7 C 326.5 30.4 331.1 25.8 339.1 25.8 C 340.9 25.8 344.3 25.9 347.5 28.5 C 351.9 32.1 352 37.2 352 40.8 C 348.6 39.7 343.7 38.1 336.9 38.1 C 323.3 38.1 312.3 45.8 312.3 59.5 C 312.3 70.6 319.7 79.9 332.8 79.9 C 344.1 79.9 348.8 74 351.9 69.8 L 351.9 78.1 L 378 78.1 L 378 40.3 C 378 33.5 377.9 24.2 367.6 17.7 Z M 352 60.6 C 349.8 62.9 347.7 64.9 344 64.9 C 339.8 64.9 337.4 61.6 337.4 58.2 C 337.4 55.1 339.4 50.6 346.4 50.6 C 348.6 50.6 350 50.9 352.1 51.4 L 352.1 60.6 L 352 60.6 Z" style="fill: rgb(255, 255, 255);"/>
  <path class="st0" d="M 422.2 66.7 C 414.9 66.7 414.9 59.9 414.9 57.2 L 414.9 36.2 L 425.7 36.2 L 425.7 21.4 L 415 21.4 L 415 6.2 L 389 6.2 L 389 21.4 L 382.1 21.4 L 382.1 36.2 L 389 36.2 L 389 58.4 C 389 63.7 389.3 69.7 394.2 74.6 C 398.5 78.8 404.7 80.5 410.6 80.5 C 420 80.5 425.4 76.9 429.2 74.5 L 426.1 66.1 C 424.8 66.5 423.6 66.7 422.2 66.7 Z" style="fill: rgb(255, 255, 255);"/>
  <path class="st0" d="M 470.7 66.1 C 466.8 66.1 463.4 65.3 460.2 62.9 C 455.7 59.7 454.9 55.8 454.3 52.1 L 496.6 52.1 C 496.6 44.1 496.6 27.4 481.6 18.1 C 477.2 15.3 470.7 12.9 462.2 12.9 C 441.8 12.9 428.3 26.9 428.3 46.5 C 428.3 65.9 441.6 79.8 463.5 79.8 C 482.5 79.8 491 68 494.1 63.7 L 487.3 57.8 C 484.3 61 479.2 66.1 470.7 66.1 Z M 462.7 26.9 C 471 26.9 471.4 35.5 471.7 39.4 L 453.5 39.4 C 454 35 455.1 26.9 462.7 26.9 Z" style="fill: rgb(255, 255, 255);"/>
</svg>