<?xml version="1.0" encoding="utf-8"?>
<svg version="1.1" id="Layer_1" x="0px" y="0px" viewBox="0 0 3839 793.5" style="enable-background:new 0 0 3839 793.5;" xmlns="http://www.w3.org/2000/svg">
  <style type="text/css">
	.st0{display:none;}
	.st1{display:inline;}
	.st2{fill:url(#SVGID_1_);}
	.st3{fill:url(#SVGID_00000173875707091062869770000000163688282584509313_);}
	.st4{clip-path:url(#SVGID_00000119822043980948229200000005024500626519173800_);}
	.st5{clip-path:url(#SVGID_00000165232504713432959210000013345489465846479534_);fill:none;}
	.st6{fill:none;}
	.st7{fill:url(#SVGID_00000012439297334541516720000001531892802432989859_);}
	.st8{clip-path:url(#SVGID_00000001645727000168908530000000830161717032754323_);}
	.st9{clip-path:url(#SVGID_00000168831810214940204030000017293278959563104663_);}
	.st10{clip-path:url(#SVGID_00000129174129593778930860000004674995987088874639_);}
	.st11{fill:url(#SVGID_00000110458415251114457340000010699702311067989919_);}
	.st12{fill:url(#SVGID_00000144333379142118853450000015348190290357727622_);}
	.st13{clip-path:url(#SVGID_00000088838731116392389030000017629488714984672189_);}
	.st14{clip-path:url(#SVGID_00000096767169202077145000000017069251257039901078_);fill:none;}
	.st15{fill:url(#SVGID_00000115473083152367746730000011303370333610258614_);}
	.st16{clip-path:url(#SVGID_00000023967162242496675130000016100205233720302768_);}
	.st17{clip-path:url(#SVGID_00000164511730672741740810000013495386786246179472_);}
	.st18{clip-path:url(#SVGID_00000084503767504456643120000008872360685984339887_);}
	.st19{fill:#FFFFFF;}
	.st20{fill:url(#SVGID_00000157997561532473797390000014328794391203804087_);}
	.st21{fill:url(#SVGID_00000178197721074184719020000007442475645733269399_);}
	.st22{clip-path:url(#SVGID_00000157274544004561066740000008452951174855712644_);fill:#FFFFFF;}
	.st23{clip-path:url(#SVGID_00000133509522220667811520000016316525964240435330_);fill:none;}
	.st24{fill:url(#SVGID_00000126310810475494009410000010664888255834904731_);}
	.st25{clip-path:url(#SVGID_00000023962583318638131700000012000892014248996995_);fill:#FFFFFF;}
	.st26{clip-path:url(#SVGID_00000049914994349794467940000006820615555462401211_);fill:#FFFFFF;}
	.st27{clip-path:url(#SVGID_00000007406311410309215400000017403833194857706894_);}
	.st28{clip-path:url(#SVGID_00000007406311410309215400000017403833194857706894_);fill:#FFFFFF;}
	.st29{fill:url(#SVGID_00000114039181292689706920000006114425245134400414_);}
	.st30{fill:url(#SVGID_00000017479135552604801720000005695208277737660805_);}
	.st31{clip-path:url(#SVGID_00000148619318828042372760000010179726053614545321_);fill:#FFFFFF;}
	.st32{clip-path:url(#SVGID_00000021109074344861728890000011518257794974389428_);fill:none;}
	.st33{fill:url(#SVGID_00000123406305824968782760000002567908909369090704_);}
	.st34{clip-path:url(#SVGID_00000062154589621668275200000011170603757963314367_);fill:#FFFFFF;}
	.st35{clip-path:url(#SVGID_00000031200910416421371060000011008050463715839381_);fill:#FFFFFF;}
	.st36{clip-path:url(#SVGID_00000008150676967612382850000011665059247056829070_);}
	.st37{clip-path:url(#SVGID_00000008150676967612382850000011665059247056829070_);fill:#FFFFFF;}
	.st38{clip-path:url(#SVGID_00000036967746806281289490000006350740404776379059_);}
	.st39{clip-path:url(#SVGID_00000115474557453812190860000016842377141902630294_);}
	.st40{clip-path:url(#SVGID_00000152975638279972607030000001002728194620595645_);}
	.st41{clip-path:url(#SVGID_00000023273428260645882180000016155901820831241896_);}
	.st42{clip-path:url(#SVGID_00000121244697461458070660000006884150423153888667_);}
	.st43{clip-path:url(#SVGID_00000036251221619631501340000003824856431752871561_);}
	.st44{clip-path:url(#SVGID_00000072279306260364426620000010000309292721237946_);fill:#FFFFFF;}
	.st45{clip-path:url(#SVGID_00000021804274644039750390000018227818143628248482_);fill:#FFFFFF;}
	.st46{clip-path:url(#SVGID_00000102518046224692677810000008944159260446627970_);}
	.st47{clip-path:url(#SVGID_00000102518046224692677810000008944159260446627970_);fill:#FFFFFF;}
	.st48{clip-path:url(#SVGID_00000085229798952527081780000012120616371602544803_);fill:#FFFFFF;}
	.st49{clip-path:url(#SVGID_00000012457332547776716330000001267525826235478200_);fill:#FFFFFF;}
	.st50{clip-path:url(#SVGID_00000138540939825437218240000000567518064433886654_);}
	.st51{clip-path:url(#SVGID_00000138540939825437218240000000567518064433886654_);fill:#FFFFFF;}
	.st52{fill:url(#SVGID_00000041976616597542543180000015678927471019541644_);}
	.st53{fill:url(#SVGID_00000114043801216185515160000003369248397183994538_);}
	.st54{clip-path:url(#SVGID_00000176016858709540624890000013063737656248753853_);}
	.st55{clip-path:url(#SVGID_00000049935375145532782900000007570338287155569558_);fill:none;}
	.st56{fill:url(#SVGID_00000066479982814775751000000004358264052361036958_);}
	.st57{fill:url(#SVGID_00000034052289744396272860000017741910961214715314_);}
	.st58{clip-path:url(#SVGID_00000066485856653742134320000016403549213927515056_);}
	.st59{clip-path:url(#SVGID_00000154425734900909864740000005379999024114270594_);fill:none;}
	.st60{fill:url(#SVGID_00000086668706636272625650000018201229898273640840_);}
	.st61{clip-path:url(#SVGID_00000029762751060134444050000002266476183354368685_);}
	.st62{clip-path:url(#SVGID_00000129911719797800062830000018039311751412100501_);}
	.st63{clip-path:url(#SVGID_00000022559388112323129870000002002998270654960043_);}
	.st64{fill:url(#SVGID_00000046332761937508291790000005556894353041751714_);}
	.st65{clip-path:url(#SVGID_00000091693322898569270650000017419766221696707968_);}
	.st66{clip-path:url(#SVGID_00000003827650567867297360000002157899344049294231_);}
	.st67{clip-path:url(#SVGID_00000070100551659086993980000006751105460976437376_);}
	.st68{clip-path:url(#SVGID_00000060740016565600081790000011175845633874602410_);}
	.st69{clip-path:url(#SVGID_00000067937074684743963840000001483288817383488643_);}
	.st70{clip-path:url(#SVGID_00000138563343271113606830000011987111748829256332_);}
	.st71{fill:url(#SVGID_00000144338399287580164420000013217839749844872118_);}
	.st72{clip-path:url(#SVGID_00000099629286636561212560000005787279082478564003_);}
	.st73{clip-path:url(#SVGID_00000143602670972328970730000017392730991806532539_);}
	.st74{clip-path:url(#SVGID_00000074412284334855152880000005683336716544544649_);}
	.st75{fill:url(#SVGID_00000152966302701396339400000017274934075415591056_);}
	.st76{fill:url(#SVGID_00000011737267674471417910000012246066680795882928_);}
	.st77{clip-path:url(#SVGID_00000075125185984267221390000004915434727464985730_);}
	.st78{clip-path:url(#SVGID_00000007429170468434091350000000927844238633322658_);fill:none;}
	.st79{clip-path:url(#SVGID_00000071542676508081059650000001737666400268369594_);}
	.st80{clip-path:url(#SVGID_00000109008651411515164130000011071331423765240488_);}
	.st81{clip-path:url(#SVGID_00000125581124046537510820000014927139538838880958_);}
	.st82{fill:url(#SVGID_00000057143930382516865830000013615242140324641671_);}
	.st83{clip-path:url(#SVGID_00000109025925623952508270000006239703055043025596_);}
	.st84{clip-path:url(#SVGID_00000140736907859689822040000001529081501634312601_);}
	.st85{clip-path:url(#SVGID_00000130610601554105049740000011537833335681744302_);}
	.st86{clip-path:url(#SVGID_00000047044941332858045250000000241374724084424837_);}
	.st87{clip-path:url(#SVGID_00000131345567190045478820000008521834819522184336_);}
	.st88{clip-path:url(#SVGID_00000069372330334905158790000011102744051454174139_);}
	.st89{clip-path:url(#SVGID_00000051357980767711444080000004144357435043740083_);}
	.st90{clip-path:url(#SVGID_00000015338113151180073340000010033242808452182178_);}
	.st91{clip-path:url(#SVGID_00000068635146342361646520000013799745348082917542_);}
	.st92{fill:url(#SVGID_00000050629646801702765010000004318466687157074055_);}
	.st93{clip-path:url(#SVGID_00000056398724381608740640000000574636425695163014_);}
	.st94{clip-path:url(#SVGID_00000083776774370586039530000004897278448570494338_);}
	.st95{clip-path:url(#SVGID_00000101094834159828228090000002145958130795274401_);}
	.st96{clip-path:url(#SVGID_00000175295947456541536390000002600019212263236746_);}
	.st97{clip-path:url(#SVGID_00000090292978504542766490000000201111110571385252_);fill:#FFFFFF;}
	.st98{clip-path:url(#SVGID_00000124160253482212436780000017277204859071067522_);}
	.st99{clip-path:url(#SVGID_00000114765768821895472270000001415946912326979470_);}
	.st100{clip-path:url(#SVGID_00000170260588646886301890000003642884857092287873_);fill:#FFFFFF;}
	.st101{clip-path:url(#SVGID_00000050621332720250657090000000629761253112122297_);}
	.st102{fill:url(#SVGID_00000115501217935910773570000002075385145163262081_);}
	.st103{fill:url(#SVGID_00000096022431131878278690000017251070775976263840_);}
	.st104{clip-path:url(#SVGID_00000137119794467714932970000000644053411898835101_);}
	.st105{clip-path:url(#SVGID_00000059996943362418000810000012357180229144514980_);fill:none;}
	.st106{clip-path:url(#SVGID_00000033354242964848640450000003132766605602076808_);}
	.st107{clip-path:url(#SVGID_00000138564551506372327690000008712103189373643964_);}
	.st108{clip-path:url(#SVGID_00000121986952694252199330000007185237685872973225_);}
	.st109{fill:url(#SVGID_00000068652354568297537060000003256201115390412212_);}
	.st110{fill:url(#SVGID_00000170964153444989868550000011172152640983819148_);}
	.st111{fill:url(#SVGID_00000155825362639804119220000017433104189809042339_);}
	.st112{clip-path:url(#SVGID_00000132770647587212117560000006504262445429592469_);}
	.st113{clip-path:url(#SVGID_00000027592527254239707790000002299459769311636640_);fill:none;}
	.st114{fill:url(#SVGID_00000173852408638647043060000015454941963473675196_);}
	.st115{fill:url(#SVGID_00000133525434803734228210000016548191980834513549_);}
	.st116{clip-path:url(#SVGID_00000071521944343812081120000002072117284233858489_);}
	.st117{clip-path:url(#SVGID_00000098188656309334044330000001269744283788215461_);fill:none;}
	.st118{clip-path:url(#SVGID_00000041268090349354904370000003216018316441108113_);}
	.st119{clip-path:url(#SVGID_00000066506911220932135330000009045662638768055218_);}
	.st120{clip-path:url(#SVGID_00000178202694593414690660000003425494628035300770_);}
	.st121{fill:url(#SVGID_00000070810915142954250360000015114425004408609190_);}
	.st122{fill:url(#SVGID_00000134209852844551252120000014388120791847751821_);}
	.st123{fill:url(#SVGID_00000036930773100944868770000001535909010471643523_);}
	.st124{clip-path:url(#SVGID_00000113313144433111671200000007693111494060865977_);}
	.st125{clip-path:url(#SVGID_00000129194996816696157610000006929258147488480186_);fill:none;}
	.st126{clip-path:url(#SVGID_00000064325048894499062060000002089241781953558965_);}
	.st127{clip-path:url(#SVGID_00000110452579682575293500000003052097365721203378_);}
	.st128{clip-path:url(#SVGID_00000085228953180080770030000010456446281074111652_);}
	.st129{fill:url(#SVGID_00000044868435157013968550000011650556067388980906_);}
	.st130{fill:url(#SVGID_00000035524544304283013740000004557623019854115972_);}
	.st131{fill:url(#SVGID_00000087404010793385683850000003100174915281794186_);}
	.st132{clip-path:url(#SVGID_00000054953024579324202480000002931316797339559560_);}
	.st133{clip-path:url(#SVGID_00000092457586185458745160000017187865369341894788_);fill:none;}
	.st134{clip-path:url(#SVGID_00000129185192628613748340000007961678548423303305_);}
	.st135{clip-path:url(#SVGID_00000106145594848452678130000015621235662869789333_);}
	.st136{clip-path:url(#SVGID_00000182506664952742237940000016572039575671470478_);}
	.st137{fill:url(#SVGID_00000136378008371964415260000006019266886207295642_);}
	.st138{fill:url(#SVGID_00000137122499406372692550000012608354000069414548_);}
	.st139{fill:url(#SVGID_00000079449673831833232620000002684736749922437286_);}
	.st140{clip-path:url(#SVGID_00000125563544963971404480000016443688455514860424_);}
	.st141{clip-path:url(#SVGID_00000038390172458722176250000016810776732670524075_);fill:none;}
	.st142{clip-path:url(#SVGID_00000001640622326094495000000005966852913326560394_);}
	.st143{clip-path:url(#SVGID_00000076598452370987822890000011839689872133708450_);}
	.st144{clip-path:url(#SVGID_00000149370624553284263730000012315247170036563077_);}
	.st145{fill:url(#SVGID_00000022522570716760671990000005305569118663887766_);}
	.st146{fill:url(#SVGID_00000109708758696842089990000012710228341183486386_);}
	.st147{fill:url(#SVGID_00000074435416426097022000000002167468354486332307_);}
	.st148{clip-path:url(#SVGID_00000008870080316770633110000011361230694726358933_);}
	.st149{clip-path:url(#SVGID_00000023997910412888807230000008149404915216535946_);fill:none;}
	.st150{clip-path:url(#SVGID_00000101813710172313796800000007762213942489703066_);}
	.st151{clip-path:url(#SVGID_00000005950611020390001840000005436996548860373413_);fill:#FFFFFF;}
	.st152{clip-path:url(#SVGID_00000026162445877194676060000000986385491314973086_);}
	.st153{fill:url(#SVGID_00000144297799137911721300000006216086054002633891_);}
	.st154{fill:url(#SVGID_00000066477901537109047550000015335951038059271338_);}
	.st155{fill:url(#SVGID_00000140724235495979144070000007463393838072497079_);}
	.st156{clip-path:url(#SVGID_00000000198104976415784140000002574314917748307632_);fill:#FFFFFF;}
	.st157{clip-path:url(#SVGID_00000013892934232661027570000007047013584054652293_);fill:none;}
	.st158{clip-path:url(#SVGID_00000150789185638876319760000016503397449827119790_);}
	.st159{clip-path:url(#SVGID_00000170996996409454114730000015674873176252671636_);fill:#FFFFFF;}
	.st160{clip-path:url(#SVGID_00000154392483702086851750000005627109754825566619_);}
	.st161{fill:url(#SVGID_00000063616890593384992520000011093084087341692832_);}
	.st162{fill:url(#SVGID_00000030449198757458276960000007145298205474782132_);}
	.st163{fill:url(#SVGID_00000096764983279835718160000000305601192223418759_);}
	.st164{clip-path:url(#SVGID_00000041990988162852876720000013901886215491160192_);fill:#FFFFFF;}
	.st165{clip-path:url(#SVGID_00000075147575794919169410000005672600735291779500_);fill:none;}
</style>
  <defs>
    <circle id="SVGID_00000117678822606108884090000003376595495231806908_" cx="303.9" cy="402.9" r="190"/>
  </defs>
  <clipPath id="SVGID_00000012452901929582252420000007694514090217510304_">
    <circle cx="303.9" cy="402.9" r="190" transform="matrix(1, 0, 0, 1, 0, 0)" style="overflow: visible;"/>
  </clipPath>
  <polygon class="st19" points="255.9 592.4 102.5 437.8 131.1 497.2 225.2 588.7" style="clip-path: url(#SVGID_00000012452901929582252420000007694514090217510304_);"/>
  <defs>
    <path id="SVGID_00000164474925428983558410000006253370141921507481_" d="M212,475c25.5-5.7,51.1-11.3,76.4-17.9 c25.5-6.6,50.5-14.8,75.2-23.8c24.6-9,49-18.6,73.4-28.4c11.5-4.6,23.1-8.8,34.9-12.9c7.1-2.5,14.2-5,21.1-7.9 c-2.9-29.4-12.5-56.8-27.3-80.7c-21.8,7.8-44.4,13.3-66.6,19.8c-24.8,7.3-49.5,14.7-74.1,22.8c-24.6,8.1-49,16.5-73.7,24.2 c-24.9,7.8-49.9,15.1-74.6,23.2c-20.7,6.8-41.2,14.6-62.4,19.9c1.5,28.2,9.2,54.8,21.7,78.4C161.7,488.3,186.7,480.7,212,475z"/>
  </defs>
  <clipPath id="SVGID_00000072266858904626051090000014861300645515527814_">
    <path d="M212,475c25.5-5.7,51.1-11.3,76.4-17.9 c25.5-6.6,50.5-14.8,75.2-23.8c24.6-9,49-18.6,73.4-28.4c11.5-4.6,23.1-8.8,34.9-12.9c7.1-2.5,14.2-5,21.1-7.9 c-2.9-29.4-12.5-56.8-27.3-80.7c-21.8,7.8-44.4,13.3-66.6,19.8c-24.8,7.3-49.5,14.7-74.1,22.8c-24.6,8.1-49,16.5-73.7,24.2 c-24.9,7.8-49.9,15.1-74.6,23.2c-20.7,6.8-41.2,14.6-62.4,19.9c1.5,28.2,9.2,54.8,21.7,78.4C161.7,488.3,186.7,480.7,212,475z" transform="matrix(1, 0, 0, 1, 0, 0)" style="overflow: visible;"/>
  </clipPath>
  <path style="clip-path:url(#SVGID_00000072266858904626051090000014861300645515527814_);fill:#FFFFFF;" d="M 99.4 574.1 C 90.2 574.1 81.3 573.9 72.5 573.5 C 59.3 572.9 48.8 561.9 49.3 548.6 C 49.8 535.2 61.1 524.8 74.5 525.5 C 149.4 529.3 250.9 514.5 346 486 C 438.9 458 512.2 421.5 542 388.1 C 545.5 384.2 550.6 377.8 552.9 371.3 C 554.4 366.9 551.7 362.1 547 361.3 C 537 359.7 514.7 359.4 466.6 371 C 415.6 383.2 352.1 404.3 290.7 424.8 C 227.1 446 167.1 466 119.1 477.1 C 71 488.3 19.7 494.7 4.7 458.4 C -1.3 444.1 -4.5 421.5 13.9 395 C 53.5 338.1 174.8 295 243.6 274.4 C 346.7 243.3 456.7 225 523.7 227.6 C 537 228.1 547.3 239.2 546.8 252.5 C 546.3 265.8 535.2 276.1 521.9 275.6 C 459.7 273.2 355.9 290.7 257.2 320.3 C 153.4 351.3 75.2 390.4 53 422.2 C 51.9 423.8 50.9 425.4 50.2 426.8 C 48.1 430.7 49.8 437.2 56.8 437.8 C 67.3 438.7 87.3 436.3 123.6 426.5 C 167.2 414.9 219.8 397.8 275.6 379.2 C 434.9 326.1 534.8 295.8 578.9 322.5 C 591.2 329.9 599 341.3 601.2 355.5 C 604.7 377 596.8 398.7 577.6 420 C 541.6 460.2 462.1 501 359.6 531.8 C 269.2 559.1 176.1 574.1 99.4 574.1 Z"/>
  <path class="st19" d="M 448.2 279.4 C 476.1 276.1 501.2 274.7 521.7 275.5 C 535 276 546.1 265.7 546.6 252.4 C 547.1 239.1 536.8 228 523.5 227.5 C 490.3 226.2 446.6 230.1 398.4 238.1 C 417.4 249 434.2 263 448.2 279.4 Z"/>
  <path class="st19" d="M 56.8 437.8 C 49.8 437.2 48.2 430.7 50.2 426.8 C 50.9 425.4 51.8 423.8 53 422.2 C 63.2 407.6 85.1 391.5 115.9 375.3 C 119.2 352.9 126.3 331.8 136.7 312.6 C 85.7 334.5 36.4 362.5 13.7 395 C -4.6 421.4 -1.4 444.1 4.5 458.4 C 19.5 494.7 70.9 488.2 119.1 477.1 C 122 476.4 124.9 475.7 127.9 475 C 121.9 460.3 117.7 444.8 115.5 428.6 C 84.3 436.6 66.5 438.7 56.8 437.8 Z"/>
  <path class="st19" d="M 601.2 355.5 C 598.9 341.3 591.2 329.9 578.9 322.5 C 557.5 309.6 523 310 474.9 320 C 481.9 334.4 487.1 349.8 490.3 365.9 C 522.5 359.6 539 360 547.2 361.4 C 551.8 362.2 554.6 367 553.1 371.4 C 550.8 377.9 545.7 384.3 542.2 388.2 C 531.2 400.5 514.2 413.3 492.6 425.8 C 489.9 448.5 483.2 470 473.2 489.5 C 520.3 467.6 556.6 443.7 577.8 420.1 C 596.8 398.7 604.7 377 601.2 355.5 Z"/>
  <path class="st19" d="M 156.9 523.3 C 127.3 526 99.5 526.8 74.6 525.5 C 61.2 524.8 49.9 535.2 49.4 548.6 C 48.9 561.9 59.4 572.9 72.6 573.5 C 81.3 573.9 90.3 574.1 99.5 574.1 C 132.6 574.1 168.7 571.3 206.3 565.9 C 187.5 554.6 170.8 540.2 156.9 523.3 Z"/>
  <path class="st6" d="M 398.5 238.2 C 370.7 222.2 338.4 213 303.9 213 C 231.7 213 168.9 253.3 136.8 312.6 C 175 296.2 214.1 283.2 243.5 274.4 C 295.6 258.7 349.4 246.3 398.5 238.2 Z"/>
  <path class="st6" d="M 116 375.3 C 114.7 384.3 114 393.6 114 403 C 114 411.7 114.6 420.3 115.7 428.7 C 118.3 428 120.9 427.3 123.7 426.6 C 167.3 415 219.9 397.9 275.7 379.3 C 357.7 352 423.9 330.7 474.9 320.1 C 467.8 305.4 458.8 291.8 448.3 279.5 C 391.7 286.1 323.3 300.5 257.2 320.3 C 201 337 152.3 356.2 116 375.3 Z"/>
  <path class="st6" d="M 206.3 565.9 C 234.8 583 268.2 592.9 304 592.9 C 377.8 592.9 441.7 550.9 473.2 489.5 C 440.3 504.8 402 519.2 359.8 531.8 C 308.2 547.3 255.9 558.8 206.3 565.9 Z"/>
  <path class="st6" d="M 492.5 425.8 C 493.4 418.3 493.9 410.7 493.9 403 C 493.9 390.3 492.7 377.9 490.3 366 C 483.3 367.4 475.5 369.1 466.8 371.1 C 415.8 383.3 352.3 404.4 290.9 424.9 C 231.1 444.8 174.5 463.7 128.1 475.1 C 135.3 492.7 145.1 508.9 156.9 523.4 C 216.3 518 282.6 505.1 346.1 486.1 C 404.7 468.3 455.5 447.3 492.5 425.8 Z"/>
  <defs>
    <circle id="SVGID_00000085973001940163101520000015645128212965472437_" cx="303.9" cy="402.9" r="190"/>
  </defs>
  <clipPath id="SVGID_00000044869115897451094880000017853217653295520151_">
    <circle cx="303.9" cy="402.9" r="190" transform="matrix(1, 0, 0, 1, 0, 0)" style="overflow: visible;"/>
  </clipPath>
  <path class="st19" d="M 324.6 136.8 C 324.6 136.8 428.6 261.5 453.2 285.3 C 476.9 308.2 624 433.3 624 433.3 L 619.7 453.2 L 299.8 142.3" style="clip-path: url(#SVGID_00000044869115897451094880000017853217653295520151_);"/>
  <path class="st19" d="M 304.5 152.3 C 304.5 152.3 409.8 276.9 434.4 300.7 C 458.1 323.6 603.8 449.1 603.8 449.1 L 598.7 468.5 L 280.4 158.2" style="clip-path: url(#SVGID_00000044869115897451094880000017853217653295520151_);"/>
  <path class="st19" d="M 284.5 167.8 C 284.5 167.8 391 292.3 415.6 316.1 C 439.3 339 583.6 465 583.6 465 L 577.7 483.9 L 260.9 174.1" style="clip-path: url(#SVGID_00000044869115897451094880000017853217653295520151_);"/>
  <path class="st19" d="M 264.4 183.2 C 264.4 183.2 372.2 307.7 396.8 331.4 C 420.5 354.3 563.3 480.7 563.3 480.7 L 556.6 499.1 L 241.5 190" style="clip-path: url(#SVGID_00000044869115897451094880000017853217653295520151_);"/>
  <path class="st19" d="M 244.3 198.7 C 244.3 198.7 353.4 323.1 377.9 346.8 C 401.6 369.7 543 496.6 543 496.6 L 535.5 514.5 L 222 205.9" style="clip-path: url(#SVGID_00000044869115897451094880000017853217653295520151_);"/>
  <path class="st19" d="M 224.2 214.1 C 224.2 214.1 334.5 338.4 359.1 362.1 C 382.8 385 522.8 512.3 522.8 512.3 L 514.5 529.7 L 202.5 221.7" style="clip-path: url(#SVGID_00000044869115897451094880000017853217653295520151_);"/>
  <path class="st19" d="M 204.2 229.6 C 204.2 229.6 315.8 353.8 340.4 377.6 C 364.1 400.5 502.6 528.3 502.6 528.3 L 493.5 545.2 L 183.1 237.7" style="clip-path: url(#SVGID_00000044869115897451094880000017853217653295520151_);"/>
  <path class="st19" d="M 184.1 245 C 184.1 245 296.9 369.1 321.5 392.9 C 345.2 415.9 482.3 544 482.3 544 L 472.4 560.4 L 163.7 253.6" style="clip-path: url(#SVGID_00000044869115897451094880000017853217653295520151_);"/>
  <path class="st19" d="M 164 260.5 C 164 260.5 278.1 384.5 302.7 408.3 C 326.4 431.2 462.1 559.9 462.1 559.9 L 451.4 575.8 L 144.2 269.5" style="clip-path: url(#SVGID_00000044869115897451094880000017853217653295520151_);"/>
  <path class="st19" d="M 144 276 C 144 276 259.3 399.9 283.9 423.7 C 307.6 446.6 441.8 575.7 441.8 575.7 L 430.3 591 L 124.8 285.4" style="clip-path: url(#SVGID_00000044869115897451094880000017853217653295520151_);"/>
  <path class="st19" d="M 123.9 291.4 C 123.9 291.4 240.5 415.2 265.1 439 C 288.8 461.9 421.6 591.5 421.6 591.5 L 409.3 606.4 L 105.3 301.3" style="clip-path: url(#SVGID_00000044869115897451094880000017853217653295520151_);"/>
  <path class="st19" d="M 103.8 306.9 C 103.8 306.9 221.6 430.6 246.2 454.4 C 269.9 477.3 401.3 607.3 401.3 607.3 L 388.2 621.7 L 85.9 317.2" style="clip-path: url(#SVGID_00000044869115897451094880000017853217653295520151_);"/>
  <path class="st19" d="M 83.8 322.3 C 83.8 322.3 202.9 446 227.5 469.7 C 251.2 492.6 381.1 623.1 381.1 623.1 L 367.2 637 L 66.4 333.1" style="clip-path: url(#SVGID_00000044869115897451094880000017853217653295520151_);"/>
  <path class="st19" d="M 63.7 337.8 C 63.7 337.8 184 461.4 208.6 485.1 C 232.3 508 360.8 638.9 360.8 638.9 L 346.2 652.3 L 47 349" style="clip-path: url(#SVGID_00000044869115897451094880000017853217653295520151_);"/>
  <path class="st19" d="M 43.6 353.3 C 43.6 353.3 165.2 476.8 189.8 500.5 C 213.5 523.4 340.6 654.8 340.6 654.8 L 325.2 667.7 L 27.5 364.9" style="clip-path: url(#SVGID_00000044869115897451094880000017853217653295520151_);"/>
  <rect x="166.092" y="503.576" transform="matrix(0.748236, -0.663432, 0.663432, 0.748236, -311.622009, 249.962708)" class="st19" width="14.899" height="63.897" style="clip-path: url(#SVGID_00000044869115897451094880000017853217653295520151_);"/>
  <rect x="438.696" y="248.698" transform="matrix(0.707107, -0.707107, 0.707107, 0.707107, -60.9272, 394.308807)" class="st19" width="13.6" height="44" style="clip-path: url(#SVGID_00000044869115897451094880000017853217653295520151_);"/>
  <path class="st19" d="M 2044.6 6.3 C 2047.6 4.8 2051.1 3.1 2055.1 1.3 C 2068.3 -4.9 2078.8 13.6 2066.7 21.8 C 2062.5 24.7 2058.7 27.3 2055.6 29.4 C 2016.8 56.6 1982.9 88.6 1982.9 196.8 C 1982.9 332.7 2095.4 465.2 2095.4 563.7 C 2095.4 640.1 2073.8 710.2 1904.3 792.4 C 1898.7 795.1 1892.1 793 1889 787.7 C 1885.7 782 1887.9 774.7 1893.6 771.6 C 1961.3 735.4 1981.2 660.4 1978.3 596 C 1972.3 462 1863.8 346.8 1865.8 236.9 C 1867 171.3 1893 82.6 2044.6 6.3 Z"/>
  <path class="st19" d="M 1938.7 552.3 C 1929.1 548.7 1909.6 538.4 1897.3 511.2 L 1763 213.4 C 1757.3 200.7 1739.5 200.2 1733.1 212.5 L 1633.7 401.2 C 1628.6 411 1618.4 417.1 1607.4 417.1 L 1488.2 417.1 L 1484.2 417.1 C 1480.2 417.1 1476.2 420.3 1475.6 424.2 C 1474.8 429.3 1478.5 433.7 1483.4 434.1 C 1516.5 437.1 1536.4 459.2 1536.1 494.9 C 1535.9 527.8 1508.4 554.8 1475.4 554.8 L 1466.8 554.8 C 1378.5 554.8 1374.7 453.4 1374.7 431.2 C 1374.7 405.4 1374.7 353.6 1374.7 353.6 C 1374.7 315.5 1390 248.7 1464.4 248.7 C 1533.9 248.7 1572.9 280.7 1604.7 323.1 C 1609.9 330.1 1621 324.3 1618.3 316 L 1590.4 228.6 C 1587.7 220.2 1577.8 216.5 1570.2 221.1 C 1549.7 233.7 1537.7 231.6 1537.7 231.6 C 1527.6 231.9 1495.5 222.8 1456.5 222.8 C 1394.3 222.8 1344 247.5 1309.6 280.7 C 1306.2 284 1300.5 282.9 1298.8 278.4 L 1283.4 240.9 C 1280.2 233.1 1276.1 228.1 1267.7 228.1 L 1090.5 228.1 L 1090.5 228 L 998.3 228 C 992.4 228 986.7 227.8 980.8 227.5 C 949.2 225.8 838.2 220 781.4 220 C 710.2 220 654.4 242.3 648.8 294.8 C 644.6 334.3 672 354.9 687.7 369.3 C 696.2 377.1 736.2 402.4 756.7 411.9 C 778.1 421.8 863.5 464.6 854.7 498.5 C 845.9 532.1 817 540.4 783.7 540.4 C 731.4 540.4 675.3 497.1 633.7 458.3 C 626.5 451.5 615.3 459.9 619.8 468.8 C 637 502.4 659 543.3 673.4 564.9 C 677.5 571 684.9 574 692.1 572.1 C 707.6 568.2 727.7 566.1 739.9 566.7 C 755.6 567.4 788.5 571.7 802.9 571.7 C 922.7 571.7 960.2 540.2 964.1 485.6 C 969.5 410.5 879.8 360.5 825.2 338.6 C 776.4 318.9 757.5 289.3 759.6 274.6 C 763 249.1 787.3 244.8 807.6 245.6 C 870.6 248 989.4 278.7 989.4 321.9 C 989.4 321.9 989.4 514 989.4 522.4 C 989.4 533.6 977.2 553.8 961.7 553.8 L 961.4 553.8 C 958.6 553.8 955.8 554.8 953.8 556.8 C 948.4 562.2 952.2 568.5 957.3 568.5 L 1024.2 568.5 L 1090.5 568.5 L 1279.6 568.5 C 1285.7 568.5 1291 564.9 1293.4 559.2 L 1303.7 534.1 C 1305.7 529.3 1311.8 527.8 1315.7 531.3 C 1349.4 561.8 1398.8 580.9 1466.3 580.9 C 1482 580.9 1514.7 576.6 1529.9 571 C 1534.7 569.3 1539.9 568.3 1545 568.3 L 1671.5 568.3 L 1691.9 568.3 C 1699.4 568.3 1703 558.9 1697.4 553.9 C 1694.9 551.7 1692.7 549.7 1691.1 548.2 C 1679.1 537.3 1679.6 529.9 1679.3 523.6 C 1679 517.4 1680.3 511.3 1683.2 505.7 L 1772.8 335.5 L 1849.3 505.4 C 1851.9 511.1 1853.1 517.3 1852.6 523.5 C 1852.5 524.3 1852.5 525 1852.4 525.6 C 1851 533.6 1843.8 549.8 1830.3 549.8 L 1828.1 549.8 C 1824.8 549.8 1821.5 550.9 1819 553.1 C 1811.5 559.8 1816.1 568.2 1822.7 568.2 L 1936 568.2 C 1941.2 568.2 1945.4 563.5 1944.3 558.1 C 1943.8 555.7 1941.6 553.3 1938.7 552.3 Z M 1280.8 315.8 C 1265.4 340.1 1257 365.8 1257 388.4 C 1257 418.5 1262.6 448 1274.3 474.4 C 1276.9 480.2 1275.7 487 1271.3 491.5 C 1249.6 513.5 1202.2 544.2 1134.4 544.2 L 1117.8 544.2 C 1102.7 544.2 1090.4 532 1090.4 516.8 L 1090.4 424.5 L 1090.4 419.6 C 1090.4 414.5 1098.1 408.1 1106.8 409.8 C 1120.1 412.4 1143.4 420.7 1162.1 431.5 C 1175.2 439.1 1187 447 1200.6 458.3 C 1206.6 463.2 1215.6 458.9 1215.6 451.2 L 1215.6 422.2 L 1215.6 364.9 L 1215.6 335.9 C 1215.6 328.2 1206.5 323.9 1200.6 328.8 C 1187 340 1175.2 347.9 1162.1 355.6 C 1143.5 366.3 1119.4 377.6 1106.2 380.7 C 1096 383.1 1092.4 379.1 1090.5 375.2 L 1090.5 369.6 L 1090.5 279 C 1090.5 264.6 1102.2 252.9 1116.6 252.9 L 1150.1 252.9 C 1205 252.9 1255.1 284.4 1279.2 305.2 C 1282.3 307.7 1283 312.4 1280.8 315.8 Z"/>
  <path class="st19" d="M 3838.7 232.1 C 3837.9 229.7 3835.5 228.2 3832.9 228.2 L 3806.6 228.2 L 3757.1 228.2 L 3730.8 228.2 C 3728.2 228.2 3725.9 229.7 3725 232.1 C 3723.9 235.4 3725.7 238.7 3728.7 239.7 C 3738.2 242.8 3760.9 252.8 3760.9 276.6 L 3760.9 419.7 C 3760.9 425.2 3754.5 428.1 3750.3 424.6 L 3599.9 299.8 C 3553 260.8 3486.5 234.9 3442.6 220.7 C 3432.9 217.6 3426.2 230.4 3434.4 236.5 C 3435.8 237.6 3437.3 238.7 3438.8 239.8 C 3488.9 277.5 3494.3 331.5 3494.3 337.6 L 3494.3 530 L 3494.3 539.3 C 3494.3 546.5 3488.4 552.4 3481.2 552.4 C 3464.4 552.4 3426.9 525.1 3407.7 505.1 C 3389.7 486.3 3381.1 460.3 3360.9 436.6 C 3344.8 417.8 3331.2 410.8 3331.2 410.8 C 3432.3 410.8 3435.3 328.8 3435.3 319.6 C 3435.3 305.9 3435.3 228 3308.7 228 L 3016.6 228 L 2966.9 228 C 2964.3 228 2962 229.5 2961.1 231.9 C 2960 235.2 2961.8 238.6 2964.8 239.5 C 2974.3 242.6 2997 252.6 2997 276.4 L 2997 456.5 C 2997 518.7 2953.5 539.5 2918.6 539.5 C 2855 539.5 2830.6 502 2830.6 454.9 L 2830.6 427.6 L 2830.6 276.4 C 2830.6 252.5 2853.3 242.5 2862.8 239.5 C 2865.3 238.7 2866.9 236.5 2866.9 233.9 L 2866.9 233.8 C 2866.9 230.6 2864.3 227.9 2861 227.9 L 2747 227.9 L 2729.5 227.9 L 2499.6 227.9 L 2382.5 227.9 C 2375.4 227.9 2368.8 232 2365.7 238.4 L 2346.9 277.4 C 2343.7 284.1 2351.3 290.7 2357.5 286.6 C 2382.7 269.5 2425.1 249.9 2487.1 247.5 C 2493.9 247.3 2499.5 252.7 2499.5 259.5 L 2499.5 506.4 C 2499.5 518.1 2495.2 527.2 2489.3 534.1 C 2484.8 539.5 2478 542.5 2470.9 542.5 L 2455.7 542.5 C 2450.8 542.5 2445.8 541.2 2441.6 538.4 C 2431.9 532.1 2422.8 523.3 2417.2 510.9 L 2282.9 213.1 C 2277.1 200.4 2259.4 199.9 2253 212.2 L 2113.3 477.3 L 2073 553.7 L 2075.8 568.3 L 2116.3 568.3 L 2123.5 568.3 L 2211.5 568.3 C 2219 568.3 2222.6 558.9 2217 553.9 C 2217 553.9 2216.9 553.9 2216.9 553.8 C 2214.4 551.6 2212.3 549.7 2210.7 548.2 C 2198.8 537.5 2199.2 530.1 2198.9 523.8 C 2198.6 517.5 2199.9 511.2 2202.8 505.7 L 2292.5 335.5 L 2369 505.4 C 2371.6 511.1 2372.8 517.3 2372.3 523.5 C 2372.2 524.3 2372.2 525 2372.1 525.6 C 2370.7 533.6 2363.5 549.8 2350 549.8 L 2349.8 549.8 C 2347.1 549.8 2344.4 550.6 2342.3 552.3 C 2333.5 559.1 2338.2 568.2 2345 568.2 L 2457.9 568.2 L 2464.5 568.2 L 2553.7 568.2 L 2580 568.2 L 2633.9 568.2 C 2638.5 568.2 2642.5 564.7 2642.7 560.1 C 2642.9 556.4 2640.6 552.9 2637.2 551.7 C 2625.9 547.4 2600.9 534.5 2600.9 506.3 L 2600.9 259.5 C 2600.9 252.5 2606.6 247.2 2613.6 247.5 C 2661.5 249.4 2697.8 261.5 2723.3 274.9 C 2727.4 277.1 2730 281.3 2730 285.9 L 2730 445 L 2730.4 445 C 2734.5 518.1 2769.2 574.2 2896.3 574.2 C 2970 574.2 3039 535.6 3039 464.5 C 3039 455.8 3039 282.2 3039 282.2 C 3039 271.4 3042.4 263.8 3046.7 258.5 C 3053 250.8 3062.6 246.7 3072.6 246.7 L 3087.6 246.7 C 3097.6 246.7 3107.3 250.8 3113.5 258.5 C 3117.8 263.9 3121.2 271.5 3121.2 282.2 L 3121.2 502.9 C 3121.2 535.7 3095.2 548.1 3083 552.1 C 3080.1 553 3077.8 555.4 3077.1 558.5 C 3076.1 563.9 3080.1 568.6 3085.3 568.6 L 3139.6 568.6 L 3200.9 568.6 L 3257.7 568.6 C 3261.2 568.6 3264.5 566.5 3265.7 563.2 C 3267.4 558.5 3264.9 553.6 3260.6 552.2 C 3248.7 548.3 3222.1 535.9 3222.1 502.9 L 3222.1 293.6 L 3222.1 268.7 C 3222.1 250 3238.2 243.2 3249.2 243.2 L 3280.8 243.2 C 3310.2 243.2 3339.4 268 3339.4 309.4 C 3339.4 370.1 3299.9 384.8 3283.7 384.8 C 3272.9 384.8 3264.5 385 3255.5 381.7 C 3255.5 381.7 3255.4 381.7 3255.4 381.6 C 3249.7 378.9 3243.7 384.2 3245.5 390.1 C 3245.6 390.4 3245.6 390.6 3245.7 390.6 C 3255.2 422.7 3272.2 471.8 3295.5 503.1 C 3331.6 551.8 3400.1 590.6 3515.1 590.6 L 3564.5 590.6 C 3567.6 590.6 3570.5 588.7 3571.4 585.9 C 3572.7 581.9 3570.5 577.9 3566.8 576.7 C 3556.9 573.7 3535.9 564.8 3535.9 542.4 L 3535.9 380.9 C 3535.9 375.4 3542.3 372.5 3546.5 376 L 3785.2 574.2 C 3792.1 579.9 3802.4 575 3802.4 566.1 L 3802.4 276.7 C 3802.4 252.8 3825.1 242.8 3834.6 239.8 C 3837.9 238.8 3839.8 235.5 3838.7 232.1 Z"/>
</svg>