<?xml version="1.0" encoding="utf-8"?>
<!-- Generator: Adobe Illustrator 25.1.0, SVG Export Plug-In . SVG Version: 6.00 Build 0)  -->
<svg version="1.1" id="Layer_1" xmlns="http://www.w3.org/2000/svg" xmlns:xlink="http://www.w3.org/1999/xlink" x="0px" y="0px"
	 viewBox="0 0 3839.5 980.6" style="enable-background:new 0 0 3839.5 980.6;" xml:space="preserve">
<style type="text/css">
	.st0{fill:#3852A1;}
	.st1{fill:#FF0000;}
	.st2{fill:#FFFFFF;}
</style>
<g>
	<g>
		<g>
			<g>
				<path class="st2" d="M1359.4,278.5l47.6,0.1c3.6,0,6.7,2.9,6.7,6.7c0,3.7-3.1,6.6-6.7,6.6l-183.9,0.1l0.1,57.5h184.2
					c35.7,0,64.5-28.8,64.5-64.3c0-35.5-28.8-64.3-64.5-64.3l-48-0.5c-43.1,0-78-34.9-78-77.9c0-42.9,35-77.8,78-77.8l183.9,0
					l-0.1-57.9h-183.8c-75.3,0-136.4,60.8-136.4,135.9C1223,217.7,1284.1,278.5,1359.4,278.5z"/>
				<path class="st2" d="M1713.6,135.8h169.3V78h-196.5c-24.4,0-44,19.8-44,44.1l-0.1,84.8h198.8v-57.6h-141.3
					C1699.8,149.3,1700,135.8,1713.6,135.8z"/>
				<path class="st2" d="M1359.4,135.7l183.8,0l0.1-57.7h-183.9c-35.6,0-64.5,28.9-64.5,64.4c0,35.5,28.9,64.3,64.5,64.3l48,0.6
					c43.2,0,78.1,34.8,78.1,77.8c0,43-34.9,77.9-78.1,77.9h-184.2l-0.1,58.3l184.1-0.2c75.3,0,136.4-60.9,136.4-135.9
					c0-75.1-61.1-136-136.4-136l-47.8,0.3c-3.8,0-6.8-3.1-6.8-6.9C1352.6,138.8,1355.6,135.7,1359.4,135.7z"/>
				<path class="st2" d="M1841.1,220.6h-198.8v84.8c0,24.3,19.8,43.9,44.1,43.9l195.7-0.1l0-57.4h-168.5c0,0-13.6-0.1-13.8-13.6
					h141.3V220.6z"/>
				<path class="st2" d="M2517.7,350.1l-92.4-273c-1.9-5.4-6.1-9.7-11.6-11.6c-9.8-3.4-20.6,1.7-24,11.6l-116.9,343.8h68.2
					l41.4-122.1l-0.1,51.3H2517.7z M2407.4,225.4l20.4,60.5h-40.9L2407.4,225.4z"/>
				<path class="st2" d="M2047.5,135.5h163.4l-0.1-57.6l-190.4,0c-24.4,0-44.1,19.8-44.1,44.1v183.3h0c0,24.4,19.8,44.3,44.1,44.3
					h118.9V220.5h-92v57.8h34.1l0.1,13.6h-34c-7.4,0-13.5-6.1-13.5-13.6l-0.3-129C2033.8,149.2,2033.8,135.8,2047.5,135.5z"/>
				<path class="st2" d="M2020.5,420.9l190.4,0.1v0h47.6l119.2-350c5-12,16.7-19.8,29.7-19.8c13,0,24.6,7.8,29.7,19.7l99.3,292.4
					h-153.7v57.7h233.9L2494.8,60.9C2484.2,25.8,2449,0,2407.4,0c-41.7,0-76.7,25.7-87.4,60.8L2210.8,381V149.3h-163.6v57.6H2153
					v156.4h-132.4c-31.8,0-57.8-25.9-57.8-57.8V122.1c0-31.9,25.8-57.6,57.7-57.6h190.4V6.7H2020c-63.9,0-115.7,51.6-115.7,115.4
					v183.3C1904.3,369.2,1956.5,420.9,2020.5,420.9z"/>
				<path class="st2" d="M1686.3,420.9l195.7,0.1l0-57.6l-195.7,0.1c-31.9,0-58.1-25.5-58.1-58V121.5c0-31.3,26.2-57,58.1-57
					l196.5,0V6.7h-196.5c-64,0-115.8,51.6-115.8,115.4v183.3C1570.6,369.2,1622.4,420.9,1686.3,420.9z"/>
			</g>
		</g>
	</g>
	<g>
		<g>
			<rect x="1232.2" y="728.9" class="st2" width="179.1" height="78.1"/>
			<polygon class="st2" points="1713.4,902.5 1713.4,628.1 1713.4,550 1515.4,550 1515.4,628.1 1616.7,628.1 1616.7,902.5 
				1487.6,902.5 1487.6,980.6 1830.9,980.6 1830.9,902.5 			"/>
			<path class="st2" d="M716.1,902.5V628.1h468.5V550H685.9c-36.8,0-66.6,29.8-66.6,66.6V914c0,36.8,29.8,66.6,66.6,66.6h498.7
				V728.9H881.1V807h206.7v95.5H716.1z"/>
			<path class="st2" d="M1885,616.6V914c0,36.8,29.8,66.6,66.6,66.6h482.3c36.8,0,66.6-29.8,66.6-66.6V616.6
				c0-36.8-29.8-66.6-66.6-66.6h-482.3C1914.8,550,1885,579.8,1885,616.6z M1981.8,902.5V628.1h421.9v274.4H1981.8z"/>
			<path class="st2" d="M2554.5,616.6V914c0,36.8,29.8,66.6,66.6,66.6h482.3c36.8,0,66.6-29.8,66.6-66.6V616.6
				c0-36.8-29.8-66.6-66.6-66.6h-482.3C2584.3,550,2554.5,579.8,2554.5,616.6z M2651.3,902.5V628.1h421.9v274.4H2651.3z"/>
			<path class="st2" d="M3224.1,616.6V914c0,36.8,29.8,66.6,66.6,66.6h482.3c36.8,0,66.6-29.8,66.6-66.6V616.6
				c0-36.8-29.8-66.6-66.6-66.6h-482.3C3253.9,550,3224.1,579.8,3224.1,616.6z M3320.9,902.5V628.1h421.9v274.4H3320.9z"/>
			<path class="st2" d="M498.7,728.9H96.8V628.1h468.5V550H66.6C29.8,550,0,579.8,0,616.6v123.8C0,777.2,29.8,807,66.6,807h401.9
				v95.5H0v78.1h498.7c36.8,0,66.6-29.8,66.6-66.6V795.5C565.3,758.8,535.4,728.9,498.7,728.9z"/>
		</g>
	</g>
</g>
</svg>
