<?xml version="1.0" encoding="utf-8"?>
<svg viewBox="0 0 1101.596 445.61" version="1.1" id="svg29" xmlns="http://www.w3.org/2000/svg">
  <path id="path0" d="M 318.329 0.588 C 302.595 2.155 289.082 7.23 273.66 17.358 C 269.794 19.895 262.667 25.905 257.822 30.712 L 249.012 39.453 L 243.036 39.453 C 231.953 39.453 221.658 45.469 214.853 55.92 C 210.722 62.267 210.716 62.27 205.048 62.885 C 201.931 63.225 196.213 63.967 192.344 64.537 C 186.625 65.383 184.278 65.285 179.795 64.015 C 176.017 62.947 168.284 62.315 155.213 62.009 C 140.845 61.672 135.217 61.172 132.409 59.98 C 130.356 59.112 127.796 58.401 126.721 58.401 C 125.539 58.401 123.325 56.449 121.113 53.454 C 111.902 40.99 106.972 39.349 80.729 40.015 C 69.798 40.293 58.822 40.4 56.339 40.251 C 42.815 39.453 35.755 40.057 30.829 42.434 C 5.239 54.774 -9.578 114.521 7.012 138.473 C 17.287 153.31 40.247 159.275 58.305 151.799 C 68.772 147.466 74.555 151.195 67.355 157.634 C 63.161 161.382 52.56 177.58 47.456 188.037 C 39.701 203.92 36.564 215.898 33.227 242.384 C 32.743 246.225 31.621 254.302 30.735 260.335 C 29.85 266.367 28.493 275.79 27.718 281.275 C 26.946 286.759 25.848 294.39 25.285 298.228 C 24.72 302.066 23.597 309.919 22.788 315.679 C 20.93 328.912 18.475 346.079 16.507 359.556 C 12.926 384.124 13.65 393.131 20.345 407.16 C 38.394 445 95.357 451.367 125.471 418.91 C 135.735 407.851 140.885 396.922 143.617 380.401 C 145.868 366.814 144.434 367.901 160.957 367.213 C 187.423 366.108 209.958 359.045 230.496 345.413 L 236.52 341.415 L 241.037 346.34 C 260.164 367.196 292.4 373.287 317.93 360.869 L 323.055 358.376 L 327.97 360.852 C 347.171 370.52 374.276 368.702 394.365 356.404 C 398.109 354.114 397.744 353.597 400.128 364.541 C 408.726 403.993 439.013 433.733 479.988 442.952 C 533.387 454.968 575.264 425.186 575.295 375.17 L 575.301 365.353 L 580.57 366.083 C 622.122 371.837 667.461 356.691 699.445 326.364 L 703.636 322.391 L 713.998 332.784 C 745.903 364.774 797.49 377.145 831.711 361.012 C 835.147 359.393 835.447 359.413 840.048 361.591 C 857.063 369.646 880.378 369.618 897.916 361.52 L 903.832 358.787 L 908.454 361.082 C 924.153 368.882 947.664 368.831 965.572 360.964 L 971.231 358.478 L 975.782 360.928 C 990.879 369.059 1017.749 368.817 1034.469 360.405 C 1058.696 348.211 1069.16 331.707 1073.736 298.461 C 1075.784 283.598 1077.523 271.306 1081.604 242.884 C 1082.43 237.124 1083.841 227.251 1084.738 220.944 C 1085.634 214.636 1087.014 204.991 1087.804 199.503 C 1089.628 186.801 1090.844 178.206 1092.671 165.102 C 1093.471 159.343 1095.81 143.412 1097.863 129.701 C 1105.146 81.067 1102.456 65.611 1083.754 48.629 C 1066.253 32.741 1033.878 28.928 1010.682 40.024 C 1006.991 41.788 1006.804 41.782 1002.652 39.785 C 980.312 29.027 946.094 33.337 928.177 49.16 C 915.801 60.095 905.549 78.105 905.549 88.917 C 905.549 90.698 905.122 94.32 904.602 96.966 C 904.081 99.613 902.896 107.058 901.969 113.512 C 899.938 127.65 900.306 127.361 891.258 121.963 C 843.566 93.513 774.471 102.389 730.048 142.665 C 720.416 151.4 721.428 151.31 715.446 143.985 C 699.436 124.382 662.746 106.266 639.057 106.266 C 636.701 106.266 633.338 105.979 631.582 105.631 L 628.386 104.996 L 629.04 97.404 C 632.793 53.67 588.096 20.558 545.687 35.657 C 520.007 44.803 503.841 64.352 500.08 90.81 C 495.504 123.003 496.361 121.269 487.242 116.738 C 471.079 108.705 459.693 106.356 435.272 106.019 C 417.841 105.777 417.214 105.696 417.502 103.774 C 426.982 40.633 382.356 -5.801 318.329 0.588 M 355.519 21.463 C 396.336 36.261 412.867 82.904 391.234 122.222 C 389.271 125.787 387.124 129.715 386.46 130.951 C 384.817 134.019 386.036 134.851 389.888 133.283 C 418.15 121.775 447.602 119.887 468.429 128.249 C 481.824 133.626 491.629 139.819 500.13 148.264 C 508.556 156.634 508.479 156.679 510.499 141.982 C 515.208 107.679 517.19 94.232 518.194 89.813 C 526.543 52.962 573.754 37.27 598.998 62.956 C 609.85 73.998 612.76 85.118 609.958 104.853 C 606.745 127.47 606.734 125.602 610.062 124.77 C 646.727 115.6 692.47 136.795 713.789 172.829 C 717.63 179.319 721.855 182.612 721.855 179.114 C 721.855 177.729 731.29 166.695 738.335 159.84 C 756.438 142.229 776.456 131.485 803.16 125.048 C 810.646 123.245 842.862 123.245 850.34 125.051 C 872.881 130.491 893.563 142.462 904.67 156.499 C 910.368 163.703 912.769 163.737 913.757 156.626 C 914.138 153.884 915.188 146.255 916.087 139.672 C 923.138 88.062 924.393 82.536 931.317 72.551 C 946.917 50.045 983.259 44.044 1002.319 60.82 C 1005.984 64.043 1005.715 64.068 1012.115 59.876 C 1036.441 43.946 1069.075 50.832 1080.538 74.318 C 1084.183 81.783 1084.95 96.351 1082.484 111.253 C 1080.538 123.014 1078.007 140.291 1072.591 178.811 C 1071.799 184.433 1070.455 193.856 1069.604 199.753 C 1067.257 215.993 1066.335 222.455 1064.731 233.907 C 1054.318 308.286 1053.365 313.501 1048.458 322.776 C 1034.317 349.512 995.596 357.918 975.103 338.698 C 972.348 336.116 969.622 336.048 967.382 338.504 C 955.679 351.35 927.207 352.549 910.315 340.906 C 904.983 337.231 901.618 336.765 899.248 339.366 C 891.773 347.573 867.632 352.223 854.786 347.93 C 849.726 346.242 840.054 340.639 838.846 338.698 C 837.653 336.776 834.57 337.543 829.097 341.125 C 819.515 347.402 814.111 348.959 800.47 349.372 C 762.578 350.524 727.924 330.648 710.853 297.978 C 707.055 290.707 705.961 290.406 702.117 295.576 C 655.364 358.441 561.07 367.85 519.571 313.788 C 514.435 307.101 512.753 307.41 511.938 315.19 C 511.596 318.477 510.965 324.192 510.538 327.895 L 509.763 334.627 L 514.676 334.638 C 548.136 334.719 567.49 369.508 551.505 400.844 C 530.613 441.803 459.011 433.972 429.253 387.478 C 416.198 367.081 413.09 346.672 418.085 314.184 C 419.598 304.353 421.119 293.845 424.154 272.301 C 425.735 261.074 425.862 260.188 428.249 243.881 C 432.542 214.541 432.559 215.959 427.907 215.959 C 423.413 215.959 418.984 220.809 418.235 226.549 C 417.887 229.226 416.973 235.677 416.21 240.889 C 415.446 246.098 414.088 255.522 413.195 261.829 C 412.301 268.137 411.156 275.99 410.646 279.28 C 410.14 282.573 409.023 290.426 408.163 296.733 C 405.448 316.687 401.2 326.282 390.982 335.559 C 372.378 352.451 343.828 353.867 327.656 338.698 C 324.791 336.012 322.939 336.076 319.013 339.001 C 299.289 353.704 272.715 352.44 256.668 336.037 C 251.838 331.101 246.054 320.331 246.054 316.274 C 246.054 311.664 243.531 312.265 235.847 318.705 C 223.791 328.808 202.455 341.606 197.672 341.606 C 196.897 341.606 195.837 341.979 195.314 342.435 C 194.787 342.89 191.648 344.022 188.336 344.949 C 169.342 350.262 150.357 351.198 138.492 347.402 C 130.209 344.75 130.667 344.323 128.967 356.28 C 124.402 388.389 122.086 395.393 112.66 405.595 C 84.997 435.531 35.04 421.823 32.548 383.61 C 32.011 375.391 32.294 373.02 40.758 314.681 C 41.596 308.924 42.967 299.276 43.807 293.241 C 45.182 283.39 46.307 275.599 49.353 254.85 C 49.877 251.285 51.019 243.432 51.893 237.4 C 57.397 199.366 81.182 160 106.78 146.556 C 109.882 144.926 110.468 141.563 107.781 140.81 C 102.495 139.332 99.084 139.15 94.05 140.074 C 84.669 141.797 73.294 138.571 68.497 132.828 C 66.634 130.597 64.798 130.777 61.039 133.564 C 39.033 149.877 14.179 137.689 14.179 110.587 C 14.179 90.411 24.887 63.442 35.58 56.682 C 40.153 53.791 52.198 52.892 54.588 55.266 C 56.036 56.704 61.611 56.752 63.033 55.339 C 64.433 53.948 75.347 53.948 76.744 55.339 C 78.294 56.878 81.629 56.654 85.481 54.743 C 95.569 49.745 109.761 57.188 111.257 68.257 L 111.811 72.365 L 117.451 72.241 C 123.011 72.121 127.363 73.464 132.805 76.981 C 135.37 78.639 135.746 78.631 141.128 76.816 C 146.53 74.989 147.033 74.981 153.25 76.602 C 157.936 77.821 160.45 78.021 162.308 77.321 C 167.213 75.47 172.761 76.206 178.814 79.513 L 184.603 82.674 L 189.982 80.367 C 193.973 78.656 198.826 77.776 208.779 76.956 L 222.193 75.852 L 224.24 70.367 C 229.45 56.412 241.554 49.843 252.05 55.277 C 257.907 58.309 259.185 57.966 263.035 52.332 C 282.309 24.11 324.228 10.118 355.519 21.463 M 319.833 36.86 C 319.282 37.057 316.799 37.781 314.313 38.47 C 263.702 52.507 247.301 123.006 289.747 144.067 C 295.055 146.699 295.177 147.323 291.232 151.785 C 284.659 159.222 284.011 162.065 276.638 215.959 C 275.776 222.267 274.667 229.67 274.172 232.413 C 273.677 235.155 273.004 239.866 272.679 242.884 C 272.351 245.899 271.658 251.06 271.135 254.35 C 270.614 257.643 269.483 265.496 268.623 271.803 C 267.761 278.108 266.338 287.785 265.458 293.3 C 261.567 317.783 268.134 329.266 286.709 330.454 C 305.356 331.643 318.422 319.463 320.738 298.725 C 321.075 295.711 321.776 290.549 322.299 287.259 C 322.82 283.969 323.968 276.116 324.848 269.809 C 325.73 263.501 327.096 253.853 327.888 248.368 C 328.677 242.884 330.015 233.461 330.857 227.425 C 331.7 221.393 332.817 213.765 333.341 210.475 C 333.864 207.182 335.015 198.882 335.9 192.027 C 336.785 185.169 337.936 177.13 338.46 174.158 C 340.01 165.327 339.631 157.98 337.399 153.633 C 334.656 148.284 334.831 147.489 339.082 146.098 C 385.985 130.718 396.534 64.515 355.717 41.695 C 349.08 37.987 325.566 34.817 319.833 36.86 M 39.944 70.348 C 34.078 77.274 29.225 93.881 28.532 109.396 L 28.06 120.005 L 31.08 123.357 C 37.435 130.415 50.267 127.518 60.214 116.78 C 64.445 112.214 72.397 97.236 72.397 93.839 C 72.397 90.566 74.414 88.315 77.347 88.315 C 81.564 88.315 82.053 85.686 78.424 82.522 C 75.89 80.314 75.409 79.159 75.409 75.284 C 75.409 70.266 73.328 67.375 69.713 67.375 C 64.9 67.375 62.688 75.214 65.808 81.21 C 71.532 92.207 48.4 124.346 39.842 117.291 C 36.626 114.639 37.192 102.133 40.908 93.651 C 41.666 91.923 42.286 90.15 42.286 89.712 C 42.286 89.273 44.379 84.778 46.941 79.721 C 52.275 69.187 52.198 67.375 46.42 67.375 C 43.261 67.375 41.955 67.974 39.944 70.348 M 88.524 69.246 C 85.269 75.293 91.454 81.328 95.903 76.442 C 99.146 72.882 97.693 67.932 93.292 67.569 C 90.433 67.333 89.352 67.712 88.524 69.246 M 239.235 70.117 C 237.451 72.646 234.56 81.047 232.117 90.81 C 231.568 93.005 230.414 97.52 229.552 100.846 C 228.692 104.173 227.988 108.674 227.988 110.846 C 227.988 119.199 217.602 125.324 212.93 119.727 C 211.663 118.213 213.335 112.36 218.547 100.06 C 222.159 91.532 218.804 86.568 212.294 90.805 C 210.614 91.898 208.787 92.184 206.372 91.735 C 193.269 89.293 182.836 98.416 180.293 114.54 C 179.329 120.651 173.008 123.843 168.709 120.384 C 166.189 118.356 166.438 115.673 170.298 103.274 C 173.118 94.218 173.307 90.611 171 89.883 C 166.616 88.504 164.201 90.754 161.279 98.95 C 153.499 120.769 142.788 129.282 149.208 108.547 C 154.274 92.187 154.192 92.592 152.766 90.886 C 151.403 89.254 145.172 88.697 144.284 90.128 C 143.606 91.215 139.595 105.769 138.637 110.613 C 137.616 115.777 134.688 119.435 130.237 121.118 C 125.361 122.961 124.928 122.233 127.114 115.841 C 129.089 110.073 127.833 103.656 123.834 99.071 C 122.83 97.921 122.57 96.449 123.039 94.584 C 124.764 87.72 124.428 86.846 119.951 86.52 C 114.56 86.129 112.317 88.22 112.685 93.294 C 113.163 99.866 100.742 117.982 93.776 120.873 C 89.649 122.587 83.951 120.387 84.867 117.431 C 85.155 116.501 86.315 112.599 87.446 108.758 C 88.578 104.92 89.989 100.183 90.583 98.236 C 92.789 90.99 89.446 87.118 83.645 90.201 C 81.603 91.288 77.864 103.712 75.777 116.347 C 74.434 124.478 90.783 131.154 97.829 125.349 C 99.226 124.2 100.057 124.22 103.253 125.481 C 108.132 127.408 132.678 127.24 135.073 125.265 C 136.351 124.211 137.256 124.279 140.147 125.641 C 145.13 127.99 150.314 126.838 154.506 122.452 C 156.324 120.547 157.905 119.157 158.018 119.359 C 158.131 119.561 158.906 121.056 159.743 122.677 C 162.068 127.186 175.007 128.754 179.478 125.068 C 180.533 124.197 181.651 124.352 184.204 125.72 C 189.301 128.445 195.359 127.296 199.638 122.789 C 203.592 118.626 204.898 118.331 204.898 121.601 C 204.898 126.616 219.062 129.103 224.763 125.091 C 226.899 123.59 227.323 123.607 230.748 125.341 C 237.109 128.563 245.941 127.524 250.822 122.978 C 255.257 118.85 252.33 115.555 247.378 119.103 C 240.007 124.385 234.326 121.927 236.15 114.243 C 240.194 97.211 242.428 90.425 245.743 85.098 C 249.216 79.521 250.721 73.073 249.278 69.932 C 247.57 66.204 241.925 66.308 239.235 70.117 M 558.569 70.264 C 553.832 71.477 546.767 75.88 543.628 79.572 C 538.345 85.778 537.05 90.335 533.611 114.743 C 532.762 120.775 531.382 130.423 530.542 136.183 C 529.702 141.94 528.347 151.363 527.527 157.123 C 526.71 162.883 525.621 170.286 525.109 173.576 C 524.597 176.869 523.918 181.581 523.599 184.048 C 523.279 186.517 522.6 191.451 522.091 195.016 C 521.582 198.582 520.44 206.66 519.552 212.967 C 518.664 219.275 517.493 226.903 516.95 229.92 C 505.784 291.951 551.513 339.038 613.677 329.519 C 720.073 313.229 744.059 165.617 643.862 143.744 C 613.6 137.135 593.348 149.22 593.362 173.866 C 593.373 189.349 600.729 195.899 619.865 197.469 C 669.047 201.501 656.06 274.793 606.165 274.793 C 580.898 274.793 568.429 257.542 573.01 228.923 C 573.669 224.81 574.928 216.282 575.81 209.975 C 576.693 203.667 577.875 195.59 578.437 192.027 C 579.003 188.462 579.871 182.404 580.366 178.563 C 580.864 174.725 581.978 166.648 582.838 160.613 C 583.701 154.58 584.824 146.278 585.335 142.165 C 585.845 138.051 586.707 131.994 587.25 128.704 C 594.1 87.149 592.89 78.257 579.439 71.382 C 576.503 69.879 562.899 69.151 558.569 70.264 M 959.24 72.86 C 949.757 77.42 943.04 86.531 941.592 96.792 C 940.63 103.608 938.229 120.03 936.051 134.685 C 935.237 140.17 934.17 148.135 933.678 152.386 C 933.189 156.634 932.541 160.896 932.244 161.857 C 931.945 162.818 931.232 167.42 930.661 172.081 C 930.089 176.743 928.924 185.27 928.073 191.03 C 927.219 196.786 925.889 205.985 925.115 211.472 C 924.34 216.957 922.979 226.38 922.091 232.413 C 921.203 238.445 920.103 246.298 919.648 249.863 C 919.189 253.429 918.347 259.261 917.775 262.827 C 917.201 266.392 916.002 274.695 915.108 281.275 C 914.215 287.858 913.055 295.674 912.529 298.644 C 908.479 321.509 924.088 335.767 945.953 329.179 C 960.818 324.697 965.928 316.802 969.22 293.241 C 970.142 286.661 971.305 278.808 971.805 275.79 C 972.306 272.776 973.426 264.923 974.291 258.34 C 975.157 251.76 976.523 241.887 977.323 236.402 C 978.123 230.918 979.47 221.494 980.312 215.459 C 981.155 209.427 982.275 201.799 982.798 198.509 C 983.322 195.216 984.009 190.279 984.326 187.537 C 984.642 184.795 985.327 179.637 985.844 176.071 C 986.365 172.506 987.499 164.653 988.367 158.621 C 989.235 152.585 990.412 144.733 990.983 141.167 C 991.554 137.605 992.431 131.544 992.926 127.706 C 993.424 123.866 994.544 115.791 995.415 109.756 C 998.198 90.493 998.226 89.816 996.487 84.609 C 992.202 71.798 973.629 65.937 959.24 72.86 M 1026.039 73.615 C 1018.408 77.417 1012.938 83.851 1010.653 91.704 C 1009.31 96.317 1008.674 100.239 1005.851 121.224 C 1004.878 128.465 1002.754 143.345 1000.441 159.118 C 999.598 164.878 998.435 173.177 997.861 177.566 C 997.287 181.954 996.62 186.217 996.379 187.04 C 996.139 187.863 995.474 192.35 994.903 197.011 C 994.332 201.672 993.212 209.975 992.414 215.459 C 988.777 240.465 987.671 248.034 986.305 257.342 C 985.499 262.827 984.396 270.904 983.856 275.293 C 983.316 279.679 982.354 285.739 981.715 288.754 C 975.123 319.944 990.279 337.92 1015.323 328.608 C 1030.462 322.984 1034.079 315.909 1038.511 283.27 C 1041.017 264.816 1042.982 250.95 1044.029 244.379 C 1044.552 241.089 1045.239 236.152 1045.55 233.41 C 1045.864 230.668 1046.554 225.731 1047.083 222.441 C 1047.612 219.148 1048.752 211.295 1049.617 204.991 C 1052.805 181.775 1054.142 172.441 1055.115 166.597 C 1055.664 163.307 1056.58 157.025 1057.152 152.636 C 1057.72 148.247 1058.846 140.17 1059.652 134.685 C 1060.455 129.201 1061.564 121.101 1062.118 116.687 C 1062.669 112.27 1063.577 106.263 1064.137 103.336 C 1069.248 76.554 1050.109 61.621 1026.039 73.615 M 207.384 99.245 C 208.261 100.655 202.641 111.09 198.34 116.041 C 191.15 124.321 186.843 118.491 192.511 108.148 C 196.479 100.905 205.178 95.699 207.384 99.245 M 118.573 109.927 C 118.573 115.923 112.908 122.435 110.111 119.654 C 107.789 117.35 108.134 115.796 112.227 110.141 C 115.901 105.061 118.573 104.971 118.573 109.927 M 157.218 144.117 C 120.386 152.13 88.165 179.887 76.713 213.464 C 72.519 225.762 72.89 223.868 67.824 258.837 C 66.993 264.597 65.864 272.225 65.318 275.79 C 64.775 279.356 63.885 285.638 63.342 289.751 C 62.799 293.865 61.659 301.942 60.813 307.702 C 59.968 313.459 58.853 321.537 58.341 325.65 C 57.295 334.034 56.214 341.232 53.697 356.564 C 48.069 390.839 54.798 404.359 76.917 403.201 C 94.206 402.296 104.469 392.142 107.427 373.017 C 108.434 366.513 109.048 362.183 113.087 333.129 C 113.927 327.097 115.069 319.469 115.629 316.179 C 116.186 312.886 117.06 306.828 117.572 302.715 C 118.081 298.602 119.156 290.749 119.962 285.264 C 123.183 263.338 124.773 252.012 125.632 244.879 C 129.275 214.594 150.967 194.564 176.795 197.641 C 222.3 203.06 210.73 271.669 163.691 275.324 C 140.933 277.091 128.611 288.493 128.611 307.778 C 128.611 327.459 145.158 335.219 174.283 329.198 C 276.782 308.011 295.997 164.878 199.18 143.744 C 189.352 141.597 167.917 141.788 157.218 144.117 M 415.698 144.14 C 383.892 151.715 357.329 175.669 347.663 205.488 C 345.711 211.515 343.87 221.753 340.943 242.884 C 340.069 249.192 338.921 257.045 338.392 260.335 C 337.863 263.625 336.944 269.907 336.347 274.296 C 335.75 278.681 334.619 286.984 333.83 292.744 C 330.17 319.505 337.009 330.637 357.114 330.637 C 377.687 330.637 386.508 319.075 390.597 286.759 C 391.118 282.646 392.209 274.793 393.021 269.309 C 395.603 251.878 397.75 236.619 398.629 229.409 C 402.586 197.039 438.852 184.525 449.786 211.756 C 451.319 215.572 450.742 222.59 446.859 247.371 C 446.344 250.661 445.201 258.514 444.319 264.822 C 443.439 271.129 442.065 280.777 441.267 286.262 C 440.473 291.746 439.115 301.394 438.255 307.702 C 437.396 314.01 436.259 321.334 435.73 323.981 C 428.037 362.495 450.566 399.015 486.838 406.826 C 517.742 413.479 538.122 401.917 538.15 377.715 C 538.17 361.321 531.119 354.763 511.681 353.089 C 494.146 351.577 488.591 341.687 492.426 318.814 C 493.221 314.074 494.604 304.811 495.498 298.228 C 496.394 291.648 497.54 283.57 498.046 280.277 C 498.552 276.987 499.672 269.134 500.535 262.827 C 502.588 247.806 504.876 231.921 506.078 224.321 C 510.824 194.306 499.664 167.721 475.992 152.65 C 460.502 142.791 435.925 139.321 415.698 144.14 M 806.675 143.721 C 768.464 152.535 738.199 177.732 725.303 211.472 C 701.718 273.172 736.833 330.505 798.474 330.94 C 839.253 331.23 847.549 279.887 807.385 275.759 C 786.38 273.602 774.757 261.911 774.697 242.884 C 774.567 201.161 832.511 179.833 850.238 215.077 C 855.513 225.56 855.465 226.554 846.802 284.267 C 844.095 302.305 843.776 313.746 845.86 318.109 C 857.804 343.112 900.529 329.69 900.529 300.936 C 900.529 299.054 901.177 293.637 901.969 288.897 C 902.761 284.157 904.16 274.894 905.082 268.311 C 906.004 261.731 907.37 252.307 908.114 247.371 C 914.509 205.041 905.17 177.105 877.949 157.126 C 860.42 144.263 829.519 138.45 806.675 143.721" stroke="none" fill="#ffffff" fill-rule="evenodd" fill-opacity="1"/>
</svg>