<?xml version="1.0" encoding="UTF-8" standalone="no"?>
<svg
   width="242mm"
   height="69.5mm"
   viewBox="0 0 241.99999 69.500008"
   version="1.1"
   id="svg8"
   xmlns:xlink="http://www.w3.org/1999/xlink"
   xmlns="http://www.w3.org/2000/svg"
   xmlns:svg="http://www.w3.org/2000/svg"
   xmlns:rdf="http://www.w3.org/1999/02/22-rdf-syntax-ns#"
   xmlns:cc="http://creativecommons.org/ns#"
   xmlns:dc="http://purl.org/dc/elements/1.1/">
  <defs
     id="defs2">
    <linearGradient
       id="linearGradient3171">
      <stop
         style="stop-color:#6eb0d3;stop-opacity:1"
         offset="0"
         id="stop3167" />
      <stop
         style="stop-color:#1ba7d6;stop-opacity:1"
         offset="0.53104043"
         id="stop3649" />
      <stop
         style="stop-color:#2d5b85;stop-opacity:1"
         offset="1"
         id="stop3169" />
    </linearGradient>
    <linearGradient
       xlink:href="#linearGradient3171"
       id="linearGradient3175"
       x1="61.796741"
       y1="716.83881"
       x2="330.15982"
       y2="716.83881"
       gradientUnits="userSpaceOnUse" />
    <linearGradient
       id="linearGradient18624">
      <stop
         style="stop-color:#7b7b7b;stop-opacity:1"
         offset="0"
         id="stop18626" />
      <stop
         style="stop-color:#242424;stop-opacity:1"
         offset="1"
         id="stop18628" />
    </linearGradient>
    <filter
       style="color-interpolation-filters:sRGB"
       id="filter17874">
      <feColorMatrix
         type="hueRotate"
         values="0"
         id="feColorMatrix17876" />
      <feColorMatrix
         type="saturate"
         values="1"
         id="feColorMatrix17878" />
      <feColorMatrix
         type="matrix"
         values="2 -1 0 0 0 0 2 -1 0 0 -1 0 2 0 0 0 0 0 1 0 "
         id="feColorMatrix17880"
         result="fbSourceGraphic" />
      <feColorMatrix
         result="fbSourceGraphicAlpha"
         in="fbSourceGraphic"
         values="0 0 0 -1 0 0 0 0 -1 0 0 0 0 -1 0 0 0 0 1 0"
         id="feColorMatrix17936" />
      <feColorMatrix
         id="feColorMatrix17938"
         type="hueRotate"
         values="180"
         result="color1"
         in="fbSourceGraphic" />
      <feColorMatrix
         id="feColorMatrix17940"
         values="1 0 0 0 0 0 1 0 0 0 0 0 1 0 0 -0.21 -0.72 -0.07 2 0 "
         result="fbSourceGraphic" />
      <feColorMatrix
         result="fbSourceGraphicAlpha"
         in="fbSourceGraphic"
         values="0 0 0 -1 0 0 0 0 -1 0 0 0 0 -1 0 0 0 0 1 0"
         id="feColorMatrix17978" />
      <feColorMatrix
         id="feColorMatrix17980"
         type="hueRotate"
         values="0"
         in="fbSourceGraphic" />
      <feColorMatrix
         id="feColorMatrix17982"
         type="saturate"
         values="1" />
      <feColorMatrix
         id="feColorMatrix17984"
         type="matrix"
         values="2 -1 0 0 0 0 2 -1 0 0 -1 0 2 0 0 0 0 0 1 0 "
         result="fbSourceGraphic" />
      <feColorMatrix
         result="fbSourceGraphicAlpha"
         in="fbSourceGraphic"
         values="0 0 0 -1 0 0 0 0 -1 0 0 0 0 -1 0 0 0 0 1 0"
         id="feColorMatrix17986" />
      <feColorMatrix
         id="feColorMatrix17988"
         type="hueRotate"
         values="0"
         in="fbSourceGraphic" />
      <feColorMatrix
         id="feColorMatrix17990"
         type="saturate"
         values="1" />
      <feColorMatrix
         id="feColorMatrix17992"
         type="matrix"
         values="2 -1 0 0 0 0 2 -1 0 0 -1 0 2 0 0 0 0 0 1 0 "
         result="fbSourceGraphic" />
      <feColorMatrix
         result="fbSourceGraphicAlpha"
         in="fbSourceGraphic"
         values="0 0 0 -1 0 0 0 0 -1 0 0 0 0 -1 0 0 0 0 1 0"
         id="feColorMatrix17994" />
      <feColorMatrix
         id="feColorMatrix17996"
         type="hueRotate"
         values="0"
         in="fbSourceGraphic" />
      <feColorMatrix
         id="feColorMatrix17998"
         type="saturate"
         values="1" />
      <feColorMatrix
         id="feColorMatrix18000"
         type="matrix"
         values="2 -1 0 0 0 0 2 -1 0 0 -1 0 2 0 0 0 0 0 1 0 "
         result="fbSourceGraphic" />
      <feColorMatrix
         result="fbSourceGraphicAlpha"
         in="fbSourceGraphic"
         values="0 0 0 -1 0 0 0 0 -1 0 0 0 0 -1 0 0 0 0 1 0"
         id="feColorMatrix18006" />
      <feColorMatrix
         id="feColorMatrix18008"
         values="0.21 0.72 0.072 0 0 0.21 0.72 0.072 0 0 0.21 0.72 0.072 0 0 0 0 0 1 0 "
         in="fbSourceGraphic"
         result="fbSourceGraphic" />
      <feColorMatrix
         result="fbSourceGraphicAlpha"
         in="fbSourceGraphic"
         values="0 0 0 -1 0 0 0 0 -1 0 0 0 0 -1 0 0 0 0 1 0"
         id="feColorMatrix18010" />
      <feColorMatrix
         id="feColorMatrix18012"
         values="0.21 0.72 0.072 0 0 0.21 0.72 0.072 0 0 0.21 0.72 0.072 0 0 0 0 0 1 0 "
         in="fbSourceGraphic" />
    </filter>
    <filter
       style="color-interpolation-filters:sRGB"
       id="filter18043">
      <feColorMatrix
         values="-1 0 0 0 1 0 -1 0 0 1 0 0 -1 0 1 -0.21 -0.72 -0.07 2 0 "
         result="fbSourceGraphic"
         id="feColorMatrix18045" />
      <feColorMatrix
         result="fbSourceGraphicAlpha"
         in="fbSourceGraphic"
         values="0 0 0 -1 0 0 0 0 -1 0 0 0 0 -1 0 0 0 0 1 0"
         id="feColorMatrix18591" />
      <feColorMatrix
         id="feColorMatrix18593"
         values="1"
         type="saturate"
         result="colormatrix1"
         in="fbSourceGraphic" />
      <feColorMatrix
         id="feColorMatrix18595"
         values="1 0 0 0 0 0 1 0 0 0 0 0 1 0 0 10 -10 -2.92 1 0 "
         in="fbSourceGraphic"
         result="colormatrix2" />
      <feFlood
         id="feFlood18597"
         flood-color="rgb(0,255,255)"
         flood-opacity="1"
         result="flood" />
      <feComposite
         id="feComposite18599"
         in2="colormatrix2"
         operator="in"
         result="composite1" />
      <feMerge
         id="feMerge18601"
         result="merge">
        <feMergeNode
           id="feMergeNode18603"
           in="colormatrix1" />
        <feMergeNode
           id="feMergeNode18605"
           in="composite1" />
      </feMerge>
      <feComposite
         id="feComposite18607"
         in2="fbSourceGraphic"
         in="merge"
         operator="in"
         result="composite2" />
    </filter>
    <linearGradient
       xlink:href="#linearGradient18624"
       id="linearGradient18630"
       x1="573.26154"
       y1="836.18958"
       x2="608.11182"
       y2="820.53217"
       gradientUnits="userSpaceOnUse"
       gradientTransform="matrix(0.66408768,0,0,0.68156677,-255.42622,209.78558)" />
  </defs>
  <metadata
     id="metadata5">
    <rdf:RDF>
      <cc:Work
         rdf:about="">
        <dc:format>image/svg+xml</dc:format>
        <dc:type
           rdf:resource="http://purl.org/dc/dcmitype/StillImage" />
      </cc:Work>
    </rdf:RDF>
  </metadata>
  <path
     style="fill:#000000;stroke-width:0.481001"
     d=""
     id="path18014" />
  <g
     id="g1804">
    <g
       id="g4043"
       style="fill:#ffffff;fill-opacity:1"
       transform="matrix(1.5727982,0,0,1.5727982,-75.905952,-1342.8037)">
      <g
         id="g4310"
         style="fill:#ffffff;fill-opacity:1">
        <path
           d="m 201.07852,861.19068 0.13337,2.82732 h -0.33786 q -0.0978,-0.74684 -0.26673,-1.06691 -0.27562,-0.51568 -0.73795,-0.75574 -0.45344,-0.24894 -1.20028,-0.24894 h -1.69817 v 9.21104 q 0,1.11137 0.24005,1.38699 0.33786,0.37342 1.04025,0.37342 h 0.41787 v 0.32897 h -5.1123 v -0.32897 h 0.42676 q 0.76463,0 1.0847,-0.46233 0.1956,-0.28451 0.1956,-1.29808 v -9.21104 h -1.44923 q -0.84464,0 -1.20028,0.12447 -0.46233,0.16893 -0.79129,0.64904 -0.32897,0.48011 -0.39121,1.29808 h -0.33785 l 0.14225,-2.82732 z"
           style="font-size:18.2087px;font-family:'Times New Roman';-inkscape-font-specification:'Times New Roman, ';letter-spacing:-0.949854px;fill:#ffffff;stroke-width:1.13805;fill-opacity:1"
           id="path3978" />
        <path
           d="m 184.28928,861.84861 v 4.73888 h 2.19607 q 0.75573,0 1.10248,-0.32896 0.35563,-0.33786 0.47122,-1.32476 h 0.32896 v 4.08096 h -0.32896 q -0.009,-0.70239 -0.18671,-1.03136 -0.16893,-0.32896 -0.48012,-0.489 -0.30229,-0.16893 -0.90687,-0.16893 h -2.19607 v 3.78755 q 0,0.91577 0.11558,1.20918 0.0889,0.22227 0.37342,0.38231 0.3912,0.21338 0.81797,0.21338 h 0.43566 v 0.32897 h -5.17455 v -0.32897 h 0.42677 q 0.74684,0 1.0847,-0.43566 0.21338,-0.28451 0.21338,-1.36921 v -7.78848 q 0,-0.91577 -0.11558,-1.20917 -0.0889,-0.22228 -0.36453,-0.38232 -0.38231,-0.21338 -0.81797,-0.21338 h -0.42677 v -0.32896 h 8.97099 l 0.11558,2.6495 h -0.31118 q -0.23117,-0.84464 -0.54235,-1.23584 -0.30229,-0.40009 -0.75573,-0.57791 -0.44455,-0.17782 -1.38699,-0.17782 z"
           style="font-size:18.2087px;font-family:'Times New Roman';-inkscape-font-specification:'Times New Roman, ';letter-spacing:-0.949854px;fill:#ffffff;stroke-width:1.13805;fill-opacity:1"
           id="path3976" />
        <path
           d="m 168.36637,860.91506 v 4.16986 h -0.32896 q -0.16004,-1.20028 -0.57792,-1.91156 -0.40898,-0.71128 -1.1736,-1.12915 -0.76463,-0.41788 -1.58259,-0.41788 -0.92467,0 -1.52925,0.56902 -0.60459,0.56014 -0.60459,1.2803 0,0.55124 0.38231,1.00468 0.55124,0.66683 2.62284,1.7782 1.68928,0.90687 2.30276,1.39588 0.62237,0.48011 0.95133,1.13804 0.33786,0.65793 0.33786,1.3781 0,1.36921 -1.06692,2.365 -1.05802,0.9869 -2.72952,0.9869 -0.52457,0 -0.9869,-0.08 -0.27562,-0.0445 -1.14693,-0.32008 -0.86243,-0.28451 -1.09359,-0.28451 -0.22228,0 -0.35564,0.13337 -0.12448,0.13336 -0.18671,0.55124 h -0.32897 v -4.1343 h 0.32897 q 0.23116,1.29808 0.62237,1.94712 0.3912,0.64015 1.19138,1.06691 0.80908,0.42677 1.76931,0.42677 1.11137,0 1.75152,-0.5868 0.64904,-0.58681 0.64904,-1.38699 0,-0.44455 -0.24895,-0.89799 -0.24005,-0.45344 -0.75573,-0.84464 -0.34675,-0.26673 -1.89378,-1.12916 -1.54703,-0.87131 -2.20496,-1.38699 -0.64904,-0.51567 -0.98689,-1.13804 -0.33786,-0.62237 -0.33786,-1.36921 0,-1.29808 0.99579,-2.23163 0.99579,-0.94244 2.53392,-0.94244 0.96023,0 2.03603,0.47122 0.4979,0.22227 0.70239,0.22227 0.23117,0 0.37342,-0.13336 0.15115,-0.14226 0.24006,-0.56013 z"
           style="font-size:18.2087px;font-family:'Times New Roman';-inkscape-font-specification:'Times New Roman, ';letter-spacing:-0.949854px;fill:#ffffff;stroke-width:1.13805;fill-opacity:1"
           id="path3972" />
        <path
           d="m 154.81586,860.91506 q 2.34722,0 4.06318,1.78708 1.72484,1.77819 1.72484,4.44548 0,2.74731 -1.73374,4.56107 -1.73373,1.81376 -4.19653,1.81376 -2.48947,0 -4.18765,-1.76931 -1.68928,-1.7693 -1.68928,-4.57884 0,-2.87179 1.95601,-4.68554 1.69818,-1.5737 4.06317,-1.5737 z m -0.16892,0.64904 q -1.61816,0 -2.59617,1.20028 -1.21806,1.49368 -1.21806,4.37435 0,2.9518 1.26252,4.54329 0.96911,1.20917 2.5606,1.20917 1.69817,0 2.80065,-1.32476 1.11137,-1.32475 1.11137,-4.17875 0,-3.09406 -1.21806,-4.61441 -0.97801,-1.20917 -2.70285,-1.20917 z"
           style="font-size:18.2087px;font-family:'Times New Roman';-inkscape-font-specification:'Times New Roman, ';letter-spacing:-0.949854px;fill:#ffffff;stroke-width:1.13805;fill-opacity:1"
           id="path3970" />
        <path
           d="m 150.87004,873.24683 h -3.21853 l -4.08095,-5.63688 q -0.45344,0.0178 -0.73795,0.0178 -0.11558,0 -0.24895,0 -0.13336,-0.009 -0.27562,-0.0178 v 3.50304 q 0,1.13805 0.24895,1.41367 0.33786,0.3912 1.01357,0.3912 h 0.47122 v 0.32897 h -5.16565 v -0.32897 h 0.45344 q 0.76462,0 1.09359,-0.49789 0.18671,-0.27562 0.18671,-1.30698 v -7.78848 q 0,-1.13805 -0.24895,-1.41367 -0.34675,-0.3912 -1.03135,-0.3912 h -0.45344 v -0.32896 h 4.39214 q 1.92045,0 2.82732,0.28451 0.91577,0.27562 1.54703,1.03135 0.64015,0.74684 0.64015,1.78708 0,1.11137 -0.72906,1.92934 -0.72017,0.81797 -2.24052,1.15583 l 2.48947,3.45858 q 0.85353,1.19139 1.46701,1.5826 0.61348,0.3912 1.60037,0.49789 z m -8.562,-6.19701 q 0.16893,0 0.2934,0.009 0.12448,0 0.2045,0 1.72484,0 2.59616,-0.74684 0.8802,-0.74684 0.8802,-1.90266 0,-1.12916 -0.71127,-1.83154 -0.70239,-0.71128 -1.86711,-0.71128 -0.51567,0 -1.39588,0.16893 z"
           style="font-size:18.2087px;font-family:'Times New Roman';-inkscape-font-specification:'Times New Roman, ';letter-spacing:-0.949854px;fill:#ffffff;stroke-width:1.13805;fill-opacity:1"
           id="path3968" />
        <path
           d="m 138.86684,860.91506 0.27562,4.09873 h -0.27562 q -0.55124,-1.84043 -1.5737,-2.64951 -1.02246,-0.80908 -2.45391,-0.80908 -1.20028,0 -2.16939,0.61348 -0.96912,0.60459 -1.52925,1.93823 -0.55124,1.33365 -0.55124,3.31633 0,1.63594 0.52457,2.83622 0.52456,1.20028 1.5737,1.84043 1.05802,0.64015 2.40945,0.64015 1.17361,0 2.0716,-0.49789 0.89798,-0.50679 1.97379,-2.00047 l 0.27562,0.17782 q -0.90688,1.60926 -2.11605,2.3561 -1.20917,0.74685 -2.87178,0.74685 -2.99626,0 -4.64109,-2.22275 -1.22695,-1.65372 -1.22695,-3.89424 0,-1.80487 0.80908,-3.31633 0.80908,-1.51146 2.22274,-2.33832 1.42255,-0.83575 3.10295,-0.83575 1.30697,0 2.57838,0.64014 0.37342,0.19561 0.53345,0.19561 0.24006,0 0.41788,-0.16893 0.23117,-0.24006 0.32897,-0.66682 z"
           style="font-size:18.2087px;font-family:'Times New Roman';-inkscape-font-specification:'Times New Roman, ';letter-spacing:-0.949854px;fill:#ffffff;stroke-width:1.13805;fill-opacity:1"
           id="path3966" />
        <path
           d="m 129.47866,872.91786 v 0.32897 h -5.16565 v -0.32897 h 0.42677 q 0.74684,0 1.0847,-0.43566 0.21338,-0.28451 0.21338,-1.36921 v -7.78848 q 0,-0.91577 -0.11558,-1.20917 -0.0889,-0.22228 -0.36453,-0.38232 -0.3912,-0.21338 -0.81797,-0.21338 h -0.42677 v -0.32896 h 5.16565 v 0.32896 h -0.43565 q -0.73795,0 -1.07581,0.43566 -0.22227,0.28451 -0.22227,1.36921 v 7.78848 q 0,0.91577 0.11558,1.20918 0.0889,0.22227 0.37342,0.38231 0.38231,0.21338 0.80908,0.21338 z"
           style="font-size:18.2087px;font-family:'Times New Roman';-inkscape-font-specification:'Times New Roman, ';letter-spacing:-0.949854px;fill:#ffffff;stroke-width:1.13805;fill-opacity:1"
           id="path3964" />
        <path
           d="m 115.1663,873.24683 -5.44118,-11.84809 v 9.40786 q 0,1.29799 0.28036,1.61989 0.38421,0.43613 1.21492,0.43613 h 0.49844 v 0.38421 h -4.90123 v -0.38421 h 0.49844 q 0.89301,0 1.26683,-0.53996 0.22844,-0.33229 0.22844,-1.51606 v -9.20018 q 0,-0.93454 -0.20767,-1.3499 -0.14537,-0.30115 -0.53997,-0.49844 -0.3842,-0.20768 -1.24607,-0.20768 v -0.3842 h 3.98744 l 5.1089,11.01737 5.02582,-11.01737 h 3.98745 v 0.3842 h -0.48805 q -0.9034,0 -1.27723,0.53996 -0.22844,0.33229 -0.22844,1.51606 v 9.20018 q 0,1.29799 0.29075,1.61989 0.3842,0.43613 1.21492,0.43613 h 0.48805 v 0.38421 h -5.98116 v -0.38421 h 0.49843 q 0.9034,0 1.26684,-0.53996 0.22844,-0.33229 0.22844,-1.51606 v -9.40786 l -5.4308,11.84809 z"
           style="font-size:18.2087px;font-family:'Times New Roman';-inkscape-font-specification:'Times New Roman, ';letter-spacing:-0.949854px;fill:#ffffff;stroke-width:1.32915;fill-opacity:1"
           id="path3962" />
        <path
           d="m 175.45772,860.91506 q 2.34721,0 4.06317,1.78708 1.72485,1.77819 1.72485,4.44548 0,2.74731 -1.73374,4.56107 -1.73374,1.81376 -4.19654,1.81376 -2.48947,0 -4.18764,-1.76931 -1.68929,-1.7693 -1.68929,-4.57884 0,-2.87179 1.95601,-4.68554 1.69818,-1.5737 4.06318,-1.5737 z m -0.16893,0.64904 q -1.61816,0 -2.59616,1.20028 -1.21807,1.49368 -1.21807,4.37435 0,2.9518 1.26252,4.54329 0.96912,1.20917 2.5606,1.20917 1.69817,0 2.80065,-1.32476 1.11137,-1.32475 1.11137,-4.17875 0,-3.09406 -1.21806,-4.61441 -0.978,-1.20917 -2.70285,-1.20917 z"
           style="font-size:18.2087px;font-family:'Times New Roman';-inkscape-font-specification:'Times New Roman, ';letter-spacing:-0.949854px;fill:#ffffff;stroke-width:1.13805;fill-opacity:1"
           id="path3974" />
      </g>
      <g
         id="g4319"
         style="fill:#ffffff;fill-opacity:1">
        <path
           d="m 198.47047,878.73768 v 4.767 h -0.37607 q -0.18296,-1.37216 -0.66067,-2.18529 -0.46756,-0.81314 -1.34168,-1.29086 -0.87411,-0.47771 -1.80922,-0.47771 -1.05708,0 -1.74825,0.65051 -0.69117,0.64034 -0.69117,1.46364 0,0.63018 0.43707,1.14856 0.63018,0.76231 2.99844,2.03283 1.93119,1.03675 2.63252,1.59578 0.7115,0.54887 1.08758,1.30102 0.38623,0.75215 0.38623,1.57545 0,1.56529 -1.2197,2.70367 -1.20954,1.12823 -3.12041,1.12823 -0.59969,0 -1.12823,-0.0915 -0.31509,-0.0508 -1.31117,-0.3659 -0.98594,-0.32526 -1.2502,-0.32526 -0.25411,0 -0.40657,0.15246 -0.14229,0.15247 -0.21345,0.63018 h -0.37608 v -4.72635 h 0.37608 q 0.26427,1.48397 0.7115,2.22596 0.44722,0.73182 1.362,1.2197 0.92493,0.48789 2.02267,0.48789 1.27053,0 2.00235,-0.67084 0.74198,-0.67084 0.74198,-1.58562 0,-0.50821 -0.2846,-1.02658 -0.27442,-0.51838 -0.86395,-0.9656 -0.39641,-0.30493 -2.16498,-1.29085 -1.76856,-0.9961 -2.52072,-1.58561 -0.74198,-0.58953 -1.12822,-1.30103 -0.38624,-0.71148 -0.38624,-1.56527 0,-1.48399 1.13839,-2.55122 1.13839,-1.07741 2.89679,-1.07741 1.09774,0 2.32761,0.5387 0.56919,0.25412 0.80297,0.25412 0.26427,0 0.42689,-0.15247 0.1728,-0.16262 0.27444,-0.64035 z"
           style="font-size:18.2087px;font-family:'Times New Roman';-inkscape-font-specification:'Times New Roman, ';letter-spacing:-0.949854px;fill:#ffffff;stroke-width:1.30102;fill-opacity:1"
           id="path3992" />
        <path
           d="m 129.42487,875.54158 v 0.46239 q -0.66234,0 -1.07473,0.23744 -0.41242,0.23744 -0.78731,0.88728 -0.24994,0.43741 -0.78732,2.087 l -4.72386,13.6592 h -0.49988 l -3.86157,-10.83488 -3.83656,10.83488 h -0.4499 l -5.03629,-14.0716 q -0.56236,-1.57462 -0.71232,-1.86205 -0.24994,-0.47489 -0.68734,-0.69983 -0.42489,-0.23744 -1.16222,-0.23744 v -0.46239 h 6.27349 v 0.46239 h -0.29993 q -0.66234,0 -1.01225,0.29993 -0.34992,0.29992 -0.34992,0.72483 0,0.43739 0.54987,2.012 l 3.33669,9.51021 2.81183,-8.08555 -0.49988,-1.42466 -0.39991,-1.13722 q -0.26243,-0.62486 -0.58736,-1.09973 -0.16246,-0.23745 -0.3999,-0.3999 -0.31242,-0.22495 -0.62485,-0.32493 -0.23745,-0.0749 -0.74981,-0.0749 v -0.46239 h 6.5984 v 0.46239 h -0.44989 q -0.69983,0 -1.02476,0.29992 -0.32491,0.29993 -0.32491,0.8123 0,0.63735 0.56236,2.22446 l 3.24921,9.21029 3.22422,-9.33526 q 0.54987,-1.54962 0.54987,-2.14947 0,-0.28743 -0.18745,-0.53737 -0.17495,-0.24994 -0.4499,-0.34992 -0.47488,-0.17495 -1.23719,-0.17495 v -0.46239 z"
           style="font-size:18.2087px;font-family:'Times New Roman';-inkscape-font-specification:'Times New Roman, ';letter-spacing:-0.949854px;fill:#ffffff;stroke-width:1.59962;fill-opacity:1"
           id="path3980" />
        <path
           d="m 132.84332,892.45935 v 0.37607 h -5.90539 v -0.37607 h 0.48789 q 0.85379,0 1.24003,-0.49805 0.24394,-0.32525 0.24394,-1.56529 v -8.90383 q 0,-1.04692 -0.13214,-1.38233 -0.10163,-0.2541 -0.41673,-0.43706 -0.44723,-0.24394 -0.9351,-0.24394 h -0.48789 v -0.37608 h 5.90539 v 0.37608 h -0.49803 q -0.84363,0 -1.22987,0.49804 -0.25411,0.32525 -0.25411,1.56529 v 8.90383 q 0,1.04692 0.13214,1.38233 0.10163,0.25411 0.42689,0.43706 0.43706,0.24395 0.92495,0.24395 z"
           style="font-size:18.2087px;font-family:'Times New Roman';-inkscape-font-specification:'Times New Roman, ';letter-spacing:-0.949854px;fill:#ffffff;stroke-width:1.30102;fill-opacity:1"
           id="path3982" />
        <path
           d="m 130.65488,879.05277 h 3.74042 l 8.42612,10.33698 v -7.94839 q 0,-1.27052 -0.2846,-1.58561 -0.37608,-0.4269 -1.18921,-0.4269 h -0.47772 v -0.37608 h 4.7975 v 0.37608 h -0.48788 q -0.87412,0 -1.24004,0.52854 -0.22361,0.32525 -0.22361,1.48397 v 11.61767 h -0.3659 l -9.0868,-11.0993 v 8.4871 q 0,1.27053 0.27444,1.58562 0.38624,0.4269 1.18921,0.4269 h 0.48788 v 0.37607 h -4.7975 v -0.37607 h 0.47772 q 0.88428,0 1.2502,-0.52854 0.22361,-0.32526 0.22361,-1.48398 v -9.58484 q -0.59969,-0.70132 -0.91478,-0.92494 -0.30493,-0.22361 -0.90461,-0.41673 -0.29476,-0.0915 -0.89445,-0.0915 z"
           style="font-size:18.2087px;font-family:'Times New Roman';-inkscape-font-specification:'Times New Roman, ';letter-spacing:-0.949854px;fill:#ffffff;stroke-width:1.30102;fill-opacity:1"
           id="path3984" />
        <path
           d="m 145.33226,892.83542 v -0.37607 h 0.51837 q 0.87412,0 1.24002,-0.55904 0.22363,-0.33542 0.22363,-1.5043 v -8.90383 q 0,-1.29085 -0.2846,-1.61611 -0.39641,-0.44722 -1.17905,-0.44722 h -0.51837 v -0.37608 h 5.61063 q 3.08991,0 4.69586,0.70133 1.6161,0.70133 2.59186,2.33777 0.98594,1.63644 0.98594,3.78108 0,2.87646 -1.74825,4.80766 -1.96169,2.15481 -5.97655,2.15481 z m 3.93354,-0.99609 q 1.29084,0.28459 2.16497,0.28459 2.35809,0 3.91322,-1.65675 1.55512,-1.65677 1.55512,-4.49258 0,-2.85614 -1.55512,-4.50274 -1.55513,-1.6466 -3.99453,-1.6466 -0.91478,0 -2.08366,0.29476 z"
           style="font-size:18.2087px;font-family:'Times New Roman';-inkscape-font-specification:'Times New Roman, ';letter-spacing:-0.949854px;fill:#ffffff;stroke-width:1.30102;fill-opacity:1"
           id="path3986" />
        <path
           d="m 166.78038,878.73768 q 2.68335,0 4.64505,2.043 1.97184,2.03285 1.97184,5.0821 0,3.14074 -1.98202,5.21423 -1.98201,2.0735 -4.79749,2.0735 -2.84597,0 -4.78734,-2.02267 -1.93119,-2.02268 -1.93119,-5.23457 0,-3.28303 2.23612,-5.35653 1.94136,-1.79906 4.64503,-1.79906 z m -0.19312,0.74199 q -1.84988,0 -2.96794,1.37216 -1.3925,1.70758 -1.3925,5.00079 0,3.37451 1.44332,5.1939 1.10789,1.38233 2.92729,1.38233 1.94136,0 3.20172,-1.51446 1.27052,-1.51447 1.27052,-4.77718 0,-3.53713 -1.39249,-5.27522 -1.11806,-1.38232 -3.08992,-1.38232 z"
           style="font-size:18.2087px;font-family:'Times New Roman';-inkscape-font-specification:'Times New Roman, ';letter-spacing:-0.949854px;fill:#ffffff;stroke-width:1.30102;fill-opacity:1"
           id="path3988" />
        <path
           d="m 191.31953,879.05277 v 0.37608 q -0.5387,0 -0.87412,0.19311 -0.33542,0.19312 -0.64035,0.72166 -0.20327,0.35575 -0.64034,1.69742 l -3.84206,11.10947 h -0.40657 l -3.14074,-8.81236 -3.12041,8.81236 h -0.36591 l -4.09617,-11.44489 q -0.45738,-1.28068 -0.57936,-1.51446 -0.20328,-0.38624 -0.55903,-0.5692 -0.34558,-0.19311 -0.94527,-0.19311 v -0.37608 h 5.10243 v 0.37608 h -0.24395 q -0.5387,0 -0.82329,0.24394 -0.2846,0.24393 -0.2846,0.58953 0,0.35574 0.44722,1.63642 l 2.71385,7.73496 2.28694,-6.57624 -0.40657,-1.15872 -0.32525,-0.92494 q -0.21345,-0.50821 -0.47772,-0.89444 -0.13213,-0.19312 -0.32526,-0.32526 -0.2541,-0.18295 -0.50821,-0.26427 -0.19312,-0.0609 -0.60985,-0.0609 v -0.37608 h 5.36669 v 0.37608 h -0.3659 q -0.56919,0 -0.83347,0.24393 -0.26426,0.24394 -0.26426,0.66067 0,0.51838 0.45738,1.80923 l 2.64269,7.49102 2.62237,-7.59267 q 0.44722,-1.26036 0.44722,-1.74823 0,-0.23377 -0.15246,-0.43706 -0.14231,-0.20328 -0.36592,-0.2846 -0.38623,-0.14229 -1.00625,-0.14229 v -0.37608 z"
           style="font-size:18.2087px;font-family:'Times New Roman';-inkscape-font-specification:'Times New Roman, ';letter-spacing:-0.949854px;fill:#ffffff;stroke-width:1.30102;fill-opacity:1"
           id="path3990" />
      </g>
    </g>
    <path
       id="path142"
       style="fill:#ffffff;fill-opacity:1;stroke:none;stroke-width:1.52051"
       d="M 244.92188 2.4238281 C 219.79187 2.2820108 195.14309 7.8903414 170.89258 18.429688 L 170.89258 49.382812 C 190.73268 40.608075 206.98356 35.877841 221.20898 34.974609 L 221.20898 105.23633 C 204.28736 106.58823 187.58959 111.76393 170.89258 119.41211 L 170.89258 141.39258 C 189.38588 132.40271 206.08426 128.35039 221.20898 127.22266 L 221.20898 194.30664 C 203.39101 197.46689 186.24759 202.20002 170.89258 209.39258 L 170.89258 240.99805 C 218.48768 213.34683 269.03405 216.06773 321.8418 241.67773 L 321.8418 20.925781 C 295.66396 8.4590675 270.05185 2.5656454 244.92188 2.4238281 z M 15.640625 20.470703 L 5.4433594 25.681641 L 5.4433594 34.974609 L 15.640625 30.443359 L 15.640625 20.470703 z M 166.36133 20.470703 L 138.25781 34.068359 L 138.25781 62.173828 L 166.36133 47.441406 L 166.36133 20.470703 z M 41.023438 25.230469 L 27.880859 33.162109 L 27.880859 46.533203 L 41.023438 39.056641 L 41.023438 25.230469 z M 132.5918 30.667969 L 106.5293 43.814453 L 106.5293 69.199219 L 132.5918 56.054688 L 132.5918 30.667969 z M 250.25586 31.34375 C 263.75682 31.310252 277.34725 34.027262 290.79102 39.734375 L 290.79102 110.67578 C 284.21815 108.18333 271.10449 105.01492 262.30469 104.19922 C 250.4437 103.09979 240.92578 103.64844 240.92578 103.64844 L 240.92773 31.804688 C 244.03105 31.506965 247.14025 31.35148 250.25586 31.34375 z M 100.63477 32.255859 L 78.425781 42.681641 L 78.425781 65.121094 L 100.63477 54.466797 L 100.63477 32.255859 z M 70.490234 35.203125 L 52.357422 43.814453 L 52.357422 59.90625 L 70.490234 51.748047 L 70.490234 35.203125 z M 166.36133 52.427734 L 138.25781 66.251953 L 138.25781 94.355469 L 166.36133 79.625 L 166.36133 52.427734 z M 166.36133 84.384766 L 138.25781 97.982422 L 138.25781 126.08789 L 166.36133 111.58203 L 166.36133 84.384766 z M 15.640625 115.88867 L 5.4433594 120.875 L 5.4433594 130.39258 L 15.640625 125.85742 L 15.640625 115.88867 z M 166.36133 116.56641 L 138.25781 130.16797 L 138.25781 158.27344 L 166.36133 143.54102 L 166.36133 116.56641 z M 41.023438 120.64648 L 27.880859 128.58008 L 27.880859 142.17969 L 41.023438 134.69922 L 41.023438 120.64648 z M 253.37305 123.51562 C 265.84674 123.53686 278.38139 125.91756 290.79102 130.84766 L 290.79102 200.6543 C 274.92528 195.44161 260.19291 192.49364 240.92578 193.40039 L 240.92773 124.27344 C 245.0655 123.76357 249.21515 123.50855 253.37305 123.51562 z M 132.5918 126.08789 L 106.5293 139.23242 L 106.5293 164.8457 L 132.5918 151.47266 L 132.5918 126.08789 z M 100.63477 127.90039 L 78.425781 138.32617 L 78.425781 160.76562 L 100.63477 150.11133 L 100.63477 127.90039 z M 70.490234 130.61719 L 52.357422 139.23242 L 52.357422 155.32422 L 70.490234 147.16406 L 70.490234 130.61719 z M 166.36133 148.07422 L 138.25781 161.89844 L 138.25781 189.77734 L 166.36133 175.26953 L 166.36133 148.07422 z M 166.36133 180.9375 L 138.25781 194.53516 L 138.25781 222.63672 L 166.36133 208.13477 L 166.36133 180.9375 z M 15.640625 211.5332 L 5.4433594 216.74609 L 5.4433594 226.03906 L 15.640625 221.50586 L 15.640625 211.5332 z M 166.36133 213.11719 L 138.25781 226.71875 L 138.25781 254.82422 L 166.36133 240.0918 L 166.36133 213.11719 z M 41.023438 216.29297 L 27.880859 224.22461 L 27.880859 237.59766 L 41.023438 230.3418 L 41.023438 216.29297 z M 132.5918 221.73242 L 106.5293 234.87695 L 106.5293 260.25586 L 132.5918 247.11719 L 132.5918 221.73242 z M 100.63477 223.32031 L 78.425781 233.74414 L 78.425781 256.18359 L 100.63477 245.53125 L 100.63477 223.32031 z M 70.490234 226.26367 L 52.357422 234.87695 L 52.357422 250.96875 L 70.490234 242.80859 L 70.490234 226.26367 z "
       transform="scale(0.26458333)" />
    <path
       d="m 35.081361,50.15084 v 6.71682 l -6.89536,3.53779 v -6.77542 z m 0,-8.21508 v 6.7163 l -6.89536,3.53835 v -6.77654 z m -8.45533,8.63533 v 5.9374 l -5.87605,2.75782 v -5.87604 z m 0,-8.15585 v 5.9374 l -5.87605,2.81807 v -5.9363 z m -7.9755,13.31304 V 51.3508 l -4.7976,2.27912 v 4.31722 z m 0,-8.21539 v -4.37748 l -4.7976,2.27856 v 4.31778 z M 10.8541,48.71237 v 3.71745 l -3.477537,1.97895 v -3.59805 z m 0,-8.1557 v 3.65775 L 7.376563,46.19338 V 42.65447 Z M 4.138372,39.29752 v 2.57872 l -2.698118,1.19898 v -2.45821 z m 0,8.2156 v 2.57872 l -2.698118,1.19953 v -2.45876 z"
       style="fill:#fdfdff;fill-opacity:1;stroke:none;stroke-width:0.402302"
       id="path166" />
    <path
       d="m 35.081361,24.90498 v 6.71682 l -6.89536,3.5378 v -6.77542 z m 0,-8.21508 v 6.7163 l -6.89536,3.53835 v -6.77654 z m -8.45533,8.63533 v 5.9374 l -5.87605,2.75782 v -5.87604 z m 0,-8.15585 v 5.9374 l -5.87605,2.81808 v -5.93631 z m -7.9755,13.31304 v -4.37748 l -4.7976,2.27912 v 4.31722 z m 0,-8.21539 v -4.37748 l -4.7976,2.27856 v 4.31778 z M 10.8541,23.46651 v 3.71745 l -3.477537,1.97896 v -3.59805 z m 0,-8.15569 v 3.65774 L 7.376563,20.94752 V 17.40861 Z M 4.138372,14.05167 v 2.57871 l -2.698118,1.19898 v -2.45821 z m 0,8.21559 v 2.57873 l -2.698118,1.19953 v -2.45877 z"
       style="fill:#ffffff;fill-opacity:1;stroke:none;stroke-width:0.402302"
       id="path166-1" />
  </g>
</svg>
