<?xml version="1.0" encoding="utf-8"?>
<!-- Generator: Adobe Illustrator 25.0.0, SVG Export Plug-In . SVG Version: 6.00 Build 0)  -->
<svg version="1.1" id="Layer_1" xmlns="http://www.w3.org/2000/svg" xmlns:xlink="http://www.w3.org/1999/xlink" x="0px" y="0px"
	 viewBox="0 0 3840 1806.2" style="enable-background:new 0 0 3840 1806.2;" xml:space="preserve">
<style type="text/css">
	.st0{fill:#ED001D;}
	.st1{fill:#FFFFFF;}
</style>
<g>
	<g>
		<g>
			<g>
				<g id="g9277_26_" transform="matrix(0,1.5459704,1.5459704,0,415.67057,649.33146)">
					<path id="path9279_26_" class="st1" d="M-292.7,706.3V504.4h-117.5V400H-103v104.4h-123.4v201.9H-103v104.3h-307.2V706.3
						H-292.7"/>
				</g>
				<g id="g9281_26_" transform="matrix(0,1.5459704,1.5459704,0,451.89266,657.95179)">
					<path id="path9283_26_" class="st1" d="M-232,961.5l-119.3,72.7l119.3,70.4V961.5 M-415.8,993.7l307.2-187.2v79.8l-62.9,38.3
						v215.8l62.9,37.1v127.4l-307.2-187.1V993.7"/>
				</g>
				<g id="g9285_26_" transform="matrix(0,1.5459704,1.5459704,0,550.35088,651.36905)">
					<path id="path9287_26_" class="st1" d="M-278.4,1655.1c-32.6,24.9-80.3,21.5-107.6-26.2c-25.5-44.5-34.9-129.4-34.9-182.4
						c0-84.9,5.8-139.5,13.7-186h302.9v104.3h-256.9c-7.4,37.6-7.6,75.7-6.9,90c1.8,41.4,8.3,64.7,21.5,83.4
						c13.7,19.3,44.1,24.5,65.2-0.5c15.7-18.7,28.1-56.7,15.1-141.5l19.7-12l142.4,160.5v142.1L-227.7,1544
						C-232.2,1578.3-245.9,1630.3-278.4,1655.1"/>
				</g>
				<g id="g9289_26_" transform="matrix(0,1.5459704,1.5459704,0,346.11736,647.86124)">
					<path id="path9291_26_" class="st1" d="M-303.1,216.3c-11.7-60.3-19-111.5-38.5-111.5c-21.6,0-27.2,41.4-21,100.1
						c5.9,55.5,20.4,107.8,41.2,156.6l-60.8,37.1c-15-39.4-34.3-120.7-36.4-194.5c-2.3-80.9,4.9-217.4,86.7-223.3
						C-257.2-24.6-239.3,82-223,152c15.9,68.2,21.6,132.1,45.2,132.1c16.6,0,29.6-22.5,25.1-82.1c-5.4-71.8-25-132.8-55.2-193.7
						l66.4-40.5c26.4,67.5,47.6,156.1,48.9,235.9c1.6,94.9-13.7,202-95,204.4C-255.4,410.2-279.1,339.9-303.1,216.3"/>
				</g>
				<g id="g9293_26_" transform="matrix(0,1.5459704,1.5459704,0,594.18532,651.0413)">
					<path id="path9295_26_" class="st1" d="M-280.7,1964c14.8-18,20-44.4,19.9-85.9c-0.1-30.7-5.7-62.4-11.6-88.2H-361
						c-7.4,37.6-7.6,76.4-7,90.6c1.8,41.6,8.8,65.9,21.5,84C-333.2,1983.2-301.6,1989.5-280.7,1964 M-385.7,2055.2
						c-25.2-42.5-34.9-122-34.9-183.1c0-84.9,5.8-140.2,13.7-186.6h302.9v104.3h-111c5.4,32.3,8.5,72.7,8.3,107.7
						c-0.7,85.4-20.8,148.8-52.2,177.7C-303.7,2116.3-357.8,2102.5-385.7,2055.2"/>
				</g>
			</g>
		</g>
	</g>
	<g>
		<g>
			<path class="st1" d="M577.3,1228.9L0,1806.2h910.7L577.3,1228.9z M555.1,1397.9l175.8,304.6H250.5L555.1,1397.9z"/>
			<path class="st1" d="M1366.1,578.4l333.3,577.3l577.3-577.3H1366.1z M1545.8,682.1h480.5l-304.6,304.7L1545.8,682.1z"/>
		</g>
		<path class="st1" d="M2652.1,578.4l-312.9,312.9h344.9L2335.6,1495l-535.2-0.6l-528.8-916H296.4l708.9,1227.8h2125.9L3840,578.4
			L2652.1,578.4z M3071.2,1702.5H1065.1l-589-1020.4h735.6l529.2,916.6h654.7l468.3-811.1h-274.1l105.5-105.5h965.1L3071.2,1702.5z"
			/>
	</g>
</g>
</svg>
