<?xml version="1.0" encoding="utf-8"?>
<svg version="1.1" id="allgames" x="0px" y="0px" viewBox="0 0 200 40" xmlns="http://www.w3.org/2000/svg">
  <path d="M 47.596 29.375 L 41.596 29.375 L 49.486 10.625 L 58.306 10.625 L 59.626 29.375 L 53.596 29.375 L 53.476 26.405 L 48.766 26.405 L 47.596 29.375 Z M 52.726 16.385 L 50.626 21.635 L 53.026 21.635 L 53.026 16.385 L 52.726 16.385 Z M 73.005 29.375 L 61.605 29.375 L 64.905 10.625 L 70.605 10.625 L 68.145 24.575 L 73.845 24.575 L 73.005 29.375 Z M 85.784 29.375 L 74.384 29.375 L 77.684 10.625 L 83.384 10.625 L 80.924 24.575 L 86.624 24.575 L 85.784 29.375 Z M 103.363 23.855 L 103.513 23.045 L 102.073 23.045 L 102.883 18.455 L 109.753 18.455 L 107.983 28.475 C 105.543 29.375 103.093 29.825 100.633 29.825 C 98.173 29.825 96.398 29.335 95.308 28.355 C 94.218 27.375 93.673 25.865 93.673 23.825 C 93.673 22.965 93.813 21.695 94.093 20.015 C 94.693 16.535 95.753 14.025 97.273 12.485 C 98.793 10.945 101.313 10.175 104.833 10.175 C 105.573 10.175 106.518 10.255 107.668 10.415 C 108.818 10.575 109.663 10.755 110.203 10.955 L 108.553 15.545 C 107.053 15.265 105.678 15.125 104.428 15.125 C 103.178 15.125 102.283 15.225 101.743 15.425 C 101.203 15.625 100.883 16.025 100.783 16.625 L 99.313 25.115 L 101.203 25.115 C 101.883 25.115 102.388 25.04 102.718 24.89 C 103.048 24.74 103.263 24.395 103.363 23.855 Z M 115.002 29.375 L 109.002 29.375 L 116.892 10.625 L 125.712 10.625 L 127.032 29.375 L 121.002 29.375 L 120.882 26.405 L 116.172 26.405 L 115.002 29.375 Z M 120.132 16.385 L 118.032 21.635 L 120.432 21.635 L 120.432 16.385 L 120.132 16.385 Z M 134.412 29.375 L 128.472 29.375 L 132.852 10.625 L 140.292 10.625 L 140.832 20.165 L 141.042 20.165 L 144.942 10.625 L 152.382 10.625 L 150.162 29.375 L 144.192 29.375 L 145.452 20.285 L 145.242 20.285 L 141.492 29.375 L 137.142 29.375 L 136.512 20.285 L 136.362 20.285 L 134.412 29.375 Z M 165.97 22.295 L 160.27 22.295 L 159.88 24.575 L 166.87 24.575 L 166.03 29.375 L 153.34 29.375 L 156.64 10.625 L 169.18 10.625 L 167.62 15.425 L 161.47 15.425 L 161.05 17.945 L 166.75 17.945 L 165.97 22.295 Z M 168.7 29.045 L 170.38 24.095 C 172.06 24.555 173.6 24.785 175 24.785 C 176.4 24.785 177.53 24.725 178.39 24.605 L 178.63 23.105 L 176.14 22.865 C 174.24 22.685 172.895 22.255 172.105 21.575 C 171.315 20.895 170.92 19.935 170.92 18.695 C 170.92 18.155 170.98 17.555 171.1 16.895 C 171.56 14.335 172.395 12.575 173.605 11.615 C 174.815 10.655 176.69 10.175 179.23 10.175 C 181.77 10.175 184.01 10.425 185.95 10.925 L 184.39 15.725 C 182.65 15.425 181.25 15.275 180.19 15.275 C 179.13 15.275 178.23 15.325 177.49 15.425 L 177.25 16.895 L 179.26 17.105 C 181.3 17.325 182.75 17.81 183.61 18.56 C 184.47 19.31 184.9 20.315 184.9 21.575 C 184.9 22.855 184.62 24.175 184.06 25.535 C 183.78 26.235 183.475 26.82 183.145 27.29 C 182.815 27.76 182.395 28.16 181.885 28.49 C 181.375 28.82 180.91 29.07 180.49 29.24 C 180.07 29.41 179.54 29.535 178.9 29.615 C 177.96 29.755 176.81 29.825 175.45 29.825 C 172.97 29.825 170.72 29.565 168.7 29.045 Z" style="white-space: pre; fill: rgb(255, 255, 255);"/>
  <path d="M 32.058 13.829 L 20.058 13.829 C 15.441 13.828 12.555 18.826 14.862 22.825 C 16.847 26.263 21.563 26.86 24.342 24.026 L 27.772 24.026 C 31.005 27.324 36.594 25.885 37.834 21.438 C 38.899 17.615 36.026 13.83 32.058 13.829 Z M 23.358 20.278 C 23.358 20.526 23.157 20.728 22.908 20.728 L 20.958 20.728 L 20.958 22.677 C 20.958 22.925 20.757 23.127 20.508 23.127 L 19.608 23.127 C 19.36 23.127 19.159 22.925 19.159 22.677 L 19.159 20.728 L 17.209 20.728 C 16.961 20.728 16.76 20.526 16.76 20.278 L 16.76 19.378 C 16.76 19.129 16.961 18.928 17.209 18.928 L 19.159 18.928 L 19.159 16.978 C 19.159 16.729 19.36 16.528 19.608 16.528 L 20.508 16.528 C 20.757 16.528 20.958 16.729 20.958 16.978 L 20.958 18.928 L 22.908 18.928 C 23.157 18.928 23.358 19.129 23.358 19.378 L 23.358 20.278 Z M 31.455 23.127 C 30.301 23.127 29.58 21.877 30.156 20.878 C 30.734 19.877 32.177 19.877 32.754 20.878 C 32.886 21.106 32.955 21.364 32.955 21.627 C 32.955 22.456 32.283 23.127 31.455 23.127 Z M 33.855 19.528 C 32.7 19.528 31.979 18.278 32.556 17.278 C 33.133 16.279 34.576 16.279 35.154 17.278 C 35.285 17.506 35.355 17.764 35.355 18.028 C 35.355 18.856 34.683 19.528 33.855 19.528 Z" style="fill: rgb(255, 255, 255); fill-opacity: 0.5;"/>
</svg>