<?xml version="1.0" encoding="utf-8"?>
<svg viewBox="0 0 200 40" xmlns="http://www.w3.org/2000/svg">
  <g transform="matrix(1, 0, 0, 1, -0.356997, 0.000001)">
    <path d="M 102.076 24.832 L 98.43 24.832 L 97.665 29.351 L 92.078 29.351 L 95.313 10.649 L 104.134 10.649 C 107.468 10.649 109.134 12.225 109.134 15.377 C 109.134 16.873 108.927 18.223 108.516 19.426 C 108.104 20.636 107.651 21.598 107.153 22.309 C 106.651 23.014 105.961 23.613 105.085 24.104 C 104.216 24.59 103.213 24.832 102.076 24.832 Z M 101.341 15.436 L 100.047 15.436 L 99.253 20.045 L 100.547 20.045 C 101.214 20.045 101.716 19.972 102.057 19.825 C 102.402 19.673 102.625 19.326 102.723 18.788 C 102.978 17.312 103.106 16.504 103.106 16.365 C 103.106 15.986 102.958 15.736 102.664 15.616 C 102.37 15.496 101.929 15.436 101.341 15.436 Z M 120.926 24.562 L 120.102 29.351 L 108.927 29.351 L 112.162 10.649 L 117.75 10.649 L 115.338 24.562 L 120.926 24.562 Z M 125.307 26.388 L 124.16 29.351 L 118.279 29.351 L 126.013 10.649 L 134.659 10.649 L 135.952 29.351 L 130.042 29.351 L 129.924 26.388 L 125.307 26.388 Z M 129.483 16.394 L 129.189 16.394 L 127.131 21.631 L 129.483 21.631 L 129.483 16.394 Z M 137.217 10.649 L 143.392 10.649 L 143.775 17.232 L 143.98 17.232 L 146.686 10.649 L 152.861 10.649 L 145.451 24.263 L 144.598 29.351 L 139.011 29.351 L 139.864 24.263 L 137.217 10.649 Z M 156.067 29.351 L 150.479 29.351 L 153.714 10.649 L 159.302 10.649 L 156.067 29.351 Z M 175.064 29.351 L 169.801 29.351 L 166.801 22.708 C 166.723 22.568 166.683 22.372 166.683 22.119 C 166.683 21.874 166.703 21.591 166.742 21.271 L 166.507 21.271 L 165.124 29.351 L 159.537 29.351 L 162.772 10.649 L 168.036 10.649 L 171.035 17.292 C 171.094 17.432 171.123 17.628 171.123 17.88 C 171.123 18.126 171.104 18.409 171.064 18.728 L 171.3 18.728 L 172.712 10.649 L 178.299 10.649 L 175.064 29.351 Z M 188.797 23.845 L 188.944 23.037 L 187.533 23.037 L 188.326 18.459 L 195.06 18.459 L 193.326 28.453 C 190.935 29.351 188.532 29.8 186.12 29.8 C 183.71 29.8 181.967 29.311 180.896 28.334 C 179.832 27.356 179.299 25.85 179.299 23.815 C 179.299 22.957 179.436 21.691 179.711 20.015 C 180.298 16.544 181.337 14.04 182.827 12.504 C 184.318 10.968 186.788 10.2 190.238 10.2 C 190.964 10.2 191.887 10.28 193.011 10.44 C 194.142 10.599 194.971 10.779 195.502 10.977 L 193.884 15.556 C 192.413 15.277 191.064 15.137 189.836 15.137 C 188.613 15.137 187.739 15.237 187.208 15.436 C 186.68 15.636 186.366 16.035 186.268 16.633 L 184.827 25.102 L 186.68 25.102 C 187.346 25.102 187.84 25.029 188.159 24.883 C 188.487 24.729 188.699 24.383 188.797 23.845 Z" style="white-space: pre; fill: rgb(255, 255, 255);"/>
    <path d="M 42.025 29.351 L 36.761 29.351 L 33.761 22.708 C 33.683 22.568 33.644 22.372 33.644 22.119 C 33.644 21.874 33.663 21.591 33.703 21.271 L 33.467 21.271 L 32.085 29.351 L 26.498 29.351 L 29.733 10.649 L 34.996 10.649 L 37.996 17.292 C 38.055 17.432 38.084 17.628 38.084 17.88 C 38.084 18.126 38.065 18.409 38.026 18.728 L 38.261 18.728 L 39.672 10.649 L 45.259 10.649 L 42.025 29.351 Z" style="white-space: pre; fill: rgb(255, 255, 255);"/>
    <path d="M 79.753 21.092 L 82.9 10.649 L 88.752 10.649 L 82.783 29.351 L 75.372 29.351 L 75.372 22.469 L 75.049 22.469 L 72.608 29.351 L 65.815 29.351 L 65.815 10.649 L 71.666 10.649 L 71.137 21.092 L 71.314 21.092 L 75.136 10.649 L 79.577 10.649 L 79.577 21.092 L 79.753 21.092 Z" style="white-space: pre; fill: rgb(255, 255, 255);"/>
    <path d="M 56.463 10.2 C 58.953 10.2 60.727 10.696 61.786 11.686 C 62.844 12.671 63.374 14.19 63.374 16.245 C 63.374 18.299 63.053 20.451 62.413 22.698 C 61.779 24.938 60.77 26.681 59.384 27.924 C 58.005 29.174 55.986 29.8 53.327 29.8 C 50.673 29.8 48.818 29.308 47.759 28.323 C 46.7 27.333 46.171 25.81 46.171 23.755 C 46.171 22.777 46.308 21.487 46.583 19.885 C 46.857 18.276 47.22 16.89 47.671 15.726 C 48.122 14.556 48.729 13.541 49.494 12.683 C 50.964 11.028 53.287 10.2 56.463 10.2 Z M 53.081 16.902 L 51.729 24.682 L 54.052 24.682 C 54.816 24.682 55.385 24.59 55.758 24.403 C 56.13 24.211 56.375 23.776 56.492 23.097 L 57.846 15.317 L 55.493 15.317 C 54.748 15.317 54.189 15.41 53.817 15.596 C 53.444 15.789 53.199 16.224 53.081 16.902 Z" style="white-space: pre; fill: rgb(255, 255, 255);"/>
    <path d="M 16.323 19.668 L 12.852 17.101 C 12.726 17.007 12.557 16.994 12.417 17.067 C 12.277 17.139 12.189 17.286 12.189 17.446 L 12.189 22.577 C 12.189 22.736 12.277 22.884 12.417 22.957 C 12.477 22.986 12.542 23.002 12.608 23.002 C 12.693 23.002 12.78 22.973 12.852 22.919 L 16.323 20.355 C 16.432 20.272 16.495 20.146 16.495 20.012 C 16.496 19.875 16.432 19.748 16.323 19.668 Z" style="fill: rgb(255, 255, 255); fill-opacity: 0.5;"/>
    <path d="M 13.567 11.5 C 8.951 11.5 5.212 15.305 5.212 20.002 C 5.212 24.696 8.951 28.5 13.567 28.5 C 18.181 28.5 21.922 24.696 21.922 20.002 C 21.922 15.305 18.181 11.5 13.567 11.5 Z M 13.567 27.083 C 9.723 27.083 6.608 23.913 6.608 20.002 C 6.608 16.092 9.723 12.919 13.567 12.919 C 17.41 12.919 20.526 16.092 20.526 20.002 C 20.526 23.913 17.41 27.083 13.567 27.083 Z" style="fill: rgb(255, 255, 255); fill-opacity: 0.5;"/>
  </g>
</svg>