<?xml version="1.0" encoding="utf-8"?>
<svg width="100%" height="100%" viewBox="0 0 64 64" version="1.1" xmlns="http://www.w3.org/2000/svg" style="fill-rule:evenodd;clip-rule:evenodd;stroke-linejoin:round;stroke-miterlimit:2;">
  <path d="M 24 32 A 10 10 0 0 1 14 42 A 10 10 0 0 1 4 32 A 10 10 0 0 1 14 22 A 10 10 0 0 1 24 32 Z" style="fill:white;"/>
  <path d="M 32 40 C 37.519 40 42 44.481 42 50 C 42 55.519 37.519 60 32 60 C 26.481 60 22 55.519 22 50 C 22 44.481 26.481 40 32 40 Z M 32 42 C 27.585 42 24 45.586 24 50 C 24 54.415 27.585 58 32 58 C 36.415 58 40 54.415 40 50 C 40 45.586 36.415 42 32 42 Z" style="fill:white;"/>
  <path d="M 32 4 C 37.519 4 42 8.481 42 14 C 42 19.519 37.519 24 32 24 C 26.481 24 22 19.519 22 14 C 22 8.481 26.481 4 32 4 Z M 32 6 C 27.585 6 24 9.585 24 14 C 24 18.415 27.585 22 32 22 C 36.415 22 40 18.415 40 14 C 40 9.585 36.415 6 32 6 Z" style="fill:white;"/>
  <path d="M 50 22 C 55.519 22 60 26.481 60 32 C 60 37.519 55.519 42 50 42 C 44.482 42 40 37.519 40 32 C 40 26.481 44.482 22 50 22 Z M 50 24 C 45.586 24 42 27.585 42 32 C 42 36.415 45.586 40 50 40 C 54.415 40 58 36.415 58 32 C 58 27.585 54.415 24 50 24 Z" style="fill:white;"/>
</svg>