<?xml version="1.0" encoding="utf-8"?>
<svg id="Layer_1" data-name="Layer 1" viewBox="0 0 54 54" xmlns="http://www.w3.org/2000/svg">
  <defs>
    <style>.cls-1{fill:#fff;}</style>
  </defs>
  <path class="cls-1" d="M 48.85 18.288 L 5.152 18.288 C 2.309 18.294 0.005 20.598 0 23.441 L 0 25.116 C 0.005 27.959 2.309 30.263 5.152 30.268 L 15.477 30.268 L 15.477 44.903 C 15.482 46.817 17.032 48.367 18.946 48.372 L 35.326 48.372 C 37.24 48.367 38.79 46.817 38.795 44.903 L 38.795 30.268 L 48.847 30.268 C 51.691 30.263 53.995 27.959 54 25.116 L 54 23.441 C 53.995 20.599 51.693 18.295 48.85 18.288 Z M 32.464 41 L 21.811 41 L 21.811 26.11 L 25.25 26.11 L 25.25 37.98 L 32.464 37.98 L 32.464 41 Z"/>
  <path d="M 15.979999542236328 5.628000259399414 L 27.091999053955078 14.937000274658203 L 38.29399871826172 5.628000259399414 L 15.979999542236328 5.628000259399414 Z" class="cls-1"/>
</svg>