<?xml version="1.0" encoding="utf-8"?>
<svg xmlns="http://www.w3.org/2000/svg" width="32" height="32" fill="#000000" viewBox="0 0 256 256">
  <path d="M 147.316 134.596 C 148.552 136.594 148.664 139.091 147.612 141.193 L 134.064 168.291 C 131.73 172.957 125.219 173.347 122.344 168.993 C 121.009 166.973 120.855 164.393 121.937 162.227 L 130.592 144.935 L 114.452 144.935 C 109.413 144.94 106.135 139.636 108.389 135.129 L 121.937 108.033 C 124.272 103.366 130.783 102.975 133.658 107.33 C 134.992 109.351 135.146 111.93 134.064 114.096 L 125.41 131.387 L 141.549 131.387 C 143.898 131.384 146.079 132.6 147.316 134.596 Z M 100.904 36.548 L 155.098 36.548 C 160.312 36.548 163.571 30.903 160.964 26.387 C 159.753 24.291 157.518 23 155.098 23 L 100.904 23 C 95.69 23 92.43 28.646 95.038 33.161 C 96.247 35.257 98.484 36.548 100.904 36.548 Z M 188.968 70.419 L 188.968 212.677 C 188.968 223.903 179.87 233 168.646 233 L 87.356 233 C 76.131 233 67.033 223.903 67.033 212.677 L 67.033 70.419 C 67.033 59.196 76.131 50.096 87.356 50.096 L 168.646 50.096 C 179.87 50.096 188.968 59.196 188.968 70.419 Z M 175.42 70.419 C 175.42 66.678 172.387 63.645 168.646 63.645 L 87.356 63.645 C 83.615 63.645 80.581 66.678 80.581 70.419 L 80.581 212.677 C 80.581 216.418 83.615 219.453 87.356 219.453 L 168.646 219.453 C 172.387 219.453 175.42 216.418 175.42 212.677 L 175.42 70.419 Z" style="fill: rgb(255, 255, 255);"/>
</svg>