<?xml version="1.0" encoding="utf-8"?>
<svg xmlns="http://www.w3.org/2000/svg" width="32" height="32" fill="#000000" viewBox="0 0 256 256">
  <path d="M 208 35 L 184 35 L 184 27 C 184 20.842 177.333 16.993 172 20.072 C 169.525 21.501 168 24.142 168 27 L 168 35 L 88 35 L 88 27 C 88 20.842 81.333 16.993 76 20.072 C 73.525 21.501 72 24.142 72 27 L 72 35 L 48 35 C 39.163 35 32 42.163 32 51 L 32 211 C 32 219.837 39.163 227 48 227 L 208 227 C 216.837 227 224 219.837 224 211 L 224 51 C 224 42.163 216.837 35 208 35 Z M 72 51 L 72 59 C 72 65.158 78.667 69.007 84 65.928 C 86.475 64.499 88 61.858 88 59 L 88 51 L 168 51 L 168 59 C 168 65.158 174.667 69.007 180 65.928 C 182.475 64.499 184 61.858 184 59 L 184 51 L 208 51 L 208 83 L 48 83 L 48 51 L 72 51 Z M 208 211 L 48 211 L 48 99 L 208 99 L 208 211 Z M 140 135 C 140 144.238 130 150.011 122 145.392 C 114 140.774 114 129.226 122 124.608 C 123.824 123.554 125.894 123 128 123 C 134.627 123 140 128.373 140 135 Z M 184 135 C 184 144.238 174 150.011 166 145.392 C 158 140.774 158 129.226 166 124.608 C 167.824 123.554 169.894 123 172 123 C 178.627 123 184 128.373 184 135 Z M 96 175 C 96 184.238 86 190.011 78 185.392 C 70 180.774 70 169.226 78 164.608 C 79.824 163.554 81.894 163 84 163 C 90.627 163 96 168.373 96 175 Z M 140 175 C 140 184.238 130 190.011 122 185.392 C 114 180.774 114 169.226 122 164.608 C 123.824 163.554 125.894 163 128 163 C 134.627 163 140 168.373 140 175 Z M 184 175 C 184 184.238 174 190.011 166 185.392 C 158 180.774 158 169.226 166 164.608 C 167.824 163.554 169.894 163 172 163 C 178.627 163 184 168.373 184 175 Z" style="fill: rgb(255, 255, 255);"/>
</svg>