<?xml version="1.0" encoding="utf-8"?>
<svg xmlns="http://www.w3.org/2000/svg" width="32" height="32" fill="#000000" viewBox="0 0 256 256">
  <path d="M 94.129 29.775 C 94.129 26.032 97.163 23 100.904 23 L 155.098 23 C 160.312 23 163.571 28.645 160.964 33.161 C 159.754 35.258 157.518 36.548 155.098 36.548 L 100.904 36.548 C 97.163 36.548 94.129 33.516 94.129 29.775 Z M 188.968 70.419 L 188.968 212.677 C 188.968 223.902 179.87 233 168.646 233 L 87.356 233 C 76.131 233 67.033 223.902 67.033 212.677 L 67.033 70.419 C 67.033 59.196 76.131 50.096 87.356 50.096 L 168.646 50.096 C 179.87 50.096 188.968 59.196 188.968 70.419 Z M 175.42 70.419 C 175.42 66.678 172.387 63.645 168.646 63.645 L 87.356 63.645 C 83.615 63.645 80.581 66.678 80.581 70.419 L 80.581 212.677 C 80.581 216.418 83.615 219.452 87.356 219.452 L 168.646 219.452 C 172.387 219.452 175.42 216.418 175.42 212.677 L 175.42 70.419 Z M 155.098 185.581 L 100.904 185.581 C 95.69 185.581 92.43 191.226 95.038 195.742 C 96.247 197.838 98.484 199.129 100.904 199.129 L 155.098 199.129 C 160.312 199.129 163.571 193.484 160.964 188.968 C 159.754 186.871 157.518 185.581 155.098 185.581 Z" style="fill: rgb(255, 255, 255);"/>
</svg>