<?xml version="1.0" encoding="utf-8"?>
<svg xmlns="http://www.w3.org/2000/svg" width="32" height="32" fill="#000000" viewBox="0 0 256 256">
  <path d="M 133 72 L 133 115.05 L 169.42 96.84 C 174.928 94.084 181.354 98.324 180.986 104.472 C 180.816 107.325 179.136 109.871 176.58 111.15 L 128.58 135.15 C 123.262 137.811 117.003 133.946 117 128 L 117 72 C 117 65.842 123.667 61.993 129 65.072 C 131.475 66.501 133 69.142 133 72 Z M 125 216 C 57.258 216 14.919 142.667 48.79 84 C 82.661 25.333 167.339 25.333 201.21 84 C 208.934 97.378 213 112.553 213 128 C 213 134.158 219.667 138.007 225 134.928 C 227.475 133.499 229 130.858 229 128 C 229 47.941 142.333 -2.096 73 37.933 C 3.667 77.963 3.667 178.037 73 218.067 C 88.81 227.195 106.744 232 125 232 C 131.158 232 135.007 225.333 131.928 220 C 130.499 217.525 127.858 216 125 216 Z M 228.73 221.94 C 230.427 227.86 225.08 233.397 219.104 231.907 C 216.223 231.189 213.977 228.934 213.27 226.05 C 210.44 215.42 200.46 208 189 208 C 177.54 208 167.56 215.42 164.73 226.05 C 163.8 229.557 160.628 231.999 157 232 C 156.305 231.998 155.612 231.908 154.94 231.73 C 150.671 230.592 148.132 226.209 149.27 221.94 C 151.865 212.305 157.968 203.987 166.38 198.62 C 148.952 181.211 156.905 151.464 180.696 145.075 C 204.487 138.686 226.272 160.448 219.909 184.245 C 218.455 189.683 215.593 194.642 211.61 198.62 C 220.026 203.985 226.133 212.303 228.73 221.94 Z M 173 176 C 173 188.317 186.333 196.015 197 189.856 C 207.667 183.698 207.667 168.302 197 162.144 C 194.568 160.739 191.809 160 189 160 C 180.163 160 173 167.163 173 176 Z" style="fill: rgb(255, 255, 255);"/>
</svg>