<?xml version="1.0" encoding="utf-8"?>
<svg xmlns="http://www.w3.org/2000/svg" width="32" height="32" fill="#000000" viewBox="0 0 256 256">
  <path d="M 168.646 50.096 L 87.356 50.096 C 76.131 50.096 67.033 59.196 67.033 70.419 L 67.033 212.677 C 67.033 223.902 76.131 233 87.356 233 L 168.646 233 C 179.87 233 188.968 223.902 188.968 212.677 L 188.968 70.419 C 188.968 59.196 179.87 50.096 168.646 50.096 Z M 175.42 212.677 C 175.42 216.418 172.387 219.452 168.646 219.452 L 87.356 219.452 C 83.615 219.452 80.581 216.418 80.581 212.677 L 80.581 70.419 C 80.581 66.678 83.615 63.645 87.356 63.645 L 168.646 63.645 C 172.387 63.645 175.42 66.678 175.42 70.419 L 175.42 212.677 Z M 161.872 192.354 C 161.872 196.096 158.839 199.129 155.098 199.129 L 100.904 199.129 C 95.69 199.129 92.43 193.484 95.038 188.968 C 96.247 186.871 98.484 185.581 100.904 185.581 L 155.098 185.581 C 158.839 185.581 161.872 188.613 161.872 192.354 Z M 94.129 29.775 C 94.129 26.032 97.163 23 100.904 23 L 155.098 23 C 160.312 23 163.571 28.645 160.964 33.161 C 159.754 35.258 157.518 36.548 155.098 36.548 L 100.904 36.548 C 97.163 36.548 94.129 33.516 94.129 29.775 Z M 161.872 158.484 C 161.872 162.225 158.839 165.258 155.098 165.258 L 100.904 165.258 C 95.69 165.258 92.43 159.613 95.038 155.096 C 96.247 153 98.484 151.71 100.904 151.71 L 155.098 151.71 C 158.839 151.71 161.872 154.742 161.872 158.484 Z" style="fill: rgb(255, 255, 255);"/>
</svg>