<?xml version="1.0" encoding="utf-8"?>
<svg xmlns="http://www.w3.org/2000/svg" width="32" height="32" fill="#000000" viewBox="0 0 256 256">
  <path d="M 182.533 168.995 L 134.535 132.999 L 182.533 97.002 C 186.224 94.234 186.224 88.696 182.533 85.926 L 127.154 44.392 C 122.89 41.195 116.766 43.811 116.128 49.102 C 116.095 49.378 116.078 49.654 116.078 49.93 L 116.078 119.154 L 71.775 85.926 C 67.512 82.73 61.387 85.346 60.748 90.636 C 60.453 93.092 61.489 95.519 63.468 97.002 L 111.465 132.999 L 63.468 168.995 C 59.205 172.193 60.002 178.806 64.903 180.899 C 67.177 181.87 69.796 181.556 71.775 180.071 L 116.078 146.844 L 116.078 216.068 C 116.078 221.396 121.846 224.727 126.462 222.062 C 126.7 221.925 126.932 221.771 127.154 221.606 L 182.533 180.071 C 186.224 177.303 186.224 171.765 182.533 168.995 Z M 129.922 63.776 L 166.845 91.464 L 129.922 119.154 L 129.922 63.776 Z M 129.922 202.223 L 129.922 146.844 L 166.845 174.533 L 129.922 202.223 Z" style="fill: rgb(255, 255, 255);"/>
</svg>