<?xml version="1.0" encoding="utf-8"?>
<svg width="100%" height="100%" viewBox="0 0 32 32" version="1.1" xmlns="http://www.w3.org/2000/svg" style="fill-rule:evenodd;clip-rule:evenodd;stroke-linejoin:round;stroke-miterlimit:2;">
  <path d="M 7.45 29.208 L 7.45 7.476 L 12.01 7.476 L 12.01 2.9 L 19.99 2.9 L 19.99 7.476 L 24.55 7.476 L 24.55 29.208 L 7.45 29.208 Z M 16.867 17.126 L 18.855 17.126 C 19.092 17.126 19.306 17.293 19.373 17.542 C 19.472 17.793 19.409 18.078 19.231 18.254 L 14.667 22.758 C 14.466 22.954 14.172 22.971 13.956 22.794 C 13.741 22.617 13.662 22.295 13.767 22.02 L 15.138 18.413 L 13.134 18.413 C 12.913 18.413 12.7 18.246 12.617 17.997 C 12.533 17.745 12.596 17.462 12.775 17.285 L 17.338 12.781 C 17.54 12.583 17.834 12.569 18.049 12.746 C 18.265 12.922 18.343 13.243 18.238 13.519 L 16.867 17.126 Z" style="fill: rgb(255, 255, 255);"/>
</svg>