<?xml version="1.0" encoding="utf-8"?>
<svg xmlns="http://www.w3.org/2000/svg" width="32" height="32" fill="#000000" viewBox="0 0 256 256">
  <path d="M 176 89 L 176 217 C 176 223.158 169.333 227.007 164 223.928 C 161.525 222.499 160 219.858 160 217 L 160 89 C 160 82.842 166.667 78.993 172 82.072 C 174.475 83.501 176 86.142 176 89 Z M 208 41 C 203.582 41 200 44.582 200 49 L 200 217 C 200 223.158 206.667 227.007 212 223.928 C 214.475 222.499 216 219.858 216 217 L 216 49 C 216 44.582 212.418 41 208 41 Z M 128 121 C 123.582 121 120 124.582 120 129 L 120 217 C 120 223.158 126.667 227.007 132 223.928 C 134.475 222.499 136 219.858 136 217 L 136 129 C 136 124.582 132.418 121 128 121 Z M 88 161 C 83.582 161 80 164.582 80 169 L 80 217 C 80 223.158 86.667 227.007 92 223.928 C 94.475 222.499 96 219.858 96 217 L 96 169 C 96 164.582 92.418 161 88 161 Z M 48 201 C 43.582 201 40 204.582 40 209 L 40 217 C 40 223.158 46.667 227.007 52 223.928 C 54.475 222.499 56 219.858 56 217 L 56 209 C 56 204.582 52.418 201 48 201 Z" style="fill: rgb(255, 255, 255);"/>
</svg>