<?xml version="1.0" encoding="utf-8"?>
<svg xmlns="http://www.w3.org/2000/svg" fill="#000000" viewBox="0 0 256 256" preserveAspectRatio="xMinYMid">
  <path d="M 94.129 29.773 C 94.129 26.034 97.162 23 100.903 23 L 155.096 23 C 160.311 23 163.57 28.646 160.963 33.161 C 159.754 35.256 157.517 36.548 155.096 36.548 L 100.903 36.548 C 97.162 36.548 94.129 33.516 94.129 29.773 Z M 188.968 70.419 L 188.968 212.678 C 188.968 223.902 179.868 233 168.644 233 L 87.355 233 C 76.131 233 67.032 223.902 67.032 212.678 L 67.032 70.419 C 67.032 59.195 76.131 50.097 87.355 50.097 L 168.644 50.097 C 179.868 50.097 188.968 59.195 188.968 70.419 Z M 175.42 70.419 C 175.42 66.678 172.386 63.646 168.644 63.646 L 87.355 63.646 C 83.613 63.646 80.58 66.678 80.58 70.419 L 80.58 212.678 C 80.58 216.419 83.613 219.452 87.355 219.452 L 168.644 219.452 C 172.386 219.452 175.42 216.419 175.42 212.678 L 175.42 70.419 Z M 155.096 117.839 L 100.903 117.839 C 95.688 117.839 92.43 123.484 95.036 128 C 96.246 130.096 98.482 131.388 100.903 131.388 L 155.096 131.388 C 160.311 131.388 163.57 125.743 160.963 121.227 C 159.754 119.129 157.517 117.839 155.096 117.839 Z M 155.096 151.71 L 100.903 151.71 C 95.688 151.71 92.43 157.355 95.036 161.871 C 96.246 163.966 98.482 165.257 100.903 165.257 L 155.096 165.257 C 160.311 165.257 163.57 159.613 160.963 155.097 C 159.754 153.001 157.517 151.71 155.096 151.71 Z M 155.096 185.581 L 100.903 185.581 C 95.688 185.581 92.43 191.227 95.036 195.743 C 96.246 197.837 98.482 199.129 100.903 199.129 L 155.096 199.129 C 160.311 199.129 163.57 193.484 160.963 188.967 C 159.754 186.873 157.517 185.581 155.096 185.581 Z" style="fill: rgb(255, 255, 255);"/>
</svg>