<?xml version="1.0" encoding="UTF-8" standalone="no"?><!-- Generator: Gravit.io --><svg xmlns="http://www.w3.org/2000/svg" xmlns:xlink="http://www.w3.org/1999/xlink" style="isolation:isolate" viewBox="0 0 20 20" width="20pt" height="20pt"><path d=" M 10.002 0 C 10.221 -0.002 10.432 0.054 10.619 0.159 L 18.604 3.537 C 19.041 3.722 19.334 4.106 19.361 4.613 C 19.584 8.344 18.221 16.48 10.635 19.832 C 10.444 19.941 10.19 20.004 10.002 20 C 9.776 20.004 9.557 19.941 9.33 19.832 C 1.78 16.48 0.419 8.344 0.638 4.613 C 0.666 4.106 0.961 3.722 1.399 3.537 L 9.381 0.159 C 9.569 0.054 9.784 -0.002 10.002 0 L 10.002 0 Z  M 10.385 14.195 L 14.217 10.297 C 15.311 9.168 15.244 7.289 13.979 6.231 C 12.951 5.305 11.377 5.477 10.385 6.504 L 10.006 6.879 L 9.596 6.504 C 8.639 5.477 7.03 5.305 5.967 6.231 C 4.737 7.289 4.67 9.168 5.764 10.297 L 9.53 14.195 C 9.803 14.434 10.178 14.434 10.385 14.195 L 10.385 14.195 Z " fill="rgb(255,255,255)"/></svg>