<?xml version="1.0" encoding="UTF-8" standalone="no"?>
<!DOCTYPE svg PUBLIC "-//W3C//DTD SVG 1.1//EN" "http://www.w3.org/Graphics/SVG/1.1/DTD/svg11.dtd">
<svg width="100%" height="100%" viewBox="0 0 32 32" version="1.1" xmlns="http://www.w3.org/2000/svg" xmlns:xlink="http://www.w3.org/1999/xlink" xml:space="preserve" xmlns:serif="http://www.serif.com/" style="fill-rule:evenodd;clip-rule:evenodd;stroke-linejoin:round;stroke-miterlimit:2;">
    <g transform="matrix(0.125,0,0,0.125,0,-0.517008)">
        <g id="Artboard1">
            <path d="M140,204C140,210.583 134.583,216 128,216C121.417,216 116,210.583 116,204C116,197.417 121.417,192 128,192C134.583,192 140,197.417 140,204ZM237.08,87C173.904,35.181 82.096,35.181 18.92,87C17.07,88.519 15.996,90.791 15.996,93.185C15.996,97.576 19.609,101.189 24,101.189C25.852,101.189 27.649,100.546 29.08,99.37C86.374,52.386 169.626,52.386 226.92,99.37C228.351,100.546 230.148,101.189 232,101.189C236.391,101.189 240.004,97.576 240.004,93.185C240.004,90.791 238.93,88.519 237.08,87ZM205,122.77C160.053,87.185 96.007,87.185 51.06,122.77C49.147,124.287 48.029,126.599 48.029,129.04C48.029,133.429 51.641,137.041 56.03,137.041C57.834,137.041 59.586,136.431 61,135.31C100.144,104.326 155.916,104.326 195.06,135.31C196.474,136.431 198.226,137.041 200.03,137.041C202.472,137.041 204.784,135.924 206.3,134.01C207.421,132.596 208.031,130.844 208.031,129.04C208.031,126.598 206.914,124.286 205,122.77ZM172.74,158.53C146.152,139.207 109.908,139.207 83.32,158.53C81.253,160.035 80.027,162.443 80.027,165C80.027,169.39 83.64,173.003 88.03,173.003C89.722,173.003 91.372,172.466 92.74,171.47C113.723,156.21 142.337,156.21 163.32,171.47C164.688,172.466 166.338,173.003 168.03,173.003C172.42,173.003 176.033,169.39 176.033,165C176.033,162.443 174.807,160.035 172.74,158.53Z" style="fill:white;fill-rule:nonzero;"/>
        </g>
    </g>
</svg>
