<?xml version="1.0" encoding="UTF-8" standalone="no"?>
<!DOCTYPE svg PUBLIC "-//W3C//DTD SVG 1.1//EN" "http://www.w3.org/Graphics/SVG/1.1/DTD/svg11.dtd">
<svg width="100%" height="100%" viewBox="0 0 32 32" version="1.1" xmlns="http://www.w3.org/2000/svg" xmlns:xlink="http://www.w3.org/1999/xlink" xml:space="preserve" xmlns:serif="http://www.serif.com/" style="fill-rule:evenodd;clip-rule:evenodd;stroke-linejoin:round;stroke-miterlimit:2;">
    <path d="M29.898,12.158C29.642,11.373 28.937,10.816 28.115,10.75L20.74,10.155L17.892,3.269C17.578,2.503 16.828,2 16.001,2C15.173,2 14.423,2.503 14.109,3.269L11.264,10.154L3.885,10.75C2.825,10.84 2.001,11.737 2.001,12.8C2.001,13.398 2.261,13.967 2.714,14.358L8.339,19.211L6.625,26.469C6.587,26.627 6.567,26.789 6.567,26.952C6.567,28.076 7.491,29 8.615,29C8.993,29 9.365,28.895 9.687,28.696L16,24.811L22.316,28.696C22.637,28.891 23.005,28.994 23.381,28.994C24.506,28.994 25.431,28.069 25.431,26.944C25.431,26.784 25.412,26.625 25.375,26.469L23.655,19.21L29.28,14.356C29.911,13.817 30.155,12.946 29.898,12.158Z" style="fill:white;"/>
</svg>
