<?xml version="1.0" encoding="UTF-8" standalone="no"?>
<svg
   id="svg2"
   version="1.1"
   viewBox="0 0 308.55228 64.008759"
   sodipodi:docname="applauncher_template.svg"
   xml:space="preserve"
   width="308.55228"
   height="64.008759"
   inkscape:version="1.3 (0e150ed6c4, 2023-07-21)"
   inkscape:export-filename="..\systems\logos\applauncher_games.svg"
   inkscape:export-xdpi="96"
   inkscape:export-ydpi="96"
   xmlns:inkscape="http://www.inkscape.org/namespaces/inkscape"
   xmlns:sodipodi="http://sodipodi.sourceforge.net/DTD/sodipodi-0.dtd"
   xmlns="http://www.w3.org/2000/svg"
   xmlns:svg="http://www.w3.org/2000/svg"><defs
     id="defs1"><style
       id="style1">.a{fill:#3ddc84;}</style></defs><sodipodi:namedview
     id="namedview1"
     pagecolor="#505050"
     bordercolor="#ffffff"
     borderopacity="1"
     inkscape:showpageshadow="0"
     inkscape:pageopacity="0"
     inkscape:pagecheckerboard="false"
     inkscape:deskcolor="#505050"
     inkscape:zoom="3.9158716"
     inkscape:cx="105.34053"
     inkscape:cy="1.9152824"
     inkscape:window-width="2560"
     inkscape:window-height="1387"
     inkscape:window-x="-8"
     inkscape:window-y="-8"
     inkscape:window-maximized="1"
     inkscape:current-layer="svg2" /><g
     id="g4"
     transform="translate(-26.827891,-0.38858211)"><g
       id="g1"
       transform="scale(0.3871409)"><path
         class="a"
         d="m 822.2,111.7 a 9.6,9.6 0 1 1 9.6,-9.6 9.6,9.6 0 0 1 -9.6,9.6 m -105.7,0 a 9.6,9.6 0 1 1 9.6,-9.6 9.6,9.6 0 0 1 -9.6,9.6 M 825.6,54.1 844.8,21 a 3.963,3.963 0 1 0 -6.9,-3.9 L 818.5,50.6 A 117.178,117.178 0 0 0 769.4,40 119.152,119.152 0 0 0 720.2,50.5 L 700.8,17 a 3.963,3.963 0 0 0 -6.9,3.9 L 713,54 a 113.107,113.107 0 0 0 -58.6,90.4 H 884.1 A 112.53,112.53 0 0 0 825.6,54.1"
         id="path2"
         transform="translate(-17.8,-14)"
         style="fill:#ffffff;fill-opacity:1" /></g><text
       xml:space="preserve"
       style="font-style:normal;font-variant:normal;font-weight:500;font-stretch:normal;font-size:66.6667px;line-height:0.87;font-family:'Euclid Circular A';-inkscape-font-specification:'Euclid Circular A, Medium';font-variant-ligatures:normal;font-variant-caps:normal;font-variant-numeric:normal;font-variant-east-asian:normal;text-align:center;letter-spacing:-1.25px;text-anchor:middle;opacity:0.560049;fill:#000000;stroke-width:0.377953;stroke-linecap:round"
       x="48.574554"
       y="-58.325581"
       id="text2"><tspan
         sodipodi:role="line"
         id="tspan2"
         x="48.574554"
         y="-58.325581"></tspan></text><path
       style="font-weight:500;font-size:66.6667px;line-height:0.87;font-family:'Euclid Circular A';-inkscape-font-specification:'Euclid Circular A, Medium';text-align:center;letter-spacing:-1.25px;text-anchor:middle;fill:#ffffff;stroke-width:0.377953;stroke-linecap:round"
       d="m 44.2279,64.397348 q -6.800004,0 -11.200006,-3.333335 -4.333336,-3.333335 -5.000003,-8.666671 h 7.200004 q 1.933334,5.733336 9.200005,5.733336 3.933335,0 6.46667,-2.600001 2.600001,-2.533335 2.600001,-7.200004 v -3.933335 q -1.600001,2.266667 -4.466669,3.733335 -2.866668,1.466667 -6.200003,1.466667 -6.733337,0 -11.400006,-4.866669 -4.600003,-4.933336 -4.600003,-12.066673 0,-7.066671 4.600003,-11.93334 4.666669,-4.933336 11.400006,-4.933336 3.333335,0 6.200003,1.466668 2.866668,1.4 4.466669,3.666668 v -4.466669 h 7.333337 v 31.266684 q 0,8.266671 -4.733335,12.466673 -4.66667,4.200002 -11.866673,4.200002 z M 37.094562,39.997335 q 2.866669,2.866668 7.066671,2.866668 4.200002,0 7.06667,-2.866668 2.866669,-2.933335 2.866669,-7.333337 0,-4.400002 -2.866669,-7.266671 -2.866668,-2.933335 -7.06667,-2.933335 -4.200002,0 -7.066671,2.933335 -2.866668,2.866669 -2.866668,7.266671 0,4.400002 2.866668,7.333337 z m 46.016639,10.466672 q -6.800003,0 -11.466673,-5.066669 -4.600002,-5.066669 -4.600002,-12.266673 0,-7.200004 4.600002,-12.266673 4.66667,-5.06667 11.466673,-5.06667 3.400002,0 6.26667,1.533334 2.866668,1.466668 4.400003,3.600002 v -4.466669 h 7.333336 V 49.79734 h -7.333336 v -4.466669 q -1.533335,2.133335 -4.400003,3.666669 -2.866668,1.466667 -6.26667,1.466667 z m -5.800003,-9.733338 q 2.800002,3.066668 7.133337,3.066668 4.333336,0 7.133337,-3.066668 2.800002,-3.066668 2.800002,-7.600004 0,-4.533336 -2.800002,-7.600004 -2.800001,-3.066669 -7.133337,-3.066669 -4.333335,0 -7.133337,3.066669 -2.800001,3.066668 -2.800001,7.600004 0,4.533336 2.800001,7.600004 z M 152.26128,49.79734 V 31.063997 q 0,-4.066669 -1.53334,-6.333337 -1.46667,-2.266668 -4.4,-2.266668 -3.53334,0 -5.66667,2.733335 -2.13333,2.733335 -2.26667,7.666671 V 49.79734 h -7.33334 V 31.063997 q 0,-4.066669 -1.53333,-6.333337 -1.46667,-2.266668 -4.4,-2.266668 -3.66667,0 -5.86667,2.866669 -2.13334,2.866668 -2.13334,8.066671 V 49.79734 h -7.33333 V 16.463989 h 7.33333 v 4.533336 q 3.06667,-5.200003 9.46668,-5.200003 7.53333,0 10.33333,6.600004 1.40001,-3.133335 4.26667,-4.86667 2.93334,-1.733334 6.40001,-1.733334 5.6,0 8.8,3.800002 3.2,3.800002 3.2,10.266672 V 49.79734 Z m 30.21672,0.666667 q -7.46667,0 -12.26667,-4.866669 -4.8,-4.933336 -4.8,-12.466673 0,-7.533338 4.73333,-12.400007 4.73334,-4.933336 12.40001,-4.933336 7.73334,0 12.46667,5.400003 4.73334,5.333336 4.2,13.733341 H 172.678 q 0.13333,3.866669 2.93333,6.46667 2.8,2.600001 7.13334,2.600001 6.13333,0 8.4,-4.666669 h 7.66667 q -1.53333,4.866669 -5.86667,8.000004 -4.33333,3.133335 -10.46667,3.133335 z m -0.13333,-28.533348 q -3.6,0 -6.20001,2.066668 -2.53333,2.000001 -3.26666,5.733336 h 18.46667 q -0.8,-3.866669 -3.26667,-5.800003 -2.46666,-2.000001 -5.73333,-2.000001 z m 34.88328,28.533348 q -5.93333,0 -10,-2.933334 -4,-2.933335 -4.26667,-7.866671 h 7.6 q 0.8,4.933336 6.86667,4.933336 2.46667,0 3.93334,-0.866668 1.46667,-0.933333 1.46667,-2.666668 0,-1.733334 -1.13334,-2.733334 -1.13333,-1.000001 -3.8,-1.666668 l -5.46667,-1.466667 q -8.53334,-2.266668 -8.53334,-10.066672 0,-4.200003 3.40001,-6.733337 3.4,-2.600002 9,-2.600002 5.4,0 8.86667,2.733335 3.46667,2.733335 3.86667,7.266671 h -7.33334 q -1.06666,-4.133336 -5.46667,-4.133336 -2.2,0 -3.53333,0.933334 -1.33334,0.866667 -1.33334,2.466668 0,2.866668 4.46667,4.000002 l 5.60001,1.466667 q 8.86667,2.266668 8.86667,10.066672 0,4.733336 -3.66667,7.333338 -3.6,2.533334 -9.40001,2.533334 z"
       id="text3"
       aria-label="games" /></g></svg>
