<?xml version="1.0" encoding="UTF-8" standalone="no"?>
<svg
   id="svg2"
   version="1.1"
   viewBox="0 0 253.33576 63.342098"
   sodipodi:docname="applauncher_apps.svg"
   xml:space="preserve"
   width="253.33575"
   height="63.342098"
   inkscape:version="1.3 (0e150ed6c4, 2023-07-21)"
   inkscape:export-filename="applauncher_apps.svg"
   inkscape:export-xdpi="96"
   inkscape:export-ydpi="96"
   xmlns:inkscape="http://www.inkscape.org/namespaces/inkscape"
   xmlns:sodipodi="http://sodipodi.sourceforge.net/DTD/sodipodi-0.dtd"
   xmlns="http://www.w3.org/2000/svg"
   xmlns:svg="http://www.w3.org/2000/svg"><defs
     id="defs1"><style
       id="style1">.a{fill:#3ddc84;}</style></defs><sodipodi:namedview
     id="namedview1"
     pagecolor="#4e4e4e"
     bordercolor="#ffffff"
     borderopacity="1"
     inkscape:showpageshadow="0"
     inkscape:pageopacity="0"
     inkscape:pagecheckerboard="false"
     inkscape:deskcolor="#505050"
     inkscape:zoom="3.9158716"
     inkscape:cx="105.34053"
     inkscape:cy="1.9152824"
     inkscape:window-width="2560"
     inkscape:window-height="1387"
     inkscape:window-x="-8"
     inkscape:window-y="-8"
     inkscape:window-maximized="1"
     inkscape:current-layer="svg2" /><g
     id="g4"
     transform="translate(-82.044429,-0.38858221)"><g
       id="g1"
       transform="scale(0.3871409)"
       style="fill:#ffffff;fill-opacity:1"><path
         class="a"
         d="m 822.2,111.7 a 9.6,9.6 0 1 1 9.6,-9.6 9.6,9.6 0 0 1 -9.6,9.6 m -105.7,0 a 9.6,9.6 0 1 1 9.6,-9.6 9.6,9.6 0 0 1 -9.6,9.6 M 825.6,54.1 844.8,21 a 3.963,3.963 0 1 0 -6.9,-3.9 L 818.5,50.6 A 117.178,117.178 0 0 0 769.4,40 119.152,119.152 0 0 0 720.2,50.5 L 700.8,17 a 3.963,3.963 0 0 0 -6.9,3.9 L 713,54 a 113.107,113.107 0 0 0 -58.6,90.4 H 884.1 A 112.53,112.53 0 0 0 825.6,54.1"
         id="path2"
         transform="translate(-17.8,-14)"
         style="fill:#ffffff;fill-opacity:1" /></g><text
       xml:space="preserve"
       style="font-style:normal;font-variant:normal;font-weight:500;font-stretch:normal;font-size:66.6667px;line-height:0.87;font-family:'Euclid Circular A';-inkscape-font-specification:'Euclid Circular A, Medium';font-variant-ligatures:normal;font-variant-caps:normal;font-variant-numeric:normal;font-variant-east-asian:normal;text-align:center;letter-spacing:-1.25px;text-anchor:middle;opacity:0.560049;fill:#000000;stroke-width:0.377953;stroke-linecap:round"
       x="48.574554"
       y="-58.325581"
       id="text2"><tspan
         sodipodi:role="line"
         id="tspan2"
         x="48.574554"
         y="-58.325581" /></text><path
       style="font-weight:500;font-size:66.6667px;line-height:0.87;font-family:'Euclid Circular A';-inkscape-font-specification:'Euclid Circular A, Medium';text-align:center;letter-spacing:-1.25px;text-anchor:middle;fill:#ffffff;stroke-width:0.377953;stroke-linecap:round"
       d="m 98.111104,50.464007 q -6.800003,0 -11.466672,-5.066669 -4.600003,-5.066669 -4.600003,-12.266673 0,-7.200004 4.600003,-12.266673 4.666669,-5.06667 11.466672,-5.06667 3.400006,0 6.266666,1.533334 2.86667,1.466668 4.40001,3.600002 v -4.466669 h 7.33333 V 49.79734 h -7.33333 v -4.466669 q -1.53334,2.133335 -4.40001,3.666669 -2.86666,1.466667 -6.266666,1.466667 z m -5.800003,-9.733338 q 2.800002,3.066668 7.133337,3.066668 4.333332,0 7.133342,-3.066668 2.8,-3.066668 2.8,-7.600004 0,-4.533336 -2.8,-7.600004 -2.80001,-3.066669 -7.133342,-3.066669 -4.333335,0 -7.133337,3.066669 -2.800001,3.066668 -2.800001,7.600004 0,4.533336 2.800001,7.600004 z m 39.816729,23.000012 h -7.33334 V 16.463989 h 7.33334 v 4.466669 q 1.53333,-2.133334 4.4,-3.600002 2.93333,-1.533334 6.33334,-1.533334 6.8,0 11.4,5.06667 4.66667,5.066669 4.66667,12.266673 0,7.200004 -4.66667,12.266673 -4.6,5.066669 -11.4,5.066669 -3.40001,0 -6.33334,-1.466667 -2.86667,-1.533334 -4.4,-3.666669 z m 9.4,-19.933344 q 4.33334,0 7.13334,-3.066668 2.8,-3.066668 2.8,-7.600004 0,-4.533336 -2.8,-7.600004 -2.8,-3.066669 -7.13334,-3.066669 -4.4,0 -7.2,3.066669 -2.8,3.066668 -2.8,7.600004 0,4.533336 2.8,7.600004 2.8,3.066668 7.2,3.066668 z m 30.95006,19.933344 h -7.33334 V 16.463989 h 7.33334 v 4.466669 q 1.53333,-2.133334 4.4,-3.600002 2.93333,-1.533334 6.33334,-1.533334 6.8,0 11.4,5.06667 4.66667,5.066669 4.66667,12.266673 0,7.200004 -4.66667,12.266673 -4.6,5.066669 -11.4,5.066669 -3.40001,0 -6.33334,-1.466667 -2.86667,-1.533334 -4.4,-3.666669 z m 9.4,-19.933344 q 4.33334,0 7.13334,-3.066668 2.8,-3.066668 2.8,-7.600004 0,-4.533336 -2.8,-7.600004 -2.8,-3.066669 -7.13334,-3.066669 -4.4,0 -7.2,3.066669 -2.8,3.066668 -2.8,7.600004 0,4.533336 2.8,7.600004 2.8,3.066668 7.2,3.066668 z m 35.35006,6.66667 q -5.93334,0 -10.00001,-2.933334 -4,-2.933335 -4.26667,-7.866671 h 7.60001 q 0.8,4.933336 6.86667,4.933336 2.46667,0 3.93333,-0.866668 1.46667,-0.933333 1.46667,-2.666668 0,-1.733334 -1.13333,-2.733334 -1.13334,-1.000001 -3.8,-1.666668 l -5.46667,-1.466667 q -8.53334,-2.266668 -8.53334,-10.066672 0,-4.200003 3.4,-6.733337 3.4,-2.600002 9,-2.600002 5.40001,0 8.86668,2.733335 3.46666,2.733335 3.86666,7.266671 h -7.33333 q -1.06667,-4.133336 -5.46667,-4.133336 -2.2,0 -3.53334,0.933334 -1.33333,0.866667 -1.33333,2.466668 0,2.866668 4.46667,4.000002 l 5.6,1.466667 q 8.86667,2.266668 8.86667,10.066672 0,4.733336 -3.66667,7.333338 -3.6,2.533334 -9.4,2.533334 z"
       id="text4"
       aria-label="apps" /></g></svg>
