<?xml version="1.0" encoding="UTF-8" standalone="no"?>
<svg
   version="1.1"
   x="0"
   y="0"
   width="1000"
   height="237"
   viewBox="0, 0, 1000, 237"
   id="svg14"
   sodipodi:docname="archimedes_white.svg"
   inkscape:version="1.1.2 (0a00cf5339, 2022-02-04)"
   xmlns:inkscape="http://www.inkscape.org/namespaces/inkscape"
   xmlns:sodipodi="http://sodipodi.sourceforge.net/DTD/sodipodi-0.dtd"
   xmlns="http://www.w3.org/2000/svg"
   xmlns:svg="http://www.w3.org/2000/svg">
  <defs
     id="defs18" />
  <sodipodi:namedview
     id="namedview16"
     pagecolor="#ffffff"
     bordercolor="#666666"
     borderopacity="1.0"
     inkscape:pageshadow="2"
     inkscape:pageopacity="0.0"
     inkscape:pagecheckerboard="true"
     showgrid="false"
     inkscape:zoom="1.72"
     inkscape:cx="500.2907"
     inkscape:cy="118.31395"
     inkscape:window-width="3840"
     inkscape:window-height="2065"
     inkscape:window-x="0"
     inkscape:window-y="0"
     inkscape:window-maximized="1"
     inkscape:current-layer="svg14" />
  <path
     id="path7"
     d="M 183.47266 0 L -0.43554688 237 L 21.455078 237 L 108.24609 125.15234 C 135.13709 112.17334 164.32981 114.59547 186.38281 131.23047 L 186.38281 237 L 203.22266 237 L 203.24609 0 L 183.47266 0 z M 186.38281 24.462891 L 186.38281 110.82812 C 168.37081 100.51412 147.29734 97.414969 126.27734 101.91797 L 186.38281 24.462891 z M 392.0957 64.298828 L 371.63867 206.62695 L 389.38281 206.62695 L 398.35742 145.68164 C 400.05642 143.50464 401.71131 141.52714 403.32031 139.74414 C 404.92931 137.96414 406.30422 136.49489 407.44922 135.33789 C 408.59122 134.18089 409.31891 133.4532 409.62891 133.1582 C 410.68991 132.0562 412.09003 130.78008 413.83203 129.33008 C 415.57503 127.88008 417.54986 126.60591 419.75586 125.50391 C 421.95986 124.40291 424.28814 123.82364 426.74414 123.76562 C 428.24914 123.77362 429.78089 124.17384 431.33789 124.96484 C 432.89489 125.75584 434.21573 126.88742 435.30273 128.35742 C 436.31173 129.80442 436.95637 131.23911 437.23438 132.66211 C 437.51238 134.08311 437.63461 135.56905 437.59961 137.12305 C 437.59961 138.41305 437.57348 139.49433 437.52148 140.36133 C 437.46948 141.22833 437.38281 142.06042 437.25781 142.85742 C 437.13581 143.65742 436.96967 144.59764 436.76367 145.68164 L 428.20508 206.62695 L 446.14648 206.62695 L 454.48633 147.14062 C 454.76533 145.59262 454.97595 144.28666 455.12695 143.22266 C 455.27795 142.15866 455.38431 141.03636 455.44531 139.85938 C 455.50331 138.68038 455.5323 137.14014 455.5293 135.24414 C 455.4453 129.15314 454.31748 124.25592 452.14648 120.54492 C 449.97748 116.83392 447.27211 114.14266 444.03711 112.47266 C 440.79911 110.80266 437.54177 109.98272 434.25977 110.01172 C 429.67077 110.06172 425.37314 110.93577 421.36914 112.63477 C 417.36814 114.33677 413.64622 116.56889 410.19922 119.33789 C 406.75522 122.10389 403.57234 125.11042 400.65234 128.35742 L 409.83789 64.298828 L 392.0957 64.298828 z M 800.26953 64.298828 L 793.79883 110.2207 C 790.41783 110.1227 787.11372 110.10683 783.88672 110.17383 C 780.65972 110.24083 777.34073 110.54756 773.92773 111.10156 C 770.51573 111.65156 766.8413 112.61156 762.9043 113.97656 C 756.8893 116.15956 751.51239 119.13816 746.77539 122.91016 C 742.03539 126.68416 738.00736 130.99108 734.69336 135.83008 C 731.38036 140.67108 728.85423 145.78578 727.11523 151.17578 C 725.37623 156.56478 724.50028 161.96591 724.48828 167.37891 C 724.55528 173.78591 725.73063 179.59286 728.01562 184.79688 C 730.29664 190.00388 733.30053 194.34803 737.01953 197.83203 C 739.27253 200.01503 741.9833 201.98519 745.1543 203.74219 C 748.3263 205.49919 752.22742 206.89559 756.85742 207.93359 C 761.48942 208.97159 767.12377 209.50239 773.75977 209.52539 C 780.30377 209.45639 785.52945 209.07295 789.43945 208.37695 C 793.34745 207.68195 796.12267 207.09052 797.76367 206.60352 L 818.2207 64.298828 L 800.26953 64.298828 z M 486.54688 80.878906 C 483.66788 80.959906 481.29759 81.942172 479.43359 83.826172 C 477.56959 85.705172 476.60206 87.993594 476.53906 90.683594 C 476.55606 92.449594 477.00863 94.087656 477.89062 95.597656 C 478.77463 97.108656 479.98072 98.328766 481.51172 99.259766 C 483.04172 100.19277 484.78986 100.67127 486.75586 100.69727 C 488.78186 100.66227 490.54111 100.15202 492.03711 99.166016 C 493.53011 98.180016 494.69067 96.928109 495.51367 95.412109 C 496.33467 93.893109 496.75167 92.318594 496.76367 90.683594 C 496.75167 88.987594 496.31698 87.399969 495.45898 85.917969 C 494.60398 84.436969 493.41277 83.233594 491.88477 82.308594 C 490.35777 81.386594 488.57686 80.907906 486.54688 80.878906 z M 356.50977 110.01172 C 347.50777 110.06772 339.59544 111.25884 332.77344 113.58984 C 325.95244 115.91784 320.12497 119.05695 315.29297 123.00195 C 310.46297 126.95095 306.53286 131.3782 303.50586 136.2832 C 300.47886 141.1912 298.2607 146.24703 296.8457 151.45703 C 295.4337 156.66603 294.73591 161.69869 294.75391 166.55469 C 294.72191 171.22569 295.39539 176.04753 296.77539 181.01953 C 298.15539 185.98853 300.42684 190.62664 303.58984 194.93164 C 306.75284 199.23764 310.98964 202.72739 316.30664 205.40039 C 321.62364 208.07639 328.20773 209.45325 336.05273 209.53125 C 340.43073 209.49625 344.29164 209.10542 347.64062 208.35742 C 350.98863 207.61242 353.86177 206.72417 356.25977 205.70117 C 358.65677 204.67417 360.61953 203.72937 362.14453 202.85938 L 364.85742 184.08594 C 363.19942 185.38794 361.15823 186.77309 358.74023 188.24609 C 356.32223 189.71609 353.46892 190.98016 350.16992 192.03516 C 346.87292 193.08816 343.07258 193.6375 338.76758 193.6875 C 334.19858 193.6405 330.36834 192.90733 327.27734 191.48633 C 324.19034 190.06333 321.69959 188.23228 319.80859 185.98828 C 317.91859 183.74428 316.48663 181.36647 315.51562 178.85547 C 314.54462 176.34447 313.89264 173.97791 313.55664 171.75391 C 313.22364 169.53091 313.0688 167.7257 313.0918 166.3457 C 313.0808 161.9397 313.89883 157.39398 315.54883 152.70898 C 317.19783 148.02398 319.74545 143.65456 323.18945 139.60156 C 326.63645 135.54656 331.04973 132.26209 336.42773 129.74609 C 341.80873 127.22609 348.22283 125.93047 355.67383 125.85547 C 358.02783 125.86447 360.26386 126.00248 362.38086 126.27148 C 364.49986 126.54148 366.78619 126.89041 369.24219 127.31641 L 371.53711 111.64453 C 369.63211 111.22353 367.54539 110.85134 365.27539 110.52734 C 363.00539 110.19934 360.08377 110.02972 356.50977 110.01172 z M 681.73438 110.01758 C 675.24037 110.07258 669.32152 111.54273 663.97852 114.42773 C 658.63252 117.31473 654.01781 121.29419 650.13281 126.36719 C 646.24881 131.44319 643.24967 137.2883 641.13867 143.9043 C 639.02867 150.5193 637.95959 157.58275 637.93359 165.09375 C 637.96859 173.65175 639.56747 181.26288 642.73047 187.92188 C 645.89347 194.58187 650.41411 199.82716 656.28711 203.66016 C 662.16111 207.49516 669.18156 209.45039 677.35156 209.52539 C 681.78956 209.58639 686.68316 208.83725 692.03516 207.28125 C 697.38316 205.72425 702.85141 202.99484 708.44141 199.08984 L 711.15234 180.52539 C 708.27634 182.74039 705.0795 184.94186 701.5625 187.13086 C 698.0435 189.31986 694.35228 191.14809 690.48828 192.62109 C 686.62328 194.09109 682.7325 194.85606 678.8125 194.91406 C 674.9185 194.89706 671.23564 193.79719 667.76562 191.61719 C 664.29462 189.43719 661.46167 186.2823 659.26367 182.1543 C 657.06967 178.0293 655.93619 173.03864 655.86719 167.18164 C 655.87019 165.63664 655.91209 164.13392 655.99609 162.66992 C 656.07709 161.20592 656.17425 159.64986 656.28125 158.00586 L 714.9082 158.00586 C 715.1262 156.98186 715.31742 155.73939 715.48242 154.27539 C 715.64842 152.80839 715.73614 150.98936 715.74414 148.81836 C 715.68614 140.98736 714.19816 134.17586 711.28516 128.38086 C 708.36816 122.58586 704.36553 118.08867 699.26953 114.88867 C 694.17553 111.68767 688.33037 110.06458 681.73438 110.01758 z M 859.63281 110.01758 C 853.13881 110.07258 847.21995 111.54273 841.87695 114.42773 C 836.53095 117.31473 831.9143 121.29419 828.0293 126.36719 C 824.1443 131.44319 821.14811 137.2883 819.03711 143.9043 C 816.92711 150.5193 815.85608 157.58275 815.83008 165.09375 C 815.86508 173.65175 817.46591 181.26288 820.62891 187.92188 C 823.79191 194.58187 828.31155 199.82716 834.18555 203.66016 C 840.05855 207.49516 847.08 209.45039 855.25 209.52539 C 859.688 209.58639 864.58159 208.83725 869.93359 207.28125 C 875.28159 205.72425 880.75084 202.99484 886.33984 199.08984 L 889.04688 180.52539 C 886.17386 182.74039 882.97794 184.94186 879.46094 187.13086 C 875.94094 189.31986 872.24977 191.14809 868.38477 192.62109 C 864.52077 194.09109 860.62994 194.85606 856.71094 194.91406 C 852.81694 194.89706 849.13311 193.79719 845.66211 191.61719 C 842.19211 189.43719 839.36011 186.2823 837.16211 182.1543 C 834.96811 178.0293 833.83462 173.03864 833.76562 167.18164 C 833.76764 165.63664 833.81053 164.13392 833.89453 162.66992 C 833.97553 161.20592 834.07269 159.64986 834.17969 158.00586 L 892.80273 158.00586 C 893.01973 156.98186 893.22186 155.73939 893.38086 154.27539 C 893.54086 152.80839 893.62858 150.98936 893.64258 148.81836 C 893.58458 140.98736 892.09073 134.17586 889.17773 128.38086 C 886.26673 122.58586 882.26397 118.08867 877.16797 114.88867 C 872.07397 111.68767 866.22881 110.06458 859.63281 110.01758 z M 937.89648 110.62305 C 931.43148 110.69305 926.05305 111.94123 921.74805 114.36523 C 917.45705 116.79123 914.2407 119.9703 912.0957 123.9043 C 909.9507 127.8353 908.89063 132.09745 908.89062 136.68945 C 908.91963 140.50745 909.6607 143.96002 911.0957 147.04102 C 912.5157 150.12602 914.41434 152.89552 916.77734 155.35352 C 919.12534 157.80952 921.72086 160.00922 924.54688 161.94922 C 929.79486 165.70622 933.96864 168.78917 937.05664 171.20117 C 940.15864 173.61617 942.36069 175.77483 943.67969 177.67383 C 945.01369 179.57883 945.66605 181.64214 945.62305 183.86914 C 945.55005 186.94214 944.40417 189.40295 942.20117 191.25195 C 940.01217 193.09895 937.25945 194.0467 933.93945 194.0957 C 929.48945 194.0467 924.86503 192.7855 920.08203 190.3125 C 915.29803 187.8365 910.09405 184.43642 904.49805 180.10742 L 901.58594 197.22461 C 905.77494 200.20161 909.60241 202.59334 913.06641 204.40234 C 916.53041 206.21134 919.90789 207.52198 923.21289 208.33398 C 926.51789 209.14598 930.01166 209.54625 933.72266 209.53125 C 938.57866 209.49625 942.84081 208.70797 946.50781 207.16797 C 950.18981 205.62897 953.24789 203.55613 955.71289 200.95312 C 958.19089 198.34712 960.04534 195.42641 961.27734 192.19141 C 962.52334 188.95541 963.14844 185.62522 963.14844 182.19922 C 963.11944 177.39822 962.17664 173.28909 960.30664 169.87109 C 958.43664 166.45609 955.78428 163.30483 952.36328 160.42383 C 948.94228 157.54183 944.88317 154.50373 940.20117 151.30273 C 937.85317 149.70273 935.59134 148.05614 933.40234 146.36914 C 931.21334 144.68214 929.41709 142.96108 927.99609 141.20508 C 926.57609 139.44808 925.85097 137.66252 925.79297 135.85352 C 925.85097 133.18652 926.99684 131.00369 929.21484 129.30469 C 931.43284 127.60269 934.40228 126.72492 938.11328 126.66992 C 941.65028 126.70192 945.07166 127.28683 948.34766 128.42383 C 951.63766 129.56283 954.79842 131.06297 957.85742 132.91797 C 960.90142 134.77597 963.84422 136.79538 966.69922 138.98438 L 966.69922 120.41602 C 964.94522 119.24502 962.68472 117.90553 959.88672 116.39453 C 957.08972 114.88453 953.84153 113.56086 950.14453 112.42188 C 946.44853 111.28186 942.36048 110.68105 937.89648 110.62305 z M 281.98438 111.4375 C 278.02936 111.5015 274.48361 112.5547 271.34961 114.5957 C 268.21561 116.6367 265.42928 119.27944 262.98828 122.52344 C 260.54728 125.77044 258.39434 129.23116 256.52734 132.91016 L 259.24023 112.91602 L 241.71094 112.91602 L 228.35547 206.62695 L 246.09375 206.62695 L 253.60547 153.82227 C 254.89847 150.98727 256.1242 148.6813 257.2832 146.9043 C 258.4462 145.1273 259.30328 143.87358 259.86328 143.14258 C 262.70128 139.22858 265.25825 136.31172 267.53125 134.38672 C 269.80425 132.46472 271.87972 131.20066 273.76172 130.59766 C 275.63972 129.99466 277.40945 129.72234 279.06445 129.77734 C 281.55545 129.83034 283.66834 130.19505 285.40234 130.87305 C 287.13834 131.55505 288.57214 132.23216 289.70312 132.91016 L 289.70312 112.91602 C 288.78413 112.57402 287.7057 112.24655 286.4707 111.93555 C 285.2357 111.62255 283.74036 111.4575 281.98438 111.4375 z M 551.93945 111.4375 C 546.53245 111.4115 541.12294 112.86945 535.71094 115.81445 C 530.30394 118.75745 524.78897 123.34617 519.16797 129.57617 L 521.46484 112.91602 L 503.92969 112.91602 L 490.57031 206.62695 L 508.10547 206.62695 L 516.66211 147.14258 C 517.22411 146.38258 518.1822 145.17481 519.5332 143.50781 C 520.8872 141.84681 522.52422 139.99036 524.44922 137.94336 C 526.37122 135.89936 528.47009 133.92544 530.74609 132.02344 C 533.01909 130.12144 535.35964 128.55336 537.76562 127.31836 C 540.16962 126.08336 542.5288 125.44339 544.8418 125.40039 C 546.0938 125.35339 547.55836 125.65569 549.23438 126.30469 C 550.91336 126.95469 552.39183 128.23277 553.67383 130.13477 C 554.95483 132.03677 555.62931 134.84264 555.69531 138.55664 C 555.70131 139.95064 555.58942 142.11573 555.35742 145.05273 C 555.12842 147.98873 554.75337 151.46275 554.23438 155.46875 L 546.92969 206.62695 L 564.67188 206.62695 L 573.43945 147.11719 C 575.07745 144.87619 577.01953 142.50123 579.26953 139.99023 C 581.51553 137.47623 583.9475 135.10323 586.5625 132.86523 C 589.1805 130.62723 591.85856 128.79781 594.60156 127.38281 C 597.34656 125.96481 600.03416 125.23541 602.66016 125.19141 C 603.83716 125.13941 605.19719 125.45195 606.74219 126.12695 C 608.29019 126.80295 609.65022 128.15088 610.82422 130.17188 C 611.99822 132.19187 612.62064 135.19564 612.68164 139.18164 C 612.66964 140.37364 612.59031 141.69644 612.44531 143.14844 C 612.30331 144.60044 612.17369 145.92219 612.05469 147.11719 L 603.49609 206.62695 L 621.23242 206.62695 L 629.1582 151.08203 C 629.4832 148.78903 629.77158 146.48502 630.01758 144.16602 C 630.26658 141.84602 630.3972 139.4897 630.4082 137.0957 C 630.3592 131.8077 629.59995 127.47842 628.12695 124.10742 C 626.65695 120.73842 624.77642 118.12916 622.48242 116.28516 C 620.19242 114.44116 617.78848 113.16608 615.27148 112.45508 C 612.75848 111.74508 610.43386 111.4055 608.29688 111.4375 C 604.26987 111.4865 600.46758 112.22167 596.89258 113.63867 C 593.31858 115.05667 590.03225 116.85892 587.03125 119.04492 C 584.03425 121.23392 581.3878 123.50433 579.0918 125.86133 C 576.7958 128.21833 574.91145 130.36302 573.43945 132.29102 C 572.61545 126.98002 571.06792 122.79509 568.79492 119.74609 C 566.52492 116.69609 563.89239 114.53939 560.90039 113.27539 C 557.90839 112.00839 554.92245 111.3965 551.93945 111.4375 z M 474.91211 112.91602 L 461.55469 206.62695 L 479.29492 206.62695 L 492.63867 112.91602 L 474.91211 112.91602 z M 681.73438 124.42383 C 684.96738 124.43283 687.84509 125.24991 690.37109 126.87891 C 692.90209 128.50891 694.88427 130.90159 696.32227 134.05859 C 697.76027 137.21559 698.45987 141.0925 698.42188 145.6875 L 659.20312 145.6875 C 659.70713 144.1125 660.46289 142.15745 661.46289 139.81445 C 662.46589 137.47545 663.82502 135.13211 665.54102 132.78711 C 667.25702 130.44411 669.43608 128.47948 672.08008 126.89648 C 674.72708 125.31048 677.94537 124.48783 681.73438 124.42383 z M 859.63281 124.42383 C 862.86581 124.43283 865.74453 125.24991 868.26953 126.87891 C 870.80053 128.50891 872.7827 130.90159 874.2207 134.05859 C 875.6587 137.21559 876.35831 141.0925 876.32031 145.6875 L 837.10156 145.6875 C 837.60656 144.1125 838.35938 142.15745 839.35938 139.81445 C 840.36237 137.47545 841.72345 135.13211 843.43945 132.78711 C 845.15545 130.44411 847.33452 128.47948 849.97852 126.89648 C 852.62552 125.31048 855.84381 124.48783 859.63281 124.42383 z M 791.71094 124.83203 L 781.69141 194.49414 C 780.69441 194.70214 779.60669 194.85889 778.42969 194.96289 C 777.24969 195.06789 775.69377 195.11914 773.75977 195.11914 C 766.28377 195.03814 760.29016 193.65003 755.78516 190.95703 C 751.27716 188.26403 748.02448 184.75841 746.02148 180.44141 C 744.01848 176.12741 743.03517 171.49587 743.07617 166.54688 C 743.05517 161.52887 743.97494 156.47862 745.83594 151.39062 C 747.69494 146.30262 750.60913 141.66642 754.57812 137.48242 C 758.54712 133.30242 763.68795 130.05995 770.00195 127.75195 C 774.25795 126.26195 778.3205 125.38214 782.1875 125.11914 C 786.0515 124.85214 789.22594 124.75603 791.71094 124.83203 z "
     style="fill:#ffffff;fill-opacity:1" />
</svg>
