<?xml version="1.0" encoding="UTF-8" standalone="no"?>
<!-- Generator: Adobe Illustrator 26.0.3, SVG Export Plug-In . SVG Version: 6.00 Build 0)  -->

<svg
   version="1.1"
   id="Layer_1"
   x="0px"
   y="0px"
   viewBox="0 0 4689.0001 1248"
   xml:space="preserve"
   width="4689"
   height="1248"
   sodipodi:docname="consolearcade_white.svg"
   inkscape:version="1.2.2 (732a01da63, 2022-12-09)"
   xmlns:inkscape="http://www.inkscape.org/namespaces/inkscape"
   xmlns:sodipodi="http://sodipodi.sourceforge.net/DTD/sodipodi-0.dtd"
   xmlns:xlink="http://www.w3.org/1999/xlink"
   xmlns="http://www.w3.org/2000/svg"
   xmlns:svg="http://www.w3.org/2000/svg"><sodipodi:namedview
   id="namedview90"
   pagecolor="#ffffff"
   bordercolor="#111111"
   borderopacity="1"
   inkscape:showpageshadow="0"
   inkscape:pageopacity="0"
   inkscape:pagecheckerboard="1"
   inkscape:deskcolor="#d1d1d1"
   showgrid="false"
   inkscape:zoom="0.2608232"
   inkscape:cx="2440.3504"
   inkscape:cy="624.9444"
   inkscape:window-width="1920"
   inkscape:window-height="1009"
   inkscape:window-x="-8"
   inkscape:window-y="-8"
   inkscape:window-maximized="1"
   inkscape:current-layer="g983" /><defs
   id="defs148"><linearGradient
   id="linearGradient34773"
   gradientUnits="userSpaceOnUse"
   x1="15.196"
   y1="312.37051"
   x2="3854.196"
   y2="312.37051"
   gradientTransform="translate(1160.9631,-2.2896484e-5)">
				<stop
   offset="0"
   style="stop-color:#f3dd42;stop-opacity:1"
   id="stop34769" />
				<stop
   offset="1"
   style="stop-color:#d7861b;stop-opacity:1"
   id="stop34771" />
			</linearGradient>
	
	

		
	
			<linearGradient
   id="SVGID_1_"
   gradientUnits="userSpaceOnUse"
   x1="15.196"
   y1="312.37051"
   x2="3854.196"
   y2="312.37051"
   gradientTransform="translate(1160.9631,-2.2896484e-5)">
				<stop
   offset="0"
   style="stop-color:#FF2422"
   id="stop4" />
				<stop
   offset="1"
   style="stop-color:#C24FFF"
   id="stop6" />
			</linearGradient>
			
		<linearGradient
   xlink:href="#linearGradient34773"
   id="linearGradient6574"
   gradientUnits="userSpaceOnUse"
   gradientTransform="translate(833.68668,630.53366)"
   x1="15.196"
   y1="312.37051"
   x2="3588.2239"
   y2="316.50259" /></defs>
<style
   type="text/css"
   id="style2">
	.st0{fill:#FFFFFF;}
	.st1{fill:#FF0000;}
	.st2{fill:url(#SVGID_1_);}
	.st3{fill:url(#SVGID_00000060022068257817767130000001067164073883981741_);}
	.st4{fill:url(#SVGID_00000144308182761068376180000004131709304805192586_);}
	.st5{fill:url(#SVGID_00000000935997520668853970000011105419993307822477_);}
	.st6{fill:url(#SVGID_00000018200174457167754170000000853354448091225986_);}
	.st7{fill:url(#SVGID_00000072987630451721579260000010409738167651109522_);}
	.st8{fill:#3636FF;}
	.st9{display:none;}
	.st10{display:inline;}
	.st11{enable-background:new    ;}
	.st12{fill:url(#SVGID_00000099639162208554751810000013272208193612295339_);}
	.st13{fill:url(#SVGID_00000158736166008707814920000018426778185460247990_);}
	.st14{fill:url(#SVGID_00000133527000259551881150000004185836194023049859_);}
	.st15{fill:url(#SVGID_00000093164219829473752460000004603917870326250679_);}
	.st16{fill:url(#SVGID_00000156556395246081825560000005894267688922753411_);}
	.st17{fill:url(#SVGID_00000135690321830567168220000000437954853257014148_);}
	.st18{fill:url(#SVGID_00000040565659643257570880000002075315462357006765_);}
	.st19{fill:url(#SVGID_00000017508175736194757820000008863537906517323707_);}
	.st20{fill:url(#SVGID_00000126293465477839731700000000626789561221784705_);}
	.st21{fill:url(#SVGID_00000087403315896914670680000008996143154280075168_);}
	.st22{fill:url(#SVGID_00000151540686432933406660000011628697137491540393_);}
	.st23{fill:url(#SVGID_00000143589059756432772880000012524823099024141722_);}
	.st24{fill:url(#SVGID_00000052088033699595628130000015515451372212444082_);}
	.st25{fill:url(#SVGID_00000126294377186336552610000001799937443100725399_);}
	.st26{fill:url(#SVGID_00000070835762807858034660000013936331226864194476_);}
	.st27{fill:url(#SVGID_00000092457199491666826160000016742156659903073436_);}
	.st28{fill:url(#SVGID_00000138556585880754416440000017272986633013561527_);}
	.st29{fill:url(#SVGID_00000032624778419303139080000015394367773870234245_);}
	.st30{fill:url(#SVGID_00000040539262103052545880000003837399106474199717_);}
	.st31{fill:url(#SVGID_00000115483974547727894610000006699104590764616355_);}
	.st32{fill:url(#SVGID_00000041285316495664937430000010139118778734034608_);}
	.st33{fill:url(#SVGID_00000178199001922562380240000009661348160359078294_);}
	.st34{fill:url(#SVGID_00000145019290134935790460000010249637267404127883_);}
	.st35{fill:url(#SVGID_00000117636406951782473700000003654222835714608307_);}
	.st36{fill:url(#SVGID_00000158745280490234840560000003483236744759648947_);}
	.st37{fill:url(#SVGID_00000146474604070782972690000015670225624893543309_);}
	.st38{fill:url(#SVGID_00000173847499186819278890000011550608873747634579_);}
	.st39{fill:url(#SVGID_00000141427567100195222880000010417319602782459071_);}
</style>

<g
   id="g983"><g
     id="g8603"
     style="fill:none;fill-opacity:1;stroke:#ffffff;stroke-width:26.4;stroke-dasharray:none;stroke-opacity:1"
     transform="translate(-34,-20)"><path
       class="st2"
       d="M 1252.4867,646.83366 848.88668,1234.7338 h 212.60002 l 50.9,-78.4 h 204.3 l 10,78.4 h 207.6 l -88.3,-587.90014 z m -53.4,371.10004 90.9,-141.80004 15.8,141.80004 z m 733.8,-366.90004 h -227.6 l -156.8,583.70014 h 195.2 l 45,-166.8001 h 48.4 l 65,166.8001 h 210.1 l -80.9,-194.3001 c 115.1,-35.9 162.6,-114.20004 162.6,-205.10004 0,-45.9 -13.3,-89.2 -45.9,-121.7 -39.1,-39.2 -107.5,-62.6 -215.1,-62.6 z m -36.6,277.7 h -70.9 l 30.9,-114.2 h 69.2 c 27.5,0 46.7,5.8 57.5,16.7 8.3,8.3 12.5,19.2 12.5,30.9 0,36.6 -34.2,66.6 -99.2,66.6 z m 857.8,191.00004 -135.1,-106.7 c -31.7,39.2 -68.4,60.9 -113.4,60.9 -51.7,0 -91.7,-35.9 -91.7,-100.10004 0,-80.1 56.7,-160.1 144.3,-160.1 44.2,0 78.4,23.3 90.9,70.9 l 174.3,-75.9 c -24.2,-103.5 -113.5,-170.2 -239.4,-170.2 -251.8,0 -374.4,193.5 -374.4,352.7 0,156.80004 113.4,256.00014 276.9,256.00014 124.2,0 209.3,-50.8 267.6,-127.5001 z m 361.1,-472.90004 -403.6,587.90014 h 212.6 l 50.9,-78.4 h 204.3 l 10,78.4 h 207.6 l -88.3,-587.90014 z m -53.4,371.10004 90.9,-141.80004 15.8,141.80004 z m 941.5,-291.80004 c -44.2,-44.2 -115.1,-75 -228.5,-75 h -206.8 l -156.8,583.70014 h 253.5 c 135.1,0 236,-37.5 306,-107.6001 62.5,-62.5 95.9,-142.60004 95.9,-230.20004 0.1,-70.9 -20,-127.6 -63.3,-170.9 z m -176.8,291.00004 c -30,30 -80.9,47.5 -140.1,47.5 h -34.2 l 65,-243.50004 h 32.5 c 46.7,0 75.9,10.8 94.2,29.2 15,15 24.2,35.9 24.2,67.5 0.1,35.9 -17.4,75.1 -41.6,99.30004 z m 818,-206.00004 43.4,-160.1 h -497.8 l -156.8,583.70014 h 502 l 42.5,-160.1001 h -310.2 l 17.5,-63.4 h 285.2 l 37.5,-140.90004 h -285.1 l 15.8,-59.2 z"
       id="path9-5"
       style="fill:none;fill-opacity:1;stroke:#ffffff;stroke-width:26.4;stroke-dasharray:none;stroke-opacity:1" /><g
       id="g141"
       transform="translate(833.68668,630.53371)"
       style="fill:none;fill-opacity:1;stroke:#ffffff;stroke-width:26.4;stroke-dasharray:none;stroke-opacity:1">
		<g
   id="g34"
   style="fill:none;fill-opacity:1;stroke:#ffffff;stroke-width:26.4;stroke-dasharray:none;stroke-opacity:1">
			
				<linearGradient
   id="SVGID_00000128444796063564815230000007252927678799283094_"
   gradientUnits="userSpaceOnUse"
   x1="357.92542"
   y1="604.23328"
   x2="357.92542"
   y2="16.339899">
				<stop
   offset="0"
   style="stop-color:#FF0000"
   id="stop15" />
				<stop
   offset="0.2634"
   style="stop-color:#E42372"
   id="stop17" />
				<stop
   offset="0.3192"
   style="stop-color:#FFA1FF"
   id="stop19" />
				<stop
   offset="0.4267"
   style="stop-color:#DA2F9A"
   id="stop21" />
				<stop
   offset="0.7554"
   style="stop-color:#CC41D4"
   id="stop23" />
				<stop
   offset="0.7881"
   style="stop-color:#FFA1FF"
   id="stop25" />
				<stop
   offset="0.8413"
   style="stop-color:#C846E3"
   id="stop27" />
				<stop
   offset="1"
   style="stop-color:#C24FFF"
   id="stop29" />
			</linearGradient>
			<path
   style="fill:none;fill-opacity:1;stroke:#ffffff;stroke-width:26.4;stroke-dasharray:none;stroke-opacity:1"
   d="m 598.5,32.3 83.6,555.9 h -175 l -8.2,-64.4 -1.8,-14 H 483 278.7 270 l -4.7,7.3 -46.1,71.1 H 45.6 L 427.2,32.3 H 598.5 M 336.2,403.4 h 29.3 106.7 17.9 l -2,-17.8 -15.8,-141.8 -5,-44.8 -24.4,38 -90.9,141.8 -15.8,24.6 M 612.3,16.3 H 418.8 L 15.2,604.2 h 212.6 l 50.9,-78.4 H 483 l 10,78.4 h 207.6 z m -246.9,371.1 90.9,-141.8 15.8,141.8 z"
   id="path32" />
		</g>
		<g
   id="g55"
   style="fill:none;fill-opacity:1;stroke:#ffffff;stroke-width:26.4;stroke-dasharray:none;stroke-opacity:1">
			
				<linearGradient
   id="SVGID_00000135673619673579814740000002913345356260872074_"
   gradientUnits="userSpaceOnUse"
   x1="1037.5408"
   y1="604.23328"
   x2="1037.5408"
   y2="20.5096">
				<stop
   offset="0"
   style="stop-color:#FF0000"
   id="stop36" />
				<stop
   offset="0.2634"
   style="stop-color:#E42372"
   id="stop38" />
				<stop
   offset="0.3192"
   style="stop-color:#FFA1FF"
   id="stop40" />
				<stop
   offset="0.4267"
   style="stop-color:#DA2F9A"
   id="stop42" />
				<stop
   offset="0.7554"
   style="stop-color:#CC41D4"
   id="stop44" />
				<stop
   offset="0.7881"
   style="stop-color:#FFA1FF"
   id="stop46" />
				<stop
   offset="0.8413"
   style="stop-color:#C846E3"
   id="stop48" />
				<stop
   offset="1"
   style="stop-color:#C24FFF"
   id="stop50" />
			</linearGradient>
			<path
   style="fill:none;fill-opacity:1;stroke:#ffffff;stroke-width:26.4;stroke-dasharray:none;stroke-opacity:1"
   d="m 1099.2,36.5 c 96.9,0 165.4,19.5 203.8,57.9 13.9,13.9 24.5,30.7 31.4,50 6.5,18.1 9.8,38.5 9.8,60.5 0,44.1 -11.8,82.3 -35,113.7 -25.5,34.4 -64.7,60.1 -116.4,76.2 l -16.8,5.2 6.7,16.2 71.7,172.1 h -175.2 l -61.1,-156.6 -4,-10.2 H 1003.2 955 942.7 l -3.2,11.8 -41.8,154.9 h -162 L 883.9,36.5 h 215.3 M 970.8,314.2 h 20.9 70.9 c 34.1,0 63,-7.8 83.4,-22.6 20.5,-14.9 31.8,-36.2 31.8,-60.1 0,-16.1 -6.1,-31.1 -17.2,-42.2 -14.2,-14.2 -37.3,-21.4 -68.9,-21.4 h -69.2 -12.3 l -3.2,11.8 -30.8,114.3 -5.4,20.2 M 1099.2,20.5 H 871.6 L 714.8,604.2 H 910 l 45,-166.8 h 48.4 l 65,166.8 h 210.1 l -80.9,-194.3 c 115.1,-35.9 162.6,-114.2 162.6,-205.1 0,-45.9 -13.3,-89.2 -45.9,-121.7 C 1275.2,43.9 1206.8,20.5 1099.2,20.5 Z M 991.7,298.2 1022.6,184 h 69.2 c 27.5,0 46.7,5.8 57.5,16.7 8.3,8.3 12.5,19.2 12.5,30.9 0,36.7 -34.2,66.7 -99.2,66.7 h -70.9 z"
   id="path53" />
		</g>
		<g
   id="g76"
   style="fill:none;fill-opacity:1;stroke:#ffffff;stroke-width:26.4;stroke-dasharray:none;stroke-opacity:1">
			
				<linearGradient
   id="SVGID_00000093171400342485411010000004786870807831186310_"
   gradientUnits="userSpaceOnUse"
   x1="1682.7727"
   y1="616.74109"
   x2="1682.7727"
   y2="8.0001001">
				<stop
   offset="0"
   style="stop-color:#FF0000"
   id="stop57" />
				<stop
   offset="0.2634"
   style="stop-color:#E42372"
   id="stop59" />
				<stop
   offset="0.3192"
   style="stop-color:#FFA1FF"
   id="stop61" />
				<stop
   offset="0.4267"
   style="stop-color:#DA2F9A"
   id="stop63" />
				<stop
   offset="0.7554"
   style="stop-color:#CC41D4"
   id="stop65" />
				<stop
   offset="0.7881"
   style="stop-color:#FFA1FF"
   id="stop67" />
				<stop
   offset="0.8413"
   style="stop-color:#C846E3"
   id="stop69" />
				<stop
   offset="1"
   style="stop-color:#C24FFF"
   id="stop71" />
			</linearGradient>
			<path
   style="fill:none;fill-opacity:1;stroke:#ffffff;stroke-width:26.4;stroke-dasharray:none;stroke-opacity:1"
   d="m 1750.3,24 c 57.9,0 109.2,15 148.5,43.3 34.7,25 59.3,60 71.9,101.7 L 1825,232.4 c -7.6,-18.4 -18.8,-33.3 -33.5,-44.4 -18.1,-13.6 -41.2,-20.8 -67,-20.8 -45.5,0 -87.1,19.8 -117.2,55.8 -27.3,32.7 -43,76.5 -43,120.3 0,34.9 10.7,64.3 31,85.2 19.3,19.9 46.5,30.8 76.7,30.8 24.7,0 48,-6 69.4,-17.7 16.4,-9 31.6,-21.2 46.1,-37.1 l 110.4,87.3 c -27.1,32.4 -58.6,57.9 -93.8,75.7 -43.7,22.1 -94.6,33.3 -151.3,33.3 -38.6,0 -74.6,-5.7 -106.9,-17.1 -31.6,-11 -59.2,-27.2 -82,-48 -47,-42.8 -71.9,-103.3 -71.9,-175 0,-38.4 7.6,-78.7 22,-116.6 15.4,-40.6 37.8,-77.1 66.6,-108.7 C 1526.8,84.6 1611.1,24 1750.3,24 m 0,-16 c -251.8,0 -374.4,193.5 -374.4,352.7 0,156.8 113.4,256 276.9,256 124.2,0 209.3,-50.9 267.7,-127.6 L 1785.4,382.4 c -31.7,39.2 -68.4,60.9 -113.4,60.9 -51.7,0 -91.7,-35.9 -91.7,-100.1 0,-80.1 56.7,-160.1 144.3,-160.1 44.2,0 78.4,23.3 90.9,70.9 l 174.3,-75.9 C 1965.5,74.7 1876.2,8 1750.3,8 Z"
   id="path74" />
		</g>
		<g
   id="g97"
   style="fill:none;fill-opacity:1;stroke:#ffffff;stroke-width:26.4;stroke-dasharray:none;stroke-opacity:1">
			
				<linearGradient
   id="SVGID_00000145054330599880703690000004533480753458681732_"
   gradientUnits="userSpaceOnUse"
   x1="2220.6216"
   y1="604.23328"
   x2="2220.6216"
   y2="16.339899">
				<stop
   offset="0"
   style="stop-color:#FF0000"
   id="stop78" />
				<stop
   offset="0.2634"
   style="stop-color:#E42372"
   id="stop80" />
				<stop
   offset="0.3192"
   style="stop-color:#FFA1FF"
   id="stop82" />
				<stop
   offset="0.4267"
   style="stop-color:#DA2F9A"
   id="stop84" />
				<stop
   offset="0.7554"
   style="stop-color:#CC41D4"
   id="stop86" />
				<stop
   offset="0.7881"
   style="stop-color:#FFA1FF"
   id="stop88" />
				<stop
   offset="0.8413"
   style="stop-color:#C846E3"
   id="stop90" />
				<stop
   offset="1"
   style="stop-color:#C24FFF"
   id="stop92" />
			</linearGradient>
			<path
   style="fill:none;fill-opacity:1;stroke:#ffffff;stroke-width:26.4;stroke-dasharray:none;stroke-opacity:1"
   d="m 2461.2,32.3 83.6,555.9 h -175 l -8.2,-64.4 -1.8,-14 h -14.1 -204.3 -8.7 l -4.7,7.3 -46.1,71.1 H 1908.3 L 2289.9,32.3 h 171.3 m -262.3,371.1 h 29.3 106.7 17.9 l -2,-17.8 -15.8,-141.8 -5,-44.8 -24.4,38 -90.9,141.8 -15.8,24.6 M 2475,16.3 h -193.5 l -403.6,587.9 h 212.6 l 50.9,-78.4 h 204.3 l 10,78.4 h 207.6 z m -246.9,371.1 90.9,-141.8 15.8,141.8 z"
   id="path95" />
		</g>
		<g
   id="g118"
   style="fill:none;fill-opacity:1;stroke:#ffffff;stroke-width:26.4;stroke-dasharray:none;stroke-opacity:1">
			
				<linearGradient
   id="SVGID_00000106148091704042031110000017185161894946614463_"
   gradientUnits="userSpaceOnUse"
   x1="2905.2402"
   y1="604.23328"
   x2="2905.2402"
   y2="20.5096">
				<stop
   offset="0"
   style="stop-color:#FF0000"
   id="stop99" />
				<stop
   offset="0.2634"
   style="stop-color:#E42372"
   id="stop101" />
				<stop
   offset="0.3192"
   style="stop-color:#FFA1FF"
   id="stop103" />
				<stop
   offset="0.4267"
   style="stop-color:#DA2F9A"
   id="stop105" />
				<stop
   offset="0.7554"
   style="stop-color:#CC41D4"
   id="stop107" />
				<stop
   offset="0.7881"
   style="stop-color:#FFA1FF"
   id="stop109" />
				<stop
   offset="0.8413"
   style="stop-color:#C846E3"
   id="stop111" />
				<stop
   offset="1"
   style="stop-color:#C24FFF"
   id="stop113" />
			</linearGradient>
			<path
   style="fill:none;fill-opacity:1;stroke:#ffffff;stroke-width:26.4;stroke-dasharray:none;stroke-opacity:1"
   d="m 2941.1,36.5 c 51.9,0 97.3,6.7 134.9,20 32.8,11.6 60.5,28.5 82.3,50.3 39.5,39.5 58.7,91.7 58.7,159.6 0,41.5 -7.8,81.3 -23.3,118.3 -15.4,37.1 -38.3,70.9 -67.9,100.5 -33.6,33.6 -74.8,59.2 -122.7,76.3 -49.5,17.6 -107.4,26.6 -172,26.6 H 2598.5 L 2746.7,36.4 h 194.4 m -143.4,413.7 h 20.8 34.2 c 63,0 118.2,-19 151.4,-52.2 28.2,-28.2 46.4,-71.6 46.4,-110.5 0,-33.6 -9.4,-59.4 -28.9,-78.9 -22.8,-22.8 -57.3,-33.9 -105.5,-33.9 h -32.5 -12.3 l -3.2,11.9 -65,243.5 -5.4,20.1 M 2941.1,20.5 H 2734.3 L 2577.5,604.2 H 2831 c 135.1,0 236,-37.5 306,-107.6 62.5,-62.5 95.9,-142.6 95.9,-230.2 0,-70.9 -20,-127.6 -63.4,-170.9 -44.1,-44.1 -115,-75 -228.4,-75 z m -122.6,413.6 65,-243.5 h 32.5 c 46.7,0 75.9,10.8 94.2,29.2 15,15 24.2,35.9 24.2,67.5 0,35.9 -17.5,75 -41.7,99.2 -30,30 -80.9,47.5 -140.1,47.5 h -34.1 z"
   id="path116" />
		</g>
		<g
   id="g139"
   style="fill:none;fill-opacity:1;stroke:#ffffff;stroke-width:26.4;stroke-dasharray:none;stroke-opacity:1">
			
				<linearGradient
   id="SVGID_00000021080724737336074490000000910687952145319586_"
   gradientUnits="userSpaceOnUse"
   x1="3526.8933"
   y1="604.23328"
   x2="3526.8933"
   y2="20.5096">
				<stop
   offset="0"
   style="stop-color:#FF0000"
   id="stop120" />
				<stop
   offset="0.2634"
   style="stop-color:#E42372"
   id="stop122" />
				<stop
   offset="0.3192"
   style="stop-color:#FFA1FF"
   id="stop124" />
				<stop
   offset="0.4267"
   style="stop-color:#DA2F9A"
   id="stop126" />
				<stop
   offset="0.7554"
   style="stop-color:#CC41D4"
   id="stop128" />
				<stop
   offset="0.7881"
   style="stop-color:#FFA1FF"
   id="stop130" />
				<stop
   offset="0.8413"
   style="stop-color:#C846E3"
   id="stop132" />
				<stop
   offset="1"
   style="stop-color:#C24FFF"
   id="stop134" />
			</linearGradient>
			<path
   style="fill:none;fill-opacity:1;stroke:#ffffff;stroke-width:26.4;stroke-dasharray:none;stroke-opacity:1"
   d="m 3833.3,36.5 -34.7,128.1 h -293.8 -12.3 l -3.2,11.9 -15.8,59.2 -5.4,20.1 h 20.8 264.4 l -29,108.9 h -272.9 -12.2 l -3.2,11.7 -17.5,63.4 -5.6,20.3 h 21 289.4 l -34,128.1 H 3220.5 L 3368.7,36.5 h 464.6 m 20.9,-16 h -497.8 l -156.8,583.7 h 502 l 42.5,-160.1 h -310.2 l 17.5,-63.4 h 285.2 l 37.5,-140.9 H 3489 l 15.8,-59.2 h 306 z"
   id="path137" />
		</g>
	</g></g><g
     aria-label="CONSOLE"
     id="text2091"
     style="font-size:833.836px;line-height:1.25;font-family:'Gotham Ultra';-inkscape-font-specification:'Gotham Ultra';text-align:center;letter-spacing:0px;word-spacing:0px;text-anchor:middle;stroke-width:4.3429;fill:#fefefe;fill-opacity:1"
     transform="translate(-4.05048,-2.271e-5)"><path
       d="m 281.34377,608.96652 q -61.70387,0 -112.56786,-17.51055 -50.864,-18.34439 -87.552781,-51.69783 Q 45.368181,506.4047 24.522281,459.70988 4.5102171,412.18123 4.5102171,352.97887 q 0,-60.03619 22.5135719,-122.57389 Q 50.371197,167.86728 97.066013,117.00329 143.76083,65.305453 213.80305,32.785849 284.67911,0.26624542 378.90258,0.26624542 q 47.52865,0 86.71894,12.50753958 40.02413,11.673704 70.87606,34.187276 30.85194,21.679736 51.69784,53.365509 20.8459,31.68576 30.01809,70.04222 l -174.27172,75.87907 q -9.1722,-35.85494 -33.35344,-53.3655 -24.18125,-17.51055 -57.53469,-17.51055 -32.5196,0 -59.20235,14.17521 -26.68275,13.34137 -45.86098,35.85495 -18.34439,22.51357 -29.18426,51.69783 -10.00603,28.35042 -10.00603,58.36852 0,48.36248 25.84891,74.2114 26.68275,25.84892 65.87305,25.84892 34.18727,0 61.70386,-15.84289 27.51659,-15.84288 51.69783,-45.02714 l 135.08143,106.73101 q -44.1933,57.53468 -109.23251,92.55579 -65.03921,35.02111 -158.42884,35.02111 z"
       id="path8173"
       style="fill:#fefefe;fill-opacity:1" /><path
       d="m 916.72621,436.36247 q 30.85193,0 55.03318,-13.34137 25.01508,-14.17522 42.52561,-35.85495 17.5106,-21.67974 26.6828,-49.19633 10.006,-27.51658 10.006,-55.03317 0,-23.34741 -7.5045,-43.35947 -6.6707,-20.01207 -20.0121,-35.02111 -13.3414,-15.00905 -34.18726,-23.34741 -20.01206,-8.33836 -45.86098,-8.33836 -30.85193,0 -55.86701,14.17521 -24.18124,13.34138 -41.6918,35.02111 -17.51056,21.67974 -27.51659,49.19632 -9.17219,27.51659 -9.17219,55.03318 0,23.34741 6.67068,43.35947 7.50453,20.01207 20.8459,35.02111 13.34138,15.00905 33.35344,23.34741 20.01207,8.33836 46.69482,8.33836 z m -13.34138,171.77022 q -64.20537,0 -117.57087,-20.01207 -53.36551,-20.8459 -91.72196,-55.86701 -38.35646,-35.85495 -60.03619,-84.21743 -20.8459,-48.36249 -20.8459,-104.2295 0,-67.54072 25.84891,-129.24458 26.68275,-62.5377 72.54373,-110.06635 45.86098,-47.528657 108.39868,-75.045245 63.37154,-28.3504236 136.74911,-28.3504236 64.20536,0 117.57086,20.8458996 53.3655,20.012064 91.722,55.867012 38.3564,35.021117 59.2023,83.383597 21.6798,48.36249 21.6798,104.2295 0,67.54072 -26.6828,130.07842 -25.8489,61.70386 -71.7099,109.23251 -45.861,47.52866 -109.2325,75.87908 -62.5377,27.51659 -135.91527,27.51659 z"
       id="path8175"
       style="fill:#fefefe;fill-opacity:1" /><path
       d="m 1371.9991,12.773785 h 182.61 l 132.58,278.501225 75.0452,-278.501225 h 193.45 L 1798.9231,596.45898 h -173.4379 l -138.4168,-290.17492 -78.3806,290.17492 h -193.4499 z"
       id="path8177"
       style="fill:#fefefe;fill-opacity:1" /><path
       d="m 2149.1335,608.13269 q -87.5528,0 -160.9303,-28.35043 -73.3776,-29.18426 -126.7431,-77.54674 l 111.734,-133.41376 q 50.0302,42.52563 100.0603,62.5377 50.0302,20.01206 96.725,20.01206 19.1782,0 30.8519,-6.67069 11.6737,-6.67069 11.6737,-19.17823 0,-6.67068 -3.3353,-11.6737 -2.5015,-5.83685 -12.5075,-10.83987 -10.0061,-5.83685 -29.1843,-13.34137 -19.1782,-8.33836 -50.864,-20.01207 -40.858,-15.00905 -70.8761,-30.01809 -30.0181,-15.84289 -50.0301,-35.02112 -19.1782,-19.17822 -29.1843,-42.52563 -9.1722,-24.18124 -9.1722,-56.70085 0,-42.52563 18.3444,-79.21442 19.1782,-37.522619 53.3655,-65.039207 34.1873,-27.516588 82.5498,-43.359472 48.3625,-16.6767196 108.3987,-16.6767196 78.3805,0 145.0874,23.3474076 67.5407,23.347408 115.0694,64.205372 l -111.734,133.413759 q -33.3535,-26.68275 -77.5468,-45.86098 -44.1933,-19.17823 -90.8881,-19.17823 -19.1782,0 -30.8519,5.83686 -11.6737,5.00301 -11.6737,17.51055 0,6.67069 3.3353,11.67371 3.3354,4.16918 13.3414,9.17219 10.006,5.00302 28.3504,12.50754 18.3444,6.67069 48.3625,17.51056 37.5226,14.17521 67.5407,29.18426 30.0181,15.00904 50.864,35.02111 21.6797,19.17823 32.5196,45.02714 11.6737,25.01508 11.6737,58.36852 0,44.19331 -18.3444,82.54977 -17.5105,38.35645 -51.6978,66.70688 -33.3534,27.51658 -82.5498,44.1933 -49.1963,15.84289 -111.734,15.84289 z"
       id="path8179"
       style="fill:#fefefe;fill-opacity:1" /><path
       d="m 2771.175,436.36247 q 30.8519,0 55.0332,-13.34137 25.0151,-14.17522 42.5256,-35.85495 17.5106,-21.67974 26.6828,-49.19633 10.006,-27.51658 10.006,-55.03317 0,-23.34741 -7.5045,-43.35947 -6.6707,-20.01207 -20.0121,-35.02111 -13.3414,-15.00905 -34.1873,-23.34741 -20.012,-8.33836 -45.8609,-8.33836 -30.852,0 -55.8671,14.17521 -24.1812,13.34138 -41.6918,35.02111 -17.5105,21.67974 -27.5165,49.19632 -9.1722,27.51659 -9.1722,55.03318 0,23.34741 6.6706,43.35947 7.5046,20.01207 20.8459,35.02111 13.3414,15.00905 33.3535,23.34741 20.012,8.33836 46.6948,8.33836 z m -13.3414,171.77022 q -64.2053,0 -117.5709,-20.01207 -53.3655,-20.8459 -91.7219,-55.86701 -38.3565,-35.85495 -60.0362,-84.21743 -20.8459,-48.36249 -20.8459,-104.2295 0,-67.54072 25.8489,-129.24458 26.6828,-62.5377 72.5437,-110.06635 45.861,-47.528657 108.3987,-75.045245 63.3716,-28.3504236 136.7491,-28.3504236 64.2054,0 117.5709,20.8458996 53.3655,20.012064 91.722,55.867012 38.3564,35.021117 59.2023,83.383597 21.6798,48.36249 21.6798,104.2295 0,67.54072 -26.6828,130.07842 -25.8489,61.70386 -71.7099,109.23251 -45.861,47.52866 -109.2325,75.87908 -62.5377,27.51659 -135.9153,27.51659 z"
       id="path8181"
       style="fill:#fefefe;fill-opacity:1" /><path
       d="m 3226.448,12.773785 h 195.1177 L 3309.8316,429.69178 h 265.9937 l -45.0271,166.7672 h -461.1113 z"
       id="path8183"
       style="fill:#fefefe;fill-opacity:1" /><path
       d="m 3734.2535,12.773785 h 497.8 L 4188.6941,172.8703 h -306.0178 l -15.8429,59.20235 h 285.1719 l -37.5226,140.91829 h -285.1719 l -17.5106,63.37153 h 310.187 l -42.5256,160.09651 h -501.9693 z"
       id="path8185"
       style="fill:#fefefe;fill-opacity:1" /></g></g></svg>
