<?xml version="1.0" encoding="utf-8"?>
<svg viewBox="0 0 1758.6 493" version="1.1" id="svg45" xmlns="http://www.w3.org/2000/svg">
  <path class="st3" d="M 310.901 79.154 L 227.761 167.333 L 172.884 129.542 C 172.884 129.542 190.932 112.227 174.442 99.63 C 161.57 89.827 125.566 110.67 127.077 151.621 C 128.909 198.849 157.997 225.6 190.108 225.6 C 219.883 225.6 227.716 201.46 227.716 201.46 L 294.548 201.46 L 294.548 257.115 L 388.545 8.245 L 495.962 8.245 L 582.217 231.876 C 582.217 231.876 588.493 243.694 594.769 246.855 C 594.769 246.855 595.135 100.134 595.135 96.011 C 595.135 91.889 594.585 87.354 592.02 84.422 C 587.806 79.521 580.66 77.551 580.66 77.551 L 580.66 8.245 C 580.66 8.245 680.199 8.245 731.228 8.245 C 809.284 8.245 829.347 29.545 851.976 70.451 C 883.262 28.171 926.275 0.366 987.657 0.366 C 1050.825 0.366 1095.487 23.728 1121.002 62.572 C 1156.64 19.834 1213.99 0 1266.485 0 C 1330.982 0 1384.851 31.332 1412.748 79.933 L 1412.748 8.245 L 1557.819 8.245 L 1573.119 47.227 L 1584.479 8.245 L 1734.268 8.245 L 1734.268 75.948 C 1723.687 81.078 1719.427 86.3 1721.305 98.393 L 1742.239 232.242 C 1743.109 236.594 1744.621 241.129 1748.377 244.473 C 1752.729 248.366 1758.592 247.633 1758.592 247.633 L 1758.592 324.818 L 1608.024 324.818 L 1608.024 266.506 L 1521.723 266.506 L 1521.723 324.956 L 1380.179 324.956 L 1380.179 286.982 C 1380.179 286.982 1328.462 332.651 1261.767 332.651 C 1176.474 332.651 1119.444 269.667 1119.444 269.667 L 1119.444 324.773 C 1119.444 324.773 1113.169 324.773 1019.035 324.773 C 929.711 324.773 853.03 275.667 831.592 186.206 C 821.423 195.917 776.669 228.028 722.983 240.121 C 718.814 241.037 716.707 242.64 716.707 247.221 C 716.707 255.512 734.389 258.444 734.389 258.444 L 734.389 324.773 C 734.389 324.773 270.133 324.773 183.878 324.773 C 81.911 324.818 0.008 254.733 0.008 165.776 C 0.008 76.818 63.863 1.145 169.724 1.145 C 270.912 1.145 310.901 79.154 310.901 79.154 Z M 168.166 31.194 C 101.792 31.194 28.592 78.101 28.592 162.615 C 28.592 217.721 82.69 294.082 179.939 294.082 L 261.521 294.082 L 261.521 230.41 L 246.634 230.41 C 246.634 230.41 237.427 254.825 194.093 254.825 C 119.611 254.825 96.844 187.076 96.844 150.064 C 96.844 113.052 118.053 68.161 165.876 68.161 C 213.699 68.161 215.256 99.218 215.256 106.73 C 215.256 114.197 210.95 118.136 210.95 119.694 C 210.95 120.289 211.133 120.747 211.454 121.022 L 218.875 127.115 C 221.44 129.222 225.242 128.993 227.532 126.565 L 271.278 80.483 C 271.278 80.483 232.48 31.194 168.166 31.194 Z M 328.583 256.245 C 328.583 256.245 326.613 262.566 320.704 268.476 C 315.345 273.881 308.199 276.354 308.199 276.354 L 308.199 294.861 L 386.987 294.861 L 386.987 276.354 C 386.987 276.354 377.826 275.392 375.215 268.842 C 373.657 264.948 373.657 258.627 375.215 254.688 C 376.772 250.748 393.263 206.636 393.263 206.636 L 473.654 206.636 C 473.654 206.636 490.145 250.382 492.481 255.879 C 494.863 261.375 494.863 265.727 491.702 271.224 C 488.542 276.767 482.266 275.942 482.266 275.942 L 482.266 294.861 L 580.706 294.861 L 580.706 276.354 C 580.706 276.354 571.269 273.194 567.376 268.476 C 563.436 263.757 559.497 258.261 557.161 252.351 L 475.578 38.157 L 408.517 38.157 Z M 431.695 91.706 L 458.355 166.509 L 406.593 166.509 Z M 612.038 58.999 C 612.038 58.999 619.459 63.305 622.619 66.466 C 625.734 69.627 625.368 77.505 625.368 77.505 L 625.368 262.566 C 625.368 262.566 624.589 267.285 620.65 271.224 C 616.71 275.163 611.213 276.354 611.213 276.354 L 611.213 294.861 L 702.186 294.861 L 702.186 275.942 C 702.186 275.942 697.835 274.751 693.941 270.033 C 690.002 265.269 689.635 262.521 689.635 262.521 L 689.635 221.615 C 689.635 221.615 733.793 209.522 767.278 194.039 C 796.32 180.663 830.034 161.791 830.034 108.242 C 830.034 54.693 783.769 38.157 737.504 38.157 C 691.239 38.157 612.038 38.157 612.038 38.157 Z M 764.164 112.181 C 764.164 155.515 690.46 186.206 690.46 186.206 L 690.46 76.772 C 690.46 76.772 764.164 58.633 764.164 112.181 Z M 998.696 31.607 C 932.322 31.607 859.122 78.513 859.122 163.027 C 859.122 218.179 913.22 294.54 1010.469 294.54 L 1092.052 294.54 L 1092.052 230.868 L 1077.164 230.868 C 1077.164 230.868 1067.957 255.283 1024.623 255.283 C 950.141 255.283 927.375 187.534 927.375 150.522 C 927.375 113.51 948.583 68.619 996.406 68.619 C 1044.229 68.619 1045.786 99.676 1045.786 107.188 C 1045.786 114.655 1041.48 118.594 1041.48 120.152 C 1041.48 120.747 1041.664 121.205 1041.984 121.48 L 1049.405 127.573 C 1051.97 129.68 1055.772 129.451 1058.063 127.023 L 1101.808 80.941 C 1101.808 80.941 1062.964 31.652 998.696 31.607 Z M 1406.151 164.585 C 1406.151 88.957 1343.716 30.37 1260.576 30.37 C 1177.436 30.37 1115.001 89.003 1115.001 164.585 C 1115.001 240.167 1175.879 302.281 1260.576 302.281 C 1345.274 302.281 1406.151 240.213 1406.151 164.585 Z M 1260.622 71.276 C 1292.779 71.276 1336.708 94.912 1336.708 165.776 C 1336.708 236.64 1297.451 260.276 1260.622 260.276 C 1223.747 260.276 1185.315 241.358 1185.315 165.776 C 1185.315 90.148 1228.42 71.276 1260.622 71.276 Z M 1443.942 38.34 L 1443.942 56.663 C 1443.942 56.663 1455.028 59.503 1457.089 62.801 C 1459.059 65.916 1457.272 72.833 1457.272 72.833 L 1427.681 257.665 C 1427.681 257.665 1426.902 264.765 1422.184 270.262 C 1417.466 275.759 1411.007 276.767 1411.007 276.767 L 1411.007 294.861 L 1492.177 294.861 L 1492.177 277.958 C 1492.177 277.958 1484.344 277.958 1480.038 271.636 C 1476.924 267.056 1477.702 258.673 1477.702 258.673 L 1498.086 118.503 L 1538.488 237.418 L 1587.869 237.418 L 1628.637 110.624 C 1628.637 110.624 1650.991 253.909 1651.77 260.23 C 1652.594 266.506 1651.403 268.888 1648.655 272.827 C 1645.952 276.767 1637.707 277.958 1637.707 277.958 L 1637.707 294.998 L 1731.428 294.998 L 1731.428 279.149 C 1731.428 279.149 1723.962 275.576 1722.404 271.27 C 1720.847 266.918 1720.022 263.391 1719.244 257.07 C 1718.465 250.794 1693.363 79.933 1692.584 73.612 C 1691.805 67.336 1691.805 64.13 1695.332 59.824 C 1698.264 56.251 1704.769 53.502 1704.769 53.502 L 1704.769 38.157 L 1607.153 38.157 L 1571.103 142.918 L 1537.389 38.34 Z" id="path41" style="stroke-width: 0.458072; fill: rgb(255, 255, 255);"/>
  <path class="st0" d="M 1393.454 396.212 C 1393.87 396.998 1394.055 397.923 1394.055 398.941 L 1394.055 445.045 L 1393.963 445.045 C 1393.963 446.201 1393.778 447.172 1393.361 447.912 C 1392.945 448.652 1392.159 449.253 1391.049 449.716 C 1390.448 449.947 1389.338 450.132 1387.72 450.271 L 1387.673 450.271 C 1385.269 450.456 1382.864 450.456 1380.506 450.271 L 1380.459 450.271 C 1378.841 450.132 1377.731 449.947 1377.13 449.716 C 1376.02 449.253 1375.234 448.652 1374.818 447.912 C 1374.402 447.172 1374.217 446.201 1374.217 445.045 L 1374.217 398.941 C 1374.217 397.923 1374.402 396.998 1374.818 396.212 C 1375.234 395.426 1375.974 394.779 1377.176 394.27 C 1377.916 393.946 1378.98 393.669 1380.413 393.345 L 1380.459 393.345 C 1382.864 392.79 1385.361 392.79 1387.812 393.345 L 1387.858 393.345 C 1389.292 393.669 1390.356 393.993 1391.095 394.27 C 1392.252 394.779 1393.038 395.38 1393.454 396.212 Z M 544.887 409.947 L 552.101 428.444 L 537.534 428.444 L 544.887 409.947 Z M 375.266 412.767 L 375.266 412.952 C 375.266 418.085 371.381 421.415 364.954 421.415 L 356.399 421.415 L 356.399 404.212 L 364.861 404.212 C 371.381 404.212 375.266 407.218 375.266 412.767 Z M 1623.7 421.6 C 1623.7 461.046 1591.746 493 1552.3 493 L 206.2 493 C 166.754 493 134.8 461.046 134.8 421.6 C 134.8 382.154 166.754 350.2 206.2 350.2 L 1552.3 350.2 C 1591.746 350.2 1623.7 382.154 1623.7 421.6 Z M 393.301 411.935 C 393.301 397.553 382.711 389.091 366.295 389.091 L 338.364 389.091 L 338.364 454.109 L 356.399 454.109 L 356.399 435.519 L 365.324 435.519 C 381.509 435.519 393.301 427.427 393.301 412.12 L 393.301 411.935 Z M 478.296 438.294 L 446.804 438.294 L 446.804 389.091 L 428.816 389.091 L 428.816 454.063 L 478.296 454.063 L 478.296 438.294 Z M 581.373 454.109 L 553.673 388.628 L 536.285 388.628 L 508.678 454.109 L 527.638 454.109 L 532.262 442.502 L 557.326 442.502 L 562.043 454.109 L 581.373 454.109 Z M 666.877 389.091 L 646.715 389.091 L 633.258 412.767 L 619.894 389.091 L 599.362 389.091 L 624.056 429.785 L 624.056 454.109 L 642.183 454.109 L 642.183 429.508 L 666.877 389.091 Z M 805.654 433.854 C 805.654 421.692 796.359 416.837 781.422 413.6 C 772.404 411.519 770.185 410.224 770.185 407.264 L 770.185 407.079 C 770.185 404.767 772.358 402.918 776.705 402.918 C 782.486 402.918 788.96 405.183 794.925 409.345 L 803.943 396.628 C 796.914 390.94 788.266 387.981 777.214 387.981 C 761.63 387.981 752.057 396.721 752.057 408.79 L 752.057 408.975 C 752.057 422.34 762.74 426.27 776.566 429.415 C 785.399 431.496 787.526 432.976 787.526 435.658 L 787.526 435.843 C 787.526 438.617 784.89 440.282 780.081 440.282 C 772.543 440.282 765.422 437.554 758.994 432.467 L 748.959 444.444 C 756.959 451.612 767.919 455.219 779.387 455.219 C 795.156 455.219 805.654 447.311 805.654 434.039 L 805.654 433.854 Z M 901.1 389.091 L 880.938 389.091 L 867.481 412.767 L 854.117 389.091 L 833.585 389.091 L 858.279 429.785 L 858.279 454.109 L 876.406 454.109 L 876.406 429.508 L 901.1 389.091 Z M 983.09 433.854 C 983.09 421.692 973.795 416.837 958.858 413.6 C 949.841 411.519 947.621 410.224 947.621 407.264 L 947.621 407.079 C 947.621 404.767 949.794 402.918 954.141 402.918 C 959.922 402.918 966.396 405.183 972.361 409.345 L 981.379 396.628 C 974.35 390.94 965.702 387.981 954.65 387.981 C 939.066 387.981 929.493 396.721 929.493 408.79 L 929.493 408.975 C 929.493 422.34 940.176 426.27 954.002 429.415 C 962.835 431.496 964.962 432.976 964.962 435.658 L 964.962 435.843 C 964.962 438.617 962.326 440.282 957.517 440.282 C 949.979 440.282 942.858 437.554 936.43 432.467 L 926.395 444.444 C 934.395 451.612 945.355 455.219 956.823 455.219 C 972.592 455.219 983.09 447.311 983.09 434.039 L 983.09 433.854 Z M 1071.23 389.091 L 1014.211 389.091 L 1014.211 404.86 L 1033.68 404.86 L 1033.68 454.063 L 1051.715 454.063 L 1051.715 404.86 L 1071.23 404.86 L 1071.23 389.091 Z M 1159.74 438.756 L 1124.826 438.756 L 1124.826 428.444 L 1156.04 428.444 L 1156.04 414.247 L 1124.826 414.247 L 1124.826 404.397 L 1159.323 404.397 L 1159.323 389.091 L 1106.976 389.091 L 1106.976 454.063 L 1159.74 454.063 L 1159.74 438.756 Z M 1265.868 389.091 L 1246.816 389.091 L 1231.324 414.247 L 1215.833 389.091 L 1196.734 389.091 L 1196.734 454.063 L 1214.399 454.063 L 1214.399 416.929 L 1230.908 442.178 L 1231.278 442.178 L 1247.926 416.744 L 1247.926 454.109 L 1265.868 454.109 L 1265.868 389.091 Z M 1420.09 450.502 C 1419.258 450.456 1418.055 450.363 1416.437 450.225 C 1414.818 450.086 1413.708 449.901 1413.107 449.67 C 1411.997 449.207 1411.211 448.606 1410.795 447.866 C 1410.379 447.126 1410.194 446.155 1410.194 444.999 L 1410.194 398.894 C 1410.24 397.877 1410.425 396.998 1410.795 396.166 C 1411.211 395.38 1411.951 394.732 1413.154 394.224 C 1413.893 393.9 1414.957 393.623 1416.391 393.299 C 1417.824 392.975 1419.073 392.744 1420.09 392.651 L 1420.09 389.091 L 1347.95 389.091 L 1347.95 392.651 C 1348.968 392.79 1350.216 392.975 1351.65 393.299 C 1353.083 393.623 1354.147 393.946 1354.887 394.224 C 1356.043 394.732 1356.829 395.334 1357.245 396.166 C 1357.661 396.952 1357.846 397.877 1357.846 398.894 L 1357.846 444.999 C 1357.846 446.155 1357.661 447.126 1357.245 447.866 C 1356.829 448.606 1356.043 449.207 1354.933 449.67 C 1354.332 449.901 1353.222 450.086 1351.604 450.225 C 1349.985 450.363 1348.783 450.456 1347.95 450.502 L 1347.95 454.063 L 1420.09 454.063 L 1420.09 450.502 Z" style="fill: rgb(255, 255, 255);"/>
</svg>