<?xml version="1.0" encoding="utf-8"?>
<svg viewBox="0 0 1758.6 493" version="1.1" id="svg45" xmlns="http://www.w3.org/2000/svg">
  <path class="st3" d="M 310.901 79.154 L 227.761 167.333 L 172.884 129.542 C 172.884 129.542 190.932 112.227 174.442 99.63 C 161.57 89.827 125.566 110.67 127.077 151.621 C 128.909 198.849 157.997 225.6 190.108 225.6 C 219.883 225.6 227.716 201.46 227.716 201.46 L 294.548 201.46 L 294.548 257.115 L 388.545 8.245 L 495.962 8.245 L 582.217 231.876 C 582.217 231.876 588.493 243.694 594.769 246.855 C 594.769 246.855 595.135 100.134 595.135 96.011 C 595.135 91.889 594.585 87.354 592.02 84.422 C 587.806 79.521 580.66 77.551 580.66 77.551 L 580.66 8.245 C 580.66 8.245 680.199 8.245 731.228 8.245 C 809.284 8.245 829.347 29.545 851.976 70.451 C 883.262 28.171 926.275 0.366 987.657 0.366 C 1050.825 0.366 1095.487 23.728 1121.002 62.572 C 1156.64 19.834 1213.99 0 1266.485 0 C 1330.982 0 1384.851 31.332 1412.748 79.933 L 1412.748 8.245 L 1557.819 8.245 L 1573.119 47.227 L 1584.479 8.245 L 1734.268 8.245 L 1734.268 75.948 C 1723.687 81.078 1719.427 86.3 1721.305 98.393 L 1742.239 232.242 C 1743.109 236.594 1744.621 241.129 1748.377 244.473 C 1752.729 248.366 1758.592 247.633 1758.592 247.633 L 1758.592 324.818 L 1608.024 324.818 L 1608.024 266.506 L 1521.723 266.506 L 1521.723 324.956 L 1380.179 324.956 L 1380.179 286.982 C 1380.179 286.982 1328.462 332.651 1261.767 332.651 C 1176.474 332.651 1119.444 269.667 1119.444 269.667 L 1119.444 324.773 C 1119.444 324.773 1113.169 324.773 1019.035 324.773 C 929.711 324.773 853.03 275.667 831.592 186.206 C 821.423 195.917 776.669 228.028 722.983 240.121 C 718.814 241.037 716.707 242.64 716.707 247.221 C 716.707 255.512 734.389 258.444 734.389 258.444 L 734.389 324.773 C 734.389 324.773 270.133 324.773 183.878 324.773 C 81.911 324.818 0.008 254.733 0.008 165.776 C 0.008 76.818 63.863 1.145 169.724 1.145 C 270.912 1.145 310.901 79.154 310.901 79.154 Z M 168.166 31.194 C 101.792 31.194 28.592 78.101 28.592 162.615 C 28.592 217.721 82.69 294.082 179.939 294.082 L 261.521 294.082 L 261.521 230.41 L 246.634 230.41 C 246.634 230.41 237.427 254.825 194.093 254.825 C 119.611 254.825 96.844 187.076 96.844 150.064 C 96.844 113.052 118.053 68.161 165.876 68.161 C 213.699 68.161 215.256 99.218 215.256 106.73 C 215.256 114.197 210.95 118.136 210.95 119.694 C 210.95 120.289 211.133 120.747 211.454 121.022 L 218.875 127.115 C 221.44 129.222 225.242 128.993 227.532 126.565 L 271.278 80.483 C 271.278 80.483 232.48 31.194 168.166 31.194 Z M 328.583 256.245 C 328.583 256.245 326.613 262.566 320.704 268.476 C 315.345 273.881 308.199 276.354 308.199 276.354 L 308.199 294.861 L 386.987 294.861 L 386.987 276.354 C 386.987 276.354 377.826 275.392 375.215 268.842 C 373.657 264.948 373.657 258.627 375.215 254.688 C 376.772 250.748 393.263 206.636 393.263 206.636 L 473.654 206.636 C 473.654 206.636 490.145 250.382 492.481 255.879 C 494.863 261.375 494.863 265.727 491.702 271.224 C 488.542 276.767 482.266 275.942 482.266 275.942 L 482.266 294.861 L 580.706 294.861 L 580.706 276.354 C 580.706 276.354 571.269 273.194 567.376 268.476 C 563.436 263.757 559.497 258.261 557.161 252.351 L 475.578 38.157 L 408.517 38.157 Z M 431.695 91.706 L 458.355 166.509 L 406.593 166.509 Z M 612.038 58.999 C 612.038 58.999 619.459 63.305 622.619 66.466 C 625.734 69.627 625.368 77.505 625.368 77.505 L 625.368 262.566 C 625.368 262.566 624.589 267.285 620.65 271.224 C 616.71 275.163 611.213 276.354 611.213 276.354 L 611.213 294.861 L 702.186 294.861 L 702.186 275.942 C 702.186 275.942 697.835 274.751 693.941 270.033 C 690.002 265.269 689.635 262.521 689.635 262.521 L 689.635 221.615 C 689.635 221.615 733.793 209.522 767.278 194.039 C 796.32 180.663 830.034 161.791 830.034 108.242 C 830.034 54.693 783.769 38.157 737.504 38.157 C 691.239 38.157 612.038 38.157 612.038 38.157 Z M 764.164 112.181 C 764.164 155.515 690.46 186.206 690.46 186.206 L 690.46 76.772 C 690.46 76.772 764.164 58.633 764.164 112.181 Z M 998.696 31.607 C 932.322 31.607 859.122 78.513 859.122 163.027 C 859.122 218.179 913.22 294.54 1010.469 294.54 L 1092.052 294.54 L 1092.052 230.868 L 1077.164 230.868 C 1077.164 230.868 1067.957 255.283 1024.623 255.283 C 950.141 255.283 927.375 187.534 927.375 150.522 C 927.375 113.51 948.583 68.619 996.406 68.619 C 1044.229 68.619 1045.786 99.676 1045.786 107.188 C 1045.786 114.655 1041.48 118.594 1041.48 120.152 C 1041.48 120.747 1041.664 121.205 1041.984 121.48 L 1049.405 127.573 C 1051.97 129.68 1055.772 129.451 1058.063 127.023 L 1101.808 80.941 C 1101.808 80.941 1062.964 31.652 998.696 31.607 Z M 1406.151 164.585 C 1406.151 88.957 1343.716 30.37 1260.576 30.37 C 1177.436 30.37 1115.001 89.003 1115.001 164.585 C 1115.001 240.167 1175.879 302.281 1260.576 302.281 C 1345.274 302.281 1406.151 240.213 1406.151 164.585 Z M 1260.622 71.276 C 1292.779 71.276 1336.708 94.912 1336.708 165.776 C 1336.708 236.64 1297.451 260.276 1260.622 260.276 C 1223.747 260.276 1185.315 241.358 1185.315 165.776 C 1185.315 90.148 1228.42 71.276 1260.622 71.276 Z M 1443.942 38.34 L 1443.942 56.663 C 1443.942 56.663 1455.028 59.503 1457.089 62.801 C 1459.059 65.916 1457.272 72.833 1457.272 72.833 L 1427.681 257.665 C 1427.681 257.665 1426.902 264.765 1422.184 270.262 C 1417.466 275.759 1411.007 276.767 1411.007 276.767 L 1411.007 294.861 L 1492.177 294.861 L 1492.177 277.958 C 1492.177 277.958 1484.344 277.958 1480.038 271.636 C 1476.924 267.056 1477.702 258.673 1477.702 258.673 L 1498.086 118.503 L 1538.488 237.418 L 1587.869 237.418 L 1628.637 110.624 C 1628.637 110.624 1650.991 253.909 1651.77 260.23 C 1652.594 266.506 1651.403 268.888 1648.655 272.827 C 1645.952 276.767 1637.707 277.958 1637.707 277.958 L 1637.707 294.998 L 1731.428 294.998 L 1731.428 279.149 C 1731.428 279.149 1723.962 275.576 1722.404 271.27 C 1720.847 266.918 1720.022 263.391 1719.244 257.07 C 1718.465 250.794 1693.363 79.933 1692.584 73.612 C 1691.805 67.336 1691.805 64.13 1695.332 59.824 C 1698.264 56.251 1704.769 53.502 1704.769 53.502 L 1704.769 38.157 L 1607.153 38.157 L 1571.103 142.918 L 1537.389 38.34 Z" id="path41" style="stroke-width: 0.458072; fill: rgb(255, 255, 255);"/>
  <path class="st0" d="M 357.231 412.767 L 357.231 412.952 C 357.231 418.085 353.346 421.415 346.919 421.415 L 338.364 421.415 L 338.364 404.212 L 346.826 404.212 C 353.346 404.212 357.231 407.218 357.231 412.767 Z M 526.852 409.947 L 534.112 428.444 L 519.499 428.444 L 526.852 409.947 Z M 1623.7 421.6 C 1623.7 461.046 1591.746 493 1552.3 493 L 206.2 493 C 166.754 493 134.8 461.046 134.8 421.6 C 134.8 382.154 166.754 350.2 206.2 350.2 L 1552.3 350.2 C 1591.746 350.2 1623.7 382.154 1623.7 421.6 Z M 375.266 411.935 C 375.266 397.553 364.676 389.091 348.26 389.091 L 320.329 389.091 L 320.329 454.109 L 338.364 454.109 L 338.364 435.519 L 347.289 435.519 C 363.474 435.519 375.266 427.427 375.266 412.12 L 375.266 411.935 Z M 460.261 438.294 L 428.77 438.294 L 428.77 389.091 L 410.781 389.091 L 410.781 454.063 L 460.261 454.063 L 460.261 438.294 Z M 563.384 454.109 L 535.684 388.628 L 518.297 388.628 L 490.689 454.109 L 509.649 454.109 L 514.274 442.502 L 539.338 442.502 L 544.054 454.109 L 563.384 454.109 Z M 648.888 389.091 L 628.726 389.091 L 615.269 412.767 L 601.905 389.091 L 581.373 389.091 L 606.067 429.785 L 606.067 454.109 L 624.194 454.109 L 624.194 429.508 L 648.888 389.091 Z M 787.619 433.854 C 787.619 421.692 778.324 416.837 763.387 413.6 C 754.37 411.519 752.15 410.224 752.15 407.264 L 752.15 407.079 C 752.15 404.767 754.323 402.918 758.67 402.918 C 764.451 402.918 770.925 405.183 776.89 409.345 L 785.908 396.628 C 778.879 390.94 770.231 387.981 759.179 387.981 C 743.595 387.981 734.022 396.721 734.022 408.79 L 734.022 408.975 C 734.022 422.34 744.705 426.27 758.532 429.415 C 767.364 431.496 769.491 432.976 769.491 435.658 L 769.491 435.843 C 769.491 438.617 766.855 440.282 762.046 440.282 C 754.508 440.282 747.387 437.554 740.959 432.467 L 730.924 444.444 C 738.924 451.612 749.884 455.219 761.352 455.219 C 777.121 455.219 787.619 447.311 787.619 434.039 L 787.619 433.854 Z M 883.065 389.091 L 862.903 389.091 L 849.446 412.767 L 836.082 389.091 L 815.55 389.091 L 840.244 429.785 L 840.244 454.109 L 858.371 454.109 L 858.371 429.508 L 883.065 389.091 Z M 965.055 433.854 C 965.055 421.692 955.76 416.837 940.823 413.6 C 931.806 411.519 929.586 410.224 929.586 407.264 L 929.586 407.079 C 929.586 404.767 931.759 402.918 936.106 402.918 C 941.887 402.918 948.361 405.183 954.326 409.345 L 963.344 396.628 C 956.315 390.94 947.667 387.981 936.615 387.981 C 921.031 387.981 911.459 396.721 911.459 408.79 L 911.459 408.975 C 911.459 422.34 922.141 426.27 935.968 429.415 C 944.8 431.496 946.927 432.976 946.927 435.658 L 946.927 435.843 C 946.927 438.617 944.291 440.282 939.482 440.282 C 931.944 440.282 924.823 437.554 918.395 432.467 L 908.36 444.444 C 916.36 451.612 927.32 455.219 938.788 455.219 C 954.557 455.219 965.055 447.311 965.055 434.039 L 965.055 433.854 Z M 1053.195 389.091 L 996.177 389.091 L 996.177 404.86 L 1015.691 404.86 L 1015.691 454.063 L 1033.726 454.063 L 1033.726 404.86 L 1053.195 404.86 L 1053.195 389.091 Z M 1141.705 438.756 L 1106.791 438.756 L 1106.791 428.444 L 1138.005 428.444 L 1138.005 414.247 L 1106.791 414.247 L 1106.791 404.397 L 1141.288 404.397 L 1141.288 389.091 L 1088.941 389.091 L 1088.941 454.063 L 1141.705 454.063 L 1141.705 438.756 Z M 1247.833 389.091 L 1228.781 389.091 L 1213.29 414.247 L 1197.798 389.091 L 1178.699 389.091 L 1178.699 454.063 L 1196.364 454.063 L 1196.364 416.929 L 1212.873 442.178 L 1213.243 442.178 L 1229.891 416.744 L 1229.891 454.109 L 1247.833 454.109 L 1247.833 389.091 Z M 1438.079 450.502 C 1437.246 450.456 1436.044 450.363 1434.426 450.225 C 1432.807 450.086 1431.697 449.901 1431.096 449.67 C 1429.986 449.207 1429.2 448.606 1428.784 447.866 C 1428.368 447.126 1428.183 446.155 1428.183 444.999 L 1428.183 398.894 C 1428.183 397.877 1428.414 396.998 1428.784 396.166 C 1429.2 395.38 1429.94 394.732 1431.142 394.224 C 1431.882 393.9 1432.946 393.623 1434.379 393.299 C 1435.813 392.975 1437.062 392.744 1438.079 392.651 L 1438.079 389.091 L 1329.869 389.091 L 1329.869 392.651 C 1330.887 392.79 1332.135 392.975 1333.569 393.299 C 1335.002 393.623 1336.066 393.946 1336.806 394.224 C 1337.962 394.732 1338.748 395.334 1339.164 396.166 C 1339.58 396.952 1339.765 397.877 1339.765 398.894 L 1339.765 444.999 C 1339.765 446.155 1339.58 447.126 1339.164 447.866 C 1338.748 448.606 1337.962 449.207 1336.852 449.67 C 1336.251 449.901 1335.141 450.086 1333.522 450.225 C 1331.904 450.363 1330.702 450.456 1329.869 450.502 L 1329.869 454.063 L 1438.079 454.063 L 1438.079 450.502 Z M 1375.419 396.212 C 1375.835 396.998 1376.02 397.923 1376.02 398.941 L 1376.02 445.045 L 1375.928 445.045 C 1375.928 446.201 1375.743 447.173 1375.327 447.912 C 1374.91 448.652 1374.124 449.253 1373.014 449.716 C 1372.413 449.947 1371.303 450.132 1369.685 450.271 L 1369.639 450.271 C 1367.234 450.456 1364.829 450.456 1362.471 450.271 L 1362.425 450.271 C 1360.806 450.132 1359.696 449.947 1359.095 449.716 C 1357.985 449.253 1357.199 448.652 1356.783 447.912 C 1356.367 447.173 1356.182 446.201 1356.182 445.045 L 1356.182 398.941 C 1356.182 397.923 1356.367 396.998 1356.783 396.212 C 1357.199 395.426 1357.939 394.779 1359.141 394.27 C 1359.881 393.946 1360.945 393.669 1362.378 393.345 L 1362.425 393.345 C 1364.829 392.79 1367.326 392.79 1369.777 393.345 L 1369.824 393.345 C 1371.257 393.669 1372.321 393.993 1373.061 394.27 C 1374.217 394.779 1375.003 395.38 1375.419 396.212 Z M 1411.489 396.212 C 1411.905 396.998 1412.09 397.923 1412.09 398.941 L 1412.09 445.045 L 1411.998 445.045 C 1411.998 446.201 1411.813 447.173 1411.396 447.912 C 1410.98 448.652 1410.194 449.253 1409.084 449.716 C 1408.483 449.947 1407.373 450.132 1405.755 450.271 L 1405.708 450.271 C 1403.304 450.456 1400.899 450.456 1398.541 450.271 L 1398.494 450.271 C 1396.876 450.132 1395.766 449.947 1395.165 449.716 C 1394.055 449.253 1393.269 448.652 1392.853 447.912 C 1392.437 447.173 1392.252 446.201 1392.252 445.045 L 1392.252 398.941 C 1392.252 397.923 1392.437 396.998 1392.853 396.212 C 1393.269 395.426 1394.009 394.779 1395.211 394.27 C 1395.951 393.946 1397.015 393.669 1398.448 393.345 L 1398.494 393.345 C 1400.899 392.79 1403.396 392.79 1405.847 393.345 L 1405.893 393.345 C 1407.327 393.669 1408.391 393.993 1409.13 394.27 C 1410.287 394.779 1411.073 395.38 1411.489 396.212 Z" style="fill: rgb(255, 255, 255);"/>
</svg>