<?xml version="1.0" encoding="UTF-8" standalone="no"?>
<!-- Generator: Adobe Illustrator 25.2.3, SVG Export Plug-In . SVG Version: 6.00 Build 0)  -->

<svg
   version="1.1"
   id="Layer_1"
   x="0px"
   y="0px"
   viewBox="0 0 3839 773.36"
   style="enable-background:new 0 0 3839 773.36;"
   xml:space="preserve"
   sodipodi:docname="logo (1).svg"
   inkscape:version="1.2.2 (732a01da63, 2022-12-09)"
   xmlns:inkscape="http://www.inkscape.org/namespaces/inkscape"
   xmlns:sodipodi="http://sodipodi.sourceforge.net/DTD/sodipodi-0.dtd"
   xmlns="http://www.w3.org/2000/svg"
   xmlns:svg="http://www.w3.org/2000/svg"><defs
   id="defs552" /><sodipodi:namedview
   id="namedview550"
   pagecolor="#ffffff"
   bordercolor="#111111"
   borderopacity="1"
   inkscape:showpageshadow="0"
   inkscape:pageopacity="0"
   inkscape:pagecheckerboard="1"
   inkscape:deskcolor="#d1d1d1"
   showgrid="false"
   inkscape:zoom="0.31518625"
   inkscape:cx="1684.7182"
   inkscape:cy="387.07273"
   inkscape:window-width="1920"
   inkscape:window-height="1009"
   inkscape:window-x="-8"
   inkscape:window-y="-8"
   inkscape:window-maximized="1"
   inkscape:current-layer="Layer_1" />
<style
   type="text/css"
   id="style524">
	.st0{fill:none;stroke:#000000;stroke-width:54.1005;stroke-miterlimit:10;}
	.st1{fill:none;stroke:#000000;stroke-width:55.7397;stroke-miterlimit:10;}
	.st2{fill:#FFEF00;}
	.st3{fill:url(#SVGID_1_);}
	.st4{fill:#FFFFFF;}
	.st5{fill:url(#SVGID_2_);}
	.st6{fill:url(#SVGID_3_);}
	.st7{fill:url(#SVGID_4_);}
	.st8{fill:url(#SVGID_5_);}
	.st9{fill:url(#SVGID_6_);}
	.st10{fill:url(#SVGID_7_);}
	.st11{fill:url(#SVGID_8_);}
	.st12{fill:url(#SVGID_9_);}
	.st13{fill:url(#SVGID_10_);}
	.st14{fill:url(#SVGID_11_);}
	.st15{fill:url(#SVGID_12_);}
	.st16{fill:url(#SVGID_13_);}
	.st17{fill:url(#SVGID_14_);}
	.st18{fill:url(#SVGID_15_);}
	.st19{fill:url(#SVGID_16_);}
	.st20{fill:url(#SVGID_17_);}
	.st21{fill:url(#SVGID_18_);}
	.st22{fill:url(#SVGID_19_);}
	.st23{fill:url(#SVGID_20_);}
	.st24{fill:url(#SVGID_21_);}
</style>
<g
   id="g547"
   style="fill:#ffffff;fill-opacity:1">
	<g
   id="g545"
   style="fill:#ffffff;fill-opacity:1">
		<linearGradient
   id="SVGID_1_"
   gradientUnits="userSpaceOnUse"
   x1="1919.5001"
   y1="773.3594"
   x2="1919.5001"
   y2="0">
			<stop
   offset="0"
   style="stop-color:#7F5923"
   id="stop526" />
			<stop
   offset="0.1445"
   style="stop-color:#AD8237"
   id="stop528" />
			<stop
   offset="0.2786"
   style="stop-color:#DAB056"
   id="stop530" />
			<stop
   offset="0.4222"
   style="stop-color:#E8D97F"
   id="stop532" />
			<stop
   offset="0.5487"
   style="stop-color:#D2B664"
   id="stop534" />
			<stop
   offset="0.6888"
   style="stop-color:#C39346"
   id="stop536" />
			<stop
   offset="0.8446"
   style="stop-color:#D3B461"
   id="stop538" />
			<stop
   offset="1"
   style="stop-color:#E9DC81"
   id="stop540" />
		</linearGradient>
		<path
   class="st3"
   d="M644.94,535.91V502.8c0-58.76-47.8-106.56-106.56-106.56h-46.27c-6.78,0-12.3-5.52-12.3-12.3    c0-6.78,5.52-12.31,12.3-12.31h46.27c58.76,0,106.56-47.8,106.56-106.56s-47.8-106.56-106.56-106.56h-82.46    c-58.76,0-106.57,47.8-106.57,106.56v270.85c0,8.73-7.1,15.84-15.84,15.84H226.72c-45.38,0-88.38-17.3-121.07-48.71    c-32.73-31.45-51.17-73.41-51.91-118.14c-0.77-45.93,16.53-89.23,48.69-121.94c32.18-32.72,75.17-50.74,121.05-50.74h84.47v-53.72    h-84.47c-60.4,0-116.99,23.72-159.35,66.79C21.79,268.34-0.98,325.35,0.03,385.79c0.99,59.15,25.28,114.54,68.4,155.98    c42.74,41.08,98.96,63.7,158.29,63.7h106.79c38.35,0,69.56-31.2,69.56-69.56V265.06c0-29.14,23.71-52.84,52.84-52.84h82.46    c29.14,0,52.84,23.71,52.84,52.84s-23.71,52.84-52.84,52.84h-46.27c-36.41,0-66.03,29.62-66.03,66.03    c0,36.41,29.62,66.02,66.03,66.02h46.27c29.14,0,52.84,23.71,52.84,52.84v33.11c0,38.35,31.2,69.56,69.56,69.56h24.64v-53.72    h-24.64C652.04,551.75,644.94,544.64,644.94,535.91z M1548.82,228.05v311.39c0,6.78-5.52,12.3-12.3,12.3    c-6.78,0-12.3-5.52-12.3-12.3V228.05c0-38.35-31.2-69.56-69.56-69.56h-112.82v53.72h112.82c8.73,0,15.84,7.1,15.84,15.84v311.39    c0,36.41,29.62,66.03,66.03,66.03c36.41,0,66.03-29.62,66.03-66.03V228.05c0-8.73,7.1-15.84,15.84-15.84h116.71v-53.72h-116.71    C1580.02,158.49,1548.82,189.7,1548.82,228.05z M2873.33,605.47h53.72V158.49h-53.72V605.47z M1775.22,605.47h53.72V158.49h-53.72    V605.47z M2436.79,605.47h53.72V158.49h-53.72V605.47z M1386.16,541.25l-17.89-49.97c-10.06-28.08-36.85-46.95-66.68-46.95    h-104.74c-6.78,0-12.3-5.52-12.3-12.3c0-6.78,5.52-12.3,12.3-12.3h51.91c21.48,0,41.69-10.48,54.05-28.05s15.43-40.12,8.19-60.34    l-45.34-126.65c-11.02-30.78-39.27-50.67-71.97-50.67c-32.7,0-60.95,19.89-71.97,50.67l-121.06,338.09    c-1.92,5.37-7.04,8.97-12.74,8.97H815.96c-29.14,0-52.85-23.71-52.85-52.85v-36.71c0-6.75,5.49-12.24,12.23-12.24h127.48    c36.37,0,65.96-29.59,65.96-65.96v-0.14c0-36.37-29.59-65.96-65.96-65.96H775.35c-6.75,0-12.23-5.49-12.23-12.24v-40.6    c0-29.14,23.71-52.85,52.85-52.85h152.86v-53.72H815.96c-58.76,0-106.57,47.81-106.57,106.57v40.6    c0,36.37,29.59,65.96,65.96,65.96h127.48c6.75,0,12.23,5.49,12.23,12.24V384c0,6.75-5.49,12.23-12.23,12.23H775.35    c-36.37,0-65.96,29.59-65.96,65.96v36.71c0,58.76,47.81,106.57,106.57,106.57h171.96c28.33,0,53.77-17.92,63.32-44.58    l121.06-338.09c5-13.97,17.64-15.06,21.39-15.06c3.75,0,16.39,1.09,21.39,15.06l45.34,126.64c1.89,5.26-0.15,9.34-1.53,11.31    c-1.38,1.96-4.53,5.26-10.13,5.26h-51.91c-36.41,0-66.03,29.62-66.03,66.02c0,36.41,29.62,66.03,66.03,66.03h104.74    c7.2,0,13.67,4.56,16.1,11.34l17.89,49.97c9.87,27.58,36.19,46.11,65.49,46.11h37.27v-53.72h-37.27    C1394.4,551.75,1388.41,547.53,1386.16,541.25z M2447.16,0h-35.53c-15.09,0-29.46,4.76-41.55,13.78    c-12.1,9.01-20.78,21.42-25.09,35.87L2149.97,702.5c-4.75,15.9-18.81,17.14-23.01,17.14c-4.2,0-18.26-1.24-23.01-17.14    L1908.95,49.65c-4.32-14.46-13-26.86-25.09-35.87C1871.76,4.76,1857.39,0,1842.3,0h-35.53v53.72h35.53    c6.95,0,13.19,4.65,15.17,11.3l195.01,652.85c5.16,17.27,15.42,31.65,29.68,41.59c13.05,9.09,28.54,13.9,44.8,13.9    c16.25,0,31.75-4.81,44.8-13.9c14.26-9.93,24.52-24.31,29.68-41.59l195.01-652.85c1.99-6.66,8.23-11.3,15.17-11.3h35.53V0z     M2705.22,355.12h-46.6c-39.4,0-71.45-32.05-71.45-71.45s32.05-71.45,71.45-71.45l165.31,0v-53.72l-165.31,0    c-69.02,0-125.17,56.15-125.17,125.17s56.15,125.17,125.17,125.17h46.6c39.4,0,71.45,32.05,71.45,71.45s-32.05,71.45-71.45,71.45    h-165.88v53.72h165.88c69.02,0,125.17-56.15,125.17-125.17S2774.24,355.12,2705.22,355.12z M3355.75,219.52    c-43.49-43.49-101.31-67.44-162.82-67.44s-119.33,23.95-162.82,67.44c-43.49,43.49-67.44,101.31-67.44,162.82    s23.95,119.33,67.44,162.82c43.49,43.49,101.31,67.44,162.82,67.44s119.33-23.95,162.82-67.44    c43.49-43.49,67.44-101.31,67.44-162.82S3399.24,263.01,3355.75,219.52z M3192.93,557.24c-96.45,0-174.91-78.46-174.91-174.91    c0-96.45,78.46-174.91,174.91-174.91c96.45,0,174.91,78.46,174.91,174.91C3367.84,478.78,3289.37,557.24,3192.93,557.24z     M3814.36,158.49c-38.35,0-69.56,31.2-69.56,69.56v308.81c0,8.21-6.68,14.88-14.88,14.88c-6.27,0-11.9-3.97-14.01-9.87    L3589.68,189.3c-11.01-30.74-41.15-48.31-73.33-42.72c-32.17,5.58-54.63,32.29-54.63,64.94l0,324.39c0,8.73-7.1,15.84-15.84,15.84    h-24.64v53.72h24.64c38.35,0,69.56-31.2,69.56-69.56l0-324.39c0-8.92,6.33-11.35,10.1-12.01c3.77-0.66,10.55-0.5,13.56,7.9    l126.24,352.58c9.74,27.2,35.7,45.48,64.59,45.48c37.83,0,68.6-30.78,68.6-68.6V228.05c0-8.73,7.1-15.84,15.84-15.84H3839v-53.72    H3814.36z"
   id="path543"
   style="fill:#ffffff;fill-opacity:1" />
	</g>
</g>
</svg>
