<?xml version="1.0" encoding="UTF-8" standalone="no"?>
<svg
   height="169"
   viewBox="0 0 590.55017 107.31504"
   width="930"
   version="1.1"
   id="svg18"
   xmlns="http://www.w3.org/2000/svg"
   xmlns:svg="http://www.w3.org/2000/svg">
  <defs
     id="defs22" />
  <g
     id="g1606">
    <g
       id="g1586">
      <path
         d="m 246.10012,53.179318 -29.49803,-0.122161 -0.0882,-0.732965 c -0.1225,-1.000373 0.40964,-7.564356 0.83104,-10.261515 0.18915,-1.209104 0.40965,-2.693311 0.49,-3.298344 0.37437,-2.808738 1.84241,-8.623404 3.14678,-12.46041 1.35535,-3.987062 2.68815,-6.925657 4.80397,-10.591445 1.95805,-3.393572 3.4055,-5.312556 5.98976,-7.9394955 2.79889,-2.8443287 5.57719,-4.6892467 8.78375,-5.83198 3.61817,-1.05423894 6.74045,-1.40821688 10.14693,-0.3212736 3.84553,1.2466183 6.07602,2.6529113 9.48446,5.981074 4.57954,4.4718581 8.30845,10.9059851 11.19455,19.3148861 1.74147,5.074006 3.1458,12.091042 3.83867,19.178298 0.29595,3.023241 0.50078,5.881998 0.4557,6.352366 l -0.0813,0.856088 z"
         fill="#52ad67"
         id="path6"
         style="fill:#ffffff;fill-opacity:1;stroke-width:0.970907" />
      <path
         d="m 273.10695,104.83358 c -1.21588,-0.83781 -2.8811,-1.91032 -3.7003,-2.38261 -2.47616,-1.42842 -5.01016,-2.849144 -6.11963,-3.431093 -1.25512,-0.657937 -9.26724,-4.391058 -9.42426,-4.391058 -0.0599,0 -0.68077,-0.236627 -1.37806,-0.526158 -0.69729,-0.289531 -1.40904,-0.554052 -1.58259,-0.586757 -0.17251,-0.03463 -0.82229,-0.279912 -1.44314,-0.547319 -0.6198,-0.267407 -2.01438,-0.782022 -3.09596,-1.144657 a 598.69058,557.46919 0 0 1 -3.27985,-1.106182 c -1.94518,-0.665632 -7.45843,-2.217172 -12.46343,-3.506113 -1.57845,-0.406883 -7.22909,-1.554425 -9.31476,-1.891089 -4.80769,-0.778175 -6.3252,-1.061934 -6.52767,-1.222571 -0.12604,-0.100999 -0.14773,-0.584833 -0.0496,-1.077324 l 0.18078,-0.894564 1.36153,0.163522 c 2.1022,0.250093 7.20533,1.071553 9.10093,1.464007 0.93901,0.193341 3.18171,0.637737 4.9864,0.985944 5.18371,1.001335 5.85414,1.14081 6.69089,1.387055 0.43283,0.127932 1.4359,0.332816 2.23029,0.454977 0.7944,0.122161 2.03299,0.37514 2.75508,0.559824 l 1.31194,0.336664 0.0827,-0.846469 c 0.0454,-0.465558 0.0258,-0.900335 -0.0434,-0.964782 -0.0692,-0.06445 -1.05161,-0.22797 -2.18173,-0.362636 -13.60908,-2.274885 -26.46299,-13.41365 -26.53737,-26.367513 l 0.0796,-1.56693 H 277.456 l -0.0413,2.565379 c -0.0723,4.34104 -1.69003,8.580119 -5.08248,13.315536 -1.28817,1.798747 -5.87789,5.951256 -8.04724,7.284444 -3.85111,2.362419 -9.34576,4.367012 -12.85287,4.686361 -2.81499,0.255865 -2.70755,0.178913 -2.70755,1.967079 0,1.512102 0.0258,1.572701 0.72104,1.712176 2.1146,0.425159 12.08947,3.744664 16.07177,5.348146 4.88827,1.968041 6.1,2.493237 11.15149,4.834493 5.82418,2.701008 7.51834,3.611928 7.39231,3.974558 -0.11053,0.31743 -7.70222,3.29931 -8.39847,3.29931 -0.18905,0 -1.33984,-0.68583 -2.5557,-1.52365 z"
         fill="#38894b"
         id="path8"
         style="fill:#ffffff;fill-opacity:1;stroke-width:0.996826;stroke:none;stroke-opacity:1;opacity:1" />
    </g>
    <g
       aria-label="electron"
       id="text1501-2"
       style="font-size:73.8105px;line-height:1.25;font-family:'DejaVu Serif';-inkscape-font-specification:'DejaVu Serif';text-align:center;letter-spacing:0px;word-spacing:0px;text-anchor:middle;fill:#ffffff;fill-opacity:1;stroke-width:1.84526"
       transform="translate(0,-3.6191278)">
      <path
         d="m 323.24749,62.481243 h -28.57995 v 0.288322 q 0,7.748661 2.91927,11.713093 2.91926,3.928391 8.61362,3.928391 4.36088,0 7.13598,-2.270538 2.81114,-2.306578 3.92839,-6.811614 h 5.33396 q -1.58577,6.30705 -5.87456,9.478595 -4.25276,3.171545 -11.20853,3.171545 -8.39739,0 -13.51511,-5.514164 -5.08168,-5.550203 -5.08168,-14.704436 0,-9.082151 5.0096,-14.632355 5.0096,-5.550203 13.15471,-5.550203 8.6857,0 13.3349,5.370002 4.6492,5.333962 4.8294,15.533362 z m -7.82074,-3.82027 q -0.21624,-6.703493 -2.84719,-10.091279 -2.5949,-3.423827 -7.49637,-3.423827 -4.57712,0 -7.20806,3.423827 -2.63094,3.423827 -3.20759,10.091279 z"
         id="path53877"
         style="fill:#ffffff;fill-opacity:1" />
      <path
         d="m 342.06052,77.113598 h 6.27101 v 3.82027 h -19.28156 v -3.82027 h 6.37913 V 28.675457 h -6.37913 v -3.82027 h 13.01055 z"
         id="path53879"
         style="fill:#ffffff;fill-opacity:1" />
      <path
         d="m 390.5347,62.481243 h -28.57995 v 0.288322 q 0,7.748661 2.91927,11.713093 2.91926,3.928391 8.61362,3.928391 4.36088,0 7.13598,-2.270538 2.81114,-2.306578 3.92839,-6.811614 h 5.33396 q -1.58577,6.30705 -5.87456,9.478595 -4.25276,3.171545 -11.20853,3.171545 -8.39739,0 -13.51511,-5.514164 -5.08168,-5.550203 -5.08168,-14.704436 0,-9.082151 5.0096,-14.632355 5.0096,-5.550203 13.1547,-5.550203 8.68571,0 13.33491,5.370002 4.6492,5.333962 4.8294,15.533362 z m -7.82074,-3.82027 q -0.21625,-6.703493 -2.84719,-10.091279 -2.5949,-3.423827 -7.49638,-3.423827 -4.57711,0 -7.20805,3.423827 -2.63094,3.423827 -3.20759,10.091279 z"
         id="path53881"
         style="fill:#ffffff;fill-opacity:1" />
      <path
         d="m 432.16123,69.437018 q -1.40558,6.126848 -5.40605,9.334433 -4.00047,3.207586 -10.34356,3.207586 -8.36134,0 -13.44302,-5.514164 -5.08168,-5.550203 -5.08168,-14.704436 0,-9.190272 5.08168,-14.668395 5.08168,-5.514163 13.44302,-5.514163 3.64007,0 7.2441,0.864966 3.60403,0.828927 7.2441,2.558861 v 9.802957 h -3.85632 q -0.75684,-5.04564 -3.3157,-7.352218 -2.52282,-2.306578 -7.2441,-2.306578 -5.37,0 -8.10906,4.180673 -2.73906,4.144632 -2.73906,12.433897 0,8.289266 2.70302,12.469939 2.73906,4.180673 8.1451,4.180673 4.2888,0 6.84766,-2.234498 2.55886,-2.234498 3.4959,-6.739533 z"
         id="path53883"
         style="fill:#ffffff;fill-opacity:1" />
      <path
         d="m 443.51392,46.479357 h -5.83853 v -3.85631 h 5.83853 V 30.729753 h 6.66745 v 11.893294 h 12.46994 v 3.85631 h -12.46994 v 24.327192 q 0,4.865438 0.93705,6.234969 0.93705,1.369531 3.45987,1.369531 2.5949,0 3.78423,-1.513692 1.18933,-1.549733 1.26141,-4.97356 h 5.0096 q -0.28833,5.225842 -2.84719,7.640541 -2.55886,2.414699 -7.7847,2.414699 -5.7304,0 -8.10906,-2.52282 -2.37866,-2.55886 -2.37866,-8.649668 z"
         id="path53885"
         style="fill:#ffffff;fill-opacity:1" />
      <path
         d="m 500.4936,42.550966 v 9.586716 h -3.82027 q -0.1802,-2.847183 -1.58577,-4.252754 -1.40557,-1.405571 -4.10859,-1.405571 -4.90148,0 -7.53242,3.387787 -2.5949,3.387786 -2.5949,9.730876 v 17.515578 h 7.67658 v 3.82027 h -20.29068 v -3.82027 h 5.98269 V 46.407277 h -6.34309 v -3.78423 h 12.9745 v 6.811613 q 1.94617,-4.000471 5.0096,-5.910606 3.06342,-1.946175 7.46034,-1.946175 1.62181,0 3.38778,0.252282 1.80202,0.252282 3.78423,0.720805 z"
         id="path53887"
         style="fill:#ffffff;fill-opacity:1" />
      <path
         d="m 522.69443,78.411049 q 5.33396,0 8.03698,-4.216714 2.73906,-4.216713 2.73906,-12.433898 0,-8.217184 -2.73906,-12.397857 -2.70302,-4.216713 -8.03698,-4.216713 -5.33396,0 -8.07303,4.216713 -2.70302,4.180673 -2.70302,12.397857 0,8.217185 2.73906,12.433898 2.73907,4.216714 8.03699,4.216714 z m 0,3.567988 q -8.36135,0 -13.44303,-5.514164 -5.08168,-5.550203 -5.08168,-14.704436 0,-9.154232 5.04564,-14.668395 5.08168,-5.514163 13.47907,-5.514163 8.39738,0 13.44302,5.514163 5.08168,5.514163 5.08168,14.668395 0,9.154233 -5.08168,14.704436 -5.04564,5.514164 -13.44302,5.514164 z"
         id="path53889"
         style="fill:#ffffff;fill-opacity:1" />
      <path
         d="m 547.95866,80.933868 v -3.82027 h 5.98269 V 46.479357 h -6.34309 v -3.85631 h 12.9745 v 6.811613 q 1.83806,-3.89235 4.75732,-5.874566 2.9553,-1.982215 6.84766,-1.982215 6.34309,0 9.33443,3.640068 2.99134,3.640069 2.99134,11.35269 v 20.542961 h 5.91061 v 3.82027 h -18.30847 v -3.82027 h 5.73041 V 58.660973 q 0,-7.027855 -1.72993,-9.622756 -1.72994,-2.63094 -6.09081,-2.63094 -4.61316,0 -7.02786,3.387786 -2.4147,3.351747 -2.4147,9.802957 v 17.515578 h 5.76645 v 3.82027 z"
         id="path53891"
         style="fill:#ffffff;fill-opacity:1" />
    </g>
    <g
       aria-label="acorn"
       id="text1501-2-6"
       style="font-size:73.8105px;line-height:1.25;font-family:'DejaVu Serif';-inkscape-font-specification:'DejaVu Serif';text-align:center;letter-spacing:0px;word-spacing:0px;text-anchor:middle;fill:#ffffff;fill-opacity:1;stroke-width:1.84526"
       transform="translate(0,-3.6191278)">
      <path
         d="M 25.832787,68.896414 V 60.78735 H 17.29124 q -4.937519,0 -7.3522181,2.126377 -2.414699,2.126376 -2.414699,6.523291 0,4.000471 2.4507393,6.34309 2.4507398,2.342618 6.6314118,2.342618 4.144633,0 6.667453,-2.55886 2.55886,-2.55886 2.55886,-6.667452 z M 32.464199,57.00312 v 20.110478 h 5.910607 v 3.82027 H 25.832787 v -4.144632 q -2.198457,2.666981 -5.08168,3.928391 -2.883223,1.26141 -6.739533,1.26141 -6.3791302,0 -10.1273197,-3.387787 -3.74818954,-3.387787 -3.74818954,-9.154232 0,-5.946647 4.28879374,-9.226313 4.2887938,-3.279666 12.1095355,-3.279666 h 9.298393 v -2.63094 q 0,-4.360875 -2.666981,-6.739533 -2.630941,-2.414699 -7.424298,-2.414699 -3.964432,0 -6.30705,1.802014 -2.3426185,1.802014 -2.919263,5.333962 H 3.091368 v -7.748661 q 3.4598673,-1.477652 6.7034928,-2.198457 3.2796662,-0.756846 6.3791302,-0.756846 7.964903,0 12.109535,3.964431 4.180673,3.928391 4.180673,11.46081 z"
         id="path53848"
         style="fill:#ffffff;fill-opacity:1" />
      <path
         d="m 78.415563,69.437018 q -1.405571,6.126848 -5.406043,9.334433 -4.000471,3.207586 -10.343561,3.207586 -8.361346,0 -13.443026,-5.514164 -5.08168,-5.550203 -5.08168,-14.704436 0,-9.190272 5.08168,-14.668395 5.08168,-5.514163 13.443026,-5.514163 3.640068,0 7.244097,0.864966 3.604028,0.828927 7.244097,2.558861 v 9.802957 h -3.856311 q -0.756846,-5.04564 -3.315706,-7.352218 -2.52282,-2.306578 -7.244097,-2.306578 -5.370002,0 -8.109064,4.180673 -2.739061,4.144632 -2.739061,12.433897 0,8.289266 2.703021,12.469939 2.739062,4.180673 8.145104,4.180673 4.288794,0 6.847654,-2.234498 2.55886,-2.234498 3.495908,-6.739533 z"
         id="path53850"
         style="fill:#ffffff;fill-opacity:1" />
      <path
         d="m 104.00417,78.411049 q 5.33396,0 8.03698,-4.216714 2.73906,-4.216713 2.73906,-12.433898 0,-8.217184 -2.73906,-12.397857 -2.70302,-4.216713 -8.03698,-4.216713 -5.333962,0 -8.073024,4.216713 -2.703021,4.180673 -2.703021,12.397857 0,8.217185 2.739061,12.433898 2.739062,4.216714 8.036984,4.216714 z m 0,3.567988 q -8.361346,0 -13.443026,-5.514164 -5.08168,-5.550203 -5.08168,-14.704436 0,-9.154232 5.04564,-14.668395 5.08168,-5.514163 13.479066,-5.514163 8.39739,0 13.44303,5.514163 5.08168,5.514163 5.08168,14.668395 0,9.154233 -5.08168,14.704436 -5.04564,5.514164 -13.44303,5.514164 z"
         id="path53852"
         style="fill:#ffffff;fill-opacity:1" />
      <path
         d="m 161.52446,42.550966 v 9.586716 h -3.82027 q -0.1802,-2.847183 -1.58577,-4.252754 -1.40557,-1.405571 -4.10859,-1.405571 -4.90148,0 -7.53242,3.387787 -2.5949,3.387786 -2.5949,9.730876 v 17.515578 h 7.67658 v 3.82027 h -20.29068 v -3.82027 h 5.98268 V 46.407277 H 128.908 v -3.78423 h 12.97451 v 6.811613 q 1.94617,-4.000471 5.0096,-5.910606 3.06342,-1.946175 7.46033,-1.946175 1.62182,0 3.38779,0.252282 1.80201,0.252282 3.78423,0.720805 z"
         id="path53854"
         style="fill:#ffffff;fill-opacity:1" />
      <path
         d="m 164.55185,80.933868 v -3.82027 h 5.98269 V 46.479357 h -6.34309 v -3.85631 h 12.9745 v 6.811613 q 1.83806,-3.89235 4.75732,-5.874566 2.9553,-1.982215 6.84765,-1.982215 6.34309,0 9.33444,3.640068 2.99134,3.640069 2.99134,11.35269 v 20.542961 h 5.91061 v 3.82027 h -18.30847 v -3.82027 h 5.73041 V 58.660973 q 0,-7.027855 -1.72993,-9.622756 -1.72994,-2.63094 -6.09081,-2.63094 -4.61316,0 -7.02786,3.387786 -2.4147,3.351747 -2.4147,9.802957 v 17.515578 h 5.76645 v 3.82027 z"
         id="path53856"
         style="fill:#ffffff;fill-opacity:1" />
    </g>
  </g>
</svg>
