<?xml version="1.0" encoding="UTF-8" standalone="no"?>
<svg
   height="190.476"
   width="400"
   version="1.1"
   id="svg16"
   xmlns="http://www.w3.org/2000/svg"
   xmlns:svg="http://www.w3.org/2000/svg">
  <defs
     id="defs20" />
  <g
     id="g3416">
    <g
       fill="#e60012"
       stroke-width="2.164"
       id="g6"
       style="fill:#ffffff;fill-opacity:1">
      <path
         d="m 90.495,65.198 h 11.51 c 2.182,0 4.22,1.634 4.33,3.799 h 0.105 V 60.099 H 90.495 L 90.487,44.481 h 15.385 c 2.191,0 4.231,1.628 4.346,3.787 h 0.1 l -0.015,-8.904 -32.285,0.014 v 0.098 c 2.174,0.121 3.804,2.481 3.804,4.686 v 40.915 c 0,2.197 -1.63,4.567 -3.804,4.692 v 0.096 h 16.289 v -0.096 c -2.176,-0.125 -3.82,-2.495 -3.82,-4.692 z m 33.331,11.09 c 0,5.25 4.27,9.79 9.54,9.79 5.264,0 9.55,-4.6 9.55,-9.852 V 44.162 c 0,-2.205 -1.636,-4.566 -3.816,-4.687 V 39.38 l 16.301,-0.016 v 0.111 c -2.176,0.121 -3.824,2.482 -3.824,4.687 v 31.157 c 0,10.028 -8.11,15.87 -18.168,15.87 -10.076,0 -18.273,-5.842 -18.273,-15.87 l 0.021,-31.157 c 0,-2.205 -1.644,-4.566 -3.808,-4.687 v -0.111 h 16.278 v 0.111 c -2.17,0.133 -3.809,2.496 -3.809,4.687 z M 257.015,47.541 c -2.73,-4.511 -8.963,-3.968 -8.963,-3.968 -10.195,0 -9.713,7.95 -9.713,7.95 0,0 -0.701,3.989 4.421,6.71 l 10.193,5.536 c 9.839,5.397 8.672,13.067 8.672,13.067 0,0 0.445,14.328 -20.132,14.328 0,0 -5.979,0.187 -9.364,-1.11 l -2.896,-9.28 h 0.101 c 3.135,4.62 12.242,5.288 12.242,5.288 11.563,-0.52 11.643,-8.552 11.643,-8.552 0,0 0.52,-3.459 -4.007,-5.964 L 239.07,66.01 c -10.59,-5.785 -9.378,-13.576 -9.378,-13.576 0,0 -0.25,-14.096 17.955,-14.096 0,0 8.172,0.215 9.474,1.519 V 47.54 Z M 177.59,21.807 a 9.98,9.98 0 0 0 7.075,2.923 c 5.541,0 10.027,-4.47 10.027,-9.994 0,-5.508 -4.486,-9.986 -10.027,-9.986 0,0 -7.72,-0.73 -11.194,9.117 l 0.011,-7.392 c 2.586,-3.373 6.588,-5.825 11.183,-5.825 7.818,0 14.144,6.301 14.144,14.086 0,7.774 -6.326,14.098 -14.144,14.098 -3.906,0 -7.438,-1.57 -9.99,-4.131 l -4.865,-5.451 a 7.318,7.318 0 0 0 -5.179,-2.136 c -4.05,0 -7.335,3.264 -7.335,7.296 0,4.048 3.284,7.32 7.335,7.32 0,0 5.418,0.724 8.84,-5.969 l 0.011,5.919 a 11.476,11.476 0 0 1 -8.85,4.153 c -6.325,0 -11.46,-5.114 -11.46,-11.423 0,-6.297 5.135,-11.4 11.46,-11.4 3.15,0 6.01,1.263 8.088,3.344 z m 2.606,22.249 c 0,-2.207 -1.638,-4.468 -3.81,-4.581 v -0.096 h 16.264 v 0.096 c -2.159,0.123 -3.805,2.386 -3.805,4.58 v 41.003 c 0,2.2 1.646,4.569 3.805,4.7 v 0.094 h -16.264 v -0.094 c 2.172,-0.131 3.81,-2.5 3.81,-4.7 z m -10.213,0.107 c 0,-2.205 1.634,-4.566 3.808,-4.687 v -0.098 h -16.29 v 0.098 c 2.18,0.121 3.807,2.482 3.807,4.687 l 0.014,51.258 c 0,0 -0.183,9.051 -7.295,14.26 l 0.018,0.099 c 1.403,-0.235 15.95,-2.987 15.95,-17.393 z"
         id="path2"
         style="fill:#ffffff;fill-opacity:1" />
      <path
         d="m 192.59,48.462 h 0.096 c 2.205,-3.935 5.606,-3.98 5.606,-3.98 h 8.818 l 0.006,40.595 c 0,2.197 -1.64,4.55 -3.812,4.681 v 0.094 h 16.31 v -0.094 c -2.189,-0.131 -3.835,-2.5 -3.835,-4.68 l 0.012,-40.597 7.37,-0.018 c 2.238,0 4.01,1.78 4.074,3.999 h 0.09 l 2.707,-9.1 h -34.727 z m 81.17,27.826 c 0,5.25 4.271,9.79 9.543,9.79 5.258,0 9.548,-4.6 9.548,-9.852 V 44.162 c 0,-2.205 -1.638,-4.566 -3.808,-4.687 V 39.38 l 16.289,-0.016 v 0.111 c -2.16,0.121 -3.806,2.482 -3.806,4.687 v 31.157 c 0,10.028 -8.114,15.87 -18.188,15.87 -10.057,0 -18.256,-5.842 -18.256,-15.87 l 0.012,-31.157 c 0,-2.205 -1.64,-4.566 -3.816,-4.687 v -0.111 h 16.293 v 0.111 c -2.182,0.133 -3.822,2.496 -3.822,4.687 z"
         id="path4"
         style="fill:#ffffff;fill-opacity:1" />
    </g>
    <g
       stroke-width="0.778"
       id="g10"
       style="fill:#ffffff;fill-opacity:1">
      <path
         d="m 47.487,169.509 v 12.942 H 2.836 V 169.51 h 10.206 v -50.476 h -8.93 v -15.53 H 95.964 V 135.86 H 76.828 V 119.034 H 37.281 v 19.414 h 28.066 v 15.531 H 37.28 v 15.531 z m 65.062,-1.294 v -50.476 h -8.93 v -14.236 h 34.01 l 21.65,45.169 22.593,-45.17 h 36.563 v 14.237 h -8.93 l -0.013,50.463 7.667,0.026 v 14.223 h -40.823 v -14.236 l 7.654,-0.013 -0.051,-30.337 -22.07,44.586 h -10.614 l -23.333,-45.686 c -0.154,10.043 -0.026,21.393 -0.064,31.437 2.551,0.013 5.103,0.013 7.654,0.026 v 14.223 H 103.62 v -14.236 z m 114.816,-32.356 h 39.548 v 14.236 h -39.548 z m 90.743,-12.879 c -4.86,0.726 -7.03,5.786 -6.736,10.303 l -15.118,-0.013 v -28.473 h 88.026 v 17.692 c -8.343,2.446 -14.352,8.193 -19.404,15.7 -8.152,13.136 -11.443,28.9 -11.214,44.25 -9.848,0 -19.697,0.051 -29.533,-0.026 1.684,-11.183 4.146,-22.365 8.739,-32.719 3.572,-6.717 9.9,-14.91 16.916,-20.332 3.024,-2.369 5.633,-4.504 9.517,-6.355 z"
         id="path8"
         style="fill:#ffffff;fill-opacity:1" />
    </g>
    <path
       d="m 284.198,99.567 h 112.546 v 87.666 H 284.198 Z"
       fill="none"
       opacity="0.98"
       stroke="#545454"
       stroke-width="3"
       id="path12"
       style="stroke:#ffffff;stroke-opacity:1" />
  </g>
</svg>
