<?xml version="1.0" encoding="UTF-8" standalone="no"?>
<svg
   height="148.011"
   width="980.448"
   version="1.1"
   id="svg53"
   xmlns="http://www.w3.org/2000/svg"
   xmlns:svg="http://www.w3.org/2000/svg">
  <defs
     id="defs57" />
  <linearGradient
     id="c"
     gradientUnits="userSpaceOnUse"
     x1="611.299"
     x2="636.076"
     y1="75.178"
     y2="84.75">
    <stop
       offset="0"
       stop-color="#687378"
       id="stop2" />
    <stop
       offset=".498"
       stop-color="#646f74"
       id="stop4" />
    <stop
       offset="1"
       stop-color="#333638"
       id="stop6" />
  </linearGradient>
  <linearGradient
     id="b"
     gradientUnits="userSpaceOnUse"
     x1="560.294"
     x2="567.754"
     y1="166.796"
     y2="25.893">
    <stop
       offset="0"
       stop-color="#784421"
       id="stop9" />
    <stop
       offset="1"
       stop-color="#7e4a2d"
       id="stop11" />
  </linearGradient>
  <linearGradient
     id="a"
     gradientUnits="userSpaceOnUse"
     x1="576.557"
     x2="581.209"
     y1="165.301"
     y2="26.976">
    <stop
       offset="0"
       stop-color="#a56a27"
       id="stop14" />
    <stop
       offset=".724"
       stop-color="#a56a27"
       id="stop16" />
    <stop
       offset="1"
       stop-color="#9b6b44"
       id="stop18" />
  </linearGradient>
  <g
     class="currentLayer"
     id="g7"
     transform="matrix(2.5059988,0,0,2.5254973,-10.995022,-15.790276)">
    <title
       id="title3">Layer 1</title>
    <g
       id="svgg"
       class="selected"
       fill="#ffffff"
       fill-opacity="1">
      <path
         id="path0"
         d="m 215.781,8.578 c -15.377,3.495 -27.426,16.743 -23.189,25.495 3.103,6.409 13.926,6.186 19.885,-0.409 6.195,-6.857 5.806,-18.257 -0.623,-18.257 -2.291,0 -2.289,-1.08 0.003,-2.037 5.329,-2.227 23.025,-2.742 25.038,-0.729 0.705,0.705 0.36,1.087 -2.369,2.627 -5.862,3.308 -15.619,13.86 -17.982,19.446 -1.175,2.778 -2.226,3.268 -8.84,4.121 -1.654,0.214 -3.852,1.778 -3.852,2.742 0,1.279 2.467,1.467 6.082,0.464 3.077,-0.855 3.605,-0.323 2.272,2.288 -5.288,10.355 -14.278,16.637 -21.374,14.934 -5.702,-1.367 -6.024,-4.126 -0.589,-5.044 6.315,-1.067 4.666,-9.775 -1.851,-9.775 -11.44,0 -12.758,13.455 -1.717,17.528 12.777,4.713 31.577,-3.848 38.852,-17.693 2.318,-4.41 2.54,-4.558 8.97,-5.977 8.603,-1.897 11.931,-4.171 10.859,-7.419 -1.253,-3.797 0.942,-7.259 5.459,-8.61 1.914,-0.572 1.338,-4.158 -1.101,-6.858 -2.219,-2.456 -2.137,-2.72 0.953,-3.09 1.016,-0.121 1.541,-0.595 1.671,-1.51 0.216,-1.521 -3.04,-1.878 -6.937,-0.76 -1.574,0.451 -2.768,0.31 -5.626,-0.668 C 234.986,7.75 221.436,7.292 215.781,8.578 M 43.919,10.397 C 24.573,14.594 10.59,31.833 21.116,38.508 c 8.795,5.578 20.681,-0.474 21.948,-11.173 0.746,-6.294 -0.669,-9.034 -4.916,-9.522 -3.635,-0.417 -3.597,-1.212 0.124,-2.614 4.197,-1.58 11.239,-1.052 18.617,1.397 9.943,3.301 16.27,2.852 19.69,-1.398 2.611,-3.243 1.057,-4.568 -3.83,-3.265 -2.139,0.57 -3.83,0.434 -11.028,-0.889 C 52.247,9.303 49.433,9.2 43.919,10.397 m 322.73,0.835 c -8.52,2.723 -18.446,14.335 -27.458,32.121 -1.651,3.259 -2.206,3.891 -3.188,3.634 -0.875,-0.229 -1.872,0.432 -3.773,2.503 -2.816,3.067 -4.063,2.879 -1.977,-0.299 0.716,-1.092 1.569,-2.412 1.895,-2.933 0.326,-0.522 1.158,-1.744 1.849,-2.715 1.445,-2.031 3.442,-5.902 4.035,-7.821 0.405,-1.311 0.382,-1.315 -6.887,-1.276 -8.782,0.047 -9.581,0.353 -15.612,5.986 -4.765,4.45 -4.769,4.449 -5.18,-0.586 -0.325,-3.979 -1.605,-5.476 -4.686,-5.476 -3.425,0 -3.33,-0.873 1.029,-9.45 4.167,-8.2 4.198,-8.333 1.969,-8.463 -5.347,-0.311 -7.83,1.354 -10.774,7.226 -0.741,1.478 -2.433,4.554 -3.76,6.836 -8.411,14.46 -12.061,20.947 -12.622,22.434 -0.547,1.448 -0.774,1.583 -1.564,0.927 -0.619,-0.513 -1.056,-0.563 -1.323,-0.15 -0.478,0.738 -4.474,1.554 -5.006,1.022 -0.205,-0.206 0.704,-2.516 2.02,-5.135 3.828,-7.612 3.798,-12.913 -0.076,-13.764 -1.967,-0.432 -7.353,1.065 -9.004,2.503 -1.33,1.159 -2.131,0.561 -2.6,-1.938 -1.026,-5.469 -8.99,-1.95 -10.566,4.669 -0.263,1.1 -0.188,1.548 0.216,1.298 0.854,-0.528 0.776,1.07 -0.095,1.941 -0.391,0.391 -0.51,0.711 -0.265,0.711 0.246,0 -0.792,2.328 -2.305,5.173 -2.813,5.29 -4.732,10.122 -4.222,10.632 0.489,0.489 9.874,-0.522 9.874,-1.063 0,-0.282 1.2,-3.063 2.666,-6.181 1.467,-3.118 2.667,-5.875 2.667,-6.126 0,-1.062 7.531,-8.538 8.19,-8.13 1.138,0.703 0.86,1.636 -2.56,8.605 -4.987,10.16 -4.374,12.497 3.275,12.497 3.319,0 4.319,-0.265 6.715,-1.785 l 2.816,-1.785 1.915,2.031 c 4.157,4.407 16.135,2.749 21.432,-2.966 1.649,-1.78 2.073,-1.619 2.993,1.141 1.275,3.824 6.961,4.894 9.882,1.859 l 1.302,-1.353 1.325,1.429 c 2.698,2.911 7.391,1.43 12.789,-4.038 1.874,-1.899 3.418,-3.378 3.432,-3.288 0.013,0.089 0.08,1.802 0.148,3.805 0.275,8.099 5.358,8.561 12.8,1.162 5.078,-5.047 5.398,-5.08 5.398,-0.557 0,7.676 5.992,7.379 13.521,-0.67 5.59,-5.975 4.033,-9.387 -1.644,-3.603 -2.837,2.891 -3.581,2.945 -3.581,0.264 0,-3.301 1.988,-5.981 7.196,-9.702 15.792,-11.284 28.849,-28.922 23.522,-31.773 -2.824,-1.512 -12.713,1.366 -15.265,4.441 -1.078,1.299 -1.823,0.628 -1.823,-1.639 0,-3.587 -2.659,-4.229 -9.055,-2.185 m 5.332,3.377 c 0.649,1.947 -20.305,25.697 -21.836,24.751 -1.671,-1.033 12.634,-20.103 17.988,-23.981 2.421,-1.754 3.451,-1.96 3.848,-0.77 m 18.036,0.564 c -0.585,3.198 -20.57,25.129 -22.06,24.208 -0.906,-0.56 3.188,-7.437 8.275,-13.9 6.615,-8.402 14.517,-14.312 13.785,-10.308 m -147.002,0.924 c 2.474,4.623 -2.173,13.55 -9.503,18.254 -5.103,3.275 -5.266,2.206 -1.016,-6.692 4.469,-9.359 9.021,-14.362 10.519,-11.562 m -142.923,2.73 c -0.845,1.216 -3.217,5.143 -5.271,8.729 -12.705,22.181 -12.238,21.178 -12.398,26.663 -0.206,7.046 2.025,9.011 7.359,6.48 2.839,-1.347 3.91,-2.788 4.234,-5.69 0.242,-2.167 0.165,-2.424 -0.495,-1.66 -0.429,0.498 -1.314,0.898 -1.965,0.889 -2.062,-0.027 -1.091,-2.437 5.618,-13.942 l 6.394,-10.963 3.327,-0.177 c 3.914,-0.209 5.468,-3.675 1.648,-3.675 -2.518,0 -2.551,-0.389 -0.347,-4.15 2.752,-4.694 2.729,-4.74 -2.27,-4.726 -4.285,0.013 -4.3,0.019 -5.834,2.222 m -44.795,1.884 c -2.289,1.396 -7.646,8.393 -10.695,13.972 -2.382,4.358 -2.701,4.597 -9.467,7.089 -4.967,1.829 -8.082,3.771 -8.36,5.212 -0.326,1.693 1.834,1.211 7.394,-1.65 6.264,-3.223 7.056,-2.865 4.164,1.878 -5.172,8.484 -13.09,12.87 -20.646,11.437 -6.839,-1.297 -7.674,-3.905 -1.68,-5.251 6.236,-1.401 5.493,-7.337 -1.021,-8.158 -9.373,-1.182 -12.411,9.659 -4.037,14.402 12.596,7.135 34.7,-0.826 41.269,-14.864 1.482,-3.169 2.077,-3.889 3.21,-3.889 2.201,0 2.128,0.546 -0.952,7.123 -3.172,6.777 -3.578,9.405 -1.735,11.247 1.593,1.593 6.064,1.597 9.029,0.008 2.192,-1.175 2.198,-1.175 2.827,0 2.141,4.002 11.971,-0.599 15.843,-7.415 3.195,-5.625 0.871,-7.108 -3.001,-1.915 -3.698,4.961 -2.441,1.09 1.986,-6.115 5.019,-8.167 5.631,-9.833 3.39,-9.233 -0.734,0.197 -2.579,0.361 -4.101,0.366 l -2.767,0.008 -3.728,6.258 c -4.009,6.731 -8.74,12.994 -9.7,12.844 -1.955,-0.305 0.531,-7.191 5.272,-14.602 2.817,-4.404 2.778,-4.5 -1.795,-4.5 -3.725,0 -4.032,0.108 -5.889,2.077 -1.086,1.152 -2.123,1.812 -2.327,1.482 -0.203,-0.328 -0.87,-0.596 -1.484,-0.596 -2.437,0 -1.612,-5.112 2.09,-12.95 2.768,-5.861 1.776,-7.231 -3.089,-4.265 m 144.642,2.114 c -1.475,2.251 -1.874,8.582 -0.541,8.582 2.49,0 7.865,-3.7 8.54,-5.879 1.334,-4.299 4.809,-6.593 3.831,-2.529 -1.771,7.365 -9.515,13.705 -13.785,11.288 -4.247,-2.403 -4.33,-5.552 -0.286,-10.848 2.103,-2.754 3.98,-3.269 2.241,-0.614 M 37.71,26.405 c -2.669,7.832 -10.887,12.954 -14.688,9.153 -2.595,-2.596 -2.035,-6.712 1.43,-10.503 1.749,-1.914 2.155,-1.199 1.266,2.229 -0.69,2.659 -0.58,6.494 0.186,6.494 1.731,0 7.731,-4.412 8.358,-6.145 1.945,-5.381 5.265,-6.563 3.448,-1.228 M 248.092,25.38 c -1.354,1.496 -1.292,5.562 0.103,6.824 3.045,2.757 7.805,0.582 7.805,-3.566 0,-4.009 -5.265,-6.178 -7.908,-3.258 m -138.617,9.559 c -2.769,0.537 -2.23,-0.125 -5.778,7.09 -1.654,3.365 -3.7,7.025 -4.546,8.134 -0.846,1.11 -1.37,2.186 -1.165,2.391 0.206,0.206 0.154,0.665 -0.114,1.021 -3.125,4.143 4.66,8.731 10.07,5.934 1.716,-0.887 1.88,-0.868 3.206,0.378 2.931,2.753 8.713,0.289 13.711,-5.842 3.584,-4.397 3.486,-10.028 -0.106,-6.059 -2.578,2.85 -1.711,0.06 1.797,-5.779 4.906,-8.165 4.911,-8.097 -0.476,-7.567 -2.363,0.233 -4.312,0.467 -4.331,0.521 -0.435,1.232 -9.08,14.44 -10.637,16.251 -5.184,6.03 -3.797,-1.339 2.098,-11.147 3.842,-6.393 3.595,-6.746 -3.729,-5.326 m 22.415,3.181 c -3.984,3.906 -5.032,6.324 -2.74,6.324 0.633,0 1.318,-0.271 1.523,-0.602 0.204,-0.331 0.615,-0.452 0.913,-0.268 0.298,0.184 -1.321,4.052 -3.596,8.595 -2.276,4.543 -4.138,8.397 -4.138,8.564 0,0.167 1.85,0.304 4.112,0.304 h 4.113 l 3.702,-7.162 c 5.238,-10.136 10.757,-15.181 11.287,-10.319 0.268,2.464 2.824,2.825 4.279,0.604 1.987,-3.033 1.996,-0.81 0.009,2.488 -6.486,10.772 -2.605,17.283 8.411,14.11 5.966,-1.719 15.166,-12.562 11.477,-13.527 -1.174,-0.307 -1.167,-0.365 0.297,-2.522 7.012,-10.333 -5.389,-14.087 -15.173,-4.592 -1.509,1.465 -2.906,2.401 -3.104,2.081 -0.198,-0.32 0.037,-0.912 0.522,-1.315 3.995,-3.315 -1.709,-6.398 -7.192,-3.888 -3.539,1.62 -3.959,1.544 -5.193,-0.945 -1.515,-3.055 -5.072,-2.281 -9.509,2.07 m 226.915,1.603 c -1.293,2.552 -2.67,5.841 -4.064,9.709 -0.312,0.866 -0.574,0.972 -1.101,0.445 -1.268,-1.268 -2.849,-0.717 -5.76,2.006 -3.087,2.887 -3.962,2.753 -3.344,-0.514 0.622,-3.292 2.526,-5.582 8.697,-10.46 6.667,-5.271 7.76,-5.504 5.572,-1.186 M 244.326,37.748 c -1.322,0.256 -3.001,2.891 -7.521,11.803 -2.256,4.449 -2.899,9.303 -1.427,10.775 0.983,0.983 6.202,0.943 6.202,-0.048 0,-1.011 5.092,-12.1 7.974,-17.366 1.264,-2.309 2.298,-4.509 2.298,-4.888 0,-0.677 -4.592,-0.846 -7.526,-0.276 m 57.741,2.921 c -0.322,2.863 -3.357,7.801 -7.163,11.657 -3.778,3.826 -3.902,1.984 -0.336,-4.959 4.887,-9.514 8.145,-12.423 7.499,-6.698 M 168.654,39.354 c 0.519,1.352 -1.326,4.24 -4.226,6.617 -4.953,4.058 -4.154,0.059 1.103,-5.527 1.995,-2.12 2.641,-2.345 3.123,-1.09 m 158.819,0.011 c 0.556,1.448 -9.402,15.496 -10.502,14.816 -1.759,-1.087 1.053,-6.989 5.744,-12.056 3.471,-3.75 4.213,-4.18 4.758,-2.76 m -161.612,12.09 c -3.096,3.576 -7.897,5.811 -8.592,3.999 -0.59,-1.538 0.906,-3.195 3.762,-4.167 1.552,-0.528 3.484,-1.326 4.295,-1.775 2.339,-1.294 2.58,-0.42 0.535,1.943"
         stroke="none"
         fill="#ffffff"
         fill-rule="evenodd"
         fill-opacity="1" />
    </g>
  </g>
</svg>
