<?xml version="1.0" encoding="UTF-8" standalone="no"?>
<!-- Generator: Adobe Illustrator 26.0.3, SVG Export Plug-In . SVG Version: 6.00 Build 0)  -->

<svg
   version="1.1"
   id="Layer_1"
   x="0px"
   y="0px"
   viewBox="0 0 4689.0001 982"
   xml:space="preserve"
   width="4689"
   height="982"
   xmlns:xlink="http://www.w3.org/1999/xlink"
   xmlns="http://www.w3.org/2000/svg"
   xmlns:svg="http://www.w3.org/2000/svg"><defs
   id="defs148"><linearGradient
   id="linearGradient34773"
   gradientUnits="userSpaceOnUse"
   x1="15.196"
   y1="312.37051"
   x2="3854.196"
   y2="312.37051"
   gradientTransform="translate(1160.9631,-2.2896484e-5)">
				<stop
   offset="0"
   style="stop-color:#f3dd42;stop-opacity:1"
   id="stop34769" />
				<stop
   offset="1"
   style="stop-color:#d7861b;stop-opacity:1"
   id="stop34771" />
			</linearGradient>
	
	

		
	
			<linearGradient
   id="SVGID_1_"
   gradientUnits="userSpaceOnUse"
   x1="15.196"
   y1="312.37051"
   x2="3854.196"
   y2="312.37051"
   gradientTransform="translate(1160.9631,-2.2896484e-5)">
				<stop
   offset="0"
   style="stop-color:#FF2422"
   id="stop4" />
				<stop
   offset="1"
   style="stop-color:#C24FFF"
   id="stop6" />
			</linearGradient>
			
		<linearGradient
   xlink:href="#linearGradient34773"
   id="linearGradient6574"
   gradientUnits="userSpaceOnUse"
   gradientTransform="translate(833.68668,630.53366)"
   x1="15.196"
   y1="312.37051"
   x2="3588.2239"
   y2="316.50259" /></defs>
<style
   type="text/css"
   id="style2">
	.st0{fill:#FFFFFF;}
	.st1{fill:#FF0000;}
	.st2{fill:url(#SVGID_1_);}
	.st3{fill:url(#SVGID_00000060022068257817767130000001067164073883981741_);}
	.st4{fill:url(#SVGID_00000144308182761068376180000004131709304805192586_);}
	.st5{fill:url(#SVGID_00000000935997520668853970000011105419993307822477_);}
	.st6{fill:url(#SVGID_00000018200174457167754170000000853354448091225986_);}
	.st7{fill:url(#SVGID_00000072987630451721579260000010409738167651109522_);}
	.st8{fill:#3636FF;}
	.st9{display:none;}
	.st10{display:inline;}
	.st11{enable-background:new    ;}
	.st12{fill:url(#SVGID_00000099639162208554751810000013272208193612295339_);}
	.st13{fill:url(#SVGID_00000158736166008707814920000018426778185460247990_);}
	.st14{fill:url(#SVGID_00000133527000259551881150000004185836194023049859_);}
	.st15{fill:url(#SVGID_00000093164219829473752460000004603917870326250679_);}
	.st16{fill:url(#SVGID_00000156556395246081825560000005894267688922753411_);}
	.st17{fill:url(#SVGID_00000135690321830567168220000000437954853257014148_);}
	.st18{fill:url(#SVGID_00000040565659643257570880000002075315462357006765_);}
	.st19{fill:url(#SVGID_00000017508175736194757820000008863537906517323707_);}
	.st20{fill:url(#SVGID_00000126293465477839731700000000626789561221784705_);}
	.st21{fill:url(#SVGID_00000087403315896914670680000008996143154280075168_);}
	.st22{fill:url(#SVGID_00000151540686432933406660000011628697137491540393_);}
	.st23{fill:url(#SVGID_00000143589059756432772880000012524823099024141722_);}
	.st24{fill:url(#SVGID_00000052088033699595628130000015515451372212444082_);}
	.st25{fill:url(#SVGID_00000126294377186336552610000001799937443100725399_);}
	.st26{fill:url(#SVGID_00000070835762807858034660000013936331226864194476_);}
	.st27{fill:url(#SVGID_00000092457199491666826160000016742156659903073436_);}
	.st28{fill:url(#SVGID_00000138556585880754416440000017272986633013561527_);}
	.st29{fill:url(#SVGID_00000032624778419303139080000015394367773870234245_);}
	.st30{fill:url(#SVGID_00000040539262103052545880000003837399106474199717_);}
	.st31{fill:url(#SVGID_00000115483974547727894610000006699104590764616355_);}
	.st32{fill:url(#SVGID_00000041285316495664937430000010139118778734034608_);}
	.st33{fill:url(#SVGID_00000178199001922562380240000009661348160359078294_);}
	.st34{fill:url(#SVGID_00000145019290134935790460000010249637267404127883_);}
	.st35{fill:url(#SVGID_00000117636406951782473700000003654222835714608307_);}
	.st36{fill:url(#SVGID_00000158745280490234840560000003483236744759648947_);}
	.st37{fill:url(#SVGID_00000146474604070782972690000015670225624893543309_);}
	.st38{fill:url(#SVGID_00000173847499186819278890000011550608873747634579_);}
	.st39{fill:url(#SVGID_00000141427567100195222880000010417319602782459071_);}
</style>

<g
   id="g1579"
   transform="matrix(6.3149202,0,0,6.3149202,-1808.9749,-4903.7453)"
   style="fill:#ffffff;fill-opacity:1;stroke:none;stroke-opacity:1"><polygon
     fill-rule="evenodd"
     clip-rule="evenodd"
     points="5.7451172,0 15.874512,0 12.246094,21.316895 2.4189453,21.316895 "
     id="polygon4"
     transform="matrix(4.2249535,0,0,4.2249535,286.4604,776.57085)"
     style="fill:#ffffff;fill-opacity:1;stroke:none;stroke-opacity:1" /><polygon
     fill-rule="evenodd"
     clip-rule="evenodd"
     points="11.490234,26.910645 19.805664,26.910645 18.595703,35.527832 0,35.527832 1.8144531,24.492676 11.79248,24.492676 "
     id="polygon6"
     transform="matrix(4.2249535,0,0,4.2249535,286.4604,776.57085)"
     style="fill:#ffffff;fill-opacity:1;stroke:none;stroke-opacity:1" /><polygon
     fill-rule="evenodd"
     clip-rule="evenodd"
     points="131.83398,1.8144531 141.05566,1.8144531 140.14941,7.8613281 130.92676,7.8613281 "
     id="polygon8"
     transform="matrix(4.2249535,0,0,4.2249535,286.4604,776.57085)"
     style="fill:#ffffff;fill-opacity:1;stroke:none;stroke-opacity:1" /><polygon
     fill-rule="evenodd"
     clip-rule="evenodd"
     points="130.54883,10.431641 139.77051,10.431641 138.1084,21.619629 128.88574,21.619629 "
     id="polygon10"
     transform="matrix(4.2249535,0,0,4.2249535,286.4604,776.57085)"
     style="fill:#ffffff;fill-opacity:1;stroke:none;stroke-opacity:1" /><polygon
     fill-rule="evenodd"
     clip-rule="evenodd"
     points="128.43262,24.492676 137.6543,24.492676 135.99121,35.527832 126.76855,35.527832 "
     id="polygon12"
     transform="matrix(4.2249535,0,0,4.2249535,286.4604,776.57085)"
     style="fill:#ffffff;fill-opacity:1;stroke:none;stroke-opacity:1" /><polygon
     fill-rule="evenodd"
     clip-rule="evenodd"
     points="86.251465,24.492676 95.473633,24.492676 93.810547,35.527832 84.588379,35.527832 "
     id="polygon14"
     transform="matrix(4.2249535,0,0,4.2249535,286.4604,776.57085)"
     style="fill:#ffffff;fill-opacity:1;stroke:none;stroke-opacity:1" /><path
     fill-rule="evenodd"
     clip-rule="evenodd"
     d="m 412.61076,880.05129 c -0.32786,3.01192 -0.55495,6.84903 -0.21674,10.29832 0.46415,4.20844 2.09802,7.57522 6.09191,7.57522 5.26058,0 8.42929,-4.62933 10.24674,-10.09207 1.02738,-2.84685 1.76181,-5.19867 2.29402,-7.88051 l 36.31027,-0.0989 -7.39777,46.95309 h -32.28131 l 1.89587,-9.34935 c -7.99809,10.17453 -14.40363,12.62534 -27.86446,12.62534 -25.70664,0 -29.81397,-28.51844 -28.18424,-50.02277 l 39.10558,-0.008 z"
     id="path16"
     style="stroke-width:4.22495;fill:#ffffff;fill-opacity:1;stroke:none;stroke-opacity:1" /><path
     fill-rule="evenodd"
     clip-rule="evenodd"
     d="m 432.64629,867.91279 c 0.0296,-2.6736 -0.004,-4.25796 -0.13393,-6.13113 -0.3756,-4.84387 -1.89177,-9.04613 -6.72735,-9.04613 -5.04806,0 -8.06827,5.0481 -10.18282,11.15033 -0.30124,0.94896 -0.56526,1.86493 -1.75145,4.01041 l -39.44387,-0.0254 c 5.23581,-22.48407 17.01946,-48.78689 42.69514,-49.31708 7.00996,-0.1445 20.10359,0.81283 25.22593,10.82851 l 1.11813,0.21674 1.65656,-9.05023 h 31.63557 l -7.2864,47.36363 z"
     id="path18"
     style="stroke-width:4.22495;fill:#ffffff;fill-opacity:1;stroke:none;stroke-opacity:1" /><path
     fill-rule="evenodd"
     clip-rule="evenodd"
     d="m 479.0465,867.91279 c -2.35592,-4.70356 -3.33995,-10.33133 -2.40336,-17.02978 3.20378,-22.92781 20.43986,-34.56502 46.30946,-34.56502 11.14619,0 18.89471,2.61791 27.8067,8.08479 l -4.2435,29.44057 c -6.46946,-5.41322 -18.18505,-8.28898 -25.12694,-8.28898 -2.94386,0 -6.60149,0.69522 -7.50094,4.18989 -1.30999,5.07282 4.3735,7.86196 11.2865,10.30449 5.71644,2.02173 10.57476,4.52201 14.4531,7.81452 l -60.58102,0.0494 z"
     id="path20"
     style="stroke-width:4.22495;fill:#ffffff;fill-opacity:1;stroke:none;stroke-opacity:1" /><path
     fill-rule="evenodd"
     clip-rule="evenodd"
     d="m 548.46528,880.15028 c 1.75973,4.82735 2.28578,10.63666 1.42964,16.76778 -3.50084,25.02791 -24.97839,34.4433 -47.90206,34.4433 -15.14422,0 -21.51469,-2.82214 -33.55619,-9.97651 l 5.38432,-32.94145 c 4.10121,5.25647 17.99941,13.64034 27.29925,13.16174 3.57097,-0.18167 10.78309,-2.64059 11.34011,-6.63449 0.55905,-3.99393 -1.15941,-6.93982 -10.13123,-9.79496 -4.19812,-1.32858 -8.18792,-2.73963 -11.72175,-4.91814 l 57.85791,-0.10731 z"
     id="path22"
     style="stroke-width:4.22495;fill:#ffffff;fill-opacity:1;stroke:none;stroke-opacity:1" /><path
     fill-rule="evenodd"
     clip-rule="evenodd"
     d="m 591.11297,880.06777 c -1.55136,9.39063 -1.90617,24.13669 6.65515,25.17645 5.51428,0.67663 11.2617,-3.79587 13.00491,-15.12567 h 34.63309 c -6.03628,35.59853 -26.89901,42.05975 -51.71652,41.8782 -27.03928,-0.19815 -43.22736,-22.21404 -41.24281,-51.9785 l 38.66618,0.0494 z"
     id="path24"
     style="stroke-width:4.22495;fill:#ffffff;fill-opacity:1;stroke:none;stroke-opacity:1" /><path
     fill-rule="evenodd"
     clip-rule="evenodd"
     d="m 954.57246,867.90455 c 5.07898,-27.90574 18.67395,-50.70152 57.54844,-51.58656 7.6289,-0.17322 13.694,2.40958 16.8668,4.25385 l -5.0254,30.21628 c -15.4268,-6.25492 -23.8189,6.02385 -26.78135,17.16594 z"
     id="path26"
     style="stroke-width:4.22495;fill:#ffffff;fill-opacity:1;stroke:none;stroke-opacity:1" /><path
     fill-rule="evenodd"
     clip-rule="evenodd"
     d="m 996.28973,880.06777 c 1.03972,6.95634 5.04597,13.44228 12.84817,13.44228 l 8.4829,-0.64363 -4.9429,33.8161 c -6.0238,1.59264 -11.7713,2.54985 -19.56926,2.44257 -29.67781,-0.4208 -41.84107,-22.23876 -40.11644,-49.09856 l 43.29753,0.0422 z"
     id="path28"
     style="stroke-width:4.22495;fill:#ffffff;fill-opacity:1;stroke:none;stroke-opacity:1" /><path
     fill-rule="evenodd"
     clip-rule="evenodd"
     d="m 777.05013,880.06777 c -4.6458,7.52569 -9.2916,13.07095 -19.82922,12.11374 l 1.81952,-12.14674 -41.03237,0.0254 -7.41843,46.61476 h 41.51925 c 34.35661,0 57.94456,-15.02664 69.50543,-46.71379 l -44.56418,0.10731 z"
     id="path30"
     style="stroke-width:4.22495;fill:#ffffff;fill-opacity:1;stroke:none;stroke-opacity:1" /><path
     fill-rule="evenodd"
     clip-rule="evenodd"
     d="m 760.58765,867.93754 8.13223,-52.40138 c 16.60685,0 20.43572,12.77385 17.24224,35.7677 -0.79627,5.74948 -1.91441,11.81457 -3.41211,16.72444 l 43.2026,0.0494 c 1.56374,-6.46946 2.24865,-13.65062 3.00783,-21.24442 5.74742,-57.48865 -25.54779,-70.26254 -56.84709,-70.26254 h -38.96531 l -5.42974,40.87972 c -6.3869,1.27699 -22.0366,3.19347 -30.34209,14.3727 -1.59674,1.59674 -2.55395,0.95721 -2.23623,-0.95928 l 1.59674,-10.21995 h -36.72495 l -7.02643,47.26874 h 38.96526 c 1.59264,-6.70876 19.16084,-16.60893 30.02028,-11.49897 l -1.82365,11.45769 40.64042,0.0659 z"
     id="path32-3"
     style="stroke-width:4.22495;fill:#ffffff;fill-opacity:1;stroke:none;stroke-opacity:1" /><path
     fill-rule="evenodd"
     clip-rule="evenodd"
     d="m 878.907,867.91279 c -2.35591,-4.70356 -3.34202,-10.33133 -2.40543,-17.02978 3.20585,-22.92781 20.43986,-34.56502 46.30946,-34.56502 11.14826,0 18.89674,2.61791 27.80877,8.08479 l -4.24557,29.44057 c -6.46946,-5.41322 -18.18711,-8.28898 -25.12694,-8.28898 -2.94179,0 -6.60149,0.69522 -7.50094,4.18989 -1.30792,5.07282 4.3735,7.86196 11.28853,10.30449 5.71442,2.02173 10.57476,4.52201 14.44904,7.81452 l -60.57692,0.0494 z"
     id="path34"
     style="stroke-width:4.22495;fill:#ffffff;fill-opacity:1;stroke:none;stroke-opacity:1" /><path
     fill-rule="evenodd"
     clip-rule="evenodd"
     d="m 948.32164,880.15028 c 1.7618,4.82735 2.28578,10.63666 1.43171,16.76778 -3.49877,25.02791 -24.97839,34.4433 -47.90206,34.4433 -15.14629,0 -21.51672,-2.82214 -33.55619,-9.97651 l 5.38433,-32.94145 c 4.10116,5.25647 17.99733,13.64034 27.29717,13.16174 3.57304,-0.18167 10.78516,-2.64059 11.34218,-6.63449 0.56112,-3.99393 -1.15941,-6.93982 -10.12916,-9.79496 -4.20019,-1.32858 -8.18998,-2.73963 -11.72179,-4.91814 l 57.85381,-0.10731 z"
     id="path36"
     style="stroke-width:4.22495;fill:#ffffff;fill-opacity:1;stroke:none;stroke-opacity:1" /><polygon
     fill-rule="evenodd"
     clip-rule="evenodd"
     points="171.85938,7.105957 171.54199,7.105957 171.54199,5.0429688 170.74902,5.0429688 170.74902,4.762207 172.65234,4.762207 172.65234,5.0429688 171.85938,5.0429688 "
     id="polygon38"
     transform="matrix(4.2249535,0,0,4.2249535,286.4604,776.57085)"
     style="fill:#ffffff;fill-opacity:1;stroke:none;stroke-opacity:1" /><path
     fill-rule="evenodd"
     clip-rule="evenodd"
     d="m 1025.2992,806.5932 v -5.84644 c 0,-0.29068 0.03,-1.54515 0.03,-2.46936 h -0.03 l -2.7851,8.3158 h -1.3244 l -2.785,-8.3014 h -0.025 c 0,0.90981 0.025,2.16407 0.025,2.45496 v 5.84644 h -1.2955 v -9.90223 h 1.9185 l 2.8263,8.36942 h 0.025 l 2.814,-8.36942 h 1.902 v 9.90223 z"
     id="path40"
     style="stroke-width:4.22495;fill:#ffffff;fill-opacity:1;stroke:none;stroke-opacity:1" /><path
     fill-rule="evenodd"
     clip-rule="evenodd"
     d="m 606.75848,816.31799 c -31.26423,0.21252 -46.64982,22.15215 -52.72112,51.57828 l 94.39923,0.0254 c 1.04386,-13.65269 0.55081,-26.87426 -3.57511,-32.87542 -7.1956,-10.46952 -16.66875,-18.87198 -38.103,-18.72758 z m 0.60861,24.64834 c 7.3627,0 8.55925,7.99192 7.91764,14.09005 h -19.14018 c 0.58381,-5.67728 4.28271,-14.09005 11.22254,-14.09005 z"
     id="path42"
     style="stroke-width:4.22495;fill:#ffffff;fill-opacity:1;stroke:none;stroke-opacity:1" /></g></svg>
