<?xml version="1.0" encoding="utf-8"?>
<!-- Generator: Adobe Illustrator 25.2.1, SVG Export Plug-In . SVG Version: 6.00 Build 0)  -->
<svg version="1.1" id="Layer_1" xmlns="http://www.w3.org/2000/svg" xmlns:xlink="http://www.w3.org/1999/xlink" x="0px" y="0px"
	 viewBox="0 0 3839 291.4" style="enable-background:new 0 0 3839 291.4;" xml:space="preserve">
<style type="text/css">
	.st0{fill:#3852A0;}
	.st1{fill:#FFFFFF;}
	.st2{fill:#010101;}
</style>
<g>
	<g>
		<rect x="274.8" y="102.1" class="st1" width="114" height="189.3"/>
		<rect x="0" y="102.1" class="st1" width="114" height="189.3"/>
		
			<rect x="2463.9" y="64.4" transform="matrix(-1.836970e-16 1 -1 -1.836970e-16 2679.9663 -2361.8545)" class="st1" width="114" height="189.3"/>
		<path class="st1" d="M2852.3,209.2V103.1c0-0.6-0.5-1-1-1h-111.9c-0.6,0-1,0.5-1,1v99.2c0,49.2,39.9,89.1,89.1,89.1h318.6
			c45.5,0,82.5-35.7,83.1-80.1c0-0.6-0.5-1.1-1.1-1.1l-374.8,0C2852.7,210.3,2852.3,209.8,2852.3,209.2z"/>
		<rect x="3320.6" y="102.1" class="st1" width="114" height="189.3"/>
		<rect x="549.6" y="102.1" class="st1" width="114" height="189.3"/>
		<path class="st1" d="M3725,102.1v77c0,17.2-14,31.2-31.2,31.2h-238.4v81.1h294.4c49.2,0,89.1-39.9,89.1-89.1V102.1H3725z"/>
		<rect x="736.3" y="0" class="st1" width="433.7" height="81.1"/>
		<path class="st1" d="M1650.7,113c49.3,0,89.2,39.9,89.2,89.2s-39.9,89.2-89.2,89.2"/>
		<path class="st1" d="M1356.7,81.1L1356.7,81.1h365.6V0h-390.5c-46.5,0-84.7,35.7-88.7,81.1H1356.7z"/>
		<g>
			<rect x="1812.6" y="102.1" class="st1" width="114" height="189.3"/>
			<polygon class="st1" points="2189.5,102.1 2189.5,159.2 1964.4,159.2 1964.4,227.3 2189.5,227.3 2189.5,291.4 2303.5,291.4 
				2303.5,102.1 			"/>
			<path class="st1" d="M2214.8,0h-175.4h-26h-112.1c-46.5,0-84.7,35.7-88.7,81.1h113.6h87.2h26h150.5h113.6
				C2299.5,35.7,2261.3,0,2214.8,0z"/>
		</g>
		<path class="st1" d="M3140.5,0h-175.4h-26H2827c-46.5,0-84.7,35.7-88.7,81.1h113.6h87.2h26h150.5h113.6
			C3225.1,35.7,3187,0,3140.5,0z"/>
		<path class="st1" d="M3750.3,0h-429.8l0.2,81.1h404.7H3839C3835,35.7,3796.8,0,3750.3,0z"/>
		<path class="st1" d="M550,81.1L550,81.1H0L0,0l574.9,0c46.5,0,84.7,35.7,88.7,81.1H550z"/>
		<path class="st1" d="M1650.9,113.2l-193.1-0.3v68h157.3c18.3,0,18.3,29.2,0,29.2h-227.2c-17.2,0-31.2-14-31.2-31.2v-77h-114v100.2
			c0,49.2,39.9,89.1,89.1,89.1h24.9h294.1c49.2,0,89.1-39.9,89.1-89.1v0C1739.9,153.2,1700.1,113.3,1650.9,113.2z"/>
		<path class="st1" d="M850.3,191.9V181h293.6v-68H868.7c-7.5,0-13.9-4.5-16.8-10.9H736.3v100.2c0,49.2,39.9,89.1,89.1,89.1H1170
			v-81.1H868.7C858.5,210.3,850.3,202,850.3,191.9z"/>
	</g>
</g>
</svg>
