<?xml version="1.0" encoding="utf-8"?>
<svg version="1.1" id="Layer_1" x="0px" y="0px" width="416" height="48" viewBox="0 0 416 48" enable-background="new 0 0 440 100" xmlns="http://www.w3.org/2000/svg">
  <path d="M 251.002 2.711 C 248.902 1.52 246.898 0.922 244.99 0.922 L 193.046 0.922 L 192.545 0.922 L 113.841 0.922 C 111.455 0.922 109.667 1.637 108.475 3.068 C 107.282 4.404 106.686 6.073 106.686 8.076 L 106.686 39.702 C 106.686 42.47 107.377 44.352 108.761 45.354 C 110.192 46.356 111.48 46.857 112.625 46.857 L 178.236 46.857 C 182.194 46.857 184.174 44.878 184.174 40.919 L 184.174 19.454 L 135.878 19.454 L 135.878 28.397 L 170.508 28.397 L 170.508 37.34 L 120.996 37.34 L 120.996 10.51 L 192.545 10.51 L 193.046 10.51 L 238.48 10.51 C 238.765 10.606 239.052 10.701 239.337 10.796 C 239.956 10.987 240.269 11.274 240.269 11.655 L 240.269 19.454 L 199.7 19.454 L 199.7 28.397 L 240.269 28.397 L 240.269 46.857 L 253.935 46.857 L 253.935 8.077 C 253.936 5.741 252.957 3.952 251.002 2.711 L 251.002 2.711 Z" id="path6" style="fill-opacity: 1; fill: rgb(255, 255, 255);"/>
  <path d="M 286.704 28.397 L 321.334 28.397 L 321.334 37.34 L 271.821 37.34 L 271.821 10.51 L 343.872 10.51 L 343.872 10.439 L 411.914 10.439 L 411.914 0.922 L 343.872 0.922 L 343.37 0.922 L 264.667 0.922 C 262.281 0.922 260.492 1.637 259.301 3.068 C 258.108 4.404 257.512 6.073 257.512 8.076 L 257.512 39.702 C 257.512 42.47 258.202 44.352 259.587 45.354 C 261.018 46.356 262.306 46.857 263.45 46.857 L 329.06 46.857 C 333.019 46.857 334.999 44.878 334.999 40.919 L 334.999 19.454 L 286.704 19.454 L 286.704 28.397 Z" id="path8" style="fill-opacity: 1; fill: rgb(255, 255, 255);"/>
  <polygon points="343.37 18.81 343.37 46.857 414.347 46.857 414.347 36.697 357.68 36.697 357.68 28.397 398.82 28.397 398.82 18.81" id="polygon10" style="fill-opacity: 1; fill: rgb(255, 255, 255);"/>
  <path d="M 58.32 35.552 L 58.32 0.922 L 72.63 0.922 L 72.63 41.49 C 72.63 42.635 72.224 43.732 71.413 44.781 C 70.698 45.687 69.911 46.381 69.052 46.856 C 66.571 47.667 64.187 47.857 61.897 47.428 C 59.511 47.094 57.318 46.308 55.314 45.068 C 53.454 43.684 51.569 42.301 49.662 40.918 C 47.753 39.535 45.738 38.02 43.616 36.375 C 41.493 34.729 39.24 32.953 36.855 31.044 C 32.037 27.276 27.458 23.699 23.118 20.312 C 18.729 16.974 16.153 14.685 15.39 13.443 L 15.39 46.857 L 1.653 46.857 L 1.653 6.933 C 1.653 5.359 2.344 3.953 3.728 2.711 C 5.206 1.52 6.708 0.732 8.236 0.35 C 8.808 0.35 9.464 0.374 10.204 0.421 C 10.943 0.469 11.766 0.541 12.672 0.636 C 14.436 0.875 15.939 1.376 17.18 2.138 L 58.32 35.552 Z" id="path2" style="fill-opacity: 1; fill: rgb(255, 255, 255);"/>
  <path d="M 82.006 20.885 C 82.435 20.122 83.031 19.454 83.795 18.882 C 84.558 18.309 85.452 17.857 86.478 17.523 C 87.503 17.19 88.589 17.022 89.734 17.022 C 90.879 17.022 91.952 17.189 92.954 17.523 C 93.955 17.857 94.838 18.31 95.601 18.882 C 96.364 19.454 96.96 20.123 97.39 20.885 C 97.819 21.648 98.034 22.459 98.034 23.317 C 98.034 24.176 97.82 24.987 97.39 25.751 C 96.96 26.515 96.364 27.171 95.601 27.718 C 94.838 28.267 93.955 28.708 92.954 29.042 C 91.952 29.376 90.879 29.542 89.734 29.542 C 88.589 29.542 87.504 29.376 86.478 29.042 C 85.452 28.708 84.558 28.267 83.795 27.718 C 83.032 27.171 82.436 26.515 82.006 25.751 C 81.576 24.987 81.362 24.177 81.362 23.317 C 81.362 22.459 81.577 21.648 82.006 20.885 Z" id="path4" style="fill-opacity: 1; fill: rgb(255, 255, 255);"/>
</svg>