<?xml version="1.0" encoding="UTF-8" standalone="no"?>
<!-- Generator: Adobe Illustrator 26.0.3, SVG Export Plug-In . SVG Version: 6.00 Build 0)  -->

<svg
   version="1.1"
   id="Layer_1"
   x="0px"
   y="0px"
   viewBox="0 0 5020.0001 624.7"
   xml:space="preserve"
   width="5020"
   height="624.70001"
   sodipodi:docname="pcarcade.svg"
   inkscape:version="1.2.2 (732a01da63, 2022-12-09)"
   xmlns:inkscape="http://www.inkscape.org/namespaces/inkscape"
   xmlns:sodipodi="http://sodipodi.sourceforge.net/DTD/sodipodi-0.dtd"
   xmlns:xlink="http://www.w3.org/1999/xlink"
   xmlns="http://www.w3.org/2000/svg"
   xmlns:svg="http://www.w3.org/2000/svg"><sodipodi:namedview
   id="namedview84"
   pagecolor="#ffffff"
   bordercolor="#111111"
   borderopacity="1"
   inkscape:showpageshadow="0"
   inkscape:pageopacity="0"
   inkscape:pagecheckerboard="1"
   inkscape:deskcolor="#d1d1d1"
   showgrid="false"
   inkscape:zoom="0.2436255"
   inkscape:cx="2852.7391"
   inkscape:cy="311.95421"
   inkscape:window-width="1920"
   inkscape:window-height="1009"
   inkscape:window-x="-8"
   inkscape:window-y="-8"
   inkscape:window-maximized="1"
   inkscape:current-layer="g2605" /><defs
   id="defs148"><linearGradient
   id="linearGradient34773"
   gradientUnits="userSpaceOnUse"
   x1="15.196"
   y1="312.37051"
   x2="3854.196"
   y2="312.37051"
   gradientTransform="translate(1160.9631,-2.2896484e-5)">
				<stop
   offset="0"
   style="stop-color:#f3dd42;stop-opacity:1"
   id="stop34769" />
				<stop
   offset="1"
   style="stop-color:#d7861b;stop-opacity:1"
   id="stop34771" />
			</linearGradient>
	
	

		
	
			<linearGradient
   id="SVGID_1_"
   gradientUnits="userSpaceOnUse"
   x1="15.196"
   y1="312.37051"
   x2="3854.196"
   y2="312.37051"
   gradientTransform="translate(1160.9631,-2.2896484e-5)">
				<stop
   offset="0"
   style="stop-color:#FF2422"
   id="stop4" />
				<stop
   offset="1"
   style="stop-color:#C24FFF"
   id="stop6" />
			</linearGradient>
			
		<linearGradient
   xlink:href="#linearGradient34773"
   id="linearGradient6574"
   gradientUnits="userSpaceOnUse"
   gradientTransform="translate(1160.9631,-7.145e-5)"
   x1="15.196"
   y1="312.37051"
   x2="3588.2239"
   y2="316.50259" /></defs>
<style
   type="text/css"
   id="style2">
	.st0{fill:#FFFFFF;}
	.st1{fill:#FF0000;}
	.st2{fill:url(#SVGID_1_);}
	.st3{fill:url(#SVGID_00000060022068257817767130000001067164073883981741_);}
	.st4{fill:url(#SVGID_00000144308182761068376180000004131709304805192586_);}
	.st5{fill:url(#SVGID_00000000935997520668853970000011105419993307822477_);}
	.st6{fill:url(#SVGID_00000018200174457167754170000000853354448091225986_);}
	.st7{fill:url(#SVGID_00000072987630451721579260000010409738167651109522_);}
	.st8{fill:#3636FF;}
	.st9{display:none;}
	.st10{display:inline;}
	.st11{enable-background:new    ;}
	.st12{fill:url(#SVGID_00000099639162208554751810000013272208193612295339_);}
	.st13{fill:url(#SVGID_00000158736166008707814920000018426778185460247990_);}
	.st14{fill:url(#SVGID_00000133527000259551881150000004185836194023049859_);}
	.st15{fill:url(#SVGID_00000093164219829473752460000004603917870326250679_);}
	.st16{fill:url(#SVGID_00000156556395246081825560000005894267688922753411_);}
	.st17{fill:url(#SVGID_00000135690321830567168220000000437954853257014148_);}
	.st18{fill:url(#SVGID_00000040565659643257570880000002075315462357006765_);}
	.st19{fill:url(#SVGID_00000017508175736194757820000008863537906517323707_);}
	.st20{fill:url(#SVGID_00000126293465477839731700000000626789561221784705_);}
	.st21{fill:url(#SVGID_00000087403315896914670680000008996143154280075168_);}
	.st22{fill:url(#SVGID_00000151540686432933406660000011628697137491540393_);}
	.st23{fill:url(#SVGID_00000143589059756432772880000012524823099024141722_);}
	.st24{fill:url(#SVGID_00000052088033699595628130000015515451372212444082_);}
	.st25{fill:url(#SVGID_00000126294377186336552610000001799937443100725399_);}
	.st26{fill:url(#SVGID_00000070835762807858034660000013936331226864194476_);}
	.st27{fill:url(#SVGID_00000092457199491666826160000016742156659903073436_);}
	.st28{fill:url(#SVGID_00000138556585880754416440000017272986633013561527_);}
	.st29{fill:url(#SVGID_00000032624778419303139080000015394367773870234245_);}
	.st30{fill:url(#SVGID_00000040539262103052545880000003837399106474199717_);}
	.st31{fill:url(#SVGID_00000115483974547727894610000006699104590764616355_);}
	.st32{fill:url(#SVGID_00000041285316495664937430000010139118778734034608_);}
	.st33{fill:url(#SVGID_00000178199001922562380240000009661348160359078294_);}
	.st34{fill:url(#SVGID_00000145019290134935790460000010249637267404127883_);}
	.st35{fill:url(#SVGID_00000117636406951782473700000003654222835714608307_);}
	.st36{fill:url(#SVGID_00000158745280490234840560000003483236744759648947_);}
	.st37{fill:url(#SVGID_00000146474604070782972690000015670225624893543309_);}
	.st38{fill:url(#SVGID_00000173847499186819278890000011550608873747634579_);}
	.st39{fill:url(#SVGID_00000141427567100195222880000010417319602782459071_);}
</style>

<g
   id="g2605"><path
     class="st2"
     d="m 1559.3624,35.824147 -403.707,552.788523 h 212.6563 l 50.9134,-73.71766 h 204.3543 l 10.0026,73.71766 h 207.655 L 1752.9136,35.824147 Z m -53.4142,348.936533 90.924,-133.33118 15.8043,133.33118 z M 2239.9427,39.773308 H 2012.2823 L 1855.4408,588.61267 h 195.2517 l 45.0119,-156.83818 h 48.4129 l 65.0172,156.83818 h 210.1557 L 2338.3688,405.9169 c 115.1305,-33.75592 162.643,-107.37956 162.643,-192.85067 0,-43.15868 -13.3034,-83.87264 -45.9121,-114.431627 -39.1104,-36.85883 -107.5285,-58.861295 -215.157,-58.861295 z M 2203.333,300.88803 h -70.9188 l 30.9082,-107.37955 h 69.2183 c 27.5073,0 46.7124,5.45361 57.5153,15.70261 8.3022,7.8043 12.5032,18.05331 12.5032,29.05454 0,34.41411 -34.209,62.6224 -99.2262,62.6224 z M 3061.3604,480.4808 2926.2245,380.15332 c -31.7083,36.85883 -68.418,57.26283 -113.43,57.26283 -51.7137,0 -91.7243,-33.75592 -91.7243,-94.12165 0,-75.31613 56.715,-150.53824 144.3382,-150.53824 44.2118,0 78.4209,21.90843 90.9241,66.66559 l 174.3462,-71.36697 C 3106.4723,90.736282 3017.1486,28.019854 2891.2153,28.019854 c -251.8668,0 -374.4993,181.943466 -374.4993,331.635446 0,147.43532 113.4301,240.71082 276.9735,240.71082 124.2329,0 209.3554,-47.76603 267.6709,-119.88532 z M 3422.5561,35.824147 3018.8491,588.61267 h 212.6563 l 50.9136,-73.71766 h 204.3541 l 10.0027,73.71766 h 207.655 L 3616.1074,35.824147 Z m -53.4142,348.936533 90.9242,-133.33118 15.8041,133.33118 z M 4310.8915,110.38805 C 4266.6798,68.827844 4195.761,39.867336 4082.3309,39.867336 H 3875.4761 L 3718.6345,588.7067 h 253.5672 c 135.1359,0 236.0626,-35.26036 306.0812,-101.17382 62.5165,-58.76728 95.9253,-134.08341 95.9253,-216.45161 0.1001,-66.66558 -20.0052,-119.97925 -63.3167,-160.69322 z m -176.8469,273.62041 c -30.0079,28.20829 -80.9214,44.66312 -140.1371,44.66312 h -34.2091 l 65.0173,-228.95727 h 32.5086 c 46.7124,0 75.9201,10.15498 94.2249,27.45607 15.004,14.10414 24.2064,33.75591 24.2064,63.46864 0.1,33.75592 -17.4046,70.61475 -41.611,93.36944 z M 4952.2614,190.31154 4995.6729,39.773308 H 4497.741 L 4340.8994,588.61267 h 502.1331 l 42.5113,-150.53833 h -310.2822 l 17.5046,-59.61351 h 285.2756 l 37.5099,-132.48493 h -285.1755 l 15.8042,-55.66436 z"
     id="path9-5"
     style="fill:none;fill-opacity:1;stroke:#ffffff;stroke-width:25.7969;stroke-dasharray:none;stroke-opacity:1" /><g
     id="g141"
     transform="translate(1158.9631,-2.2896484e-5)"
     style="fill:none;fill-opacity:1;stroke:none">
		<g
   id="g34"
   style="fill:none;fill-opacity:1;stroke:none">
			
				<linearGradient
   id="SVGID_00000128444796063564815230000007252927678799283094_"
   gradientUnits="userSpaceOnUse"
   x1="357.92542"
   y1="604.23328"
   x2="357.92542"
   y2="16.339899">
				<stop
   offset="0"
   style="stop-color:#FF0000"
   id="stop15" />
				<stop
   offset="0.2634"
   style="stop-color:#E42372"
   id="stop17" />
				<stop
   offset="0.3192"
   style="stop-color:#FFA1FF"
   id="stop19" />
				<stop
   offset="0.4267"
   style="stop-color:#DA2F9A"
   id="stop21" />
				<stop
   offset="0.7554"
   style="stop-color:#CC41D4"
   id="stop23" />
				<stop
   offset="0.7881"
   style="stop-color:#FFA1FF"
   id="stop25" />
				<stop
   offset="0.8413"
   style="stop-color:#C846E3"
   id="stop27" />
				<stop
   offset="1"
   style="stop-color:#C24FFF"
   id="stop29" />
			</linearGradient>
			<path
   style="fill:none;fill-opacity:1;stroke:none"
   d="m 598.5,32.3 83.6,555.9 h -175 l -8.2,-64.4 -1.8,-14 H 483 278.7 270 l -4.7,7.3 -46.1,71.1 H 45.6 L 427.2,32.3 H 598.5 M 336.2,403.4 h 29.3 106.7 17.9 l -2,-17.8 -15.8,-141.8 -5,-44.8 -24.4,38 -90.9,141.8 -15.8,24.6 M 612.3,16.3 H 418.8 L 15.2,604.2 h 212.6 l 50.9,-78.4 H 483 l 10,78.4 h 207.6 z m -246.9,371.1 90.9,-141.8 15.8,141.8 z"
   id="path32" />
		</g>
		<g
   id="g55"
   style="fill:none;fill-opacity:1;stroke:none">
			
				<linearGradient
   id="SVGID_00000135673619673579814740000002913345356260872074_"
   gradientUnits="userSpaceOnUse"
   x1="1037.5408"
   y1="604.23328"
   x2="1037.5408"
   y2="20.5096">
				<stop
   offset="0"
   style="stop-color:#FF0000"
   id="stop36" />
				<stop
   offset="0.2634"
   style="stop-color:#E42372"
   id="stop38" />
				<stop
   offset="0.3192"
   style="stop-color:#FFA1FF"
   id="stop40" />
				<stop
   offset="0.4267"
   style="stop-color:#DA2F9A"
   id="stop42" />
				<stop
   offset="0.7554"
   style="stop-color:#CC41D4"
   id="stop44" />
				<stop
   offset="0.7881"
   style="stop-color:#FFA1FF"
   id="stop46" />
				<stop
   offset="0.8413"
   style="stop-color:#C846E3"
   id="stop48" />
				<stop
   offset="1"
   style="stop-color:#C24FFF"
   id="stop50" />
			</linearGradient>
			<path
   style="fill:none;fill-opacity:1;stroke:none"
   d="m 1099.2,36.5 c 96.9,0 165.4,19.5 203.8,57.9 13.9,13.9 24.5,30.7 31.4,50 6.5,18.1 9.8,38.5 9.8,60.5 0,44.1 -11.8,82.3 -35,113.7 -25.5,34.4 -64.7,60.1 -116.4,76.2 l -16.8,5.2 6.7,16.2 71.7,172.1 h -175.2 l -61.1,-156.6 -4,-10.2 H 1003.2 955 942.7 l -3.2,11.8 -41.8,154.9 h -162 L 883.9,36.5 h 215.3 M 970.8,314.2 h 20.9 70.9 c 34.1,0 63,-7.8 83.4,-22.6 20.5,-14.9 31.8,-36.2 31.8,-60.1 0,-16.1 -6.1,-31.1 -17.2,-42.2 -14.2,-14.2 -37.3,-21.4 -68.9,-21.4 h -69.2 -12.3 l -3.2,11.8 -30.8,114.3 -5.4,20.2 M 1099.2,20.5 H 871.6 L 714.8,604.2 H 910 l 45,-166.8 h 48.4 l 65,166.8 h 210.1 l -80.9,-194.3 c 115.1,-35.9 162.6,-114.2 162.6,-205.1 0,-45.9 -13.3,-89.2 -45.9,-121.7 C 1275.2,43.9 1206.8,20.5 1099.2,20.5 Z M 991.7,298.2 1022.6,184 h 69.2 c 27.5,0 46.7,5.8 57.5,16.7 8.3,8.3 12.5,19.2 12.5,30.9 0,36.7 -34.2,66.7 -99.2,66.7 h -70.9 z"
   id="path53" />
		</g>
		<g
   id="g76"
   style="fill:none;fill-opacity:1;stroke:none">
			
				<linearGradient
   id="SVGID_00000093171400342485411010000004786870807831186310_"
   gradientUnits="userSpaceOnUse"
   x1="1682.7727"
   y1="616.74109"
   x2="1682.7727"
   y2="8.0001001">
				<stop
   offset="0"
   style="stop-color:#FF0000"
   id="stop57" />
				<stop
   offset="0.2634"
   style="stop-color:#E42372"
   id="stop59" />
				<stop
   offset="0.3192"
   style="stop-color:#FFA1FF"
   id="stop61" />
				<stop
   offset="0.4267"
   style="stop-color:#DA2F9A"
   id="stop63" />
				<stop
   offset="0.7554"
   style="stop-color:#CC41D4"
   id="stop65" />
				<stop
   offset="0.7881"
   style="stop-color:#FFA1FF"
   id="stop67" />
				<stop
   offset="0.8413"
   style="stop-color:#C846E3"
   id="stop69" />
				<stop
   offset="1"
   style="stop-color:#C24FFF"
   id="stop71" />
			</linearGradient>
			<path
   style="fill:none;fill-opacity:1;stroke:none"
   d="m 1750.3,24 c 57.9,0 109.2,15 148.5,43.3 34.7,25 59.3,60 71.9,101.7 L 1825,232.4 c -7.6,-18.4 -18.8,-33.3 -33.5,-44.4 -18.1,-13.6 -41.2,-20.8 -67,-20.8 -45.5,0 -87.1,19.8 -117.2,55.8 -27.3,32.7 -43,76.5 -43,120.3 0,34.9 10.7,64.3 31,85.2 19.3,19.9 46.5,30.8 76.7,30.8 24.7,0 48,-6 69.4,-17.7 16.4,-9 31.6,-21.2 46.1,-37.1 l 110.4,87.3 c -27.1,32.4 -58.6,57.9 -93.8,75.7 -43.7,22.1 -94.6,33.3 -151.3,33.3 -38.6,0 -74.6,-5.7 -106.9,-17.1 -31.6,-11 -59.2,-27.2 -82,-48 -47,-42.8 -71.9,-103.3 -71.9,-175 0,-38.4 7.6,-78.7 22,-116.6 15.4,-40.6 37.8,-77.1 66.6,-108.7 C 1526.8,84.6 1611.1,24 1750.3,24 m 0,-16 c -251.8,0 -374.4,193.5 -374.4,352.7 0,156.8 113.4,256 276.9,256 124.2,0 209.3,-50.9 267.7,-127.6 L 1785.4,382.4 c -31.7,39.2 -68.4,60.9 -113.4,60.9 -51.7,0 -91.7,-35.9 -91.7,-100.1 0,-80.1 56.7,-160.1 144.3,-160.1 44.2,0 78.4,23.3 90.9,70.9 l 174.3,-75.9 C 1965.5,74.7 1876.2,8 1750.3,8 Z"
   id="path74" />
		</g>
		<g
   id="g97"
   style="fill:none;fill-opacity:1;stroke:none">
			
				<linearGradient
   id="SVGID_00000145054330599880703690000004533480753458681732_"
   gradientUnits="userSpaceOnUse"
   x1="2220.6216"
   y1="604.23328"
   x2="2220.6216"
   y2="16.339899">
				<stop
   offset="0"
   style="stop-color:#FF0000"
   id="stop78" />
				<stop
   offset="0.2634"
   style="stop-color:#E42372"
   id="stop80" />
				<stop
   offset="0.3192"
   style="stop-color:#FFA1FF"
   id="stop82" />
				<stop
   offset="0.4267"
   style="stop-color:#DA2F9A"
   id="stop84" />
				<stop
   offset="0.7554"
   style="stop-color:#CC41D4"
   id="stop86" />
				<stop
   offset="0.7881"
   style="stop-color:#FFA1FF"
   id="stop88" />
				<stop
   offset="0.8413"
   style="stop-color:#C846E3"
   id="stop90" />
				<stop
   offset="1"
   style="stop-color:#C24FFF"
   id="stop92" />
			</linearGradient>
			<path
   style="fill:none;fill-opacity:1;stroke:none"
   d="m 2461.2,32.3 83.6,555.9 h -175 l -8.2,-64.4 -1.8,-14 h -14.1 -204.3 -8.7 l -4.7,7.3 -46.1,71.1 H 1908.3 L 2289.9,32.3 h 171.3 m -262.3,371.1 h 29.3 106.7 17.9 l -2,-17.8 -15.8,-141.8 -5,-44.8 -24.4,38 -90.9,141.8 -15.8,24.6 M 2475,16.3 h -193.5 l -403.6,587.9 h 212.6 l 50.9,-78.4 h 204.3 l 10,78.4 h 207.6 z m -246.9,371.1 90.9,-141.8 15.8,141.8 z"
   id="path95" />
		</g>
		<g
   id="g118"
   style="fill:none;fill-opacity:1;stroke:none">
			
				<linearGradient
   id="SVGID_00000106148091704042031110000017185161894946614463_"
   gradientUnits="userSpaceOnUse"
   x1="2905.2402"
   y1="604.23328"
   x2="2905.2402"
   y2="20.5096">
				<stop
   offset="0"
   style="stop-color:#FF0000"
   id="stop99" />
				<stop
   offset="0.2634"
   style="stop-color:#E42372"
   id="stop101" />
				<stop
   offset="0.3192"
   style="stop-color:#FFA1FF"
   id="stop103" />
				<stop
   offset="0.4267"
   style="stop-color:#DA2F9A"
   id="stop105" />
				<stop
   offset="0.7554"
   style="stop-color:#CC41D4"
   id="stop107" />
				<stop
   offset="0.7881"
   style="stop-color:#FFA1FF"
   id="stop109" />
				<stop
   offset="0.8413"
   style="stop-color:#C846E3"
   id="stop111" />
				<stop
   offset="1"
   style="stop-color:#C24FFF"
   id="stop113" />
			</linearGradient>
			<path
   style="fill:none;fill-opacity:1;stroke:none"
   d="m 2941.1,36.5 c 51.9,0 97.3,6.7 134.9,20 32.8,11.6 60.5,28.5 82.3,50.3 39.5,39.5 58.7,91.7 58.7,159.6 0,41.5 -7.8,81.3 -23.3,118.3 -15.4,37.1 -38.3,70.9 -67.9,100.5 -33.6,33.6 -74.8,59.2 -122.7,76.3 -49.5,17.6 -107.4,26.6 -172,26.6 H 2598.5 L 2746.7,36.4 h 194.4 m -143.4,413.7 h 20.8 34.2 c 63,0 118.2,-19 151.4,-52.2 28.2,-28.2 46.4,-71.6 46.4,-110.5 0,-33.6 -9.4,-59.4 -28.9,-78.9 -22.8,-22.8 -57.3,-33.9 -105.5,-33.9 h -32.5 -12.3 l -3.2,11.9 -65,243.5 -5.4,20.1 M 2941.1,20.5 H 2734.3 L 2577.5,604.2 H 2831 c 135.1,0 236,-37.5 306,-107.6 62.5,-62.5 95.9,-142.6 95.9,-230.2 0,-70.9 -20,-127.6 -63.4,-170.9 -44.1,-44.1 -115,-75 -228.4,-75 z m -122.6,413.6 65,-243.5 h 32.5 c 46.7,0 75.9,10.8 94.2,29.2 15,15 24.2,35.9 24.2,67.5 0,35.9 -17.5,75 -41.7,99.2 -30,30 -80.9,47.5 -140.1,47.5 h -34.1 z"
   id="path116" />
		</g>
		<g
   id="g139"
   style="fill:none;fill-opacity:1;stroke:none">
			
				<linearGradient
   id="SVGID_00000021080724737336074490000000910687952145319586_"
   gradientUnits="userSpaceOnUse"
   x1="3526.8933"
   y1="604.23328"
   x2="3526.8933"
   y2="20.5096">
				<stop
   offset="0"
   style="stop-color:#FF0000"
   id="stop120" />
				<stop
   offset="0.2634"
   style="stop-color:#E42372"
   id="stop122" />
				<stop
   offset="0.3192"
   style="stop-color:#FFA1FF"
   id="stop124" />
				<stop
   offset="0.4267"
   style="stop-color:#DA2F9A"
   id="stop126" />
				<stop
   offset="0.7554"
   style="stop-color:#CC41D4"
   id="stop128" />
				<stop
   offset="0.7881"
   style="stop-color:#FFA1FF"
   id="stop130" />
				<stop
   offset="0.8413"
   style="stop-color:#C846E3"
   id="stop132" />
				<stop
   offset="1"
   style="stop-color:#C24FFF"
   id="stop134" />
			</linearGradient>
			<path
   style="fill:none;fill-opacity:1;stroke:none"
   d="m 3833.3,36.5 -34.7,128.1 h -293.8 -12.3 l -3.2,11.9 -15.8,59.2 -5.4,20.1 h 20.8 264.4 l -29,108.9 h -272.9 -12.2 l -3.2,11.7 -17.5,63.4 -5.6,20.3 h 21 289.4 l -34,128.1 H 3220.5 L 3368.7,36.5 h 464.6 m 20.9,-16 h -497.8 l -156.8,583.7 h 502 l 42.5,-160.1 h -310.2 l 17.5,-63.4 h 285.2 l 37.5,-140.9 H 3489 l 15.8,-59.2 h 306 z"
   id="path137" />
		</g>
	</g><g
     aria-label="PC"
     id="text2067"
     style="font-size:833.836px;line-height:1.25;font-family:Digitalt;-inkscape-font-specification:Digitalt;text-align:center;letter-spacing:0px;word-spacing:0px;text-anchor:middle;fill:#ffffff;fill-opacity:1;stroke-width:4.34289"
     transform="translate(-14.479633,-2.2896484e-5)"><path
       d="m 327.50356,306.51318 q 55.86702,0 81.71593,-21.67974 26.68275,-22.51357 26.68275,-55.86701 0,-20.01207 -14.17521,-34.18728 -10.00603,-10.00603 -25.84891,-14.17521 -15.84289,-4.16918 -32.51961,-4.16918 H 326.66973 L 292.48245,306.51318 Z M 174.07774,20.507428 H 370.0292 q 80.88209,0 132.57992,15.842884 51.69784,15.842884 84.21744,48.362488 23.34741,23.34741 34.18728,53.3655 11.6737,29.18426 11.6737,64.20538 0,55.03317 -20.01206,100.06032 -20.01207,44.1933 -58.36852,76.71291 -37.52262,31.68577 -92.5558,49.19632 -55.03318,17.51056 -124.24156,17.51056 H 254.95983 L 212.4342,604.19263 H 17.316573 Z"
       style="font-family:'Gotham Ultra';-inkscape-font-specification:'Gotham Ultra';fill:#ffffff;fill-opacity:1"
       id="path8135" /><path
       d="m 907.01877,616.70017 q -61.70387,0 -112.56786,-17.51056 -50.864,-18.34439 -87.55278,-51.69783 -35.85495,-33.35344 -56.70085,-80.04826 -20.01206,-47.52865 -20.01206,-106.731 0,-60.0362 22.51357,-122.5739 23.34741,-62.5377 70.04222,-113.40169 46.69482,-51.697834 116.73704,-84.217438 70.87606,-32.519604 165.09955,-32.519604 47.5286,0 86.7189,12.50754 40.0242,11.673704 70.8761,34.187276 30.8519,21.679736 51.6978,53.365506 20.8459,31.68577 30.0181,70.04222 l -174.2717,75.87908 q -9.1722,-35.85495 -33.3535,-53.36551 -24.1812,-17.51055 -57.53464,-17.51055 -32.5196,0 -59.20235,14.17521 -26.68276,13.34138 -45.86098,35.85495 -18.3444,22.51357 -29.18426,51.69783 -10.00604,28.35042 -10.00604,58.36852 0,48.36249 25.84892,74.2114 26.68275,25.84892 65.87304,25.84892 34.18728,0 61.70387,-15.84288 27.51654,-15.84289 51.69784,-45.02715 l 135.0814,106.73101 q -44.1933,57.53468 -109.2325,92.55579 -65.0392,35.02112 -158.42883,35.02112 z"
       style="font-family:'Gotham Ultra';-inkscape-font-specification:'Gotham Ultra';fill:#ffffff;fill-opacity:1"
       id="path8137" /></g></g></svg>
