<?xml version="1.0" encoding="UTF-8" standalone="no"?>
<!-- Generator: Adobe Illustrator 25.1.0, SVG Export Plug-In . SVG Version: 6.00 Build 0)  -->

<svg
   version="1.1"
   id="Layer_1"
   x="0px"
   y="0px"
   viewBox="0 0 3840 1547.4"
   style="enable-background:new 0 0 3840 1547.4;"
   xml:space="preserve"
   sodipodi:docname="logo (2).svg"
   inkscape:version="1.2.2 (732a01da63, 2022-12-09)"
   xmlns:inkscape="http://www.inkscape.org/namespaces/inkscape"
   xmlns:sodipodi="http://sodipodi.sourceforge.net/DTD/sodipodi-0.dtd"
   xmlns="http://www.w3.org/2000/svg"
   xmlns:svg="http://www.w3.org/2000/svg"><defs
   id="defs779" /><sodipodi:namedview
   id="namedview777"
   pagecolor="#ffffff"
   bordercolor="#111111"
   borderopacity="1"
   inkscape:showpageshadow="0"
   inkscape:pageopacity="0"
   inkscape:pagecheckerboard="1"
   inkscape:deskcolor="#d1d1d1"
   showgrid="false"
   inkscape:zoom="0.31510417"
   inkscape:cx="1685.157"
   inkscape:cy="774.34711"
   inkscape:window-width="1920"
   inkscape:window-height="1009"
   inkscape:window-x="-8"
   inkscape:window-y="-8"
   inkscape:window-maximized="1"
   inkscape:current-layer="Layer_1" />
<style
   type="text/css"
   id="style740">
	.st0{fill:#2A4E78;}
</style>
<g
   id="g774"
   style="fill:#ffffff;fill-opacity:1">
	<g
   id="g772"
   style="fill:#ffffff;fill-opacity:1">
		<g
   id="g752"
   style="fill:#ffffff;fill-opacity:1">
			<path
   class="st0"
   d="M817.2,720.7c39.3,0,74.2,15.2,104.6,45.6c30.4,30.4,45.6,62.4,45.6,95.9c0,79.1-44.1,137.8-132.4,176     c-88.3,38.3-184.3,57.4-288,57.4c-148.8,0-277.2-54-385.1-161.9C54,825.7,0,697.4,0,548.6c0-149.3,54.5-277.8,163.5-385.5     C272.5,55.4,400.3,1.6,547,1.6c107.4,0,204.3,18.9,290.8,56.6S967.4,154.8,967.4,235c0,29.9-14.4,60.6-43.3,92.3     c-28.9,31.7-64.5,47.5-107,47.5c-26.8,0-59.8-8.9-99.2-26.7c-57.7-26.2-114.9-39.3-171.5-39.3c-65,0-122.4,24.1-171.9,72.3     c-49.6,48.2-74.3,104-74.3,167.4c0,62.4,24.6,117.9,74,166.6c49.3,48.7,106.7,73.1,172.3,73.1c56.1,0,113.3-13.4,171.5-40.1     C757.9,729.8,790.9,720.7,817.2,720.7z"
   id="path742"
   style="fill:#ffffff;fill-opacity:1" />
			<path
   class="st0"
   d="M1164.6,928.1l-34.1,67.6c-32,62.4-78.1,93.5-138.4,93.5c-42.4,0-78.6-16-108.5-47.9     c-29.9-31.9-44.8-67.3-44.8-106.1c0-20.9,3.1-38.2,9.4-51.9l356.8-766c15.2-33.1,36.6-59.1,64.1-78     c27.5-18.9,56.4-28.4,86.8-28.4c30.9,0,60.2,9.6,87.7,28.6c27.5,19.1,48.9,44.9,64.1,77.3l353.5,766.4     c6.8,15.2,10.2,32.5,10.2,51.9c0,39.3-14.7,74.8-44.1,106.5c-29.4,31.7-65.3,47.5-107.7,47.5c-59.8,0-105.9-31.2-138.4-93.5     l-35.9-67.6H1164.6z M1425.9,638.9l-70.4-153.2l-70.2,153.2H1425.9z"
   id="path744"
   style="fill:#ffffff;fill-opacity:1" />
			<path
   class="st0"
   d="M2104.3,323c0,12.1,4,20,12.2,24c8.1,3.9,30.5,8.9,67.2,14.9c36.7,6,71.7,15.6,105.3,28.7     c33.5,13.1,68.2,37.3,104.1,72.7c35.9,35.4,62.7,76.1,80.5,122.2c17.8,46.1,26.7,97.2,26.7,153.2c0,89.1-36.3,170.5-108.8,244.4     C2319,1057,2235,1094,2139.6,1094c-102.2,0-188.6-26.8-259.3-80.6c-70.7-53.7-106.1-118-106.1-192.9c0-38.2,14.9-71.6,44.8-100.2     c29.9-28.5,65.7-42.8,107.7-42.8c22,0,42.6,3.9,61.7,11.8c19.1,7.9,42.6,27.1,70.4,57.8c27.8,30.7,53.2,46,76.2,46     c45,0,67.6-26.2,67.6-78.6c0-35.1-39.8-58.7-119.5-70.7c-83.3-12.1-150-47.9-200-107.7c-50-59.7-75-133.3-75-220.8     c0-82.8,30.8-155.7,92.3-218.9c61.6-63.1,142.9-94.7,244-94.7c90.6,0,157.3,14.3,200,42.8c42.7,28.6,64,73.2,64,134     c0,30.9-14.7,61.2-44,90.8c-29.4,29.6-64.2,44.4-104.5,44.4c-13.6,0-33.4-3.8-59.3-11.4c-25.9-7.6-47.8-11.4-65.6-11.4     c-6.3,0-13,3.4-20,10.2C2107.8,307.8,2104.3,315.1,2104.3,323z"
   id="path746"
   style="fill:#ffffff;fill-opacity:1" />
			<path
   class="st0"
   d="M2789,918.7c0,49.8-14.1,89.9-42.4,120.2c-28.3,30.4-64.5,45.6-108.5,45.6c-43.5,0-79.2-15.2-107.3-45.6     c-28-30.4-42-70.5-42-120.2V178.4c0-49.8,14.1-90.1,42.4-121c28.3-30.9,63.9-46.4,106.9-46.4c42.9,0,78.9,15.5,107.7,46.4     c28.8,30.9,43.2,71.3,43.2,121V918.7z"
   id="path748"
   style="fill:#ffffff;fill-opacity:1" />
			<path
   class="st0"
   d="M3292.6,0c150.8,0,279.7,54.9,386.8,164.6c107,109.8,160.6,237.7,160.6,383.9     c0,146.2-53.4,273.9-160.2,383.1s-235.8,163.9-387.2,163.9c-150.8,0-279.6-54.6-386.4-163.9S2746,694.7,2746,548.6     c0-146.2,53.4-274.1,160.2-383.9C3013,54.9,3141.8,0,3292.6,0z M3292.6,794.5c68.7,0,127.1-24.4,175.1-73.1     c48-48.7,72-106.4,72-172.9c0-63.9-24.3-121.2-72.8-171.7c-48.5-50.6-106.7-75.8-174.4-75.8c-64.5,0-121.7,25.2-171.6,75.4     c-49.8,50.3-74.8,107.7-74.8,172.1c0,66,24,123.5,72,172.5C3166.3,770.1,3224.4,794.5,3292.6,794.5z"
   id="path750"
   style="fill:#ffffff;fill-opacity:1" />
		</g>
		<g
   id="g762"
   style="fill:#ffffff;fill-opacity:1">
			<path
   class="st0"
   d="M1862.7,1484.9c0,18.8-5.3,33.9-16,45.4c-10.6,11.5-24.2,17.2-40.5,17.2s-29.9-5.7-40.7-17.2     c-10.7-11.5-16.1-26.6-16.1-45.4v-184.8c-16.6,4.6-26.3,6.8-29.1,6.8c-11.9,0-23.4-5.2-34.7-15.7c-11.3-10.5-16.9-22.6-16.9-36.5     c0-23.5,6.8-39.7,20.4-48.6l85-54.6c9.1-6.1,18.6-9.2,28.4-9.2c18,0,32.5,5.6,43.5,16.9c11.1,11.3,16.6,23.2,16.6,35.9V1484.9z"
   id="path754"
   style="fill:#ffffff;fill-opacity:1" />
			<path
   class="st0"
   d="M2038.3,1142.3c57.3,0,106.1,20.4,146.2,61.1c40.1,40.7,60.2,88,60.2,141.8c0,53.6-20.1,100.7-60.2,141.3     c-40.2,40.6-88.9,60.9-146.2,60.9c-57.3,0-106.1-20.3-146.2-60.9c-40.1-40.6-60.2-87.7-60.2-141.3c0-53.8,20-101,60.1-141.8     C1932,1162.7,1980.8,1142.3,2038.3,1142.3z M2038.3,1435.6c25.2,0,47-8.9,65.5-26.7c18.4-17.8,27.7-39,27.7-63.8     c0-25.3-9.2-46.8-27.5-64.5c-18.3-17.7-40.2-26.5-65.6-26.5c-26.8,0-49,9-66.6,27.1c-17.7,18.1-26.5,39.4-26.5,63.9     c0,24.9,9.1,46.2,27.4,63.9C1990.8,1426.8,2012.7,1435.6,2038.3,1435.6z"
   id="path756"
   style="fill:#ffffff;fill-opacity:1" />
			<path
   class="st0"
   d="M2410.6,1142.3c57.3,0,106.1,20.4,146.2,61.1c40.1,40.7,60.2,88,60.2,141.8c0,53.6-20.1,100.7-60.2,141.3     c-40.2,40.6-88.9,60.9-146.2,60.9c-57.3,0-106.1-20.3-146.2-60.9c-40.1-40.6-60.2-87.7-60.2-141.3c0-53.8,20-101,60.1-141.8     C2304.3,1162.7,2353.1,1142.3,2410.6,1142.3z M2410.6,1435.6c25.2,0,47-8.9,65.5-26.7c18.4-17.8,27.7-39,27.7-63.8     c0-25.3-9.2-46.8-27.5-64.5c-18.3-17.7-40.2-26.5-65.6-26.5c-26.8,0-49,9-66.6,27.1c-17.7,18.1-26.5,39.4-26.5,63.9     c0,24.9,9.1,46.2,27.4,63.9C2363.1,1426.8,2385,1435.6,2410.6,1435.6z"
   id="path758"
   style="fill:#ffffff;fill-opacity:1" />
			<path
   class="st0"
   d="M2782.9,1142.3c57.3,0,106.1,20.4,146.2,61.1c40.1,40.7,60.2,88,60.2,141.8c0,53.6-20.1,100.7-60.2,141.3     c-40.2,40.6-88.9,60.9-146.2,60.9c-57.3,0-106.1-20.3-146.2-60.9c-40.1-40.6-60.2-87.7-60.2-141.3c0-53.8,20-101,60.1-141.8     C2676.6,1162.7,2725.3,1142.3,2782.9,1142.3z M2782.9,1435.6c25.2,0,47-8.9,65.5-26.7c18.4-17.8,27.7-39,27.7-63.8     c0-25.3-9.2-46.8-27.5-64.5c-18.3-17.7-40.2-26.5-65.6-26.5c-26.8,0-49,9-66.6,27.1c-17.7,18.1-26.5,39.4-26.5,63.9     c0,24.9,9.1,46.2,27.4,63.9C2735.4,1426.8,2757.3,1435.6,2782.9,1435.6z"
   id="path760"
   style="fill:#ffffff;fill-opacity:1" />
		</g>
		<g
   id="g768"
   style="fill:#ffffff;fill-opacity:1">
			<path
   class="st0"
   d="M948.6,1389.7v95.2c0,18.8-5.3,33.9-16,45.4c-10.7,11.5-24.3,17.2-40.9,17.2c-16.4,0-29.9-5.7-40.5-17.2     c-10.6-11.5-15.9-26.6-15.9-45.4v-290.9c0-13.8,5.8-25.9,17.3-36.2c11.6-10.3,25.8-15.4,42.6-15.4h91.1c37.2,0,67.4,12,90.8,35.9     c23.3,23.9,35,53.5,35,88.7c0,29.5-11.2,57.3-33.7,83.5c-22.4,26.2-47.1,39.3-74,39.3H948.6z M948.6,1284.4h39.5     c4.9,0,9-1.9,12.2-5.6c3.1-3.8,4.7-7.9,4.7-12.5c0-4.5-1.6-8.7-4.7-12.6c-3.2-3.9-7.2-5.8-12.2-5.8h-39.5V1284.4z"
   id="path764"
   style="fill:#ffffff;fill-opacity:1" />
			<path
   class="st0"
   d="M1277.5,1368.3l84.3-192.3c4.4-9.5,11-17.5,19.8-24c8.9-6.4,17.7-9.7,26.3-9.7c19.7,0,35.2,5.4,46.6,16.2     c11.4,10.8,17,24.2,17,40.2c0,7.7-1.3,14.2-3.9,19.6l-134.4,289.7c-5.7,12.5-13.7,22.2-24,29.1c-10.2,6.9-21.3,10.4-33.1,10.4     c-10.8,0-21.4-3.6-31.8-10.7c-10.3-7.1-18.3-16.7-23.8-28.8l-134.6-289.7c-2.3-5.9-3.5-12.5-3.5-19.6c0-14.2,5.1-27.2,15.4-38.9     c10.3-11.7,23.2-17.5,38.6-17.5c27.5,0,46.2,11.2,56.1,33.5L1277.5,1368.3z"
   id="path766"
   style="fill:#ffffff;fill-opacity:1" />
		</g>
		<path
   class="st0"
   d="M1444.1,1352.4L1444.1,1352.4c0-30.9,25-55.9,55.9-55.9h96c30.9,0,55.9,25,55.9,55.9v0    c0,30.9-25,55.9-55.9,55.9h-96C1469.1,1408.3,1444.1,1383.3,1444.1,1352.4z"
   id="path770"
   style="fill:#ffffff;fill-opacity:1" />
	</g>
</g>
</svg>
