<?xml version="1.0" encoding="utf-8"?>
<svg version="1.1" id="Layer_1" x="0px" y="0px" viewBox="0 0 3839 475.1" style="enable-background:new 0 0 3839 475.1;" xmlns="http://www.w3.org/2000/svg">
  <style type="text/css">
	.st0{fill:#FFFFFF;}
	.st1{clip-path:url(#SVGID_00000090288803241134804010000014749374472746703755_);}
	.st2{clip-path:url(#SVGID_00000042730538821232463780000015828878657982411408_);}
	.st3{fill:none;}
	.st4{clip-path:url(#SVGID_00000104679624390806880490000011326700680215266708_);}
	.st5{clip-path:url(#SVGID_00000139983126602866370730000000274172640434125496_);}
	.st6{clip-path:url(#SVGID_00000114031621865513933410000014056368661432588697_);}
	.st7{clip-path:url(#SVGID_00000173842636238441755930000008541449195418947722_);}
	.st8{clip-path:url(#SVGID_00000044872260444833482930000005226860358484366509_);fill:#FFFFFF;}
	.st9{clip-path:url(#SVGID_00000173159474153363839480000009635086057125082813_);}
	.st10{clip-path:url(#SVGID_00000176028125368536512740000014405708467950075031_);}
	.st11{clip-path:url(#SVGID_00000096772899122533111490000017396308335372056755_);}
	.st12{clip-path:url(#SVGID_00000014593657187677319640000008605631114146435253_);fill:#FFFFFF;}
	.st13{clip-path:url(#SVGID_00000155856177043109777530000006339286028587530630_);fill:#FFFFFF;}
	.st14{clip-path:url(#SVGID_00000067944345582013492910000015493707382628055456_);}
	.st15{clip-path:url(#SVGID_00000079448126394148161160000012472858296375547310_);}
	.st16{display:none;}
	.st17{display:inline;}
	.st18{clip-path:url(#SVGID_00000145776445530493606850000004192024052171524483_);fill:#FFFFFF;}
	.st19{clip-path:url(#SVGID_00000077316715799692142520000006874186671448124845_);}
	.st20{clip-path:url(#SVGID_00000034809548330192522250000015897012730921498246_);}
	.st21{clip-path:url(#SVGID_00000089573922767395255030000005800509440811598228_);}
	.st22{clip-path:url(#SVGID_00000025444018976476694750000000325552134801330847_);}
	.st23{clip-path:url(#SVGID_00000137826110051158234850000010673470938932094091_);}
	.st24{clip-path:url(#SVGID_00000109006792938922209310000012060000018580995469_);}
	.st25{clip-path:url(#SVGID_00000144339441314185011420000013069734491639879871_);fill:#FFFFFF;}
	.st26{clip-path:url(#SVGID_00000100372953303306193340000009928480683609367171_);}
	.st27{clip-path:url(#SVGID_00000159466366932142622210000013161979170333434498_);}
	.st28{clip-path:url(#SVGID_00000127740086921176350810000000985205684049892752_);}
</style>
  <defs>
    <circle id="SVGID_00000127026289565982019850000005364352978926819487_" cx="380.2" cy="237.6" r="237.6"/>
  </defs>
  <clipPath id="SVGID_00000150820265061396769290000005966050882369408650_">
    <circle cx="380.2" cy="237.6" r="237.6" transform="matrix(1, 0, 0, 1, 0, 0)" style="overflow: visible;"/>
  </clipPath>
  <polygon class="st0" points="320.1 474.6 128.4 281.2 164.1 355.6 281.8 470" style="clip-path: url(#SVGID_00000150820265061396769290000005966050882369408650_);"/>
  <defs>
    <path id="SVGID_00000116948191691183556870000016426785880775297673_" d="M265.2,327.8c31.9-7.2,63.8-14.2,95.5-22.4 c31.9-8.4,63.1-18.5,94.1-29.9c30.8-11.3,61.4-23.3,91.8-35.5c14.4-5.8,29-11.1,43.6-16.1c8.9-3.1,17.8-6.3,26.5-9.9 c-3.6-36.8-15.7-71-34.1-101c-27.3,9.8-55.6,16.6-83.4,24.7c-31,9.1-61.9,18.4-92.7,28.6c-30.8,10.2-61.3,20.7-92.1,30.4 c-31.1,9.7-62.4,18.9-93.4,29.1c-25.9,8.5-51.6,18.3-78,25c1.9,35.3,11.6,68.6,27.2,98.1C202.4,344.3,233.5,334.9,265.2,327.8z "/>
  </defs>
  <clipPath id="SVGID_00000001644350140067927200000011561912657665558948_">
    <path d="M265.2,327.8c31.9-7.2,63.8-14.2,95.5-22.4 c31.9-8.4,63.1-18.5,94.1-29.9c30.8-11.3,61.4-23.3,91.8-35.5c14.4-5.8,29-11.1,43.6-16.1c8.9-3.1,17.8-6.3,26.5-9.9 c-3.6-36.8-15.7-71-34.1-101c-27.3,9.8-55.6,16.6-83.4,24.7c-31,9.1-61.9,18.4-92.7,28.6c-30.8,10.2-61.3,20.7-92.1,30.4 c-31.1,9.7-62.4,18.9-93.4,29.1c-25.9,8.5-51.6,18.3-78,25c1.9,35.3,11.6,68.6,27.2,98.1C202.4,344.3,233.5,334.9,265.2,327.8z " transform="matrix(1, 0, 0, 1, 0, 0)" style="overflow: visible;"/>
  </clipPath>
  <path style="clip-path:url(#SVGID_00000001644350140067927200000011561912657665558948_);fill:#FFFFFF;" d="M 124.5 451.7 C 113 451.7 101.8 451.4 90.9 450.9 C 74.4 450.1 61.3 436.4 61.9 419.8 C 62.5 403.1 76.7 390.1 93.4 391 C 187.1 395.8 314 377.2 432.9 341.6 C 549.1 306.6 640.7 260.9 678.1 219.2 C 682.5 214.3 688.9 206.3 691.7 198.2 C 693.6 192.7 690.2 186.7 684.4 185.7 C 671.9 183.6 644 183.4 583.9 197.8 C 520.1 213.1 440.7 239.5 364 265.1 C 284.5 291.6 209.4 316.6 149.3 330.5 C 88.8 344.3 24.6 352.4 5.8 306.9 C -1.7 289 -5.7 260.7 17.3 227.6 C 66.8 156.4 218.6 102.5 304.5 76.8 C 433.5 37.9 571 15 654.8 18.2 C 671.4 18.8 684.3 32.7 683.6 49.3 C 683 66 669.1 78.9 652.5 78.2 C 574.8 75.2 444.9 97.1 321.5 134.1 C 191.8 173 94 221.9 66.3 261.6 C 64.9 263.7 63.7 265.6 62.8 267.4 C 60.2 272.3 62.3 280.4 71 281.2 C 84.1 282.4 109.1 279.3 154.5 267 C 209.1 252.5 274.8 231.1 344.6 207.8 C 543.8 141.4 668.8 103.6 723.9 136.9 C 739.3 146.2 749 160.5 751.8 178.2 C 756.2 205.1 746.3 232.3 722.3 258.9 C 677.3 309.2 577.9 360.2 449.7 398.7 C 336.8 432.9 220.4 451.7 124.5 451.7 Z"/>
  <path class="st0" d="M 560.8 83.1 C 595.7 79 627.1 77.3 652.8 78.2 C 669.4 78.8 683.3 66 683.9 49.4 C 684.5 32.8 671.7 18.9 655.1 18.3 C 613.7 16.8 558.8 21.5 498.6 31.6 C 522 45 543.1 62.5 560.8 83.1 Z"/>
  <path class="st0" d="M 71.1 281.2 C 62.3 280.4 60.3 272.3 62.9 267.4 C 63.8 265.6 65 263.7 66.4 261.6 C 79.1 243.3 106.6 223.1 145.2 202.9 C 149.3 174.8 158.3 148.5 171.2 124.5 C 107.4 152 45.6 187 17.3 227.7 C -5.6 260.7 -1.6 289 5.8 306.9 C 24.6 352.3 88.8 344.2 149.2 330.3 C 152.8 329.4 156.5 328.6 160.3 327.7 C 152.8 309.4 147.4 289.9 144.7 269.7 C 105.6 279.8 83.3 282.4 71.1 281.2 Z"/>
  <path class="st0" d="M 752 178.2 C 749.2 160.4 739.5 146.2 724.1 136.9 C 697.3 120.7 654.1 121.3 594 133.8 C 602.8 151.8 609.3 171.1 613.3 191.2 C 653.6 183.3 674.3 183.9 684.5 185.5 C 690.3 186.5 693.8 192.4 691.8 198 C 689 206.1 682.5 214.1 678.2 219 C 664.4 234.4 643.2 250.4 616.2 266.1 C 612.9 294.5 604.4 321.3 591.9 345.8 C 650.8 318.4 696.1 288.5 722.7 258.9 C 746.5 232.3 756.4 205.1 752 178.2 Z"/>
  <path class="st0" d="M 196.3 388.1 C 159.4 391.4 124.5 392.5 93.3 390.8 C 76.6 389.9 62.4 402.9 61.8 419.6 C 61.2 436.2 74.3 450 90.8 450.7 C 101.7 451.2 112.9 451.5 124.4 451.5 C 165.7 451.5 210.9 448 258 441.3 C 234.5 427.4 213.7 409.2 196.3 388.1 Z"/>
  <path class="st3" d="M 498.5 31.5 C 463.6 11.5 423.2 0 380.2 0 C 289.9 0 211.4 50.4 171.2 124.6 C 218.9 104.1 267.8 87.9 304.7 76.9 C 369.8 57.3 437 41.7 498.5 31.5 Z"/>
  <path class="st3" d="M 145.1 203.1 C 143.4 214.4 142.7 226 142.7 237.7 C 142.7 248.6 143.5 259.3 144.9 269.7 C 148.1 268.9 151.5 268 154.8 267.1 C 209.4 252.6 275.1 231.2 344.9 207.9 C 447.5 173.7 530.3 147 594.1 133.8 C 585.2 115.4 573.9 98.4 560.8 83.1 C 489.9 91.3 404.4 109.4 321.7 134.1 C 251.4 155.2 190.5 179.1 145.1 203.1 Z"/>
  <path class="st3" d="M 258.1 441.4 C 293.7 462.9 335.6 475.1 380.2 475.1 C 472.5 475.1 552.4 422.5 591.8 345.8 C 550.6 365 502.7 382.9 450 398.7 C 385.6 418.1 320.1 432.7 258.1 441.4 Z"/>
  <path class="st3" d="M 616.1 266.1 C 617.3 256.7 617.8 247.2 617.8 237.5 C 617.8 221.7 616.3 206.2 613.3 191.2 C 604.5 192.9 594.8 195.1 584 197.6 C 520.1 213 440.7 239.4 364 265 C 289.2 290 218.4 313.5 160.3 327.8 C 169.3 349.8 181.5 370.1 196.3 388.2 C 270.6 381.5 353.6 365.3 433 341.5 C 506.3 319.4 569.8 293 616.1 266.1 Z"/>
  <defs>
    <circle id="SVGID_00000071517772776938632310000017487385853729780406_" cx="380.2" cy="237.6" r="237.6"/>
  </defs>
  <clipPath id="SVGID_00000027600947757592142000000001460140752701970583_">
    <circle cx="380.2" cy="237.6" r="237.6" transform="matrix(1, 0, 0, 1, 0, 0)" style="overflow: visible;"/>
  </clipPath>
  <path class="st0" d="M 406.1 -95.2 C 406.1 -95.2 536.2 60.8 567 90.5 C 596.6 119.2 780.6 275.6 780.6 275.6 L 775.2 300.4 L 374.9 -88.5" style="clip-path: url(#SVGID_00000027600947757592142000000001460140752701970583_);"/>
  <path class="st0" d="M 381 -75.9 C 381 -75.9 512.7 79.9 543.4 109.7 C 573 138.4 755.2 295.4 755.2 295.4 L 748.8 319.6 L 350.8 -68.5" style="clip-path: url(#SVGID_00000027600947757592142000000001460140752701970583_);"/>
  <path class="st0" d="M 355.9 -56.6 C 355.9 -56.6 489.2 99.1 520 129 C 549.6 157.7 730 315.2 730 315.2 L 722.7 338.8 L 326.4 -48.6" style="clip-path: url(#SVGID_00000027600947757592142000000001460140752701970583_);"/>
  <path class="st0" d="M 330.8 -37.2 C 330.8 -37.2 465.7 118.5 496.4 148.2 C 526 177 704.6 335 704.6 335 L 696.2 357.9 L 302.1 -28.8" style="clip-path: url(#SVGID_00000027600947757592142000000001460140752701970583_);"/>
  <path class="st0" d="M 305.7 -17.9 C 305.7 -17.9 442.1 137.7 472.9 167.4 C 502.5 196.1 679.5 354.8 679.5 354.8 L 670.1 377.2 L 277.8 -8.9" style="clip-path: url(#SVGID_00000027600947757592142000000001460140752701970583_);"/>
  <path class="st0" d="M 280.6 1.4 C 280.6 1.4 418.6 156.9 449.3 186.6 C 478.9 215.3 654.1 374.5 654.1 374.5 L 643.7 396.2 L 253.4 11.1" style="clip-path: url(#SVGID_00000027600947757592142000000001460140752701970583_);"/>
  <path class="st0" d="M 255.4 20.7 C 255.4 20.7 394.9 176 425.7 205.8 C 455.3 234.5 628.6 394.2 628.6 394.2 L 617.3 415.3 L 229.1 30.9" style="clip-path: url(#SVGID_00000027600947757592142000000001460140752701970583_);"/>
  <path class="st0" d="M 230.3 40.2 C 230.3 40.2 371.3 195.4 402.2 225.1 C 431.8 253.8 603.3 414.2 603.3 414.2 L 591 434.6 L 204.8 50.8" style="clip-path: url(#SVGID_00000027600947757592142000000001460140752701970583_);"/>
  <path class="st0" d="M 205.2 59.5 C 205.2 59.5 347.9 214.6 378.7 244.3 C 408.3 273 578 433.8 578 433.8 L 564.6 453.6 L 180.5 70.6" style="clip-path: url(#SVGID_00000027600947757592142000000001460140752701970583_);"/>
  <path class="st0" d="M 180.1 78.8 C 180.1 78.8 324.4 233.7 355.1 263.5 C 384.7 292.2 552.6 453.6 552.6 453.6 L 538.3 472.8 L 156.2 90.3" style="clip-path: url(#SVGID_00000027600947757592142000000001460140752701970583_);"/>
  <path class="st0" d="M 155 98.1 C 155 98.1 300.8 253 331.6 282.8 C 361.2 311.5 527.3 473.5 527.3 473.5 L 512 492 L 131.8 110.4" style="clip-path: url(#SVGID_00000027600947757592142000000001460140752701970583_);"/>
  <path class="st0" d="M 129.9 117.5 C 129.9 117.5 277.3 272.3 308 302 C 337.6 330.7 502 493.3 502 493.3 L 485.7 511.3 L 107.4 130.4" style="clip-path: url(#SVGID_00000027600947757592142000000001460140752701970583_);"/>
  <path class="st0" d="M 104.8 136.8 C 104.8 136.8 253.7 291.5 284.5 321.2 C 314.1 349.9 476.6 513.1 476.6 513.1 L 459.2 530.5 L 83.1 150.2" style="clip-path: url(#SVGID_00000027600947757592142000000001460140752701970583_);"/>
  <path class="st0" d="M 79.7 156.1 C 79.7 156.1 230.3 310.7 261 340.4 C 290.6 369.1 451.3 532.8 451.3 532.8 L 433 549.5 L 58.7 170.1" style="clip-path: url(#SVGID_00000027600947757592142000000001460140752701970583_);"/>
  <path class="st0" d="M 54.6 175.4 C 54.6 175.4 206.7 329.8 237.5 359.6 C 267.1 388.3 426 552.5 426 552.5 L 406.7 568.6 L 34.4 190" style="clip-path: url(#SVGID_00000027600947757592142000000001460140752701970583_);"/>
  <defs>
    <circle id="SVGID_00000005982865404356749440000009962860988056558255_" cx="380.2" cy="237.6" r="237.6"/>
  </defs>
  <clipPath id="SVGID_00000085237003188126297170000011228989193750720906_">
    <circle cx="380.2" cy="237.6" r="237.6" transform="matrix(1, 0, 0, 1, 0, 0)" style="overflow: visible;"/>
  </clipPath>
  <rect x="207.79" y="363.482" transform="matrix(0.748236, -0.663432, 0.663432, 0.748236, -213.043503, 245.606293)" class="st0" width="18.699" height="79.896" style="clip-path: url(#SVGID_00000085237003188126297170000011228989193750720906_);"/>
  <defs>
    <circle id="SVGID_00000178883765755013006150000015372286763842180276_" cx="380.2" cy="237.6" r="237.6"/>
  </defs>
  <clipPath id="SVGID_00000111173260055166012400000014892836500658947201_">
    <circle cx="380.2" cy="237.6" r="237.6" transform="matrix(1, 0, 0, 1, 0, 0)" style="overflow: visible;"/>
  </clipPath>
  <rect x="548.695" y="44.7" transform="matrix(0.707107, -0.707107, 0.707107, 0.707107, 112.190399, 415.161713)" class="st0" width="17" height="54.999" style="clip-path: url(#SVGID_00000111173260055166012400000014892836500658947201_);"/>
  <path class="st0" d="M 2911.1 90.2 L 2719.2 90.2 C 2703.3 90.2 2690.3 103.1 2690.3 119.1 C 2690.3 135 2703.2 148 2719.2 148 L 2786.3 148 L 2786.3 355 C 2786.3 370.9 2799.2 383.9 2815.2 383.9 C 2831.2 383.9 2844.1 371 2844.1 355 L 2844.1 148 L 2911.2 148 C 2927.1 148 2940.1 135.1 2940.1 119.1 C 2940 103.2 2927.1 90.2 2911.1 90.2 Z"/>
  <path class="st0" d="M 2659.9 134.2 C 2645 103.7 2616 77.2 2584.3 77.2 C 2552.6 77.2 2523.6 103.7 2508.7 134.2 C 2482.7 187.2 2458.1 255.9 2433.5 344.3 C 2429.2 359.9 2438.3 376 2453.8 380.3 C 2456.4 381 2459.1 381.4 2461.7 381.4 C 2474.5 381.4 2486.3 372.9 2489.9 360 C 2495.3 340.5 2500.8 322.1 2506.2 304.6 L 2662.5 304.6 C 2667.9 322.1 2673.3 340.5 2678.8 360 C 2683.1 375.6 2699.3 384.7 2714.8 380.3 C 2730.4 376 2739.5 359.8 2735.1 344.3 C 2710.4 255.9 2685.8 187.2 2659.9 134.2 Z M 2525.3 246.9 C 2537.2 213.7 2549.1 184.8 2561.3 160 C 2566.5 149.4 2574.9 135.8 2584.3 135.8 C 2593.8 135.8 2602.2 149.4 2607.4 160 C 2619.6 184.9 2631.5 213.7 2643.4 246.9 L 2525.3 246.9 Z"/>
  <path class="st0" d="M 1936.3 134.2 C 1921.4 103.7 1892.4 77.2 1860.7 77.2 C 1829 77.2 1800 103.7 1785.1 134.2 C 1759.1 187.2 1734.5 255.9 1709.9 344.3 C 1705.6 359.9 1714.7 376 1730.2 380.3 C 1732.8 381 1735.5 381.4 1738.1 381.4 C 1750.9 381.4 1762.7 372.9 1766.3 360 C 1771.7 340.5 1777.2 322.1 1782.6 304.6 L 1938.8 304.6 C 1944.2 322.1 1949.6 340.5 1955.1 360 C 1959.4 375.6 1975.6 384.7 1991.1 380.3 C 2006.7 376 2015.8 359.8 2011.4 344.3 C 1986.8 255.9 1962.2 187.2 1936.3 134.2 Z M 1801.6 246.8 C 1813.5 213.6 1825.4 184.7 1837.6 159.9 C 1842.8 149.3 1851.2 135.7 1860.6 135.7 C 1870.1 135.7 1878.5 149.3 1883.7 159.9 C 1895.9 184.8 1907.8 213.6 1919.7 246.8 L 1801.6 246.8 Z"/>
  <path class="st0" d="M 1702.3 243.9 C 1702.3 243.1 1702.3 242.3 1702.2 241.6 C 1702.2 241.4 1702.2 241.2 1702.1 241 C 1702 240.2 1701.9 239.5 1701.8 238.7 C 1701.8 238.5 1701.7 238.3 1701.7 238.1 C 1701.5 237.4 1701.4 236.6 1701.1 235.9 C 1701 235.7 1701 235.5 1700.9 235.3 C 1700.7 234.6 1700.4 233.9 1700.1 233.2 C 1700 233 1699.9 232.8 1699.9 232.6 C 1699.6 231.9 1699.3 231.3 1699 230.6 C 1698.9 230.4 1698.8 230.2 1698.7 230 C 1698.3 229.4 1698 228.8 1697.6 228.2 C 1697.5 228 1697.4 227.8 1697.2 227.7 C 1696.8 227.1 1696.4 226.6 1695.9 226 C 1695.8 225.8 1695.6 225.7 1695.5 225.5 C 1695 225 1694.6 224.4 1694.1 223.9 C 1693.9 223.7 1693.8 223.6 1693.6 223.4 C 1693.1 222.9 1692.6 222.4 1692.1 222 C 1691.9 221.9 1691.7 221.7 1691.6 221.6 C 1691.1 221.2 1690.5 220.8 1689.9 220.4 C 1689.7 220.3 1689.5 220.1 1689.3 220 C 1688.7 219.6 1688.2 219.3 1687.6 218.9 C 1687.4 218.8 1687.1 218.7 1686.9 218.5 C 1686.3 218.2 1685.7 217.9 1685.1 217.6 C 1684.8 217.5 1684.5 217.4 1684.3 217.3 C 1683.7 217.1 1683.1 216.8 1682.5 216.7 C 1682.2 216.6 1681.9 216.5 1681.5 216.4 C 1680.9 216.2 1680.3 216.1 1679.8 216 C 1679.4 215.9 1679.1 215.9 1678.7 215.8 C 1678.1 215.7 1677.6 215.6 1677 215.5 C 1676.6 215.5 1676.2 215.4 1675.8 215.4 C 1675.4 215.4 1675.1 215.3 1674.7 215.3 C 1674.5 215.3 1674.3 215.3 1674.1 215.3 C 1674 215.3 1673.8 215.3 1673.7 215.3 L 1564.5 215.3 C 1548.6 215.3 1535.6 228.2 1535.6 244.2 C 1535.6 260.1 1548.5 273.1 1564.5 273.1 L 1640.9 273.1 C 1627.7 326.7 1585 335.6 1555.3 335.6 C 1496.4 335.6 1455.2 291 1455.2 227.2 C 1455.2 180.6 1502.9 138.2 1555.3 138.2 C 1587.4 138.2 1611.2 145.5 1637.4 163.3 C 1650.6 172.3 1668.5 168.8 1677.5 155.7 C 1686.5 142.5 1683 124.6 1669.9 115.6 C 1634.2 91.3 1598.9 80.5 1555.4 80.5 C 1514.5 80.5 1475.4 95.9 1445.1 124 C 1414.9 151.9 1397.6 189.6 1397.6 227.2 C 1397.6 275.6 1413.7 317.5 1444.2 348.2 C 1473.1 377.3 1512.6 393.3 1555.4 393.3 C 1595.6 393.3 1630.9 381.7 1657.6 359.8 C 1679.8 341.6 1700.4 307 1702.6 245.2 C 1702.6 244.9 1702.6 244.7 1702.6 244.4 C 1702.6 244.3 1702.6 244.2 1702.6 244.2 C 1702.3 244.2 1702.3 244.1 1702.3 243.9 Z"/>
  <path class="st0" d="M 1368.9 326.1 L 1233.4 326.1 L 1233.4 260.9 L 1328.2 260.9 C 1344.1 260.9 1357.1 248 1357.1 232 C 1357.1 216.1 1344.2 203.1 1328.2 203.1 L 1233.4 203.1 L 1233.4 147.8 L 1368.9 147.8 C 1384.8 147.8 1397.8 134.9 1397.8 118.9 C 1397.8 103 1384.9 90 1368.9 90 L 1204.5 90 C 1188.6 90 1175.6 102.9 1175.6 118.9 L 1175.6 354.8 C 1175.6 370.7 1188.5 383.7 1204.5 383.7 L 1368.9 383.7 C 1384.8 383.7 1397.8 370.8 1397.8 354.8 C 1397.7 339 1384.8 326.1 1368.9 326.1 Z"/>
  <path class="st0" d="M 2430.2 288.1 C 2426.4 241.2 2388.5 205.5 2343 205.5 C 2342 205.5 2341.1 205.5 2340.1 205.5 L 2313.8 205.5 C 2313.6 205.5 2313.4 205.5 2313.3 205.5 L 2249.4 205.5 L 2248.2 205.5 C 2232.2 206.1 2218.7 193.3 2217.3 176.2 C 2216.4 162.9 2222.9 149.6 2231.3 147.7 L 2232.9 147.3 C 2270.5 136.6 2350.7 139.4 2378.8 149.6 C 2393.8 155 2410.3 147.2 2415.7 132.2 C 2421.1 117.2 2413.3 100.7 2398.3 95.3 C 2356.9 80.4 2264.5 78.6 2217.7 91.7 C 2181.6 100.3 2156.6 138.3 2159.7 180.5 L 2159.7 180.8 C 2163.5 227.7 2201.4 263.4 2246.9 263.4 C 2247.9 263.4 2248.8 263.4 2249.8 263.4 L 2276.1 263.4 C 2276.3 263.4 2276.5 263.4 2276.6 263.4 L 2340.5 263.4 L 2341.7 263.4 C 2357.7 262.8 2371.2 275.6 2372.6 292.7 C 2373.5 306 2367 319.3 2358.6 321.2 L 2357 321.6 C 2319.4 332.3 2239.2 329.5 2211.1 319.3 C 2196.1 313.9 2179.6 321.7 2174.2 336.7 C 2168.8 351.7 2176.6 368.2 2191.6 373.6 C 2214.3 381.8 2252.4 386 2289.9 386 C 2320.7 386 2351.1 383.1 2372.2 377.2 C 2408.3 368.6 2433.3 330.6 2430.2 288.4 L 2430.2 288.1 L 2430.2 288.1 Z"/>
  <path class="st0" d="M 1150.8 288.1 C 1147 241.2 1109.1 205.5 1063.6 205.5 C 1062.6 205.5 1061.7 205.5 1060.7 205.5 L 1034.4 205.5 C 1034.2 205.5 1034 205.5 1033.9 205.5 L 970 205.5 L 968.8 205.5 C 952.8 206.1 939.3 193.3 937.9 176.2 C 937 162.9 943.5 149.6 951.9 147.7 L 953.5 147.3 C 991.1 136.6 1071.3 139.4 1099.4 149.6 C 1114.4 155 1130.9 147.2 1136.3 132.2 C 1141.7 117.2 1133.9 100.7 1118.9 95.3 C 1077.5 80.4 985.1 78.6 938.3 91.7 C 902.2 100.3 877.2 138.3 880.3 180.5 L 880.3 180.8 C 884.1 227.7 922 263.4 967.5 263.4 C 968.5 263.4 969.4 263.4 970.4 263.4 L 996.7 263.4 C 996.9 263.4 997.1 263.4 997.2 263.4 L 1061.1 263.4 L 1062.3 263.4 C 1078.3 262.8 1091.8 275.6 1093.2 292.7 C 1094.1 306 1087.6 319.3 1079.2 321.2 L 1077.6 321.6 C 1040 332.3 959.8 329.5 931.7 319.3 C 916.7 313.9 900.2 321.7 894.8 336.7 C 889.4 351.7 897.2 368.2 912.2 373.6 C 934.9 381.8 973 386 1010.5 386 C 1041.3 386 1071.7 383.1 1092.8 377.2 C 1128.9 368.6 1153.9 330.6 1150.8 288.4 L 1150.8 288.1 Z"/>
  <path class="st0" d="M 3209.9 77.8 C 3194.2 77.8 3181.5 90.5 3181.5 106.2 L 3181.5 281.6 C 3181.5 308.7 3142.9 332.5 3098.8 332.5 C 3054.8 332.5 3016.1 308.7 3016.1 281.6 L 3016.1 106.2 C 3016.1 90.5 3003.4 77.8 2987.7 77.8 C 2972 77.8 2959.3 90.5 2959.3 106.2 L 2959.3 281.6 C 2959.3 311.7 2975.5 340.6 3003.7 360.7 C 3029.4 379.1 3063.2 389.2 3098.7 389.2 C 3134.2 389.2 3167.9 379.1 3193.7 360.7 C 3221.9 340.6 3238.1 311.7 3238.1 281.6 L 3238.1 106.2 C 3238.3 90.5 3225.6 77.8 3209.9 77.8 Z"/>
  <path class="st0" d="M 3467.6 271.3 C 3465.7 269.5 3466.8 266.2 3469.5 266 C 3522.2 262.7 3537.9 223.2 3540.6 189.6 C 3540.6 189.5 3540.6 189.4 3540.6 189.3 C 3542.3 165.5 3533 140.2 3515.8 121.7 C 3502.4 107.3 3477.9 90.2 3436.9 90.2 C 3406.5 90.2 3372.3 90.7 3343.2 91.6 C 3295.4 93.1 3292 94.3 3287.5 96 C 3276.1 100.1 3268.5 110.9 3268.5 123 L 3268.5 353.4 C 3268.5 369.8 3282.2 383 3298.7 382.2 C 3314.2 381.5 3326.2 368.1 3326.2 352.6 L 3326.2 150 C 3351.5 149 3393.4 147.9 3436.9 147.9 C 3453.1 147.9 3465.4 152.3 3473.5 161 C 3481.7 169.8 3483.3 180.2 3483 185.1 C 3482.3 194 3479.9 220.3 3432.7 220.3 L 3408 220.3 C 3395.3 220.3 3383.5 227.5 3378.4 239.1 C 3373 251.4 3375.9 265.6 3385.7 274.7 L 3494.3 376.5 C 3499.9 381.7 3507 384.3 3514 384.3 C 3521.7 384.3 3529.4 381.2 3535.1 375.2 C 3546 363.6 3545.4 345.3 3533.8 334.4 L 3467.6 271.3 Z"/>
  <path class="st0" d="M 3810.6 90.7 C 3794.9 90.7 3782.2 103.4 3782.2 119.1 L 3782.2 280.8 L 3619.7 100.1 C 3611.8 91.3 3599.4 88.3 3588.4 92.6 C 3577.4 96.8 3570.2 107.4 3570.2 119.1 L 3570.2 355 C 3570.2 370.7 3582.9 383.4 3598.6 383.4 C 3614.3 383.4 3627 370.7 3627 355 L 3627 193.3 L 3789.5 374 C 3795 380.1 3802.7 383.4 3810.6 383.4 C 3814 383.4 3817.5 382.8 3820.8 381.5 C 3831.8 377.3 3839 366.7 3839 355 L 3839 119.1 C 3839 103.4 3826.3 90.7 3810.6 90.7 Z"/>
</svg>