<?xml version="1.0" encoding="UTF-8" standalone="no"?>
<!-- Generator: Adobe Illustrator 26.0.3, SVG Export Plug-In . SVG Version: 6.00 Build 0)  -->

<svg
   version="1.1"
   id="Layer_1"
   x="0px"
   y="0px"
   viewBox="0 0 3839 358.8"
   style="enable-background:new 0 0 3839 358.8;"
   xml:space="preserve"
   xmlns="http://www.w3.org/2000/svg"
   xmlns:svg="http://www.w3.org/2000/svg"><defs
   id="defs129">
	
	

		
		
		
		
	
			
			
			
			
			
		
				
			
					
				
						
						
					
				
				
			
				
				
			
				
				
			
				
				
			</defs>
<style
   type="text/css"
   id="style2">
	.st0{fill:#FF221D;}
	.st1{fill:#FDEB05;}
	.st2{display:none;}
	.st3{display:inline;}
	.st4{fill:#FBE901;}
	.st5{fill:#FFFFFF;}
</style>
<g
   id="g2979"><g
     id="g44"
     style="fill:#ffffff;fill-opacity:1">
		<path
   class="st0"
   d="m 1575.1,358.8 c -8,0 -11.3,-1.6 -14.2,-3.6 l 16,-71.1 c 27.8,-4.2 39.3,-23.3 45.2,-73.9 14.6,-126.7 99.2,-134.1 108.7,-134.5 1.1,-0.1 2.1,-0.1 3.1,-0.1 3,0 5.5,0.2 9.3,0.9 l -17,75.4 c -27.5,3.8 -33.7,27.4 -44.9,95.7 -16.9,102.2 -88.8,110.5 -103,111.1 -1.1,0 -2.2,0.1 -3.2,0.1 z"
   id="path4"
   style="fill:#ffffff;fill-opacity:1" />
		<path
   class="st0"
   d="m 3027.5,358.8 c -8,0 -11.3,-1.6 -14.2,-3.6 l 16,-71.1 c 27.8,-4.2 39.3,-23.3 45.2,-73.9 14.6,-126.7 99.1,-134.1 108.7,-134.5 1.1,-0.1 2.1,-0.1 3.1,-0.1 3,0 5.5,0.2 9.3,0.9 l -17,75.4 c -27.5,3.8 -33.7,27.4 -44.9,95.7 -16.9,102.2 -88.8,110.5 -103,111.1 -1.2,0 -2.2,0.1 -3.2,0.1 z"
   id="path6"
   style="fill:#ffffff;fill-opacity:1" />
		<path
   class="st0"
   d="m 1458,358.8 c -8,0 -11.3,-1.6 -14.2,-3.6 l 16,-71.1 c 27.8,-4.2 39.3,-23.3 45.2,-73.9 14.6,-126.7 99.2,-134.1 108.7,-134.5 1.1,-0.1 2.1,-0.1 3.1,-0.1 3,0 5.5,0.2 9.3,0.9 l -17,75.4 c -27.5,3.8 -33.7,27.4 -44.9,95.7 -16.9,102.2 -88.8,110.5 -103,111.1 -1.1,0 -2.2,0.1 -3.2,0.1 z"
   id="path8"
   style="fill:#ffffff;fill-opacity:1" />
		<rect
   x="2702.5"
   class="st0"
   width="72.699997"
   height="358.79999"
   id="rect10"
   y="0"
   style="fill:#ffffff;fill-opacity:1" />
		<path
   class="st0"
   d="m 3440,75.6 c -80.1,0 -147.3,58.2 -154.3,138.2 -7,80 52.2,145 132.3,145 80.1,0 158.2,-62.3 157.7,-145 C 3575.1,133.4 3520,75.6 3440,75.6 Z m 51,190.9 c -19,19.1 -46.3,30.6 -73,30.6 -21.1,0 -40,-7.9 -53.1,-22.2 -13.3,-14.5 -19.6,-34.2 -17.7,-55.6 4.1,-46.7 44,-81.9 92.8,-81.9 45.3,0 73.6,29.5 74,76.9 0.1,23.9 -12.4,41.6 -23,52.2 z"
   id="path12"
   style="fill:#ffffff;fill-opacity:1" />
		<path
   class="st0"
   d="m 1418.7,358.2 h -63.8 l 31.3,-139 c 0.1,-1.8 0.2,-3.7 0.2,-5.6 -0.3,-47.4 -28.7,-76.9 -74,-76.9 -48.8,0 -88.7,35.2 -92.8,81.9 -1.9,21.4 4.4,41.1 17.7,55.6 13.1,14.3 32,22.2 53.1,22.2 18.7,0 37.7,-5.6 53.9,-15.5 l -16.4,72.8 -0.4,0.1 c 0,0 -24.6,4.4 -37.1,4.4 -80.1,0 -139.3,-64.9 -132.3,-145 7,-80.1 74.2,-138.2 154.3,-138.2 80.1,0 135.1,57.9 135.7,138.2 0.1,7.6 -0.6,15 -1.8,22.1 z"
   id="path14"
   style="fill:#ffffff;fill-opacity:1" />
		<path
   class="st0"
   d="m 2122.9,144.8 h 48.1 l 12.9,-57.3 h -48.1 L 2155.5,0 h -66.9 l -58.8,260.7 c 0,0 -1.3,5.9 -1.8,7.9 -10.7,45.6 1.2,90.2 60.5,90.2 0,0 7.2,0 8.5,0 l 32.2,-57.3 h -28.1 c -11.9,0 -11,-12 -8.1,-24.5 7.2,-31 29.9,-132.2 29.9,-132.2 z"
   id="path16"
   style="fill:#ffffff;fill-opacity:1" />
		<path
   class="st0"
   d="m 2269.1,144.8 h 48.1 l 12.9,-57.3 H 2282 L 2301.8,0 h -66.9 l -58.8,260.7 c 0,0 -1.3,5.9 -1.8,7.9 -10.7,45.6 1.2,90.2 60.5,90.2 0,0 7.2,0 8.5,0 l 32.2,-57.3 h -28.1 c -11.9,0 -11,-12 -8.1,-24.5 7.1,-31 29.8,-132.2 29.8,-132.2 z"
   id="path18"
   style="fill:#ffffff;fill-opacity:1" />
		<path
   class="st0"
   d="m 1137.1,358.4 c -47.5,-4.5 -89.8,-24.8 -117.7,-56.7 C 991.2,269.4 978.9,227.8 983.7,181.4 999.5,31.3 1130.7,0.8 1238.6,1.7 l -13.8,61.8 c -146.9,2.4 -173.8,68.9 -179.7,124.4 -7.6,72.4 48.3,107.2 105.7,109.7 z"
   id="path20"
   style="fill:#ffffff;fill-opacity:1" />
		<path
   class="st0"
   d="m 2981.7,87.5 -61.2,271.3 h 66.9 c 11.7,-51.9 41.2,-182.7 61.1,-271.3 0.1,0 -66.8,0 -66.8,0 z"
   id="path22"
   style="fill:#ffffff;fill-opacity:1" />
		<g
   id="g28"
   style="fill:#ffffff;fill-opacity:1">
			<path
   class="st0"
   d="M 3298.8,57.3 C 3306.4,23.8 3311.7,0 3311.7,0 h -66.9 l -12.9,57.3 z"
   id="path24"
   style="fill:#ffffff;fill-opacity:1" />
			<path
   class="st0"
   d="m 3225.1,87.5 -61.2,271.3 h 66.9 c 11.7,-51.9 41.2,-182.7 61.1,-271.3 0.1,0 -66.8,0 -66.8,0 z"
   id="path26"
   style="fill:#ffffff;fill-opacity:1" />
		</g>
		<g
   id="g32"
   style="fill:#ffffff;fill-opacity:1">
			<path
   class="st0"
   d="m 3633.9,87.5 -61.2,271.3 h 66.9 c 11.7,-51.9 41.2,-182.7 61.1,-271.3 0.1,0 -66.8,0 -66.8,0 z"
   id="path30"
   style="fill:#ffffff;fill-opacity:1" />
		</g>
		<path
   class="st0"
   d="m 3692.3,87.5 -12.9,57.3 h 75.3 c 9.2,0 16.1,8.6 14,17.6 l -44.3,196.4 h 66.9 c 9,-40 28.7,-127.1 46.3,-205.3 7.6,-33.8 -18.1,-65.9 -52.8,-65.9 z"
   id="path34"
   style="fill:#ffffff;fill-opacity:1" />
		<g
   id="g38"
   style="fill:#ffffff;fill-opacity:1">
			<path
   class="st0"
   d="m 3026.1,0 h -24.6 -27 c -21.4,0 -41.2,10.9 -52.6,29 l -208.2,329.8 h 86 L 2990,57.3 h 65.5 C 3063,23.8 3068.4,0 3068.4,0 Z"
   id="path36"
   style="fill:#ffffff;fill-opacity:1" />
		</g>
		<path
   class="st0"
   d="m 2406,282.4 199.8,-97.8 c -12,-64.8 -62.9,-109.1 -132.9,-109.1 -80.1,0 -147.3,58.2 -154.3,138.2 -7,80.1 52.2,145 132.3,145 13,0 25.9,-1.6 38.4,-4.7 1.4,-0.3 2.7,-0.7 4.1,-1.1 l 16.9,-75.1 c -17.4,12.2 -38.6,19.1 -59.4,19.1 -17.1,0.2 -32.6,-5 -44.9,-14.5 z m -26,-63.2 c 4.1,-46.7 44,-81.9 92.8,-81.9 24.8,0 44.4,8.8 57.3,24.5 l -149.9,73.4 c -0.6,-5.2 -0.7,-10.6 -0.2,-16 z"
   id="path40"
   style="fill:#ffffff;fill-opacity:1" />
		<path
   class="st0"
   d="m 1823.9,282.4 199.8,-97.8 c -12,-64.8 -62.9,-109.1 -132.9,-109.1 -80.1,0 -147.3,58.2 -154.3,138.2 -7,80.1 52.2,145 132.3,145 13,0 25.9,-1.6 38.4,-4.7 1.4,-0.3 2.7,-0.7 4.1,-1.1 l 16.9,-75.1 c -17.4,12.2 -38.6,19.1 -59.4,19.1 -17.1,0.2 -32.6,-5 -44.9,-14.5 z m -26,-63.2 c 4.1,-46.7 44,-81.9 92.8,-81.9 24.8,0 44.4,8.8 57.3,24.5 l -149.9,73.4 c -0.6,-5.2 -0.6,-10.6 -0.2,-16 z"
   id="path42"
   style="fill:#ffffff;fill-opacity:1" />
	</g><g
     id="g2844"
     transform="translate(9.4228944)"
     style="fill:#ffffff;fill-opacity:1"><path
       class="st1"
       d="m 318.21656,289.26063 0.72463,-3.20909 c -6.10762,1.75982 -14.38914,3.20909 -25.36215,3.20909 h -25.46567 c -14.07858,0 -27.2255,-6.31466 -36.12813,-17.39119 -8.79911,-10.97301 -12.11172,-25.25863 -9.00615,-39.02666 l 24.63752,-109.10901 h 50.7243 l -25.25863,112.11106 c -0.41408,1.96686 0,4.03724 1.24223,5.59003 1.24222,1.55278 3.10557,2.48445 5.17595,2.48445 h 35.71404 c 7.76393,0 14.38914,-5.27946 16.04545,-12.83635 l 24.32696,-107.34919 h 50.7243 l -37.37035,165.63038 z"
       id="path82"
       style="stroke-width:1.03519;fill:#ffffff;fill-opacity:1" /><path
       class="st1"
       d="M 769.14525,289.26063 806.5156,123.63026 h 50.7243 l -0.72463,3.20908 c 6.10762,-1.75982 14.38914,-3.20908 25.36215,-3.20908 h 33.64367 l -10.24838,45.34131 h -45.03076 c -7.76392,0 -14.38913,5.27947 -16.04544,12.83635 l -24.22344,107.34919 z"
       id="path88"
       style="stroke-width:1.03519;fill:#ffffff;fill-opacity:1" /><path
       class="st1"
       d="m 638.40077,289.26063 c -14.07858,0 -27.22549,-6.31466 -36.12812,-17.39119 -8.79912,-10.97301 -12.11172,-25.25863 -9.00615,-39.02666 l 13.6645,-60.86916 c 6.5217,-28.3642 31.36625,-48.23985 60.66213,-48.23985 h 57.55655 c 14.07858,0 27.22549,6.31466 36.12813,17.39119 8.79911,10.97302 12.11172,25.25864 9.00615,39.02666 l -1.65631,7.34985 c -4.34779,19.04749 -17.80526,33.74719 -35.29997,40.06185 h 26.08678 l -3.00205,13.45746 c -6.41817,28.46772 -31.26273,48.44689 -60.5586,48.44689 h -57.45304 z m 4.96891,-53.4158 c -0.41407,1.96686 0,4.03724 1.24223,5.59003 1.24223,1.55278 3.10557,2.48445 5.17595,2.48445 h 43.58149 c 6.83226,0 12.62932,-4.65835 14.1821,-11.28356 l 0.41408,-1.86335 h -63.45714 z m 66.35567,-50.51726 c 4.96891,0 9.31671,-3.41613 10.3519,-8.28152 0.41408,-1.96686 0,-3.93372 -1.24223,-5.48651 -1.24223,-1.55278 -3.10557,-2.38093 -5.07243,-2.38093 h -42.13222 c -7.76393,0 -14.38914,5.27947 -16.04545,12.83635 l -0.72463,3.31261 z"
       id="path94"
       style="stroke-width:1.03519;fill:#ffffff;fill-opacity:1" /><path
       class="st1"
       d="m 388.92002,305.51311 40.99352,-181.77934 h 50.7243 l -0.72463,3.20909 c 6.10762,-1.75982 14.38914,-3.20909 25.36215,-3.20909 h 31.26273 c 14.07858,0 27.22549,6.31466 36.12813,17.39119 8.79911,10.97302 12.11172,25.25864 9.00615,39.02666 l -11.90468,53.00172 c -6.41818,28.46772 -31.26274,48.44688 -60.55861,48.44688 h -36.5422 c -12.62932,0 -21.11787,-1.96686 -26.7079,-4.14075 l -6.41818,28.26068 z m 94.61635,-136.43802 c -7.76392,0 -14.38914,5.27947 -16.04544,12.83635 l -10.3519,45.96243 c -0.41407,1.96686 0,4.03724 1.24223,5.59003 1.24223,1.55278 3.10557,2.48445 5.17595,2.48445 h 41.51111 c 7.76392,0 14.38914,-5.27947 16.14896,-12.83635 l 10.3519,-45.96243 c 0.41408,-1.96686 0,-4.03724 -1.24223,-5.59003 -1.24222,-1.55278 -3.10557,-2.48445 -5.17595,-2.48445 z"
       id="path100"
       style="stroke-width:1.03519;fill:#ffffff;fill-opacity:1" /><path
       class="st1"
       d="m 36.851957,289.26063 c -14.078581,0 -27.2254922,-6.31466 -36.12812484,-17.39119 C -8.0752815,260.89643 -11.387889,246.61081 -8.2823194,232.84278 l 1.1387088,-5.17595 5.3829872,-0.31055 H 43.580691 l -1.863341,8.38503 c -0.414076,1.96687 0,4.03725 1.242228,5.59003 1.242227,1.55278 3.105569,2.48446 5.175949,2.48446 h 85.092603 c 7.76393,0 14.38914,-5.27947 16.14896,-12.83636 l 3.93372,-17.49471 c 0.72464,-3.00205 0,-6.21114 -1.96686,-8.69559 -1.96686,-2.48446 -4.86539,-3.8302 -7.97096,-3.8302 H 60.868362 c -15.113772,0 -29.192354,-6.72874 -38.7161,-18.63342 C 12.732034,170.52436 9.2123888,155.30706 12.524996,140.50385 L 16.355199,123.3197 C 22.876895,94.955497 47.82497,75.079852 77.017323,75.079852 H 177.12018 c 14.1821,0 27.32901,6.314658 36.12813,17.391189 8.79911,11.076529 12.11172,25.258629 8.90263,39.026659 l -1.13871,5.17595 -5.27947,0.20704 h -44.92724 l 1.86334,-8.38504 c 0.41408,-1.96686 0,-4.03724 -1.24222,-5.59003 -1.24223,-1.55278 -3.10557,-2.48445 -5.17595,-2.48445 H 81.054564 c -7.763924,0 -14.389139,5.27947 -16.045443,12.83635 l -2.173899,9.8343 c -0.724632,3.00205 0,6.21114 1.966861,8.6956 1.966861,2.48445 4.865392,3.8302 7.970962,3.8302 h 93.788195 c 12.31876,0 23.80937,5.48651 31.46978,15.11377 7.6604,9.62727 10.55893,22.04955 7.76392,34.05775 l -8.28152,36.12812 c -6.5217,28.36421 -31.36625,48.23985 -60.45509,48.23985 z"
       id="path106"
       style="stroke-width:1.03519;fill:#ffffff;fill-opacity:1" /></g></g>
</svg>
