<?xml version="1.0" encoding="UTF-8" standalone="no"?>
<!-- Generator: Adobe Illustrator 25.0.0, SVG Export Plug-In . SVG Version: 6.00 Build 0)  -->

<svg
   version="1.1"
   id="Layer_1"
   x="0px"
   y="0px"
   viewBox="0 0 3839 843.3"
   style="enable-background:new 0 0 3839 843.3;"
   xml:space="preserve"
   sodipodi:docname="type-x_white.svg"
   inkscape:version="1.1.2 (0a00cf5339, 2022-02-04)"
   xmlns:inkscape="http://www.inkscape.org/namespaces/inkscape"
   xmlns:sodipodi="http://sodipodi.sourceforge.net/DTD/sodipodi-0.dtd"
   xmlns="http://www.w3.org/2000/svg"
   xmlns:svg="http://www.w3.org/2000/svg"><sodipodi:namedview
   id="namedview17"
   pagecolor="#ffffff"
   bordercolor="#666666"
   borderopacity="1.0"
   inkscape:pageshadow="2"
   inkscape:pageopacity="0.0"
   inkscape:pagecheckerboard="0"
   showgrid="false"
   inkscape:zoom="0.44803334"
   inkscape:cx="1918.384"
   inkscape:cy="420.72762"
   inkscape:window-width="3840"
   inkscape:window-height="2065"
   inkscape:window-x="0"
   inkscape:window-y="0"
   inkscape:window-maximized="1"
   inkscape:current-layer="Layer_1" /><defs
   id="defs53">
	
	
	
	
	
	
	
	
	
	
	
	
	
	
	
	
	
	
	
	
	
	
</defs>
<style
   type="text/css"
   id="style2">
	.st0{fill:#333333;}
	.st1{fill:#FCFCFC;}
	.st2{fill:#0B61A8;}
</style>
<g
   id="g1873"
   style="fill:#ffffff;fill-opacity:1"><path
     class="st1"
     d="m 2219,228.5 -167.8,295.8 c -6.6,11.6 -15.4,21.8 -25.9,29.8 v 0 c -4.4,-13.4 -10.2,-31.4 -13.1,-36.7 l 165,-289 h -137.4 l -166.2,294.1 40.4,115.9 h 78.1 c -10,15.4 -20.2,26.6 -31.8,34.1 -13,8.3 -28.9,12.7 -49.1,12.7 -13,0 -26.3,-1.2 -37.6,-2.9 -13,-1.9 -27.5,-5 -40.5,-9.2 l -26.1,-9.1 -45,79.5 8.9,4.2 c 13.1,6.9 29.1,12.2 47.7,15.5 18.9,3.6 39.1,5.2 57.9,5.2 54.9,0 104.2,-11.4 146,-34.3 44.9,-23.6 79.4,-58.5 105.6,-103.3 L 2356.6,228.3 H 2219"
     id="path26"
     style="fill:#ffffff;fill-opacity:1" /><path
     class="st1"
     d="m 2636.6,251.1 c -8.6,-18.9 -30.4,-28.3 -62.3,-28.3 -5.6,0 -11.2,0.2 -16.6,0.5 -17.2,1.1 -34.2,4.6 -50.8,9.6 l -22.2,6.8 6.3,-11.1 h -117.7 l -303.6,536 h 137 c 0,0 62,-109.4 62.5,-110.3 13,4.9 32.3,5.4 46.4,4.1 34.5,-3.1 69.3,-10.5 104.1,-31.4 34.6,-20.7 63.7,-48.5 86.7,-83 13.1,-19.1 24.6,-37.2 34.7,-53.9 l 33.2,-56.7 c 11.6,-20.1 21.7,-40 31.9,-59.1 10.2,-19.7 17.2,-35 21.7,-46.6 14.5,-32.5 15.9,-58.2 8.7,-76.6 z m -175,128.9 -28.9,54.7 -39.1,66 -26.2,42.7 c -1.5,2.5 -4.9,7.8 -8.4,13.2 -6.1,9.6 -16.7,15.3 -28,15.3 h -15.1 L 2458.6,320 h 14.1 c 8,0 13.4,8.2 10.1,15.5 -6.2,14 -15.4,34.1 -21.2,44.5 z"
     id="path28"
     style="fill:#ffffff;fill-opacity:1" /><path
     class="st1"
     d="M 909.9,102 675.8,658.6 H 531.2 l 49.1,-100.4 h -52.1 l -65.1,100.4 h -146 L 704.6,102 H 909.9 M 632.3,459.7 c 28.9,-63 65.1,-141.1 111.4,-234 -75.3,106.7 -128.7,184.8 -160.6,234 z"
     id="path30"
     style="fill:#ffffff;fill-opacity:1" /><polygon
     class="st1"
     points="693.1,658.6 1008.3,102 1151.5,102 836.2,658.6 "
     id="polygon32"
     style="fill:#ffffff;fill-opacity:1" /><polygon
     class="st1"
     points="522.5,213.7 270.4,658.7 128.2,658.7 380.3,213.7 296.8,213.7 360.1,101.9 686.6,101.9 608.8,213.7 "
     id="polygon34"
     style="fill:#ffffff;fill-opacity:1" /><polygon
     class="st1"
     points="2031.1,213.7 1779.1,658.7 1636.9,658.7 1889,213.7 1805.5,213.7 1868.8,101.9 2178.2,101.9 2114.9,213.7 "
     id="polygon36"
     style="fill:#ffffff;fill-opacity:1" /><path
     class="st1"
     d="m 1756,147.9 c -2.8,-19.3 -13,-33.8 -30.4,-43.7 -17.4,-9.8 -41.9,-14.5 -70.9,-14.5 -30.4,0 -60.7,5 -89.7,15.4 -28.8,10.5 -56.3,25.2 -80.9,44.4 -24.6,19.3 -44.8,40.6 -59.3,63.9 -16,23.3 -40.5,62.9 -72.3,118.7 l -53.5,95.5 c -31.8,57.2 -53.4,97.4 -63.6,120.3 -11.6,22.9 -14.5,44.3 -11.6,63.7 2.8,19.6 14.4,34.1 31.8,43.9 17.4,9.6 40.5,14.5 70.9,14.5 30.4,0 60.7,-5.2 89.7,-15.4 27.4,-10.3 54.9,-25 79.5,-44.4 24.6,-19.1 44.8,-40.4 60.7,-63.6 16,-23.5 39.1,-63 70.7,-119 l 53.7,-95.5 c 33.2,-57.1 54.8,-97.3 65,-120.4 10.2,-22.9 14.6,-44.2 10.2,-63.8 z M 1613.4,202.3 1410,560.1 c -8,14.1 -25.8,18.9 -39.6,10.7 -4.5,-2.6 -6,-8.5 -3.4,-13.1 l 203.5,-357.8 c 8,-14.1 25.8,-18.9 39.6,-10.7 4.4,2.6 5.9,8.5 3.3,13.1 z"
     id="path38"
     style="fill:#ffffff;fill-opacity:1" /><polygon
     class="st1"
     points="1330.8,213.7 1078.7,658.7 936.6,658.7 1188.6,213.7 1105.2,213.7 1168.4,101.9 1477.8,101.9 1414.5,213.7 "
     id="polygon40"
     style="fill:#ffffff;fill-opacity:1" /><polygon
     class="st2"
     points="2783.5,658.2 2946.2,658.2 3142.3,492.1 3297.9,360.4 3635.1,74.7 3472.3,74.7 3140.5,355.8 "
     id="polygon42"
     style="fill:#ffffff;fill-opacity:1" /><polygon
     class="st2"
     points="3137.5,74.7 3158.5,658.2 3315.5,658.2 3294.5,74.7 "
     id="polygon44"
     style="fill:#ffffff;fill-opacity:1" /><path
     class="st1"
     d="m 2952.1,270.2 c -4.3,-31.4 -30.2,-47.5 -78,-47.5 -53.5,0 -105.6,19.6 -153.4,58 -47.7,36.7 -91.1,91.1 -131.6,161.6 -40.4,70.9 -57.7,125.3 -53.4,162 4.2,38.6 31.8,58 82.3,58 43.4,0 82.5,-9.5 115.6,-28.3 33.3,-19.7 62.1,-49.8 85.3,-89.3 0,0 5.9,-10 7.9,-13.3 0.8,-1.4 3.2,-5.4 3.2,-5.4 h -106 l -2.7,4.7 -11,19.1 c -4.9,9.1 -9.6,12.9 -10.9,14.3 -1.8,1.9 -4,3.3 -6.5,4 l -1.8,0.5 c -5.5,1.6 -11.5,-0.5 -14.9,-5.2 -2.9,-4 -3.6,-9.2 -1.7,-13.8 5.2,-12.9 17.3,-38.1 45,-86.3 h 156.2 l 33.3,-59.9 c 33.1,-58.4 47.5,-103.1 43.1,-133.2 z m -123.5,61.2 c -3.7,8.6 -10.2,22.3 -22.6,44.5 h -37.6 c 14.3,-23.7 22.2,-35.7 27,-42.5 v 0 c 17.9,-26.4 40.4,-19.8 33.2,-2 z"
     id="path46"
     style="fill:#ffffff;fill-opacity:1" /></g>
</svg>
