<?xml version="1.0" encoding="utf-8"?>
<svg version="1.1" id="Camada_1" x="0px" y="0px" viewBox="0 0 519 157.1" style="enable-background:new 0 0 780.7 232.6;" preserveAspectRatio="xMinYMid" xmlns="http://www.w3.org/2000/svg">
  <style type="text/css" id="style5104">
	.st0{fill:#FFFFFF;}
	.st1{fill:#E18837;}
	.st2{fill:#8A6AA2;}
	.st3{fill:#0D0E0F;}
	.st4{fill:#CBCFD0;}
	.st5{fill:#007CB3;}
	.st6{fill:#F0973A;}
	.st7{fill:#007CB4;}
	.st8{fill:none;}
</style>
  <path id="XMLID_99_" class="st5" d="M 117.4 15.6 C 112 23.5 68.3 94.1 57.5 110.6 L 56.1 110.6 C 41.2 87.7 4.7 24.3 0 16.7 L 30.7 0 C 33.7 6.4 54.2 49.6 58.6 59.2 C 62.9 49.5 85.2 4.6 87.2 0 L 117.4 15.6 Z" style="fill:#ffffff;fill-opacity:1"/>
  <path d="M 127 95.9 C 127 103.577 120.777 109.8 113.1 109.8 C 105.423 109.8 99.2 103.577 99.2 95.9 C 99.2 88.223 105.423 82 113.1 82 C 120.777 82 127 88.223 127 95.9 Z" id="XMLID_34_" class="st5" style="fill:#ffffff;fill-opacity:1"/>
  <path id="XMLID_89_" class="st6" d="M 156.9 84.1 C 168.3 84.5 180.7 81.3 180.7 75.8 C 180.7 73.5 178.7 72.1 169.2 66.7 C 161.8 62.5 153.3 56.6 153.3 46.8 C 153.3 33.7 170.7 19.4 200.4 16.8 L 203.6 36.4 C 189 36.4 181.6 38.9 181.6 43.7 C 181.6 46.5 185.3 48.3 193 52 C 199.2 55 209.3 60.3 209.3 70.9 C 209.3 83.8 195.8 100.2 160.2 104.3 L 156.9 84.1 Z" style="fill:#ffffff;fill-opacity:1"/>
  <path id="XMLID_91_" class="st6" d="M 212.3 97.1 C 214.3 92.4 237.9 31.2 244.7 16.3 L 245.9 16.3 C 253 27.9 270.4 56.6 274 62.6 C 278.6 55.7 295.1 28.3 301.3 18.2 L 302.5 18.2 C 310.6 35.5 334.1 88.7 337.3 95.1 L 313.6 105.6 C 309.9 96.2 298.7 66.5 297.4 63.3 C 296 65.4 281 88.5 272.2 100.8 L 271 100.8 C 262 87.2 249.7 67.3 247.8 63.8 C 245.8 69.9 237.4 100.1 235.3 105.6 L 212.3 97.1 Z" style="fill:#ffffff;fill-opacity:1"/>
  <path id="XMLID_93_" class="st6" d="M 376.1 66.7 C 376.1 78.4 376.5 99.4 376.6 102.1 L 349.4 102.1 C 349.6 96.9 349.8 69.5 349.8 66.5 L 349.8 53.8 C 349.8 51.8 349.4 21.7 349.4 18.9 L 376.6 18.9 C 376.5 21 376.1 40 376.1 54 L 376.1 66.7 Z" style="fill:#ffffff;fill-opacity:1"/>
  <path id="XMLID_95_" class="st6" d="M 426.8 18.9 C 426.7 21.6 426.2 45.7 426.2 60.5 L 426.2 81.9 C 429 81.9 442.8 81.9 452.2 81.4 L 452.3 103.2 C 449.5 103.2 408.9 102 399.5 102 C 399.9 95.8 399.9 70.7 399.9 67.9 L 399.9 52.4 C 399.9 50.5 399.7 21.1 399.4 18.9 L 426.8 18.9 Z" style="fill:#ffffff;fill-opacity:1"/>
  <path id="XMLID_97_" class="st6" d="M 519 103.2 C 514.8 103.2 472.5 102 466.4 102 C 466.8 95.8 466.8 70.7 466.8 68 L 466.8 52.4 C 466.8 50.5 466.6 22.3 466.4 18.9 C 473 18.9 512.3 17.1 516.6 16.8 L 517.1 36.1 C 512.8 36.1 494.4 36.7 492.3 36.7 L 492.3 52.2 C 494.6 52.2 508.1 51.6 513.3 51.1 L 513.7 69.8 C 510.5 69.8 495 69.3 492.4 69.3 L 492.4 83.2 C 495.4 83.2 513.1 83.4 518.6 83 L 519 103.2 Z" style="fill:#ffffff;fill-opacity:1"/>
  <path id="XMLID_86_" class="st7" d="M 316.2 147.5 L 314.1 147.5 L 312.1 147.5 L 307.7 147.5 L 307.7 150.2 L 311.9 150.2 C 311.9 150.3 311.9 150.3 311.9 150.4 C 311.7 151.1 311.5 151.7 311.1 152.1 C 310.7 152.6 310.3 153 309.7 153.2 C 309.1 153.4 308.5 153.6 307.7 153.6 C 307 153.6 306.4 153.4 305.8 153.1 C 305.3 152.8 304.8 152.4 304.4 151.9 C 304 151.4 303.7 150.8 303.6 150.1 C 303.5 149.4 303.3 148.7 303.3 148 C 303.3 147.2 303.4 146.5 303.5 145.8 C 303.6 145.1 303.9 144.5 304.3 144.1 C 304.7 143.6 305.1 143.2 305.7 143 C 306.3 142.8 306.9 142.6 307.7 142.6 C 308.4 142.6 309 142.8 309.6 143.1 C 310.2 143.4 310.6 143.8 311 144.3 C 311.1 144.5 311.2 144.7 311.3 144.9 L 315.7 144.9 C 315.7 144.8 315.7 144.8 315.6 144.7 C 315.3 143.7 314.8 142.7 314.1 141.9 C 313.4 141.1 312.6 140.5 311.7 140 C 310.8 139.5 309.6 139.3 308.3 139.3 C 306.9 139.3 305.7 139.5 304.6 140 C 303.5 140.5 302.5 141.1 301.7 141.9 C 300.9 142.7 300.3 143.7 299.8 144.7 C 299.4 145.8 299.1 147 299.1 148.2 C 299.1 149.4 299.3 150.5 299.6 151.5 C 299.9 152.5 300.4 153.5 301 154.2 C 301.6 155 302.5 155.6 303.4 156.1 C 304.3 156.6 305.5 156.8 306.9 156.8 C 308.2 156.8 309.5 156.6 310.6 156.1 C 311.7 155.6 312.7 155 313.5 154.2 C 314.3 153.4 314.9 152.5 315.4 151.4 C 315.9 150.3 316.1 149.1 316.1 147.9 C 316.2 147.8 316.2 147.7 316.2 147.5 Z" style="fill:#ffffff;fill-opacity:1"/>
  <path id="XMLID_51_" class="st7" d="M 16.5 140.6 L 16.5 156.9 L 12.1 156.9 L 12.1 140.6 L 6.6 140.6 L 6.6 136.6 L 22.1 136.6 L 22.1 140.6 L 16.5 140.6 Z" style="fill:#ffffff;fill-opacity:1"/>
  <path id="XMLID_53_" class="st7" d="M 57.3 136.6 L 55 142.8 C 54.1 145.2 53.3 147.5 52.4 149.8 C 51.5 152.1 50.7 154.5 49.8 156.8 L 45.2 156.8 L 38.2 136.5 L 43.2 136.5 L 48.1 152.6 L 48.2 152.6 C 48.2 152.2 48.3 151.6 48.5 150.8 C 48.6 150 48.8 149.1 49.1 148.1 C 49.3 147.1 49.6 145.9 49.9 144.6 C 50.2 143.3 50.6 142 51 140.6 L 52.2 136.5 L 57.3 136.5 L 57.3 136.6 Z" style="fill:#ffffff;fill-opacity:1"/>
  <path id="XMLID_55_" class="st7" d="M 98.1 156.9 L 98.1 136.6 L 102.5 136.6 L 102.5 152.9 L 110.4 152.9 L 110.4 156.9 L 98.1 156.9 Z" style="fill:#ffffff;fill-opacity:1"/>
  <path id="XMLID_57_" class="st7" d="M 128.4 156.9 L 128.4 139.4 L 138.3 139.4 L 138.3 142.7 L 132.3 142.7 L 132.3 146.5 L 138 146.5 L 138 149.7 L 132.3 149.7 L 132.3 153.8 L 138.5 153.8 L 138.5 157.1 L 128.4 157.1 L 128.4 156.9 Z" style="fill:#ffffff;fill-opacity:1"/>
  <path id="XMLID_59_" class="st7" d="M 165.7 156.9 L 164.7 153.5 L 158.9 153.5 L 157.9 156.9 L 153.6 156.9 L 160 139.4 L 164 139.4 L 170.1 156.9 L 165.7 156.9 Z M 161.5 142.9 C 161.4 143.2 161.3 143.7 161.3 144.2 C 161.2 144.7 161.1 145.2 161 145.8 C 160.9 146.4 160.8 146.9 160.6 147.5 C 160.5 148.1 160.4 148.5 160.2 149 L 159.9 150.3 L 163.8 150.3 L 161.5 142.9 Z" style="fill:#ffffff;fill-opacity:1"/>
  <path id="XMLID_62_" class="st7" d="M 189.6 156.9 L 185.8 156.9 L 185.8 139.4 C 187.9 139.3 190.1 139.3 192.3 139.3 C 193.2 139.3 194.1 139.4 194.8 139.7 C 195.5 140 196.1 140.3 196.6 140.8 C 197.1 141.3 197.5 141.8 197.8 142.5 C 198.1 143.2 198.2 143.9 198.2 144.6 C 198.2 145.2 198.1 145.7 197.9 146.2 C 197.7 146.7 197.5 147.2 197.1 147.6 C 196.8 148 196.4 148.4 195.9 148.8 C 195.4 149.1 194.9 149.4 194.4 149.6 L 199.3 156.8 L 194.5 156.8 L 190.7 150.4 C 190.5 150.4 190.3 150.4 190.1 150.4 C 189.9 150.4 189.7 150.4 189.6 150.4 L 189.6 156.9 Z M 189.6 147.3 C 189.9 147.3 190.2 147.4 190.5 147.4 C 190.8 147.4 191.1 147.4 191.4 147.4 C 192.2 147.4 192.9 147.1 193.4 146.7 C 193.9 146.3 194.1 145.7 194.1 145 C 194.1 144.7 194 144.4 193.9 144.1 C 193.8 143.8 193.6 143.6 193.4 143.3 C 193.2 143.1 192.9 142.9 192.6 142.8 C 192.3 142.7 191.9 142.6 191.4 142.6 L 189.6 142.6 L 189.6 147.2 L 189.6 147.3 Z" style="fill:#ffffff;fill-opacity:1"/>
  <path id="XMLID_65_" class="st7" d="M 226.3 156.9 C 226.2 156.9 226.1 156.8 226 156.6 C 225.8 156.4 225.7 156.2 225.5 155.9 C 225.3 155.6 225.1 155.3 224.8 154.9 C 224.6 154.5 224.3 154.2 224.1 153.9 C 223.9 153.6 223.7 153.3 223.6 153.1 C 223.4 152.9 223.3 152.7 223.3 152.6 L 218.2 144.7 L 218.1 144.7 C 218.2 145.2 218.3 145.7 218.4 146.4 C 218.5 147.1 218.5 147.7 218.6 148.4 C 218.7 149.1 218.7 149.9 218.7 150.6 C 218.7 151.4 218.7 152.1 218.7 152.8 L 218.7 156.8 L 215 156.8 L 215 139.3 L 219.2 139.3 L 227 151.4 L 227.1 151.4 C 226.9 150.4 226.8 149.2 226.6 147.7 C 226.5 146.3 226.4 144.8 226.4 143.2 L 226.4 139.3 L 230 139.3 L 230 156.8 L 226.3 156.8 L 226.3 156.9 Z" style="fill:#ffffff;fill-opacity:1"/>
  <path id="XMLID_67_" class="st7" d="M 247 156.9 L 247 139.4 L 250.8 139.4 L 250.8 156.9 L 247 156.9 Z" style="fill:#ffffff;fill-opacity:1"/>
  <path id="XMLID_69_" class="st7" d="M 279.1 156.9 C 279 156.9 278.9 156.8 278.8 156.6 C 278.6 156.4 278.5 156.2 278.3 155.9 C 278.1 155.6 277.9 155.3 277.6 154.9 C 277.4 154.5 277.1 154.2 276.9 153.9 C 276.7 153.6 276.5 153.3 276.4 153.1 C 276.2 152.9 276.1 152.7 276.1 152.6 L 271 144.7 L 270.9 144.7 C 271 145.2 271.1 145.7 271.2 146.4 C 271.3 147.1 271.3 147.7 271.4 148.4 C 271.5 149.1 271.5 149.9 271.5 150.6 C 271.5 151.4 271.5 152.1 271.5 152.8 L 271.5 156.8 L 267.8 156.8 L 267.8 139.3 L 272 139.3 L 279.8 151.4 L 279.9 151.4 C 279.7 150.4 279.6 149.2 279.4 147.7 C 279.3 146.3 279.2 144.8 279.2 143.2 L 279.2 139.3 L 282.8 139.3 L 282.8 156.8 L 279.1 156.8 L 279.1 156.9 Z" style="fill:#ffffff;fill-opacity:1"/>
  <path id="XMLID_74_" class="st7" d="M 366.5 138.5 C 366.5 138.9 366.5 139.4 366.5 139.8 C 366.5 140.2 366.5 140.6 366.4 140.9 C 366.4 141.2 366.4 141.5 366.3 141.7 C 365.6 141.2 364.8 140.9 364 140.7 C 363.2 140.5 362.4 140.4 361.6 140.4 C 360.8 140.4 360.1 140.5 359.7 140.8 C 359.2 141.1 358.9 141.4 358.9 141.9 C 358.9 142.4 359.1 142.9 359.5 143.2 C 359.9 143.6 360.5 143.9 361.1 144.2 C 361.7 144.5 362.4 144.9 363.2 145.2 C 364 145.5 364.6 146 365.3 146.5 C 365.9 147 366.5 147.6 366.9 148.3 C 367.3 149 367.5 149.9 367.5 150.9 C 367.5 151.9 367.3 152.7 366.9 153.4 C 366.5 154.1 365.9 154.7 365.1 155.2 C 364.3 155.7 363.5 156 362.5 156.3 C 361.5 156.6 360.4 156.7 359.3 156.7 C 358.6 156.7 357.9 156.7 357.1 156.6 C 356.3 156.5 355.6 156.4 355 156.2 C 355 155.4 355 154.6 355.1 153.8 C 355.1 152.9 355.2 152.2 355.2 151.7 C 356 152.1 356.8 152.5 357.6 152.6 C 358.4 152.8 359.3 152.9 360.2 152.9 C 361.2 152.9 361.9 152.8 362.4 152.6 C 362.9 152.4 363.2 152 363.2 151.4 C 363.2 150.9 363 150.4 362.6 150.1 C 362.2 149.7 361.6 149.4 361 149 C 360.4 148.7 359.7 148.3 358.9 147.9 C 358.1 147.5 357.5 147.1 356.8 146.6 C 356.2 146.1 355.6 145.5 355.2 144.8 C 354.8 144.1 354.6 143.3 354.6 142.3 C 354.6 141.4 354.8 140.5 355.2 139.8 C 355.6 139.1 356.2 138.5 357 138 C 357.7 137.5 358.6 137.1 359.6 136.9 C 360.6 136.7 361.6 136.5 362.7 136.5 C 363.3 136.5 364 136.5 364.7 136.6 C 365.4 136.7 366.1 136.8 366.6 137 C 366.5 137.6 366.5 138 366.5 138.5 Z" style="fill:#ffffff;fill-opacity:1"/>
  <path id="XMLID_76_" class="st7" d="M 395.6 156.9 L 395.6 149.6 L 389.7 139.3 L 394.1 139.3 L 397.8 146.6 C 397.8 146.5 397.9 146.2 398.1 145.9 C 398.3 145.5 398.5 145.1 398.7 144.6 C 398.9 144.1 399.2 143.6 399.4 143.1 C 399.7 142.6 399.9 142.1 400.1 141.7 L 401.3 139.4 L 405.7 139.4 L 403.9 142.2 C 403.2 143.3 402.4 144.5 401.6 145.7 C 400.8 146.9 400.1 147.9 399.4 148.9 L 399.4 157 L 395.6 157 L 395.6 156.9 Z" style="fill:#ffffff;fill-opacity:1"/>
  <path id="XMLID_78_" class="st7" d="M 430.1 140.9 C 430.1 141.3 430.1 141.7 430.1 142 C 430.1 142.3 430.1 142.7 430 143 C 430 143.3 430 143.5 429.9 143.7 C 429.3 143.3 428.6 143 427.9 142.8 C 427.2 142.7 426.5 142.6 425.8 142.6 C 425.1 142.6 424.5 142.7 424.1 142.9 C 423.7 143.1 423.4 143.5 423.4 143.9 C 423.4 144.4 423.6 144.7 424 145.1 C 424.4 145.4 424.8 145.7 425.4 146 C 426 146.3 426.6 146.6 427.2 146.9 C 427.9 147.2 428.5 147.6 429 148 C 429.5 148.4 430 149 430.4 149.6 C 430.8 150.2 431 151 431 151.9 C 431 152.7 430.8 153.5 430.4 154.1 C 430 154.7 429.5 155.3 428.9 155.7 C 428.3 156.1 427.5 156.4 426.6 156.6 C 425.7 156.8 424.8 156.9 423.8 156.9 C 423.2 156.9 422.6 156.9 421.9 156.8 C 421.2 156.7 420.6 156.6 420.1 156.4 C 420.1 155.7 420.1 155 420.2 154.3 C 420.2 153.5 420.3 152.9 420.3 152.5 C 421 152.9 421.7 153.2 422.4 153.3 C 423.1 153.5 423.9 153.5 424.6 153.5 C 425.4 153.5 426.1 153.4 426.5 153.2 C 426.9 153 427.1 152.7 427.1 152.2 C 427.1 151.7 426.9 151.4 426.5 151 C 426.1 150.7 425.7 150.4 425.1 150.1 C 424.5 149.8 423.9 149.5 423.3 149.2 C 422.7 148.9 422 148.5 421.5 148.1 C 420.9 147.7 420.5 147.2 420.1 146.6 C 419.7 146 419.5 145.3 419.5 144.4 C 419.5 143.6 419.7 142.9 420.1 142.2 C 420.5 141.6 421 141 421.6 140.6 C 422.2 140.2 423 139.8 423.8 139.6 C 424.6 139.4 425.5 139.3 426.5 139.3 C 427 139.3 427.6 139.3 428.2 139.4 C 428.8 139.5 429.4 139.6 429.8 139.8 C 430.1 140.2 430.1 140.5 430.1 140.9 Z" style="fill:#ffffff;fill-opacity:1"/>
  <path id="XMLID_80_" class="st7" d="M 454.1 142.8 L 454.1 156.9 L 450.2 156.9 L 450.2 142.8 L 445.4 142.8 L 445.4 139.4 L 458.8 139.4 L 458.8 142.8 L 454.1 142.8 Z" style="fill:#ffffff;fill-opacity:1"/>
  <path id="XMLID_82_" class="st7" d="M 472.9 156.9 L 472.9 139.4 L 482.8 139.4 L 482.8 142.7 L 476.8 142.7 L 476.8 146.5 L 482.5 146.5 L 482.5 149.7 L 476.8 149.7 L 476.8 153.8 L 483 153.8 L 483 157.1 L 472.9 157.1 L 472.9 156.9 Z" style="fill:#ffffff;fill-opacity:1"/>
  <path id="XMLID_84_" class="st7" d="M 499.5 139.3 L 503.9 139.3 L 508.1 152.1 L 508.2 152.1 C 508.2 152 508.3 151.7 508.3 151.4 C 508.4 151 508.5 150.6 508.6 150 C 508.7 149.5 508.9 148.9 509.1 148.2 C 509.3 147.5 509.5 146.8 509.7 146.1 L 510.2 144.5 C 510.4 143.9 510.6 143.4 510.7 142.9 C 510.9 142.4 511 142 511.2 141.6 C 511.3 141.2 511.5 140.8 511.6 140.4 C 511.7 140 511.9 139.6 512 139.2 L 516.3 139.2 L 518.3 156.7 L 514.3 156.7 L 513.2 144.3 C 513.2 144.4 513.2 144.6 513.1 145 C 513 145.4 512.9 145.9 512.7 146.4 C 512.5 146.9 512.4 147.6 512.2 148.2 C 512 148.8 511.8 149.5 511.6 150.2 L 511.1 151.8 C 510.8 152.6 510.6 153.4 510.3 154.2 C 510 155 509.7 155.8 509.4 156.6 L 505.8 156.6 L 501.9 144.3 L 501.8 144.3 C 501.8 144.4 501.8 144.8 501.8 145.4 C 501.8 146 501.8 146.7 501.7 147.5 C 501.7 148.3 501.6 149.2 501.6 150.2 C 501.6 151.2 501.5 152.1 501.5 152.9 L 501.3 156.8 L 497.2 156.8 L 499.5 139.3 Z" style="fill:#ffffff;fill-opacity:1"/>
</svg>