<?xml version="1.0" encoding="UTF-8" standalone="no"?>
<svg
   width="345"
   height="70"
   viewBox="0 0 345 70"
   fill="none"
   version="1.1"
   id="svg60"
   sodipodi:docname="logo (1).svg"
   inkscape:version="1.2.2 (732a01da63, 2022-12-09)"
   xmlns:inkscape="http://www.inkscape.org/namespaces/inkscape"
   xmlns:sodipodi="http://sodipodi.sourceforge.net/DTD/sodipodi-0.dtd"
   xmlns="http://www.w3.org/2000/svg"
   xmlns:svg="http://www.w3.org/2000/svg">
  <defs
     id="defs64" />
  <sodipodi:namedview
     id="namedview62"
     pagecolor="#ffffff"
     bordercolor="#666666"
     borderopacity="1.0"
     inkscape:pageshadow="2"
     inkscape:pageopacity="0.0"
     inkscape:pagecheckerboard="0"
     showgrid="false"
     inkscape:lockguides="true"
     inkscape:zoom="4"
     inkscape:cx="113.75"
     inkscape:cy="94.5"
     inkscape:window-width="1920"
     inkscape:window-height="1009"
     inkscape:window-x="-8"
     inkscape:window-y="-8"
     inkscape:window-maximized="1"
     inkscape:current-layer="svg60"
     inkscape:showpageshadow="0"
     inkscape:deskcolor="#d1d1d1" />
  <g
     id="g887">
    <path
       id="rect885"
       style="fill:#ffffff;fill-opacity:1;fill-rule:evenodd;stroke-width:16.0135;stroke-linecap:square;paint-order:markers stroke fill;stop-color:#000000"
       d="M 0 0 L 0 70 L 70 70 L 70 0 L 43.029297 0 A 8.0568492 8.0568484 0 0 1 43.046875 0.40039062 A 8.0568492 8.0568484 0 0 1 34.990234 8.4570312 A 8.0568492 8.0568484 0 0 1 26.933594 0.40039062 A 8.0568492 8.0568484 0 0 1 26.986328 0 L 0 0 z M 56.566406 32.744141 A 5.9514499 5.9514494 0 0 1 62.517578 38.697266 A 5.9514499 5.9514494 0 0 1 56.566406 44.648438 A 5.9514499 5.9514494 0 0 1 50.615234 38.697266 A 5.9514499 5.9514494 0 0 1 56.566406 32.744141 z M 15.789062 33.636719 L 22.300781 33.636719 L 22.300781 41.845703 L 30.509766 41.845703 L 30.509766 48.357422 L 22.300781 48.357422 L 22.300781 56.566406 L 15.789062 56.566406 L 15.789062 48.357422 L 7.5800781 48.357422 L 7.5800781 41.845703 L 15.789062 41.845703 L 15.789062 33.636719 z M 67.761719 39.275391 L 67.894531 39.275391 L 67.894531 39.335938 L 67.761719 39.335938 L 67.761719 39.275391 z M 45.892578 45.533203 A 5.9514499 5.9514494 0 0 1 51.84375 51.484375 A 5.9514499 5.9514494 0 0 1 45.892578 57.435547 A 5.9514499 5.9514494 0 0 1 39.941406 51.484375 A 5.9514499 5.9514494 0 0 1 45.892578 45.533203 z " />
  </g>
  <g
     aria-label="WASM-4"
     transform="matrix(0.95579752,0,0,1.0253363,-25.68996,-12.999999)"
     id="text13293"
     style="font-weight:bold;font-size:62.6307px;line-height:1.25;font-family:Cantarell;-inkscape-font-specification:'Cantarell Bold';text-align:center;letter-spacing:0px;word-spacing:0px;text-anchor:middle;fill:#ffffff;fill-opacity:1;stroke-width:2.9358">
    <path
       d="m 128.04523,68.546761 h 8.5804 l 9.45724,-32.818487 10.2088,32.818487 h 8.39252 l 12.6514,-43.465706 h -8.14199 l -8.51778,32.755856 -9.70776,-32.505333 h -8.89356 l -9.3946,33.194271 -8.26725,-33.444794 h -9.20672 z"
       id="path828"
       style="fill:#ffffff;fill-opacity:1" />
    <path
       d="m 177.58599,68.546761 h 8.58041 l 3.56995,-10.897742 h 16.65976 l 3.50732,10.897742 h 8.95619 L 203.82826,25.081055 h -10.3967 z m 14.46769,-18.100272 6.01255,-18.413426 6.01255,18.413426 z"
       id="path830"
       style="fill:#ffffff;fill-opacity:1" />
    <path
       d="m 235.83245,69.173068 c 10.58458,0 16.97291,-5.260979 16.97291,-13.40297 0,-15.720306 -22.8602,-10.271435 -22.8602,-19.039733 0,-3.319427 3.00627,-5.198348 8.45514,-5.198348 3.56995,0 7.51569,0.688938 10.64722,1.878921 l 2.31734,-6.388331 c -3.69521,-1.628398 -8.20462,-2.567859 -12.52614,-2.567859 -10.33407,0 -17.28607,5.32361 -17.28607,13.528231 0,14.843476 22.79757,9.958282 22.79757,18.78921 0,3.194166 -2.81838,5.135717 -8.14199,5.135717 -3.94573,0 -8.7683,-0.876829 -13.08982,-2.69312 l -2.31733,6.513593 c 4.63467,2.129444 10.02091,3.444689 15.03137,3.444689 z"
       id="path832"
       style="fill:#ffffff;fill-opacity:1" />
    <path
       d="m 259.82,68.546761 h 7.82884 V 39.360855 l 11.46142,22.484421 h 6.20044 l 11.64931,-23.29862 v 30.000105 h 7.82883 V 25.081055 h -7.82883 L 282.61758,53.26487 267.7741,25.081055 H 259.82 Z"
       id="path834"
       style="fill:#ffffff;fill-opacity:1" />
    <path
       d="m 313.49446,55.707467 h 18.47605 v -6.513592 h -18.47605 z"
       id="path836"
       style="fill:#ffffff;fill-opacity:1" />
    <path
       d="m 357.64906,68.985175 h 7.82884 V 59.52794 h 7.70358 v -6.701485 h -7.70358 v -27.7454 h -7.64095 l -20.98128,30.250628 v 4.196257 h 20.79339 z M 345.43608,52.763824 357.64906,34.41303 v 18.350794 z"
       id="path838"
       style="fill:#ffffff;fill-opacity:1" />
  </g>
</svg>
