<?xml version="1.0" encoding="utf-8"?>
<!-- Generator: Adobe Illustrator 25.0.0, SVG Export Plug-In . SVG Version: 6.00 Build 0)  -->
<svg version="1.1" id="Layer_1" xmlns="http://www.w3.org/2000/svg" xmlns:xlink="http://www.w3.org/1999/xlink" x="0px" y="0px"
	 viewBox="0 0 3840 879.9" style="enable-background:new 0 0 3840 879.9;" xml:space="preserve">
<style type="text/css">
	.st0{fill:#0079D7;}
	.st1{fill:#FFFFFF;}
</style>
<g>
	<g>
		<path class="st1" d="M1742.6,205.9l-137.8,487.9h-67l-100.4-356.6c-4.3-15.2-6.9-31.8-7.8-49.7h-1.4c-1.4,16.8-4.3,33.1-8.8,49
			l-101.1,357.3H1252l-142.9-487.9h63l103.8,374.2c4.3,15.7,7,32,8.2,49h1.7c1.1-12,4.6-28.3,10.5-49l107.8-374.2h54.8l103.4,376.9
			c3.6,12.9,6.4,28.1,8.2,45.6h1.4c0.9-11.8,4-27.4,9.2-46.9l99.7-375.6H1742.6z"/>
		<path class="st1" d="M1825.8,256.9c-10,0-18.5-3.4-25.5-10.2c-7-6.8-10.5-15.5-10.5-25.9c0-10.4,3.5-19.1,10.5-26
			c7-6.9,15.5-10.4,25.5-10.4c10.2,0,18.9,3.5,26,10.4c7.1,6.9,10.7,15.6,10.7,26c0,10-3.6,18.5-10.7,25.5
			C1844.6,253.4,1836,256.9,1825.8,256.9z M1853,693.8h-55.8V345.3h55.8V693.8z"/>
		<path class="st1" d="M2244.7,693.8h-55.8V495.1c0-74-27-110.9-81-110.9c-27.9,0-51,10.5-69.2,31.5c-18.2,21-27.4,47.5-27.4,79.4
			v198.7h-55.8V345.3h55.8v57.9h1.4c26.3-44,64.4-66,114.3-66c38.1,0,67.2,12.3,87.4,36.9c20.2,24.6,30.3,60.2,30.3,106.7V693.8z"/>
		<path class="st1" d="M2636.7,693.8h-55.8v-59.2h-1.4c-25.9,44.9-65.8,67.3-119.8,67.3c-43.8,0-78.8-15.6-105-46.8
			c-26.2-31.2-39.3-73.6-39.3-127.4c0-57.6,14.5-103.8,43.6-138.5c29-34.7,67.7-52.1,116-52.1c47.9,0,82.7,18.9,104.5,56.5h1.4V178
			h55.8V693.8z M2580.9,536.3v-51.4c0-28.1-9.3-51.9-27.9-71.4c-18.6-19.6-42.2-29.3-70.8-29.3c-34,0-60.8,12.5-80.3,37.5
			c-19.5,24.9-29.3,59.4-29.3,103.4c0,40.1,9.4,71.8,28.1,95.1c18.7,23.2,43.8,34.8,75.4,34.8c31.1,0,56.3-11.2,75.7-33.7
			C2571.2,598.9,2580.9,570.5,2580.9,536.3z"/>
		<path class="st1" d="M2884.8,701.9c-51.5,0-92.6-16.3-123.3-48.8c-30.7-32.6-46.1-75.7-46.1-129.5c0-58.5,16-104.2,48-137.1
			c32-32.9,75.2-49.3,129.6-49.3c52,0,92.5,16,121.6,48c29.1,32,43.7,76.3,43.7,133c0,55.6-15.7,100.1-47.1,133.5
			C2979.8,685.2,2937.6,701.9,2884.8,701.9z M2888.9,384.1c-35.8,0-64.2,12.2-85.1,36.6c-20.9,24.4-31.3,58-31.3,100.9
			c0,41.3,10.6,73.8,31.6,97.7c21.1,23.8,49.3,35.7,84.7,35.7c36.1,0,63.8-11.7,83.2-35.1c19.4-23.3,29.1-56.6,29.1-99.6
			c0-43.6-9.7-77.2-29.1-100.8C2952.7,396,2924.9,384.1,2888.9,384.1z"/>
		<path class="st1" d="M3575.9,345.3l-104.5,348.4h-57.8l-71.8-249.4c-2.7-9.5-4.6-20.3-5.5-32.3h-1.4c-0.7,8.2-3.1,18.7-7.1,31.6
			L3250,693.8h-55.8l-105.5-348.4h58.5l72.1,262c2.3,7.9,3.9,18.4,4.8,31.3h2.7c0.7-10,2.7-20.7,6.1-32l80.3-261.3h51l72.1,262.7
			c2.3,8.4,4,18.8,5.1,31.3h2.7c0.5-8.8,2.4-19.2,5.8-31.3l70.8-262.7H3575.9z"/>
		<path class="st1" d="M3609,681.2v-59.9c30.4,22.4,63.9,33.7,100.4,33.7c49,0,73.5-16.3,73.5-49c0-9.3-2.1-17.2-6.3-23.7
			c-4.2-6.4-9.9-12.2-17-17.2c-7.1-5-15.5-9.4-25.2-13.4c-9.6-3.9-20-8.1-31.1-12.4c-15.4-6.1-29-12.3-40.7-18.5
			c-11.7-6.2-21.4-13.3-29.3-21.1c-7.8-7.8-13.7-16.7-17.7-26.7c-4-10-5.9-21.6-5.9-35.1c0-16.3,3.7-30.8,11.2-43.4
			c7.5-12.6,17.5-23.1,29.9-31.6c12.5-8.5,26.7-14.9,42.7-19.2c16-4.3,32.5-6.5,49.5-6.5c30.2,0,57.1,5.2,81,15.7v56.5
			c-25.6-16.8-55.1-25.2-88.4-25.2c-10.4,0-19.8,1.2-28.2,3.6c-8.4,2.4-15.6,5.8-21.6,10.1c-6,4.3-10.7,9.5-14,15.5
			c-3.3,6-4.9,12.7-4.9,19.9c0,9.1,1.7,16.7,4.9,22.8c3.3,6.1,8.1,11.6,14.5,16.3c6.3,4.8,14.1,9.1,23.1,12.9
			c9.1,3.8,19.4,8,31,12.6c15.4,5.9,29.3,12,41.5,18.2c12.2,6.2,22.7,13.3,31.3,21.1c8.6,7.8,15.3,16.8,19.9,27
			c4.6,10.2,7,22.4,7,36.4c0,17.3-3.8,32.2-11.4,44.9c-7.6,12.7-17.8,23.3-30.5,31.6c-12.7,8.4-27.3,14.7-43.9,18.7
			c-16.5,4.1-33.9,6.1-52.1,6.1C3666.4,701.9,3635.3,695,3609,681.2z"/>
	</g>
	<g>
		<g>
			<polygon class="st1" points="359.7,438.9 0,438.9 0,741.8 359.7,798 			"/>
			<polygon class="st1" points="387.1,438.9 387.1,802.3 883.2,879.9 883.2,438.9 			"/>
		</g>
		<g>
			<polygon class="st1" points="359.7,80.6 0,135.9 0,411.5 359.7,411.5 			"/>
			<polygon class="st1" points="387.1,76.3 387.1,411.5 883.2,411.5 883.2,0 			"/>
		</g>
	</g>
</g>
</svg>
